<svg width="98" height="191" viewBox="0 0 98 191" fill="none" xmlns="http://www.w3.org/2000/svg">
<g clip-path="url(#clip0)">
<path d="M98.4259 184.49C98.052 179.487 98.0836 174.456 98.3046 169.445C98.0577 139.871 97.9932 110.294 97.9932 80.718C97.9932 56.5757 98.0373 32.4324 98.1872 8.29005C95.7777 7.85045 88.5 6.72925 84.7958 8.44475C83.3267 9.12482 81.512 9.51234 79.6538 9.69987C79.9475 9.51344 80.2345 9.34035 80.4979 9.19681C81.9507 8.40318 86.6728 5.61199 92.5446 6.87564C95.7527 7.56556 97.3741 7.96905 98.1878 8.19399C98.1898 7.88502 98.1913 7.57628 98.1933 7.26753C96.8669 6.59709 95.303 5.82205 93.5849 5.00106C88.4405 2.54138 79.257 4.72754 76.6235 8.77341C76.3819 9.14495 76.1504 9.49374 75.9232 9.83247C73.4774 9.77273 71.3313 9.44823 70.2676 9.09069C70.2676 9.09069 72.4815 9.86923 75.7518 10.0876C74.9394 11.2895 74.2196 12.2897 73.5779 13.146C70.3606 14.6477 66.375 17.5863 64.5517 21.9158C60.7494 26.2807 55.3391 34.6422 56.1475 45.5466C55.7635 46.6069 55.3805 47.5969 55.0123 48.4607C53.2818 52.525 48.5861 59.4218 48.5674 70.1876C47.7313 71.8209 47.1787 73.593 47.121 75.4814C45.8362 78.0168 44.4177 80.8692 43.632 84.4593C43.632 84.4593 44.9615 85.3287 38.9393 88.1855C32.9178 91.0421 32.1514 92.6296 30.6187 96.4304C30.3161 97.1803 30.2077 97.943 30.2419 98.6964C24.6305 101.026 20.3456 106.391 19.5983 111.723C19.5983 111.723 21.4275 104.489 26.6603 101.552C27.8992 100.857 29.1437 100.211 30.3501 99.606C30.496 100.359 30.7712 101.092 31.1268 101.782C29.3002 102.465 27.7155 103.047 26.1676 105.599C25.1886 107.212 24.4934 108.416 24.0266 109.47C22.454 110.809 21.2533 112.184 20.8574 113.508C20.8574 113.508 21.9523 111.818 23.7606 110.123C23.4088 111.071 23.2521 111.935 23.246 112.934C21.945 114.059 20.5019 115.447 19.0438 116.993C15.6722 118.513 9.78698 121.808 7.28075 127.144C7.28075 127.144 6.42991 129.415 5.34842 132.885C4.59589 134.868 3.94892 137.083 3.45097 139.553C2.26808 144.165 1.2048 149.424 0.942331 154.157C-0.465062 179.555 0.109919 190.806 0.109919 190.806L7.35207 190.915L46.0397 190.839H57.8018C57.8128 190.866 57.8222 190.895 57.8328 190.921H74.8837L74.8876 190.839H76.2202C76.426 191.154 76.5597 191.455 76.6172 191.933C76.6172 191.933 76.5759 191.464 76.4624 190.839H77.7553C77.7434 191.071 77.7219 191.308 77.6851 191.547C77.6851 191.547 77.8266 191.253 78.0026 190.839H79.1197C79.1282 190.971 79.1298 191.097 79.1219 191.211C79.1219 191.211 79.1989 191.067 79.3018 190.839H91.186L93.4291 190.838C93.4444 190.923 93.4488 190.96 93.4488 190.96H98.4795C98.4551 188.443 98.4376 186.212 98.4259 184.49ZM31.786 98.8936C35.0788 97.2759 37.9076 95.9606 39.2239 94.7674C39.2239 94.7674 40.3379 94.9171 36.1037 98.8603C34.6021 100.258 33.2685 100.933 32.0463 101.427C31.8253 100.657 31.7441 99.7931 31.786 98.8936ZM26.3577 110.595C25.6205 111.029 24.7133 111.698 23.7038 112.545C23.9467 111.476 24.3995 110.204 25.2251 108.892C26.2642 108.117 27.4506 107.44 28.7408 107.054C29.8886 106.71 30.8792 106.367 31.7305 106.039C30.0088 107.108 28.0427 108.605 26.3577 110.595ZM25.7379 108.123C27.7346 105.185 28.1399 104.048 31.5565 102.536C31.8361 102.983 32.1431 103.406 32.4646 103.795C30.3982 105.041 27.9003 106.534 25.7379 108.123ZM36.3295 101.238C35.7637 101.767 34.5874 102.508 33.1238 103.396C33.0198 103.269 32.9151 103.138 32.808 102.999C32.6233 102.758 32.4685 102.491 32.3358 102.206C32.5427 102.122 32.7562 102.036 32.9834 101.948C35.8021 100.859 38.0198 99.0791 39.5773 97.3772C38.5344 98.7859 37.3225 100.308 36.3295 101.238ZM43.6054 87.4614C41.6283 90.3572 36.8557 96.6693 31.9403 98.0969C31.9107 98.1056 31.8815 98.1155 31.8523 98.1244C32.2416 94.8748 34.0985 91.4296 36.5305 90.6323C40.3629 89.3756 43.6476 87.2332 43.6476 87.2332C43.6476 87.2332 43.6471 87.2337 43.6054 87.4614ZM47.7521 74.2298C47.9349 73.3598 48.2005 72.4187 48.5872 71.4885C48.5907 71.595 48.5911 71.699 48.5957 71.8062C48.5957 71.8062 48.6008 71.6672 48.6128 71.4255C48.8817 70.7887 49.21 70.16 49.605 69.5647C49.2537 71.0931 48.5613 72.6073 47.7521 74.2298ZM49.8394 68.0785C49.4305 68.6691 49.0509 69.2833 48.7109 69.918C48.9664 66.633 49.7477 59.8684 51.9857 56.2923C51.9857 56.2923 50.3622 63.4123 49.8394 68.0785ZM76.7513 9.55063C77.5644 8.36007 79.8742 6.00542 83.567 5.26539C87.2596 4.52514 89.6862 3.0615 97.4478 7.4509C97.4478 7.4509 90.1773 4.69647 84.796 6.87542C82.3652 7.85986 80.5565 8.88566 79.2838 9.73444C78.3628 9.8143 77.4362 9.84603 76.5393 9.84122C76.6262 9.72656 76.6984 9.62788 76.7513 9.55063ZM63.7016 24.9232C62.1726 27.0662 60.3304 30.048 59.8555 32.5313C59.2404 35.7488 57.9232 40.4377 56.5529 44.3993C57.1358 39.9907 58.8855 30.8268 63.786 24.4514C63.7558 24.6079 63.7255 24.7641 63.7016 24.9232ZM63.9833 24.5326C64.0209 24.3722 64.0626 24.2085 64.1078 24.0414C64.6683 23.3464 65.2667 22.6869 65.9084 22.0753C65.9084 22.0753 65.0552 23.0628 63.9833 24.5326ZM74.2106 99.5098C74.1511 99.2809 74.1239 99.1537 74.1239 99.1537C74.2126 99.3441 74.3322 99.5971 74.4687 99.8776C74.4862 99.9485 74.5132 100.029 74.5481 100.118C74.434 99.9146 74.3212 99.7115 74.2106 99.5098ZM77.6438 104.956C77.1849 104.326 76.7473 103.69 76.3292 103.051C76.7344 103.633 77.1867 104.26 77.6682 104.911C77.6568 104.932 77.6486 104.947 77.6438 104.956ZM78.2717 149.975C78.1949 150.088 78.1189 150.189 78.0439 150.279C78.0439 150.279 78.0439 150.279 78.0434 150.28C78.1196 150.167 78.1971 150.051 78.2761 149.931L78.2717 149.975ZM66.6945 19.6738C66.2767 20.0666 65.7816 20.5605 65.2402 21.1467C66.3083 19.0944 68.0624 16.9411 70.9483 15.2374C71.6297 14.8352 72.2322 14.4943 72.7709 14.202C72.0731 15.1013 71.4781 15.8326 70.965 16.496C70.965 16.496 71.9207 15.3888 73.0628 14.0459C76.9964 11.9532 77.2029 12.7083 78.6024 12.2655C75.7075 13.6943 69.7345 16.8181 66.6945 19.6738ZM78.8056 106.481C78.8056 106.481 78.8091 106.465 78.8142 106.44C79.1214 106.845 79.4339 107.252 79.7478 107.658C79.4453 107.28 79.1339 106.891 78.8056 106.481ZM75.5339 12.3696C75.0542 12.523 74.5297 12.7228 73.9793 12.9641C74.8841 11.8913 75.7786 10.8158 76.3249 10.1193C77.0853 10.1526 77.8949 10.1535 78.7424 10.1073C77.4447 11.0303 76.8612 11.6668 76.8612 11.6668C76.8612 11.6668 77.9243 10.8508 79.0602 10.0883C80.9484 9.96047 83.007 9.59505 85.0991 8.82614C85.0986 8.82614 80.0133 10.9416 75.5339 12.3696ZM85.8112 115.213C85.768 115.16 85.7217 115.102 85.6751 115.044C85.8156 115.075 86.6862 115.258 87.6441 115.355C87.0143 115.307 86.3967 115.258 85.8112 115.213ZM88.2375 115.401C88.3936 115.409 88.5483 115.414 88.6993 115.414C89.3752 115.414 90.259 115.518 91.2663 115.628C90.3016 115.557 89.2629 115.479 88.2375 115.401Z" fill="white"/>
<path d="M95.4648 115.896C95.5305 115.897 95.5912 115.898 95.6514 115.898L95.6509 115.899C95.6051 115.899 95.5412 115.898 95.4648 115.896Z" fill="white"/>
<path d="M63.6086 28.0255C63.6086 28.0255 63.6075 28.0099 63.6064 27.9869C63.6073 27.9999 63.6073 28.0123 63.6086 28.0255Z" fill="white"/>
<path d="M98.4255 184.489C98.0516 179.487 98.0832 174.456 98.3042 169.445C98.2232 159.743 98.1624 150.04 98.1167 140.337L97.6208 139.993L86.574 137.449L83.6138 191.024H98.4255C98.4025 188.585 98.4369 186.169 98.4255 184.489Z" fill="#FB5607"/>
<path d="M98.0336 117.072C97.3678 117.404 96.9561 117.644 96.9561 117.644C96.9561 117.644 97.4347 119.009 98.0448 121.092C98.0411 119.752 98.0369 118.412 98.0336 117.072Z" fill="#EF271B"/>
<path d="M13.377 156.171V190.915L60.0221 191.024L60.2996 145.244L14.8465 153.204L13.377 156.171Z" fill="#FF7900"/>
<path d="M15.8011 190.915H22.9335C22.9335 190.915 16.6649 173.987 24.1467 164.014C24.1467 164.014 28.2131 176.467 47.8613 180.284C67.5094 184.101 52.6417 169.008 52.6417 169.008L20.7942 147.916L13.377 159.641V190.915" fill="#FB5607"/>
<path d="M98.1737 150.826C97.9334 150.741 97.7974 150.698 97.7974 150.698L98.1884 153.361C98.1832 152.516 98.1788 151.671 98.1737 150.826Z" fill="#FF7900"/>
<path d="M97.9927 80.718C97.9927 62.0565 98.0201 43.3945 98.1009 24.7328L92.1487 25.3199L72.1509 43.7862L72.8512 83.1853L78.3219 94.9945L91.8388 105.424L98.0096 104.933C97.9977 96.8614 97.9927 88.7896 97.9927 80.718Z" fill="#E0E0E0"/>
<path d="M71.8412 89.5723C71.8412 89.5723 74.5147 100.063 81.0243 108.455C87.5343 116.847 88.6128 118.203 88.6128 118.203C88.6128 118.203 81.237 118.364 77.6736 116.657C74.1109 114.95 70.0667 110.532 68.7919 106.549C67.5168 102.565 71.8412 89.5723 71.8412 89.5723Z" fill="#FF7900"/>
<path d="M98.0987 136.198C94.9652 136.442 88.8814 136.227 86.1232 131.418C84.0518 127.807 83.6152 120.318 84.1553 116.653L77.0885 114.87C77.0885 114.87 75.9228 128.785 83.2437 134.643C86.3444 137.124 92.4053 141.809 96.4437 140.702C97.053 140.535 97.6049 140.371 98.1162 140.216C98.1099 138.877 98.1044 137.538 98.0987 136.198Z" fill="#EF271B"/>
<path d="M98.1122 139.141C98.073 139.187 98.033 139.232 97.9981 139.283C97.3334 140.27 97.654 143.546 98.1507 146.828C98.1366 144.266 98.1239 141.703 98.1122 139.141Z" fill="#EF271B"/>
<path d="M26.8573 117.849C26.8573 117.849 16.7942 121.221 13.3768 128.727C13.3768 128.727 8.00402 143.52 7.38251 155.086C6.05127 179.87 6.69342 190.915 6.69342 190.915H18.1053C12.7206 170.798 17.5744 156.357 21.6226 151.985C21.6226 151.985 25.2221 165.11 33.7453 168.117C33.7453 168.117 28.2886 164.929 27.8227 160.128C27.8227 160.128 31.4083 167.252 36.8381 169.11C36.8381 169.11 31.7245 165.323 31.3268 160.789C31.3268 160.789 33.4148 165.548 37.6084 165.548C37.6084 165.548 37.0071 171.707 40.4142 179.391C40.4142 179.391 39.4923 174.429 40.4142 170.298C40.4142 170.298 40.5176 176.286 42.8686 182.068C42.8686 182.068 42.0709 174.529 42.8686 171.82C42.8686 171.82 45.3751 176.235 47.3943 177.164C47.3943 177.164 46.47 185.852 40.9521 187.78C40.9521 187.78 43.0475 189.295 47.8613 182.068C47.8613 182.068 47.4224 188.676 44.6899 189.425C44.6899 189.425 49.8602 188.469 52.3552 184.288L50.1463 191.134L63.9723 191.024L78.0041 190.881L81.2001 129.269L76.6772 116.226C76.6772 116.226 73.6421 114.569 68.7925 107.984C63.9422 101.398 26.8573 117.849 26.8573 117.849Z" fill="#EF271B"/>
<path d="M82.3484 131.53C82.3484 131.53 85.3517 135.534 89.4567 135.879C89.4567 135.879 91.7382 146.432 88.5451 155.467C85.3517 164.501 84.7019 171.001 86.2974 175.215C87.8931 179.43 91.8938 185.855 92.7213 191.024H76.8105L82.3484 131.53Z" fill="#EF271B"/>
<path d="M98.1869 153.102C97.0255 147.947 96.4406 141.132 96.4406 141.132H95.2876C95.5984 143.993 96.4268 148.713 96.4406 149.705C96.4496 150.311 97.37 154.829 98.2266 159.12C98.2128 157.114 98.1992 155.108 98.1869 153.102Z" fill="#FB5607"/>
<path d="M76.597 101.305C76.597 101.305 77.6364 106.329 80.9737 110.149C80.9737 110.149 76.0596 107.125 75.0595 103.785C75.0595 103.785 76.4996 109.323 78.7486 111.079C78.7486 111.079 75.7185 108.934 74.4228 106.65C74.4228 106.65 74.7856 110.769 76.597 112.886C76.597 112.886 75.9654 114.698 76.0479 116.915L67.8799 111.334L71.4896 95.2467L73.3499 87.8616L77.14 99.721L76.597 101.305Z" fill="#FB5607"/>
<path d="M67.6602 128.061C67.6602 128.061 54.788 175.315 61.3389 191.024H78.3471L80.3781 149.646L78.802 135.163L78.0488 114.87C78.0488 114.87 72.8586 113.707 68.6759 109.155C64.4932 104.602 67.6602 128.061 67.6602 128.061Z" fill="#BA1713"/>
<path d="M29.842 139.058C29.842 139.058 12.6006 150.443 19.901 168.007C19.901 168.007 17.7786 155.759 22.4901 150.765C22.4901 150.765 18.1922 155.664 20.2115 165.197C20.2115 165.197 20.0563 154.51 25.0266 151.689C25.0266 151.689 20.7296 157.488 22.4899 162.315C22.4899 162.315 22.2305 154.52 27.9779 150.765C33.7251 147.009 32.535 141.692 32.535 141.692L29.842 139.058Z" fill="#BA1713"/>
<path d="M24.5608 120.423C24.5608 120.423 13.377 125.666 13.377 136.337C13.377 147.009 13.377 151.689 13.377 151.689C13.377 151.689 15.035 133.561 32.0687 130.451C49.103 127.34 31.357 118.206 31.357 118.206L24.5608 120.423Z" fill="#BA1713"/>
<path d="M32.0686 133.467C32.0686 133.467 16.4835 136.168 14.9302 153.359C14.9302 153.359 16.1218 139.449 32.0686 136.337C48.0154 133.225 32.0686 133.467 32.0686 133.467Z" fill="#BA1713"/>
<path d="M98.4259 184.489C98.0519 179.487 98.0835 174.456 98.3045 169.445C98.2782 166.302 98.2556 163.159 98.2332 160.016C97.7445 156.947 97.1967 153.667 96.5811 150.181C96.5811 150.181 92.4878 146.389 91.7646 143.602C91.7646 143.602 92.802 151.852 91.042 157.329C89.2817 162.806 87.4174 170.399 91.042 179.612C94.6661 188.825 94.8735 190.89 94.8735 190.89H98.4783C98.4548 188.401 98.4375 186.196 98.4259 184.489Z" fill="#FF7900"/>
<path d="M72.936 128.962C77.9079 132.796 83.1749 136.515 89.1003 138.922C91.7338 140.016 94.6265 141.13 97.7689 140.259" stroke="#FCFCFC" stroke-width="4" stroke-miterlimit="10"/>
<path d="M98.0099 104.694C96.1906 104.656 91.804 104.506 91.4544 103.954C91.0125 103.257 77.3731 95.2467 77.3731 95.2467C77.3731 95.2467 76.3631 99.6952 76.923 102.011C77.4824 104.326 87.5029 116.806 87.5029 116.806C87.5029 116.806 89.0913 117.172 90.3815 117.172C91.6721 117.172 93.7601 117.583 95.9966 117.628C97.3474 117.655 97.849 117.65 98.0351 117.641C98.0246 113.325 98.0163 109.01 98.0099 104.694Z" fill="#989898"/>
<path d="M98.0148 107.754C97.3455 108.011 96.6239 108.25 95.8382 108.457C93.5738 109.052 91.3676 108.395 89.5193 107.371C86.6295 105.771 84.6136 103.276 84.6136 103.276C83.4759 102.053 83.3392 100.63 83.3392 100.63C83.5979 102.825 81.8462 105.635 83.3392 107.919C84.8326 110.204 89.8617 117.073 89.8617 117.073C91.4115 116.616 95.5749 116.988 98.0339 117.266C98.0265 114.095 98.0203 110.925 98.0148 107.754Z" fill="#E0E0E0"/>
<path d="M98.0144 107.578C96.55 108.088 94.9828 108.343 93.5083 107.999C88.6411 106.864 86.5742 105.264 86.5742 105.264C86.5742 105.264 90.6239 109.427 91.4541 111.543C92.2843 113.66 93.2162 116.602 94.8733 115.879C95.7573 115.494 96.8403 113.461 98.0221 111.375C98.0197 110.109 98.0166 108.843 98.0144 107.578Z" fill="#F6F7F7"/>
<path d="M83.9753 105.261C83.9753 105.261 83.9209 105.224 83.8188 105.156C83.7934 105.138 83.7648 105.119 83.7335 105.098L83.7095 105.081L83.697 105.073L83.6907 105.068L83.6874 105.066L83.6858 105.065C83.6406 105.1 83.7282 104.992 83.7262 105.013C83.7429 105.024 83.76 105.036 83.778 105.048C83.8515 105.099 83.936 105.157 84.0304 105.223C84.4074 105.486 84.9429 105.865 85.5734 106.335C85.8905 106.574 86.23 106.811 86.5902 107.109C86.9373 107.396 87.3056 107.696 87.6776 108.017C87.8687 108.168 88.0406 108.362 88.2271 108.536C88.4114 108.716 88.5971 108.898 88.7808 109.086L89.0586 109.367C89.1491 109.462 89.2327 109.564 89.32 109.663C89.4932 109.862 89.6668 110.061 89.8408 110.261C90.193 110.657 90.5022 111.086 90.8148 111.503C90.9703 111.711 91.1286 111.916 91.2703 112.127C91.4093 112.341 91.5464 112.552 91.681 112.76C91.8146 112.968 91.9502 113.17 92.0753 113.372C92.1989 113.576 92.3088 113.781 92.4216 113.978C92.642 114.374 92.8619 114.74 93.0282 115.099C93.2049 115.452 93.36 115.779 93.4972 116.068C93.6335 116.358 93.7338 116.62 93.8238 116.831C93.9991 117.256 94.093 117.501 94.093 117.501C94.093 117.501 93.9491 117.28 93.7072 116.89C93.5876 116.695 93.4419 116.459 93.2751 116.187C93.1015 115.92 92.906 115.618 92.7003 115.286C92.5983 115.12 92.4877 114.949 92.3661 114.777C92.2491 114.602 92.1282 114.422 92.004 114.236C91.8789 114.051 91.7562 113.857 91.6204 113.666C91.4797 113.478 91.3439 113.282 91.2017 113.084C91.0605 112.887 90.917 112.686 90.7717 112.482C90.6183 112.285 90.4632 112.085 90.3071 111.884C89.9951 111.481 89.6861 111.065 89.3371 110.683C89.1699 110.485 89.0033 110.288 88.837 110.091C88.7529 109.993 88.6724 109.892 88.5866 109.798L88.3226 109.524C87.9651 109.165 87.6471 108.785 87.2935 108.447C86.9319 108.115 86.5906 107.785 86.2649 107.475L86.1438 107.359C86.117 107.331 86.065 107.288 86.0277 107.254C85.9463 107.181 85.8659 107.109 85.7869 107.038C85.6302 106.895 85.4793 106.757 85.3342 106.625C84.7528 106.095 84.2779 105.643 83.9479 105.323C83.8658 105.243 83.7925 105.171 83.7286 105.109C83.7135 105.094 83.6988 105.079 83.685 105.065C83.6834 105.087 83.7723 104.98 83.7282 105.015L83.7295 105.017L83.7321 105.019L83.7376 105.025L83.7482 105.035L83.7688 105.056C83.7956 105.083 83.8199 105.107 83.8419 105.129C83.9288 105.215 83.9753 105.261 83.9753 105.261Z" fill="#49494A"/>
<path d="M72.0027 63.5118C73.7158 65.5323 75.1969 68.1587 77.8598 69.1202C80.8115 70.1862 84.6069 70.1781 87.6554 69.444C91.7459 68.4585 92.9233 63.6487 94.4994 63.0365C92.5265 71.2641 88.5844 71.1624 85.6594 71.7934C82.8659 72.3958 79.7755 72.6194 77.1301 71.3744C75.8008 70.7488 74.6899 69.8188 73.6308 68.8418C73.3308 68.0388 72.6389 67.3907 72.3959 66.4981C72.1837 65.7202 72.2728 64.557 71.8418 63.8993" fill="white"/>
<path d="M43.8451 167.245C43.8451 167.245 41.6964 182.542 42.8683 191.191" stroke="white" stroke-width="3" stroke-miterlimit="10"/>
<path d="M26.2701 118.206C26.2701 118.206 10.4642 122.307 8.85993 147.838C7.2559 173.37 7.19046 181.676 7.24204 190.915" stroke="#FF7900" stroke-width="5" stroke-miterlimit="10"/>
<path d="M98.0336 117.068C97.3814 117.413 96.9561 117.644 96.9561 117.644C96.9561 117.644 97.5409 117.826 98.0354 117.885C98.0347 117.613 98.0343 117.34 98.0336 117.068Z" fill="#140152"/>
<path d="M98.0099 104.896C97.7691 104.548 97.0884 104.08 95.7547 103.85C93.57 103.471 91.4573 101.914 89.524 100.83C87.5908 99.7455 84.2342 95.8736 82.0328 93.473C79.8318 91.0726 78.8754 85.2649 78.3092 84.2971C77.7435 83.3292 75.3803 80.154 77.5938 80.2952C79.8073 80.4363 81.1016 79.8683 81.1016 79.8683C81.1016 79.8683 81.4883 79.2663 82.7313 78.169C84.9836 76.1806 86.9191 74.6091 86.9191 74.6091L88.8727 72.6995C88.8727 72.6995 86.4959 72.7203 81.1034 73.4065C75.7106 74.0929 74.4485 67.9963 74.6221 66.4583C74.7957 64.9202 76.8569 62.7229 79.186 63.3216C83.3746 64.3981 86.4042 62.1973 86.4042 62.1973C85.4022 62.5518 83.8958 61.5822 83.8958 61.5822C83.8958 61.5822 80.941 61.1087 80.2912 61.2921C79.6418 61.4754 77.3032 59.8757 77.3032 59.8757L80.7628 57.8302C77.5244 58.7379 77.3864 57.449 77.594 57.2821C77.8014 57.1151 79.7858 56.1058 79.7858 56.1058L77.9994 55.7038C77.9994 55.7038 76.6231 55.8386 76.3078 55.7038C75.9924 55.569 75.3136 55.5445 75.9869 51.9183C76.6604 48.2921 81.8265 38.0282 83.5929 36.1696C85.3591 34.3113 86.2789 31.5842 86.2789 31.5842L86.7194 30.2844L77.8729 36.944L67.769 62.7227L69.9439 80.6181L77.9991 93.124C77.9991 93.124 87.9622 102.533 88.8727 103.307C89.7832 104.082 97.5922 105.398 97.9857 105.32C97.995 105.318 98.0015 105.314 98.0099 105.311C98.0103 105.173 98.0101 105.034 98.0099 104.896Z" fill="#727272"/>
<path d="M73.0844 69.8541C71.596 72.2291 71.144 74.6711 72.4032 77.3474C73.5775 79.8434 74.2212 82.7092 74.2568 85.5437C74.2666 86.3174 74.0875 90.2036 73.1902 89.9696C72.6633 88.3614 72.7096 86.5314 72.3185 84.8682C71.9246 83.1932 71.348 81.6096 70.7061 80.0486C69.4758 77.0555 68.9193 73.1105 69.2718 69.8217C69.4522 68.1366 69.7232 65.684 70.7463 64.3667C71.3816 64.9619 71.3312 66.2969 71.7093 67.1647C72.0203 67.8793 72.8072 68.7428 72.9051 69.4414" fill="#49494A"/>
<path d="M98.12 20.4097L92.102 21.8007L87.9614 29.5079C87.9614 29.5079 90.0827 29.8289 94.6009 27.3992C95.6429 26.8388 96.8447 26.3831 98.0956 26.033C98.1033 24.1586 98.111 22.2842 98.12 20.4097Z" fill="#989898"/>
<path d="M77.2949 59.6739C77.2949 59.6739 77.7455 60.3822 78.1802 60.4345C78.6152 60.4866 79.9071 60.9205 80.2462 61.0875C80.5851 61.2546 84.026 61.506 84.026 61.506L86.1229 60.9789L88.0311 60.4621L89.3847 60.3844L90.0569 60.3113L89.5842 60.1161L88.7103 59.6739L86.5113 58.4707L85.4241 57.7983L81.8272 57.6256L79.0556 58.4707L77.2949 59.6739Z" fill="white"/>
<path d="M56.7043 171.014C56.7043 171.014 55.0274 179.609 52.1529 183.094C52.1529 183.094 53.5105 179.454 53.5901 177.906C53.67 176.357 52.5124 180.074 50.9551 181.584C50.9551 181.584 53.151 171.788 52.5521 168.072C52.5521 168.072 52.1127 175.234 50.9551 177.325C49.7974 179.416 48.3602 180.655 47.6812 181.236C47.6812 181.236 50.4758 178.409 50.5561 176.512C50.6358 174.615 49.1985 171.053 49.438 168.072C49.438 168.072 48.879 171.208 49.2385 172.795C49.5977 174.383 49.6774 175.699 49.1186 176.783C49.1186 176.783 49.7176 174.073 48.6795 172.447C47.6415 170.821 42.0521 164.084 42.9701 160.677C43.8885 157.269 48.3203 141.124 48.3203 141.124L61.8414 133.174L61.0961 153.307L56.7043 171.014Z" fill="#22007C"/>
<path d="M59.6653 134.154C59.6653 134.154 63.5484 139.42 59.6653 146.544C55.7819 153.668 49.4135 155.992 50.0347 170.085C50.0347 170.085 51.2936 157.588 58.4227 150.88C58.4227 150.88 54.2288 157.177 53.4522 161.927C52.6755 166.678 52.365 178.138 49.2583 182.165C49.2583 182.165 54.3842 172.563 54.3842 168.536C54.3842 164.509 55.7819 158.159 58.5779 154.907C58.5779 154.907 55.0228 162.186 55.3246 167.916C55.6268 173.647 53.1677 184.955 51.0484 189.315C51.0484 189.315 54.7639 183.198 55.3246 176.486C55.3246 176.486 55.4712 182.991 54.2804 188.102C54.2804 188.102 56.766 180.978 56.8176 176.435C56.8694 171.892 57.9256 169.526 58.3191 166.523C58.3191 166.523 56.5588 177.725 57.3873 187.998C57.3873 187.998 57.7494 179.326 59.2512 174.473C60.7527 169.62 60.4422 176.59 60.4422 176.59L59.3547 183.301L61.0119 183.146L66.2929 171.427L67.227 157.695L69.3649 136.271L68.1566 115.621L63.9629 112.214L57.1803 120.526L59.6653 134.154Z" fill="#140152"/>
<path d="M85.5015 23.9286C85.1027 24.0748 84.8286 24.1562 84.8286 24.1562C85.0474 24.1039 85.2726 24.0257 85.5015 23.9286Z" fill="#140152"/>
<path d="M98.1552 13.8347C94.127 14.2421 93.9159 15.4447 93.9159 15.4447C93.9159 15.4447 89.1683 22.3722 85.5018 23.9286C86.2105 23.6689 87.3174 23.2021 88.0131 22.6074C88.0131 22.6074 88.5181 24.3883 84.4794 27.176C80.4406 29.9637 78.072 31.5125 77.334 34.5325C77.334 34.5325 78.266 31.3963 82.0717 29.3444C85.8771 27.2924 86.6149 26.8664 87.081 26.4406C87.081 26.4406 85.8385 28.0668 83.625 29.809C81.4115 31.5514 79.8582 34.9973 79.4698 36.7395C79.4698 36.7395 88.0129 30.3709 89.6437 27.399C91.2747 24.427 92.0902 23.6914 92.9832 23.3816C93.8764 23.0717 94.0315 23.8463 93.6824 24.5817C93.6824 24.5817 94.4097 23.6253 94.4918 22.8391C94.4986 22.7733 94.5012 22.7087 94.4981 22.6459C94.459 21.8328 95.1582 23.4203 94.8084 24.2721C94.8084 24.2721 95.573 23.9877 95.6242 22.421C95.6242 22.421 96.1324 23.4671 95.7631 24.673C96.0504 23.9292 96.7566 22.2282 97.6434 21.0197C97.7476 20.8777 97.9105 20.7615 98.119 20.6672C98.1302 18.39 98.1425 16.1123 98.1552 13.8347Z" fill="#140152"/>
<path d="M98.1546 13.8378C97.5088 14.1063 97.1309 14.3408 97.1309 14.3408C97.4798 14.1607 97.8206 14.0036 98.1544 13.8636C98.1546 13.8551 98.1546 13.8465 98.1546 13.8378Z" fill="#22007C"/>
<path d="M98.108 23.2063C98.117 21.2199 98.1251 19.2337 98.1352 17.2476C98.1231 17.2515 98.1113 17.2548 98.099 17.2587C93.3317 18.8105 90.3815 23.1993 88.9824 24.7971C88.9824 24.7971 91.61 24.3144 92.7635 22.6818C93.5077 21.6284 95.1527 20.1821 95.6753 20.8545C96.1978 21.5267 96.4399 23.3807 95.8592 24.7723C95.8592 24.7723 97.1125 23.1183 97.0752 21.8647C97.0752 21.8647 97.5196 23.1549 97.0388 24.1678C97.0388 24.1678 97.6599 23.0385 97.5644 22.4262C97.5644 22.4262 97.8352 23.2483 97.6445 23.9209C97.6445 23.9207 97.8892 23.6048 98.108 23.2063Z" fill="#22007C"/>
<path d="M98.0088 104.03C97.0217 104.157 96.0963 104.226 95.482 104.197C92.7361 104.065 88.2758 101.012 87.1292 99.9836C85.9829 98.9547 83.8496 97.1484 82.2809 96.0187C82.2809 96.0187 80.6764 94.7789 79.7472 93.8148C78.8178 92.8507 74.0652 87.8046 73.5161 85.5948C73.5161 85.5948 70.5064 94.5896 76.4483 100.973C76.4483 100.973 77.1023 102.465 77.6134 103.382C78.1243 104.299 79.5723 106.153 79.5723 106.153C80.0338 105.446 80.0029 104.308 79.8444 103.164C79.7365 102.384 79.2172 101.034 78.9593 100.415C79.2234 100.911 79.7408 101.668 80.3112 103.228C80.9902 105.086 79.9171 106.981 79.9171 106.981L81.024 108.455C81.024 108.455 81.5538 105.802 81.5228 104.665C81.4923 103.528 80.0059 100.697 78.9721 99.1061C77.9386 97.5147 78.1792 96.0657 78.5817 96.5718C78.9846 97.0782 80.2969 98.1959 82.5275 99.763C84.7581 101.331 86.0709 102.448 89.2926 105.037C92.1456 107.329 95.9126 106.547 98.0104 105.78C98.0099 105.196 98.0097 104.613 98.0088 104.03Z" fill="#140152"/>
<path d="M70.6557 112.599C70.6557 112.599 70.8971 120.43 73.0474 124.35C75.1976 128.269 79.5471 138.026 77.5279 143.911C75.5086 149.797 75.8369 150.106 74.3525 152.894C74.3525 152.894 76.7512 143.911 77.0619 142.053C77.3727 140.194 76.596 132.76 75.0427 130.902C73.4894 129.044 71.3942 126.625 70.6557 124.35C69.9168 122.074 69.9168 122.074 69.9168 122.074C69.9168 122.074 73.3893 125.172 73.9831 132.141C74.5768 139.111 74.4732 145.287 73.826 147.542C73.1786 149.797 74.1109 154.907 75.5086 157.85C76.9066 160.792 78.6153 163.735 77.0619 167.917C77.0619 167.917 77.2171 162.651 75.5086 160.173C73.8001 157.695 71.7984 154.288 71.2458 149.797C70.6932 145.305 71.4877 141.124 71.2458 137.407C71.2458 137.407 70.0722 153.359 72.2468 157.385C74.4214 161.412 75.9745 166.891 76.1301 170.734C76.1301 170.734 75.7158 166.523 73.826 163.89C71.936 161.257 71.0042 161.172 70.5383 159.511C70.5383 159.511 70.305 164.122 71.2373 166.678C72.1693 169.233 72.1693 174.499 71.6257 178.835C71.0821 183.172 70.3831 184.333 72.0142 187.353C72.0142 187.353 68.9077 183.636 69.2182 179.687C69.2182 179.687 67.9318 187.189 73.623 188.98C73.623 188.98 69.7618 189.212 67.5095 184.101C67.5095 184.101 68.5195 189.06 71.3929 188.981C71.3929 188.981 68.0534 189.832 66.5 186.889C64.9467 183.946 64.0149 180.926 64.17 178.603C64.17 178.603 63.7739 184.926 64.1533 189.095C64.1533 189.095 62.8756 184.179 62.8756 182.836C62.8756 182.836 62.151 187.141 63.2902 190.77C63.2902 190.77 60.1835 186.657 60.9082 184.385C60.9082 184.385 61.0116 188.896 62.1508 190.77C62.1508 190.77 58.423 188.412 60.0795 182.113C61.7366 175.815 63.8075 169.516 62.8754 165.902C61.9436 162.288 61.7366 155.887 61.7366 155.887C61.7366 155.887 60.7838 161.979 59.6553 164.457C58.5264 166.934 57.0769 176.124 58.0089 179.221C58.0089 179.221 57.6982 178.292 58.5264 175.401C58.5264 175.401 57.723 181.08 57.7104 185.519C57.7104 185.519 58.2751 179.679 59.4266 177.402C59.4707 177.315 59.5157 177.232 59.5618 177.156C60.8046 175.091 57.0764 184.59 59.0439 189.03C59.0439 189.03 59.8723 175.194 63.6005 171.477C63.6005 171.477 61.6331 151.448 64.2218 146.388C64.2218 146.388 63.083 157.332 65.1536 161.462C65.1536 161.462 64.2218 146.181 66.5 140.09C66.5 140.09 67.5354 128.642 66.5 124.35C66.5 124.35 67.0177 131.313 66.2931 134.307C65.568 137.301 65.361 141.534 66.6036 143.599C66.6036 143.599 63.8367 138.334 65.2574 133.687C66.6782 129.041 65.7749 124.085 65.2574 122.33C64.7397 120.575 64.2218 112.522 65.4644 109.837C66.707 107.153 68.6389 98.6679 67.88 97.025C67.8798 97.0246 71.9121 105.243 70.6557 112.599Z" fill="#22007C"/>
<path d="M38.9354 142.551C38.9354 142.551 40.1549 136.214 42.8686 133.174C42.8686 133.174 39.7832 134.188 38.2298 137.862C36.6765 141.537 33.2593 145.46 32.3273 147.629C31.3954 149.797 30.1772 156.081 35.1734 160.431C40.1699 164.781 41.3365 161.257 41.3365 161.257C41.3365 161.257 38.3336 164.354 32.8454 159.605C32.8454 159.605 35.4342 164.354 41.5439 163.941C41.5439 163.941 35.2987 164.767 31.4832 160.844C27.6677 156.921 24.9163 151.462 28.0524 147.171C31.1885 142.879 31.8098 140.195 31.8098 140.195C31.8098 140.195 21.1438 147.525 18.4513 152.688C18.4513 152.688 21.4548 147.112 23.422 145.254C23.422 145.254 17.6231 150.622 17.2085 153.307C17.2085 153.307 19.1762 146.699 22.8003 143.395C26.4249 140.091 31.395 134.516 32.5342 129.973C33.6734 125.43 35.3301 119.338 38.5404 118.822C41.7506 118.306 47.8613 128.095 47.8613 128.095L45.0199 137.579L38.9354 142.551Z" fill="#22007C"/>
<path d="M41.863 102.243C41.863 102.243 36.0004 109.977 31.7515 112.275C27.5025 114.574 15.7911 127.222 14.9988 134.432C14.9988 134.432 18.7904 125.464 22.5258 123.002C26.2612 120.54 29.7713 119.133 31.7515 116.847C31.7515 116.847 25.0727 122.65 22.7806 124.233C20.4884 125.815 13.1106 136.718 12.7632 140.674C12.7632 140.674 16.923 131.267 20.6585 128.366C24.3939 125.464 27.0256 125.376 29.572 123.442C29.572 123.442 14.1298 129.948 13.2725 146.39C13.2725 146.39 15.1401 134.168 22.1012 130.212C29.0626 126.255 30.8453 125.728 32.2035 123.881C32.2035 123.881 20.8902 131.533 22.356 141.29C22.356 141.29 22.1012 134.344 26.0914 130.915C30.0814 127.486 31.6097 127.75 32.8828 125.376C32.8828 125.376 28.3207 132.154 20.7429 135.575C20.7429 135.575 28.2138 132.762 29.6567 131.091C31.0999 129.42 28.8079 133.553 27.3649 134.52C25.9217 135.487 17.2625 140.147 16.8381 143.049C16.8381 143.049 18.7057 139.971 23.6295 137.773C28.5533 135.575 33.7316 132.234 35.0052 128.278C36.2787 124.321 39.1648 121.683 39.1648 121.683L41.863 102.243Z" fill="#22007C"/>
<path d="M97.994 84.2782L97.3714 84.3723L88.401 83.0664L86.11 82.0977L84.8284 81.9717L82.7314 81.7428L83.5801 82.3754V82.427C83.5801 82.427 88.4747 86.6473 88.6127 87.1118C88.7214 87.4786 95.2483 88.93 97.9957 89.5256C97.9951 87.7764 97.9944 86.0272 97.994 84.2782Z" fill="#49494A" stroke="#49494A" stroke-width="0.5" stroke-miterlimit="10"/>
<path d="M98.0061 60.109C97.1818 60.2954 95.5464 61.0029 95.5464 61.0029L94.1293 64.9163L92.723 68.736C92.723 68.736 90.6237 72.8293 91.3119 71.8969C91.9999 70.9646 92.723 72.4431 92.723 72.4431C92.723 72.4431 93.5284 69.9259 93.8234 69.0563C94.1188 68.1865 95.6241 63.4809 96.618 62.963C96.9948 62.7667 97.4818 62.6013 98.0032 62.7429C98.0039 61.8648 98.005 60.9869 98.0061 60.109Z" fill="#49494A" stroke="#49494A" stroke-width="0.5" stroke-miterlimit="10"/>
<path d="M97.9928 80.718C97.9928 80.4092 97.9931 80.1005 97.9931 79.7917C97.2074 79.8263 96.409 79.7775 96.409 79.7775L95.0986 78.4806L93.9618 77.4826L92.8893 77.2135C92.8893 77.2135 91.3715 76.975 90.8652 76.3568C90.8652 76.3568 90.9399 77.2373 92.0606 77.6903C93.181 78.143 93.7456 78.1918 94.23 79.2128C94.7143 80.234 95.8066 80.995 95.7217 82.1254C95.6367 83.256 96.2582 84.4021 97.7126 83.9829C97.8124 83.9542 97.9048 83.9188 97.9935 83.8803C97.9937 82.826 97.9928 81.772 97.9928 80.718Z" fill="#C6C5C5"/>
<path d="M77.9683 59.5662C77.9683 59.5662 79.1852 60.4095 80.6736 60.7193C82.162 61.0292 85.0874 60.8226 86.5889 60.5644C88.0905 60.3062 88.0905 60.3165 88.2974 60.1307C88.5048 59.9449 88.2974 59.5662 88.2974 59.5662L89.3258 59.9854L90.057 60.3114L89.3848 60.3845L87.7222 60.7086L84.3943 61.4136L80.8417 61.3027L78.1656 60.4254L77.1396 59.8673L77.9683 59.5662Z" fill="#989898"/>
<path d="M81.0034 57.7876L80.6733 59.1186L80.8384 59.9317L81.5042 60.9704C81.5042 60.9704 82.4374 61.2713 82.5453 61.28C82.6535 61.2886 84.4399 61.28 84.4399 61.28L84.8927 60.5678L85.4279 59.9779L85.5581 59.277L85.2399 58.1346L84.7895 57.7878L81.4498 57.6259L81.0034 57.7876Z" fill="#3B1FC9"/>
<path d="M92.7691 71.16L91.6953 73.2018C91.6953 73.2018 91.0819 75.0962 93.9658 77.2128C96.8493 79.3294 96.025 79.6633 96.025 79.6633L93.7545 77.5485L92.3069 77.1115L90.781 76.4592L90.061 75.4205L89.8501 73.4396L90.5594 71.6847L93.0327 70.0007L92.7691 71.16Z" fill="#676767"/>
<path d="M68.1698 59.4547C68.1698 59.4547 69.8235 70.6309 67.8802 77.7808C65.607 86.1439 67.5705 94.3522 68.666 100.702C69.762 107.052 71.2464 110.149 71.2464 110.149L73.048 105.237C73.048 105.237 73.5382 101.115 73.048 99.7213C72.5581 98.3272 71.4365 92.2357 71.2464 91.0482C71.2464 91.0482 71.7815 100.288 75.0433 104.109C75.0433 104.109 71.8017 97.785 72.8788 92.9194C73.9559 88.0539 73.4926 84.7837 73.4926 84.7837L72.2272 79.0948L70.073 73.7021L70.1399 69.2036C70.1399 69.2036 71.5743 60.383 70.4353 56.0981L68.1698 59.4547Z" fill="#140152"/>
<path d="M75.257 42.182C75.257 42.182 72.0452 54.6021 72.4242 58.5749C72.8027 62.5476 73.3586 67.3972 71.863 69.7125C70.3676 72.028 67.3652 46.9906 72.4242 42.57C77.4829 38.1497 75.257 42.182 75.257 42.182Z" fill="#49494A" stroke="#49494A" stroke-width="0.5" stroke-miterlimit="10"/>
<path d="M94.2016 82.8305C90.7892 80.719 86.8245 81.4115 83.0162 81.4461C82.6157 81.4498 82.6157 82.0693 83.0162 82.0656C84.0431 82.0561 85.0855 81.9949 86.1262 81.9544C86.1626 82.0034 86.2157 82.0424 86.2991 82.0546C87.8586 82.2806 89.3983 82.4605 90.9049 82.9391C91.9486 83.2706 93.0297 83.5778 94.127 83.3966C94.4085 83.3502 94.4099 82.9594 94.2016 82.8305Z" fill="white"/>
<path d="M40.4144 191.143C40.4144 191.143 38.0611 174.388 42.9702 160.676" stroke="white" stroke-width="8" stroke-miterlimit="10"/>
<path d="M97.9934 79.4114C97.795 79.0884 95.4657 77.9245 94.8589 76.1887C94.639 75.5596 94.5967 75.0368 94.594 74.4509C94.5914 73.7822 94.7731 73.2413 94.979 72.6303C95.8353 70.0908 96.3087 63.4408 96.3087 63.4408C95.9152 63.306 93.4157 69.6939 93.1746 71.9148C93.0122 72.9446 91.7198 73.2743 91.7086 74.2684C91.7009 74.9128 92.2405 75.1699 92.3062 75.7397C92.4146 76.6841 93.2972 76.1826 93.5577 76.7112C93.8946 77.3946 96.2307 80.0606 97.9693 79.491C97.98 79.4875 97.9873 79.4827 97.9937 79.4777C97.9934 79.4558 97.9934 79.4337 97.9934 79.4114Z" fill="white"/>
<path d="M94.1081 66.8578C94.1081 66.8578 95.7207 70.4656 93.6648 72.5809C91.3374 74.9758 92.9588 76.1416 93.6108 76.8858C94.2637 77.6298 94.1869 76.9786 94.6644 78.1249C94.6644 78.1249 93.6813 77.6799 91.9427 76.5904C90.2037 75.5007 91.2604 72.6141 91.2604 72.6141C91.2604 72.6141 92.736 71.8912 94.1081 66.8578Z" fill="#989898"/>
<path d="M31.4471 139.472C24.1465 147.68 26.114 145.305 18.3478 149.487C18.3478 149.487 27.6675 146.699 29.8419 142.982C29.8419 142.982 23.6288 149.022 16.7944 151.19C16.7944 151.19 24.3278 150.571 28.9101 146.467C28.9101 146.467 24.6383 150.416 21.6096 152.042C21.6096 152.042 27.745 149.332 29.1428 147.628C30.5409 145.925 30.6186 146.699 33.1038 141.123C35.5889 135.548 37.8415 133.302 39.4725 132.76C39.4725 132.76 37.5307 134.154 36.4435 137.097C35.3563 140.039 31.7837 144.298 33.5697 150.106C33.5697 150.106 32.4515 144.009 38.0743 135.858C43.6971 127.706 45.841 128.578 45.841 128.578C45.841 128.578 46.462 129.508 42.5789 136.167C38.6958 142.827 34.1363 150.261 35.1733 155.836C36.2107 161.412 39.0066 166.736 43.8217 170.733C43.8217 170.733 36.8317 161.566 38.2299 155.836C38.2299 155.836 40.0938 168.226 48.6369 173.801C48.6369 173.801 42.7343 167.606 44.9089 156.611C44.9089 156.611 48.9474 148.065 48.6369 143.897C48.6369 143.897 50.3794 150.725 48.6538 153.513C46.9282 156.301 44.7538 164.045 47.8604 169.775C47.8604 169.775 46.3345 161.494 49.4164 157.85C52.4983 154.205 67.594 133.923 59.3748 119.039L62.4613 115.105L67.2268 70.6562V48.355L59.9761 52.072L48.6369 88.467C48.6369 88.467 42.7811 98.4506 36.6998 100.273C30.6186 102.096 25.8035 107.853 25.0268 113.57C25.0268 113.57 26.7568 106.511 31.7063 103.645C36.6553 100.778 41.7248 98.7681 43.5889 97.0248C43.5889 97.0248 44.6425 97.1706 40.6378 101.019C36.6331 104.866 33.8809 103.103 31.2403 107.594C28.5998 112.085 28.1339 113.324 28.6773 117.196C28.6773 117.196 28.2888 113.866 30.6191 110.382C32.9493 106.897 33.0267 105.89 37.6865 104.032C42.3463 102.173 45.2783 98.257 46.1519 96.2881C46.1519 96.2881 42.9731 101.289 40.8518 103.338C38.7301 105.386 27.5642 110.665 26.218 115.312C26.218 115.312 29.3245 110.356 33.6739 109.014C38.0234 107.671 39.9906 106.329 40.6121 105.917C40.6121 105.917 28.2891 110.253 27.668 122.023C27.668 122.023 29.0139 115.312 33.2596 112.731C37.5055 110.149 40.4047 107.465 40.4047 107.465C40.4047 107.465 38.3243 112.191 34.2952 115.209C30.2664 118.226 25.4738 126.902 26.0918 130.915C26.0918 130.915 26.1147 127.126 29.739 124.316C33.3632 121.507 38.023 118.306 38.5407 116.861C38.5407 116.861 37.7124 120.887 36.0555 123.159C34.3986 125.43 28.4466 129.99 26.8577 137.304C26.8577 137.304 30.9781 128.528 35.1737 126.463C39.3693 124.398 39.5767 121.3 39.5767 121.3C39.5767 121.3 38.0813 129.33 34.0883 131.728C30.0954 134.127 26.9732 133.174 24.1472 135.755C21.321 138.336 18.1413 143.499 17.9339 144.635C17.9339 144.635 22.5427 137.391 24.8719 136.684C27.201 135.977 30.2122 135.769 32.5354 134.413C34.6571 133.173 31.4471 139.472 31.4471 139.472Z" fill="#140152"/>
<path d="M82.4792 58.4992C82.3065 58.4681 82.1226 58.4532 81.9389 58.4637C81.6617 58.832 82.1088 58.9445 82.4 58.9788C82.2358 58.9729 81.9341 59.0407 81.823 59.1814C81.6266 59.4304 82.0601 59.4031 82.2238 59.4119C82.1702 59.6123 81.7982 59.7659 82.0282 60.0337C82.2211 60.2578 82.5084 60.0687 82.6357 59.8998C82.6322 60.1077 82.59 60.2648 82.7566 60.3716C82.9252 60.4799 83.1589 60.4341 83.2317 60.3431C83.2633 60.2482 83.2719 60.1724 83.2798 60.0687C83.3614 60.1849 83.2868 60.0241 83.4071 60.1447C83.5096 60.2475 83.7909 60.4317 83.9259 60.3845C84.2906 60.256 83.9487 59.8714 83.7609 59.6711C83.8783 59.6521 83.9948 59.8394 84.1298 59.8639C84.2788 59.8913 84.4879 59.9138 84.586 59.7961C84.7923 59.549 84.4302 59.3908 84.2478 59.2968C84.4603 59.283 84.9499 59.3274 84.8873 58.9825C84.845 58.7486 84.4313 58.6834 84.2476 58.6302C84.6933 58.2443 84.013 57.841 83.6454 58.0979C83.4977 58.2009 83.3768 58.3574 83.2225 58.4458C83.0048 58.5707 82.8042 58.493 82.5764 58.441" fill="#140152"/>
<path d="M98.0441 120.734C97.4395 118.83 96.9563 117.644 96.9563 117.644C95.7699 117.66 83.7314 116.654 83.7314 116.654C82.7478 126.876 83.7452 129.707 87.5191 133.845C90.1128 136.689 95.1828 136.833 98.1009 136.646C98.0781 131.342 98.0588 126.038 98.0441 120.734Z" fill="#FB5607"/>
<path d="M77.2368 183.094V184.314C77.2368 184.314 80.1591 188.146 81.4888 185.824C82.8185 183.501 82.8185 183.502 82.8185 183.502C82.8185 183.502 83.5862 181.391 82.6151 179.687C81.644 177.983 77.3345 182.146 77.2368 183.094Z" fill="#3B1FC9"/>
<path d="M82.8187 183.502C82.8187 183.502 79.5749 188.62 77.1871 183.791C77.1871 183.791 76.1574 186.557 77.1871 188.569C78.2168 190.581 78.8162 190.65 78.9547 191.839C78.9547 191.839 78.7604 189.525 78.0228 188.368C78.0228 188.368 78.584 188.829 79.0087 190.558C79.0166 190.59 79.0245 190.623 79.0321 190.657C79.0321 190.657 79.1774 189.777 78.4444 188.243C78.4444 188.243 79.4399 188.545 79.5371 190.28C79.5371 190.28 79.8283 188.871 79.7704 188.192C79.7704 188.192 80.2168 189.777 79.9644 191.462C79.9644 191.462 80.7994 189.676 80.8964 188.72C80.8964 188.72 81.3817 190.255 81.3235 191.135C81.3235 191.135 82.1458 189.537 82.0065 188.564C82.0005 188.522 81.9929 188.483 81.9836 188.443C81.9836 188.443 82.4627 189.358 82.398 190.297C82.398 190.297 83.1358 188.185 83.0708 187.413C83.0708 187.413 83.4981 187.681 83.6149 188.385C83.6147 188.385 83.7246 184.876 82.8187 183.502Z" fill="#140152"/>
<path d="M90.3125 53.5853L91.1634 56.0988C91.1634 56.0988 91.2615 55.4008 89.1707 55.0141C87.0808 54.6275 82.2843 53.1155 81.0898 53.1155C79.7783 53.1155 76.4034 53.5835 75.4512 55.4994C74.4992 57.4152 74.4224 51.2203 74.4224 51.2203C74.4224 51.2203 79.193 50.291 79.5255 50.3685C79.8579 50.4459 86.919 52.0722 86.919 52.0722L90.3125 53.5853Z" fill="#989898"/>
<path d="M59.293 112.925C60.2406 114.671 61.3899 116.365 62.7876 117.937C62.7876 117.937 61.1759 116.033 59.293 112.925Z" fill="#3B1FC9"/>
<path d="M98.1626 12.4327C95.2321 11.9612 89.7077 11.349 86.6897 12.7909C85.3 13.4548 83.5839 13.8329 81.8262 14.0159C82.1043 13.8338 82.376 13.6649 82.6246 13.5248C83.9989 12.7507 88.4646 10.0271 94.0181 11.2599C95.9405 11.6864 97.2586 12.0006 98.1639 12.2297C98.165 12.0356 98.1661 11.8417 98.1674 11.6476C96.5159 11.089 90.972 9.4711 86.6899 11.2599C84.3906 12.2203 82.6801 13.2216 81.4764 14.0502C80.6049 14.1279 79.7288 14.159 78.8806 14.1539C78.9629 14.0419 79.0312 13.9456 79.0812 13.8701C79.8502 12.7087 82.0349 10.4111 85.5274 9.68882C88.9402 8.98271 91.2164 7.61031 98.1678 11.5448C98.1689 11.3722 98.1698 11.1995 98.1709 11.0269C97.2022 10.5291 96.1402 9.99188 95.0023 9.43062C90.1369 7.03068 81.4512 9.16367 78.9603 13.1117C78.7318 13.4741 78.5126 13.8146 78.2975 14.145C75.9846 14.0865 73.9547 13.7701 72.9486 13.4213C72.9486 13.4213 75.0425 14.1811 78.1356 14.394C77.3679 15.5662 76.6871 16.5416 76.0803 17.3766C73.0375 18.8416 69.2663 21.71 67.542 25.9346C63.9449 30.1956 58.8267 38.3587 59.5932 48.9996C59.2305 50.033 58.8686 50.9958 58.5207 51.8385C56.8032 55.9996 51.9942 63.2012 52.452 74.6189C52.452 74.6189 52.7952 64.2003 55.6581 59.4807C55.6581 59.4807 54.0545 66.7342 53.5967 71.2761C53.1387 75.8178 49.2455 79.9466 47.7571 86.9657C47.7571 86.9657 49.0144 87.814 43.319 90.6017C37.6236 93.3894 36.8987 94.9382 35.449 98.6471C33.9994 102.356 37.2092 106.399 39.2805 107.844C39.9727 108.327 40.5003 108.868 40.8995 109.374C38.8475 114.658 41.7931 121.319 43.112 126.016C44.5616 131.179 44.5616 130.869 44.9759 134.689C45.3903 138.509 43.9405 141.813 41.8695 145.117C39.7982 148.421 41.248 153.171 41.248 153.171C41.248 148.215 43.4228 146.459 45.5972 142.949C47.7718 139.438 50.1536 133.037 46.2185 123.125C42.2834 113.214 46.1149 107.948 46.1149 107.948C44.8723 111.459 46.6326 114.349 49.2216 119.821C51.8105 125.294 51.9139 126.068 52.5354 131.127C53.1565 136.187 50.7749 138.613 49.9464 141.555C49.3524 143.665 50.3819 145.854 51.0124 146.924C50.8447 147.68 50.783 148.409 50.8006 149.097C50.8879 152.538 52.8975 154.977 52.8975 154.977C52.4316 152.499 50.257 152.654 55.0721 140.729C59.8873 128.804 54.4509 120.905 52.2762 114.555C50.1016 108.206 50.9821 102.373 50.9821 102.373C51.0857 108.36 52.5354 111.045 56.5739 117.137C60.6124 123.228 61.5442 129.011 62.5798 134.173C63.615 139.335 60.405 148.215 60.405 148.215C62.2691 143.672 66.5336 131.713 58.8519 117.937C51.1702 104.161 53.4672 94.4222 53.4672 94.4222C53.4067 101.688 56.6224 108.518 59.2923 112.926C54.6229 104.324 54.8645 94.4452 54.606 91.5059C54.2955 87.9701 56.345 77.8884 56.345 77.8884C59.6656 72.3089 63.6458 51.4584 64.7474 49.1875C65.7761 47.0672 74.241 20.8536 98.1485 14.8169C98.1531 14.022 98.1582 13.2273 98.1626 12.4327ZM46.84 94.9382C45.9082 100.204 45.0797 102.372 41.6625 107.844C41.4525 108.18 41.2686 108.525 41.1084 108.876C40.3179 107.76 39.1019 107.182 37.5202 105.057C35.1384 101.856 37.4164 94.2154 41.041 92.9894C44.6656 91.7634 47.772 89.6726 47.772 89.6726C47.772 89.6726 47.772 89.6727 46.84 94.9382ZM51.5 145.375C51.315 145.822 51.1748 146.263 51.067 146.695C50.5517 145.252 50.2436 143.009 52.1211 140.264C54.4511 136.857 54.4511 132.365 54.4511 132.365C55.3829 136.082 53.6744 140.109 51.5 145.375ZM66.7375 28.8729C65.2917 30.9639 63.5503 33.8723 63.1013 36.2944C62.5195 39.4348 61.2734 44.0146 59.9771 47.8812C60.5272 43.5835 62.1804 34.6432 66.8119 28.4197C66.784 28.5692 66.7597 28.7206 66.7375 28.8729ZM67.0052 28.4895C67.0412 28.3331 67.0805 28.1733 67.1235 28.0101C67.6533 27.332 68.2195 26.6885 68.8265 26.0917C68.8265 26.0917 68.0189 27.0554 67.0052 28.4895ZM69.5698 23.7485C69.1746 24.1314 68.7072 24.6124 68.1947 25.1841C69.2051 23.1822 70.8642 21.0816 73.593 19.4197C74.2373 19.0274 74.8077 18.6939 75.3168 18.4088C74.6565 19.2862 74.0942 19.9998 73.6088 20.6474C73.6088 20.6474 74.5136 19.5663 75.5942 18.2549C79.3121 16.2136 79.5059 16.9512 80.8248 16.5228C78.0833 17.9197 72.4417 20.9654 69.5698 23.7485ZM77.9299 16.6211C77.4765 16.7703 76.9819 16.9631 76.4615 17.1983C77.3165 16.1524 78.1615 15.104 78.6779 14.4246C79.397 14.4574 80.1634 14.4581 80.9648 14.4132C79.7372 15.3139 79.1852 15.9349 79.1852 15.9349C79.1852 15.9349 80.1908 15.1388 81.2653 14.3944C83.0512 14.2697 84.9983 13.9132 86.9765 13.1631C86.976 13.1634 82.1666 15.2279 77.9299 16.6211Z" fill="#3B1FC9"/>
<path d="M82.499 58.9388C82.499 58.9388 82.3144 59.0506 82.0913 58.9589C81.8681 58.8672 81.7676 58.809 81.8277 58.6736C81.8874 58.5381 82.1685 58.4891 82.2662 58.5187C82.3634 58.5482 82.546 58.7432 82.546 58.7432L82.499 58.9388Z" fill="white"/>
<path d="M82.178 58.0399C82.178 58.0399 82.061 58.1994 82.178 58.2863C82.2949 58.3732 82.4376 58.4605 82.5458 58.4701C82.6542 58.4797 83.5279 58.3539 83.5279 58.3539C83.5279 58.3539 83.6929 58.2086 83.6152 58.0926C83.5375 57.9767 83.2531 57.7975 83.1186 57.7983C82.984 57.7992 82.323 57.8029 82.178 58.0399Z" fill="white"/>
<path d="M87.2249 83.0679C87.2289 83.0686 87.2322 83.0692 87.2361 83.0697C87.706 83.1465 88.1041 83.6381 88.0843 84.0053C88.0668 84.3281 87.9425 84.5898 87.8216 84.8683C87.6913 85.1687 87.321 85.228 87.1158 84.8753C86.951 84.5924 86.9414 84.3033 86.9275 84.0047C86.9199 83.848 86.8819 83.1421 87.075 83.1058C87.075 83.1062 87.165 83.0563 87.2249 83.0679Z" fill="white"/>
<path d="M88.3116 83.4214C88.7483 83.4833 88.9862 84.0177 89.1008 84.2914C89.2401 84.6238 89.304 85.1137 89.2388 85.4656C89.2169 85.5811 89.1771 85.7798 89.0626 85.8434C88.925 85.92 88.7397 85.8249 88.5877 85.7798C88.2468 85.6791 88.0917 85.512 88.0116 85.2198C87.9361 84.9413 87.9648 84.6163 87.9773 84.335C87.9881 84.0859 88.0348 83.647 88.195 83.4391C88.195 83.4391 88.2264 83.4091 88.3116 83.4214Z" fill="white"/>
<path d="M91.341 84.7887C91.3114 84.5259 91.0379 84.3014 90.8588 84.1067C90.6659 83.897 90.4541 83.7303 90.1794 83.6292C89.9428 83.5426 89.4451 83.3896 89.2895 83.6253C89.1865 83.7817 89.1659 84.2047 89.1725 84.4504C89.1819 84.769 89.1944 85.1231 89.2107 85.4235C89.2278 85.7406 89.257 86.0585 89.3582 86.3661C89.5271 86.8758 90.3201 87.1828 90.825 86.8121C91.5464 86.2826 91.5154 85.5854 91.3737 84.8419" fill="white"/>
<path d="M93.5572 85.8495C93.5555 85.2487 93.2923 84.6981 92.7527 84.452C92.5301 84.3504 92.0866 84.2461 91.8235 84.3382C91.5838 84.422 91.4282 84.7075 91.349 84.9432C91.2518 85.2323 91.223 85.6165 91.1871 85.9408C91.1511 86.262 91.1467 86.4434 91.2373 86.7252C91.326 86.9996 91.4649 87.2346 91.7337 87.3692C92.017 87.5112 92.3399 87.5707 92.6682 87.5701C92.8692 87.5696 93.1238 87.6003 93.3163 87.5508C93.5037 87.5022 93.5978 87.2965 93.6189 87.099C93.6562 86.7594 93.7137 86.0541 93.5577 85.7677" fill="white"/>
<path d="M97.1385 86.2491C97.1385 86.7067 97.1848 87.1743 97.1385 87.6152C97.1219 87.7769 97.1021 88.1408 96.88 88.171C96.6272 88.4344 95.8042 88.2946 95.4715 88.295C95.2297 88.2953 95.0618 88.2648 94.8191 88.2648C94.5777 88.2648 94.3338 88.2097 94.1264 88.097C93.7733 87.9062 93.625 87.5476 93.5692 87.1983C93.5049 86.7929 93.4826 86.2815 93.5464 85.8682C93.5973 85.5413 93.6939 84.9912 94.0033 84.7785C94.1594 84.6715 94.4563 84.6704 94.6483 84.6616C94.8867 84.6509 95.1177 84.6592 95.3409 84.6995C95.6117 84.7483 95.8665 84.8498 96.1292 84.9251C96.4705 85.0233 96.6441 85.0756 96.837 85.3625C97.0172 85.631 97.1385 85.9281 97.1385 86.2491Z" fill="white"/>
<path d="M97.9945 84.9587C97.7142 85.0469 97.5599 85.1097 97.3923 85.3793C97.2255 85.6476 97.1133 85.9445 97.1133 86.2657C97.1133 86.7235 97.1103 87.1823 97.1533 87.6232C97.1691 87.7847 97.2099 88.0534 97.3521 88.1876C97.4737 88.2701 97.7315 88.3005 97.9958 88.3105C97.9951 87.1933 97.9947 86.076 97.9945 84.9587Z" fill="white"/>
<path d="M78.5593 118.629C78.5593 118.629 80.423 119.247 80.511 120.238C80.5983 121.229 80.3076 121.808 80.0227 122.946C79.7381 124.085 79.8603 126.793 78.3155 129.306C78.3153 129.306 75.6728 125.851 78.5593 118.629Z" fill="#140152"/>
<path d="M78.9887 118.513C78.9887 118.513 74.5464 119.198 75.4251 121.787C76.1456 123.909 77.1804 125.52 77.1804 125.52C77.1804 125.52 77.4308 122.291 77.706 121.422C78.0134 120.452 78.9887 118.513 78.9887 118.513Z" fill="#3B1FC9"/>
<path d="M76.3377 123.468C76.3377 123.468 74.9138 122.771 74.7325 121.606C74.4475 119.773 75.3025 118.383 77.1146 117.867C78.9266 117.351 80.2212 118.5 80.5318 119.59C80.8423 120.68 80.5318 121.606 80.5318 121.606C80.5318 121.606 80.361 120.537 79.962 119.88C79.3664 118.899 77.7402 118.718 76.7542 119.39C75.7682 120.061 75.5017 121.611 75.7938 122.177C76.053 122.68 76.3377 123.468 76.3377 123.468Z" fill="#140152"/>
<path d="M80.3782 120.924C80.3782 120.924 81.8775 123.495 81.6445 125.359C81.4116 127.222 81.2793 129.044 80.284 130.648C79.2888 132.253 78.3827 133.911 78.305 134.999C78.305 134.999 77.0411 131.412 78.1779 128.855C79.3145 126.297 80.3782 120.924 80.3782 120.924Z" fill="#3B1FC9"/>
<path d="M81.6378 125.719C81.6378 125.719 83.58 129.069 82.3374 131.572C81.0948 134.076 78.607 137.355 78.3505 139.058C78.3505 139.058 77.393 134.87 78.661 132.914C79.9293 130.957 81.5335 127.533 81.6378 125.719Z" fill="#140152"/>
<path d="M82.5404 130.765C82.5404 130.765 83.224 134.172 82.1607 136.29C81.0975 138.409 78.8324 142.705 78.8085 144.117C78.8085 144.117 77.7628 139.309 78.8085 137.026C80.2203 133.944 82.4076 132.149 82.5404 130.765Z" fill="#3B1FC9"/>
<path d="M82.3953 135.572C82.3953 135.572 81.312 137.904 80.3778 139.7C79.4435 141.496 77.8904 143.347 79.34 147.838C79.34 147.838 83.8973 144.155 82.3953 135.572Z" fill="#140152"/>
<path d="M82.6992 139.729C82.6992 139.729 82.4468 142.44 81.256 144.427C80.0652 146.415 77.4247 149.719 79.3924 152.532C79.3924 152.532 81.6706 149.357 82.0847 147.886C82.4988 146.415 83.9929 143.472 82.6992 139.729Z" fill="#3B1FC9"/>
<path d="M82.9279 145.244C82.9279 145.244 81.4496 149.776 80.3042 151.193C79.1589 152.61 77.9422 155.139 79.2365 158.133C79.2365 158.133 79.6768 156.405 81.0747 154.907C82.4727 153.41 83.9486 151.242 83.6896 149.073C83.4306 146.905 82.9279 145.244 82.9279 145.244Z" fill="#140152"/>
<path d="M78.8741 162.315C77.9941 158.417 79.5733 156.611 80.9733 155.019C82.3732 153.428 83.4639 151.132 83.4639 151.132C83.4639 151.132 84.259 153.997 82.4467 156.724C80.6346 159.451 78.8741 162.315 78.8741 162.315Z" fill="#3B1FC9"/>
<path d="M83.4019 154.577C83.4019 154.577 81.0282 158.89 80.5502 159.644C80.072 160.397 76.9261 162.703 78.0036 167.297C78.0036 167.297 78.7186 166.317 80.013 165.284C81.3074 164.252 83.9944 162.197 83.4019 154.577Z" fill="#140152"/>
<path d="M83.0318 160.68C83.0318 160.68 81.722 164.303 80.0133 165.284C78.3048 166.265 76.5963 168.536 77.4764 172.408C77.4764 172.408 78.7539 170.137 80.1345 168.794C81.5151 167.452 83.3057 166.297 83.0318 160.68Z" fill="#3B1FC9"/>
<path d="M82.1901 166.366C82.1901 166.366 79.7644 168.835 78.6204 170.622C77.4766 172.408 75.8197 174.267 77.5281 177.054C77.5284 177.054 82.3472 173.798 82.1901 166.366Z" fill="#140152"/>
<path d="M81.7995 170.188C81.7995 170.188 80.5997 174.96 77.2371 177.312C76.1304 178.086 76.5834 180.358 77.7807 181.958C77.7807 181.958 79.248 179.119 80.1485 178.086C81.0492 177.054 82.9126 174.268 81.7995 170.188Z" fill="#3B1FC9"/>
<path d="M81.7816 175.111C81.7816 175.111 80.1784 178.499 78.6205 179.945C77.0625 181.391 77.1979 182.406 77.2372 183.094C77.2372 183.094 78.0202 182.449 79.1204 182.32C80.2205 182.191 84.3655 182.035 81.7816 175.111Z" fill="#140152"/>
<path d="M76.8127 59.7847C77.4405 59.274 78.1136 58.7631 78.7792 58.339C79.1135 58.1259 79.4133 57.9773 79.7747 57.8371C80.1401 57.6955 85.2653 58.1802 85.424 57.7986C79.2151 55.573 77.7629 58.2183 76.4563 59.3003C76.0845 59.6084 75.8179 59.9736 75.3813 60.2009C77.2937 60.7051 78.7711 61.8311 80.7943 61.9913C81.1334 62.0182 83.2007 62.1919 82.325 61.5777C81.5846 61.0582 80.2698 61.2315 79.4137 61.0696C78.4689 60.8911 77.6756 60.4031 76.9162 59.8366" fill="#49494A"/>
<path d="M76.8127 59.7847C77.4405 59.274 78.1136 58.7631 78.7792 58.339C79.1135 58.1259 79.4133 57.9773 79.7747 57.8371C80.1401 57.6955 85.2653 58.1802 85.424 57.7986C79.2151 55.573 77.7629 58.2183 76.4563 59.3003C76.0845 59.6084 75.8179 59.9736 75.3813 60.2009C77.2937 60.7051 78.7711 61.8311 80.7943 61.9913C81.1334 62.0182 83.2007 62.1919 82.325 61.5777C81.5846 61.0582 80.2698 61.2315 79.4137 61.0696C78.4689 60.8911 77.6756 60.4031 76.9162 59.8366" stroke="#49494A" stroke-width="0.5" stroke-miterlimit="10"/>
<path d="M85.3466 56.0471C84.0059 56.4664 84.8585 57.0784 85.6835 57.523C86.3967 57.9075 87.1348 58.2475 87.8399 58.6455C88.2634 58.8849 89.9463 59.8923 89.9761 58.8344C89.9989 58.0431 88.619 57.3604 88.0657 56.9931C87.1659 56.3953 86.4327 55.9933 85.3464 55.8406" fill="white"/>
<path d="M97.9994 95.3201C95.6283 94.8879 93.0319 95.1404 90.7467 94.8612C87.2061 94.4288 84.8572 92.3403 82.4919 89.7401V90.0994C82.3813 90.1605 82.2933 90.2088 82.166 90.2401C82.3469 90.665 82.5281 91.0902 82.7116 91.5143C84.1574 94.852 85.7487 98.0927 88.4755 100.509C90.9672 102.717 94.5633 104.678 98.0097 104.607C98.0051 101.511 98.002 98.4156 97.9994 95.3201Z" fill="#C6C5C5"/>
<path d="M83.2339 82.9426C83.2339 82.9426 83.3996 83.1816 83.6737 83.608C83.8051 83.8253 83.9877 84.0728 84.1844 84.3601C84.2847 84.503 84.3863 84.657 84.5015 84.8148C84.6185 84.9717 84.7411 85.1365 84.8695 85.3087C85.1164 85.6583 85.4221 86.0089 85.7204 86.3951C85.8705 86.5876 86.0443 86.7703 86.2106 86.9649C86.3809 87.1563 86.5444 87.3603 86.731 87.5504C86.9127 87.7441 87.0975 87.9412 87.2845 88.1406C87.4815 88.3303 87.6799 88.5228 87.8763 88.7202C88.0684 88.9222 88.2883 89.0985 88.4926 89.2922L88.8044 89.5782C88.901 89.665 89.0206 89.7631 89.1277 89.855C89.2376 89.9515 89.3458 90.0414 89.4529 90.1256C89.5616 90.2107 89.6654 90.302 89.7775 90.3821L90.1093 90.6263C90.2208 90.7046 90.3354 90.7755 90.4477 90.8501C90.906 91.1276 91.3657 91.3869 91.8532 91.54C92.0895 91.6313 92.3436 91.6794 92.573 91.7503C92.8276 91.8081 93.0764 91.8645 93.3187 91.9197C93.8057 92.0365 94.2549 92.1122 94.6758 92.2017C94.781 92.223 94.8839 92.2435 94.9846 92.2639C95.086 92.279 95.185 92.2936 95.2816 92.3081C95.4753 92.3385 95.659 92.3672 95.8315 92.3943C96.0047 92.4199 96.1669 92.4499 96.3172 92.4672C96.4682 92.4814 96.6067 92.4945 96.732 92.5065C97.2343 92.5549 97.5257 92.5928 97.5257 92.5928C97.5257 92.5928 97.2394 92.6313 96.7306 92.6805C96.6029 92.6925 96.4618 92.7061 96.308 92.7205C96.1539 92.7343 95.9882 92.7251 95.81 92.7284C95.4547 92.7223 95.0487 92.7479 94.6118 92.7004C94.175 92.6652 93.6896 92.6416 93.2026 92.5632C92.9564 92.5297 92.7033 92.4954 92.4448 92.4604C92.302 92.4394 92.1718 92.4081 92.0329 92.3788C91.8957 92.3492 91.7562 92.3223 91.6203 92.2753C91.4831 92.2328 91.3447 92.1897 91.2053 92.1466C91.0699 92.0919 90.9338 92.0368 90.7967 91.9812C90.6571 91.9295 90.5274 91.8578 90.3938 91.7915C90.2614 91.7225 90.1264 91.6554 90.0018 91.5737C89.4841 91.2759 89.0066 90.8939 88.5571 90.5197C88.4461 90.4226 88.3427 90.3372 88.2257 90.2307L87.9035 89.9304C87.6911 89.7287 87.4721 89.5351 87.2768 89.3213C87.076 89.1127 86.8804 88.9027 86.6882 88.6946C86.5056 88.478 86.3254 88.264 86.1479 88.0532C85.9677 87.8454 85.8038 87.6303 85.6495 87.415C85.4956 87.1994 85.335 86.997 85.1981 86.7854C84.9209 86.3651 84.6566 85.9704 84.4499 85.5828C84.3428 85.392 84.2401 85.2093 84.1425 85.0356C84.0512 84.8577 83.9717 84.6844 83.8938 84.5247C83.7369 84.205 83.6081 83.9247 83.5194 83.6875C83.3318 83.2161 83.2339 82.9426 83.2339 82.9426Z" fill="white"/>
<path d="M98.005 100.286C96.4902 99.5919 94.6448 99.6471 92.9778 99.4088C92.8852 99.3738 92.7772 99.3587 92.6594 99.3596C92.3811 99.3121 92.1085 99.2552 91.8454 99.1817C91.0512 98.9589 90.3048 98.6589 89.5968 98.2988C88.092 97.2102 86.7373 95.5323 85.7613 94.4444C84.664 93.2203 83.6611 91.9142 82.7111 90.5692C82.8309 90.3978 82.8607 90.1698 82.7108 89.9346C81.9864 88.7946 81.2725 87.5555 80.7557 86.2583C80.6449 85.9268 80.5329 85.5958 80.4307 85.2614C80.0161 82.8041 80.3376 80.4083 81.9491 78.5793C81.9728 78.5524 81.9991 78.5274 82.0228 78.5005C82.5302 78.1307 83.062 77.79 83.509 77.4139C84.8455 76.2887 86.1853 75.1988 87.3513 73.8846C87.359 73.8761 87.3634 73.8669 87.3702 73.8584C87.3724 73.8558 87.3752 73.8538 87.3774 73.8507C87.6333 73.6293 87.8842 73.4046 88.128 73.1741C89.7096 71.6799 91.4036 69.8926 91.5715 67.5961C91.5831 67.4395 91.5454 67.3137 91.478 67.2178C92.2889 66.1787 92.9504 64.9881 93.4738 63.9595C94.2397 62.4547 94.8035 60.653 94.9586 58.8438L96.8695 58.2134C96.8695 58.2134 97.6295 51.0263 94.0393 48.7981C94.0393 48.7981 88.7458 44.1741 82.7547 44.3371C82.7547 44.3371 79.9301 43.165 82.1782 39.3589C84.4264 35.5531 88.0542 30.8215 86.9267 29.2009C86.9267 29.2009 86.5538 29.8189 86.3392 30.0197C86.1245 30.2206 86.1245 30.2206 86.1245 30.2206C86.1245 30.2206 86.1704 32.4757 83.8746 34.7511C81.5784 37.0268 77.0589 45.8332 76.704 48.7981L86.9633 51.0812L90.5695 52.9943C90.6787 53.1825 90.7867 53.3682 90.8936 53.5534L90.9715 54.0245C90.9715 54.0245 91.0499 54.031 91.1815 54.0573C92.1223 55.729 92.8661 57.3452 92.831 59.4136C92.786 62.0781 90.9432 64.5656 88.8583 66.0058C86.8957 67.3618 84.5256 67.983 82.0924 68.274C81.7577 68.2883 81.4226 68.302 81.0873 68.3066C79.9994 68.3209 78.919 68.4276 77.8353 68.2764C76.9112 68.1476 75.3879 67.238 74.6078 66.7596C74.6078 66.7596 74.8349 68.341 74.3172 69.2513C74.3429 69.7097 74.3492 69.5202 74.453 69.9471C74.2557 70.0501 74.0958 70.2379 74.0273 70.5285C73.7512 71.6989 72.8402 72.4858 72.7075 73.768C72.54 75.3881 72.9824 76.7345 73.6391 78.1887C73.8421 78.6379 74.0462 79.085 74.2527 79.5296C74.5608 80.4539 74.8118 81.3959 75.0116 82.3608C75.3579 84.0356 75.2804 85.7857 75.7608 87.4266C76.5662 90.1777 78.8865 92.7107 80.8619 94.6706C83.1603 96.9507 85.9 98.892 88.3874 100.96C89.0668 101.525 89.7667 102.043 90.4951 102.487C92.7399 104.052 95.5474 104.784 98.0091 103.763C98.0071 102.604 98.0063 101.445 98.005 100.286ZM80.9852 71.2858C80.7774 71.1722 80.3102 71.0357 79.7273 70.895C81.9342 71.0392 84.2477 70.6199 86.3686 69.7375C87.8126 70.0206 89.0523 69.5235 90.1057 68.6554C89.5755 70.1989 88.2147 71.5967 86.8224 72.7956C86.719 72.809 86.6168 72.8573 86.522 72.9461C86.518 72.9494 86.5147 72.9531 86.5108 72.9566C86.498 72.9687 86.4851 72.9779 86.4726 72.9917C86.3486 73.1317 86.2207 73.2693 86.0925 73.4065C86.0295 73.4582 85.9659 73.5111 85.9035 73.5617C85.7942 73.1656 85.2533 72.868 84.8418 73.2286C84.2787 73.7282 83.5966 73.9234 82.8645 73.9437C82.6972 73.5569 82.0516 73.3654 81.7158 73.8299C81.7103 73.8376 81.7046 73.8448 81.6991 73.8525C81.553 73.8284 81.4064 73.8004 81.2593 73.7691C81.0737 73.542 80.7399 73.4549 80.4866 73.5809C80.3391 73.5411 80.193 73.5002 80.0479 73.4582C81.0313 72.5359 81.6085 71.6258 80.9852 71.2858Z" fill="#F6F7F7"/>
<path d="M76.6791 49.0042C76.6567 49.1904 76.6236 49.4689 76.5957 49.7013C76.6159 49.5321 76.6433 49.3041 76.6791 49.0042Z" fill="#F6F7F7"/>
<path d="M81.7728 73.6239C81.7728 73.6239 83.1238 74.8103 84.7785 74.7211C86.4334 74.6316 82.8137 77.3939 80.9733 78.3617C79.1329 79.3295 78.9516 81.0211 80.6733 83.0664C82.395 85.1114 89.7262 72.6992 89.7262 72.6992L81.7728 73.6239Z" fill="#C6C5C5"/>
<path d="M85.9259 56.2369C84.2303 55.5433 82.0669 55.4391 80.2697 55.712C78.2432 56.0192 76.664 58.1745 75.0431 59.2769C74.3853 59.7241 74.848 60.4534 75.5121 60.002C77.0208 58.9758 78.3876 57.7325 80.1012 57.0443C81.581 56.4498 84.175 56.85 85.5956 57.4316C86.3369 57.7351 86.6564 56.536 85.9259 56.2369Z" fill="white"/>
<path d="M74.6348 62.5181C74.6348 62.5181 75.9434 62.5146 76.6994 62.8817C77.4388 63.2406 77.7392 63.4815 78.12 63.7152C78.12 63.7152 76.8658 63.0058 76.5 62.8817C76.3176 62.82 75.1667 62.5483 74.6348 62.5181Z" fill="#49494A" stroke="#49494A" stroke-width="0.1" stroke-miterlimit="10"/>
<path d="M74 63.9511C74 63.9511 76.351 63.2176 77.7028 63.5538C81.2231 64.4302 82.0212 64.4776 82.8337 64.4475C84.7141 64.3773 86.6171 63.7669 87.6883 63.3551C88.4171 63.0745 88.3218 62.9849 89 62.8333C89 62.8333 89 62.8333 88.5336 63.1351C88.0671 63.437 85.2257 64.9884 82.5 65C80 65 78.8397 64.2083 77.7028 63.9511C76.5658 63.6942 75.7783 63.5538 74 63.9511Z" fill="#49494A"/>
<path d="M80.8435 55.9189C80.8435 55.9189 78.4711 56.2695 77.0655 57.671C75.6599 59.0727 75.1035 59.4285 74.6348 59.674C74.6348 59.674 75.9237 58.7296 76.3775 58.0399C76.8316 57.3497 78.6763 55.7145 80.8435 55.9189Z" fill="#1B1A1A" stroke="#1B1A1A" stroke-width="0.5" stroke-miterlimit="10"/>
<path d="M79.5259 62.2844C79.5259 62.2844 82.3396 63.3715 86.1443 61.9925C88.0477 61.3026 88.7803 61.1166 89.0142 61.0875C89.0142 61.0875 85.6464 62.3973 84.7677 62.6914C83.8894 62.9855 81.81 63.4527 79.5259 62.2844Z" fill="#49494A" stroke="#49494A" stroke-width="0.5" stroke-miterlimit="10"/>
<path d="M91.4007 59.277C91.4007 59.277 88.6331 56.8397 86.6562 56.2408C84.6793 55.6416 87.9302 56.2408 87.9302 56.2408C87.9302 56.2408 89.424 56.6491 91.4007 59.277Z" fill="#1B1A1A" stroke="#1B1A1A" stroke-miterlimit="10"/>
<path d="M72.6868 61.8612C72.5217 61.9877 74.3349 60.9897 76.0473 60.7444C76.0473 60.7442 74.1146 60.7663 72.6868 61.8612Z" fill="#49494A" stroke="#49494A" stroke-width="0.5" stroke-miterlimit="10"/>
<path d="M71.1061 60.9413C70.9742 60.9403 73.0466 61.1604 74.635 60.5473C76.2239 59.9341 75.6968 59.8904 75.6968 59.8904C75.6968 59.8904 73.0577 60.9562 71.1061 60.9413Z" fill="#49494A" stroke="#49494A" stroke-width="0.5" stroke-miterlimit="10"/>
<path d="M97.7974 14.8516C97.7974 14.8516 93.2685 13.1475 87.5733 16.8644C81.8776 20.5812 79.1853 22.5945 75.6127 23.6271C75.6127 23.6271 79.962 22.3882 83.9487 20.065C83.9487 20.065 87.3292 18.2697 89.8513 17.8968C89.8513 17.8968 83.8967 20.323 82.0326 22.0783C80.1689 23.8337 70.7282 26.2082 68.6657 34.4682C66.6035 42.7282 64.9466 46.1439 62.1504 47.9937C62.1504 47.9937 68.3087 43.9774 69.3647 37.2557C70.4208 30.5339 72.1949 31.8869 74.5769 29.9252C74.5769 29.9252 71.1096 31.2674 71.1344 34.4682C71.1592 37.6688 67.4315 40.3018 64.7392 47.9937C62.0907 55.5603 62.0464 59.5574 56.7653 62.4483C56.7653 62.4483 61.5965 59.9705 62.9607 56.0986C62.9607 56.0986 63.0825 61.0029 59.7684 64.2037C56.4546 67.4045 49.7235 73.2895 51.2771 80.7234C51.2771 80.7234 51.0702 73.7024 55.2122 70.3985C59.3543 67.0946 61.6325 64.8233 62.0466 64.1006C62.0466 64.1006 59.4581 70.2954 56.3514 74.322C53.245 78.3487 52.3129 84.0273 52.1058 88.5703C52.1058 88.5703 52.6235 81.2396 56.8691 76.2837C61.1148 71.3278 64.3253 69.4392 65.3605 66.2535C65.3605 66.2535 64.1429 71.844 57.7101 78.9681C51.2773 86.0922 54.5855 100.921 56.8033 106.587C56.8033 106.587 51.6914 90.3771 56.662 83.1238C61.6323 75.8706 62.9787 77.3161 64.5318 74.3218C64.5318 74.3218 63.3928 78.4001 61.2182 83.1238C59.0433 87.8474 57.3866 93.9389 59.3541 101.579C61.3218 109.22 61.2177 114.279 58.3185 122.229C55.4192 130.179 53.2443 133.999 56.1441 139.781C56.1441 139.781 53.8527 134.171 56.9872 129.052C60.1215 123.932 64.2213 115.518 64.3248 112.007C64.3248 112.007 62.1518 124.011 58.9402 128.011C55.7284 132.011 55.9621 136.994 57.7101 141.124C57.7101 141.124 56.0407 134.722 58.3187 131.212C60.5969 127.701 66.3959 119.751 66.1887 116.138C66.1887 116.138 66.1198 123.158 69.3645 126.772C72.609 130.386 72.5056 131.935 72.1946 133.896C72.1946 133.896 74.0096 130.19 71.1342 127.701C68.2593 125.213 67.1247 119.751 67.2263 116.964C67.3277 114.176 71.0385 104.058 68.6653 96.6237C66.2923 89.1898 66.6704 82.8917 67.8794 78.8648C69.0884 74.838 69.4639 63.5026 68.7066 61.0138C67.9492 58.5248 69.6577 42.3149 79.4695 36.7395C79.4695 36.7395 74.3695 34.6748 78.2008 30.2867C82.0324 25.8984 89.695 20.0134 89.695 20.0134C89.695 20.0134 94.5595 14.1803 97.7974 14.8516Z" fill="#3111A8"/>
<path d="M95.4947 15.7804C95.4947 15.7804 92.0773 15.8708 88.4527 20.0136C84.8285 24.1564 75.9218 27.3994 71.8846 29.5125C71.8846 29.5125 77.7014 27.655 80.7472 26.5703C80.7472 26.5703 72.04 28.8932 72.3575 36.7399C72.3575 36.7399 75.618 29.5136 78.3049 29.6158C78.3049 29.6158 71.4534 35.501 68.6658 44.5868C65.8784 53.6724 67.5393 61.1796 67.2268 66.2537C66.9138 71.328 66.6031 74.975 66.189 77.213C66.189 77.213 68.2602 67.4044 67.7423 58.7315C67.2246 50.0586 69.1058 48.6593 70.4346 47.2064C70.4346 47.2064 67.5353 52.6398 68.6743 60.177C69.8133 67.7143 70.8325 58.9388 70.8325 58.9388C70.8325 58.9388 69.8673 58.9051 71.1347 54.0172C72.4023 49.1293 77.7793 41.6477 80.169 37.9869C82.5582 34.3264 82.9936 31.3046 84.6216 30.235C87.3918 28.4151 90.2206 18.4259 95.4947 15.7804Z" fill="#140152"/>
<path d="M64.2217 81.0332C64.2217 81.0332 61.4258 87.4346 61.2187 90.945C61.0117 94.4554 62.1505 99.4114 62.72 103.954C63.2897 108.498 63.7826 112.834 62.7077 115.518C62.7077 115.518 64.5321 107.362 64.2215 104.368C63.9108 101.373 62.8751 96.4176 63.7038 93.6299C63.7038 93.6299 63.9108 97.1403 64.7394 99.6181C65.5677 102.096 66.6138 108.901 64.7614 113.57C62.9092 118.239 62.2429 120.648 61.9214 121.606C61.9214 121.606 68.0173 112.111 67.8799 106.587C67.7425 101.064 66.4999 99.6181 66.1892 95.488C65.8784 91.3581 65.3414 82.6852 67.5356 78.2457C69.7295 73.8062 68.5146 69.777 67.8823 66.6819C67.8821 66.6817 69.1929 73.438 64.2217 81.0332Z" fill="#3B1FC9"/>
<path d="M92.9833 23.3817C92.9833 23.3817 92.8187 23.434 92.534 23.5821C92.2485 23.7277 91.8469 23.9732 91.3549 24.3097C90.8628 24.6476 90.2885 25.0898 89.6468 25.616C89.0064 26.1451 88.3112 26.7742 87.5633 27.4702C87.3789 27.6453 87.1908 27.8241 86.9988 28.0061C86.8099 28.1945 86.6113 28.3864 86.428 28.5816C86.054 28.9726 85.6696 29.3877 85.3026 29.8321C84.5622 30.7194 83.8796 31.7251 83.2294 32.8091C82.9048 33.3524 82.5914 33.9178 82.2675 34.4964C81.9442 35.0749 81.6093 35.667 81.2211 36.2458C80.8357 36.825 80.4028 37.3961 79.9017 37.9153C79.4093 38.4217 78.9177 38.8866 78.4423 39.3715C77.482 40.3275 76.5662 41.3172 75.7535 42.3614C74.9378 43.4021 74.2019 44.4767 73.5815 45.5707C72.9701 46.669 72.4522 47.7722 72.0499 48.8545C71.6507 49.9376 71.352 50.9925 71.1374 51.9818C70.921 52.971 70.7992 53.8955 70.7154 54.7182C70.6822 55.1303 70.6449 55.5167 70.6337 55.8753C70.6179 56.2337 70.5953 56.5639 70.6004 56.8622C70.5986 57.1611 70.5969 57.4278 70.5956 57.66C70.6021 57.8924 70.6081 58.0899 70.6125 58.2501C70.6219 58.5713 70.6267 58.7427 70.6267 58.7427C70.6267 58.7427 70.6013 58.5733 70.553 58.2554C70.5291 58.0961 70.4992 57.8998 70.4645 57.6687C70.4358 57.437 70.4114 57.1698 70.3822 56.8701C70.3274 56.2705 70.285 55.5381 70.2956 54.6959C70.2912 54.485 70.305 54.2681 70.314 54.0443C70.3261 53.8207 70.328 53.5894 70.3491 53.3537C70.3711 53.1176 70.3934 52.8756 70.4165 52.6279C70.4404 52.38 70.483 52.1288 70.5168 51.8704C70.6678 50.84 70.9054 49.7295 71.275 48.5882C71.6389 47.446 72.1186 46.2679 72.7329 45.109C73.0449 44.5331 73.3724 43.9513 73.7402 43.3859C73.9177 43.0986 74.1135 42.8218 74.3033 42.5384C74.5054 42.2638 74.7032 41.9837 74.9161 41.7139C75.7513 40.6214 76.6899 39.5844 77.6652 38.6002C78.1544 38.1112 78.6629 37.6379 79.1266 37.1696C79.5785 36.7103 79.9761 36.1974 80.3422 35.658C81.0688 34.5758 81.7094 33.4058 82.4091 32.306C83.1021 31.2012 83.8764 30.1855 84.6868 29.2989C85.0933 28.8551 85.5015 28.4413 85.9204 28.0584C86.13 27.8626 86.3354 27.6886 86.5373 27.5118C86.7449 27.3383 86.9488 27.1681 87.1485 27.0013C88.7418 25.6788 90.1786 24.7047 91.241 24.125C91.7694 23.8303 92.2079 23.6419 92.5105 23.5274C92.8136 23.4141 92.9833 23.3817 92.9833 23.3817Z" fill="#3B1FC9"/>
<path d="M92.6383 23.504C92.6383 23.504 92.4368 23.5605 92.0662 23.6845C91.6955 23.808 91.1565 24.0045 90.4814 24.2769C89.8073 24.5521 89.0005 24.9134 88.106 25.3821C87.2148 25.8554 86.2362 26.4412 85.2544 27.186C84.7652 27.5597 84.2773 27.9759 83.8116 28.4424C83.5805 28.6768 83.3508 28.9203 83.1304 29.1761C82.9013 29.4428 82.6832 29.7054 82.4659 29.9842C81.5883 31.0927 80.7925 32.3524 80.0038 33.6926C79.6081 34.3627 79.2131 35.0539 78.7823 35.7449C78.3532 36.4363 77.8834 37.1267 77.3387 37.7746C77.0683 38.0998 76.7797 38.4142 76.4734 38.7129C76.3215 38.8634 76.1637 39.0089 76.0026 39.1507L75.7715 39.3525L75.5404 39.561C75.3936 39.7021 75.2698 39.8282 75.134 39.9763C75.0025 40.1264 74.8673 40.2719 74.7436 40.4317C74.6158 40.5866 74.4912 40.7448 74.3729 40.9091C74.2502 41.0697 74.1335 41.2356 74.0202 41.4043C73.0963 42.7421 72.3401 44.2077 71.719 45.6965C71.5651 46.0698 71.415 46.4431 71.2801 46.8201C71.133 47.1928 71.013 47.5729 70.8815 47.9466C70.6401 48.7013 70.4167 49.4527 70.2383 50.2026C69.8755 51.7006 69.6207 53.1734 69.4755 54.5819C69.333 55.9906 69.2874 57.332 69.3087 58.5704C69.3262 59.8096 69.43 60.9435 69.5439 61.9461C69.6714 62.9471 69.8147 63.8178 69.9594 64.5298C70.0331 64.8858 70.0992 65.204 70.1562 65.4806C70.2234 65.7552 70.2804 65.9887 70.327 66.1781C70.4196 66.5574 70.4692 66.7598 70.4692 66.7598C70.4692 66.7598 70.4036 66.5619 70.2811 66.1913C70.2194 66.0055 70.1437 65.7766 70.0546 65.5075C69.9771 65.2346 69.8885 64.9208 69.7888 64.5696C69.5973 63.8646 69.391 62.9999 69.2112 61.9955C69.0394 60.9909 68.8708 59.8483 68.8044 58.5908C68.7264 57.335 68.7146 55.9668 68.8219 54.5248C68.9253 53.0835 69.134 51.5673 69.4849 50.0264C69.8308 48.4851 70.3015 46.9138 70.9344 45.3749C71.5662 43.8364 72.3333 42.3185 73.2971 40.9085C73.79 40.2058 74.3091 39.5372 74.9648 38.9212L75.1972 38.7142L75.4358 38.5085C75.5863 38.3774 75.7336 38.2431 75.876 38.1037C76.163 37.8276 76.4339 37.5359 76.6897 37.232C77.7164 36.0175 78.522 34.6314 79.3419 33.2966C80.1548 31.9564 81.0199 30.6846 81.9557 29.5733C82.1872 29.2943 82.4293 29.0205 82.6612 28.7663C82.9042 28.5028 83.15 28.2525 83.4041 28.019C83.9117 27.5523 84.4356 27.1431 84.9561 26.7794C85.9977 26.051 87.0274 25.5097 87.957 25.0808C88.8871 24.6513 89.7256 24.3447 90.4209 24.1128C91.1161 23.8799 91.6733 23.7344 92.0532 23.6384C92.4335 23.5443 92.6383 23.504 92.6383 23.504Z" fill="#3111A8"/>
<path d="M50.0347 88.1573C50.0347 88.1573 49.9632 88.4508 49.8289 89.0007C49.7617 89.2759 49.6759 89.6144 49.5699 90.0111C49.465 90.4083 49.3487 90.8663 49.1993 91.3735C48.9144 92.392 48.5477 93.6237 48.087 95.0252C47.843 95.7215 47.6027 96.4696 47.313 97.2462C47.1629 97.6331 47.0095 98.0296 46.8521 98.4357C46.7729 98.639 46.693 98.8442 46.6121 99.0519C46.5291 99.2586 46.4308 99.4626 46.3395 99.6715C46.1525 100.089 45.962 100.514 45.7678 100.948L45.6947 101.111L45.6543 101.2L45.6133 101.279C45.5589 101.384 45.504 101.491 45.4489 101.597C45.3366 101.81 45.2332 102.026 45.1105 102.242C44.6275 103.12 44.0839 103.973 43.5436 104.856C42.4507 106.604 41.4666 108.514 41.1267 110.682C41.1047 110.817 41.0692 110.949 41.0582 111.086L41.0169 111.497C40.9946 111.773 40.9491 112.046 40.9445 112.325C40.9397 112.884 40.8989 113.444 40.9472 114.013C40.9612 114.297 40.9759 114.582 40.9904 114.867C41.0174 115.152 41.0554 115.438 41.0872 115.725C41.1234 116.012 41.1466 116.3 41.1883 116.587C41.2373 116.874 41.2858 117.162 41.3345 117.451C41.3834 117.736 41.4322 118.022 41.4815 118.309C41.5432 118.601 41.6053 118.893 41.6676 119.186C41.7372 119.468 41.807 119.751 41.8768 120.034L42.1142 120.886C42.4489 122.019 42.8567 123.135 43.3105 124.239C43.758 125.345 44.2535 126.439 44.7383 127.547C45.2222 128.654 45.6903 129.784 46.0344 130.965C46.2054 131.556 46.3351 132.16 46.4288 132.769C46.5028 133.381 46.5458 133.997 46.5214 134.608C46.4841 135.833 46.2166 137.018 45.8385 138.123C45.6486 138.676 45.4272 139.21 45.1862 139.726C45.0734 139.989 44.9369 140.236 44.8112 140.488C44.6854 140.732 44.5599 140.975 44.4357 141.216C44.191 141.7 43.9274 142.178 43.7058 142.653C43.4885 143.129 43.2741 143.6 43.0623 144.064C42.2595 145.951 41.6723 147.805 41.3156 149.556C40.9612 151.308 40.8333 152.952 40.8605 154.408C40.8901 155.865 41.0523 157.133 41.2351 158.169C41.437 159.201 41.6284 160.008 41.7774 160.554C41.929 161.099 42.0102 161.39 42.0102 161.39C42.0102 161.39 41.9095 161.105 41.7205 160.571C41.5371 160.035 41.2794 159.244 41.0218 158.214C40.7788 157.182 40.5357 155.909 40.4411 154.425C40.3417 152.944 40.3921 151.253 40.6961 149.443C40.9928 147.633 41.5263 145.706 42.3045 143.754C42.5108 143.269 42.7199 142.776 42.9313 142.278C43.1472 141.783 43.3928 141.309 43.6261 140.815C43.7448 140.568 43.8644 140.321 43.9847 140.072C44.101 139.83 44.2287 139.59 44.3312 139.339C44.5524 138.844 44.753 138.337 44.9222 137.817C45.2591 136.778 45.4847 135.688 45.5003 134.582C45.5139 134.029 45.4649 133.473 45.3899 132.918C45.3004 132.364 45.1796 131.81 45.0173 131.259C44.69 130.159 44.2355 129.071 43.7501 127.978C43.2657 126.885 42.7566 125.781 42.2949 124.65C41.8362 123.518 41.4205 122.362 41.0802 121.186L40.8383 120.302C40.7663 120.002 40.6943 119.702 40.6224 119.403C40.562 119.11 40.5014 118.818 40.4411 118.526C40.3908 118.225 40.3408 117.924 40.2908 117.624C40.242 117.327 40.1938 117.029 40.1453 116.733C40.1042 116.435 40.0779 116.135 40.0467 115.836C40.018 115.537 39.984 115.24 39.9605 114.943C39.9497 114.643 39.9394 114.344 39.9286 114.046C39.8887 113.452 39.939 112.855 39.9552 112.265C39.9655 111.97 40.0169 111.677 40.0461 111.384L40.0979 110.946C40.1121 110.801 40.1518 110.658 40.1775 110.514C40.3709 109.358 40.7571 108.254 41.2325 107.239C41.7096 106.223 42.2808 105.292 42.8527 104.422C43.4216 103.55 43.9783 102.709 44.4688 101.893C44.5946 101.689 44.7091 101.472 44.8283 101.265C44.8875 101.16 44.9459 101.056 45.0045 100.952L45.0482 100.875L45.0833 100.803L45.161 100.645C45.3671 100.226 45.5698 99.8153 45.7682 99.4125C45.8657 99.2101 45.9697 99.0136 46.059 98.8123C46.1464 98.6099 46.2331 98.4096 46.3184 98.2118C46.4903 97.8164 46.6584 97.43 46.8221 97.0532C47.1453 96.2972 47.4184 95.5655 47.6936 94.885C48.2113 93.5113 48.6515 92.3076 48.9921 91.3083C49.3331 90.3094 49.6013 89.5232 49.7721 88.9838C49.9435 88.4451 50.0347 88.1573 50.0347 88.1573Z" fill="#3111A8"/>
<path d="M44.6899 102.243C44.6899 102.243 43.9641 102.783 42.8484 103.884C42.2899 104.432 41.6438 105.13 40.9606 105.97C40.2838 106.815 39.58 107.816 38.9539 108.975C38.6394 109.554 38.3536 110.177 38.1107 110.837C37.8684 111.497 37.6544 112.191 37.5142 112.919C37.3779 113.643 37.3016 114.414 37.3167 115.168C37.3171 115.588 37.367 115.948 37.4058 116.329C37.4376 116.524 37.4692 116.72 37.5015 116.917C37.5333 117.114 37.5844 117.311 37.625 117.51C37.9797 119.099 38.5955 120.706 39.2148 122.35C39.8403 123.995 40.5195 125.668 41.0837 127.407C41.6286 129.147 42.0776 130.972 42.0537 132.862C42.0412 133.098 42.0439 133.333 42.0177 133.568C41.9877 133.803 41.9576 134.038 41.9273 134.273C41.8729 134.504 41.8185 134.735 41.764 134.966C41.7011 135.194 41.6117 135.416 41.5356 135.64C41.1897 136.523 40.6608 137.316 40.0391 137.979C39.8765 138.136 39.7143 138.293 39.5528 138.45C39.3886 138.602 39.2065 138.728 39.0353 138.867C38.6982 139.156 38.3146 139.356 37.9562 139.589L37.8884 139.631L37.8105 139.674L37.6768 139.745L37.4102 139.887C37.2329 139.981 37.0569 140.074 36.8817 140.168C36.5295 140.352 36.1928 140.544 35.8294 140.708C35.4737 140.877 35.1223 141.043 34.7765 141.207C34.6048 141.292 34.431 141.367 34.2572 141.437C34.0841 141.509 33.9122 141.579 33.7415 141.65C33.0647 141.941 32.3874 142.167 31.7435 142.395C30.4419 142.814 29.2294 143.139 28.1317 143.313C27.0379 143.501 26.0734 143.593 25.2778 143.599C24.4832 143.615 23.8603 143.564 23.4398 143.507C23.0194 143.451 22.8008 143.395 22.8008 143.395C22.8008 143.395 23.0248 143.426 23.4456 143.436C23.8665 143.45 24.484 143.419 25.2611 143.338C26.0393 143.262 26.9734 143.079 28.0268 142.821C28.2886 142.752 28.5592 142.68 28.8377 142.606C29.1122 142.518 29.3947 142.428 29.6846 142.336C29.9756 142.249 30.2679 142.14 30.5677 142.03C30.8661 141.917 31.1771 141.819 31.4839 141.687C32.0986 141.427 32.7425 141.17 33.3853 140.846C33.7059 140.685 34.0468 140.548 34.3689 140.37C34.695 140.198 35.0258 140.023 35.3611 139.846C35.6971 139.678 36.0335 139.468 36.3759 139.269C36.5466 139.169 36.7189 139.067 36.8918 138.966L37.1521 138.813L37.2829 138.736L37.3154 138.716C37.3213 138.713 37.3485 138.697 37.3371 138.703L37.3966 138.662C37.5553 138.554 37.7146 138.444 37.8748 138.334C37.954 138.279 38.0387 138.229 38.1144 138.169L38.3378 137.984C38.4842 137.858 38.6442 137.744 38.7818 137.608C38.9168 137.47 39.0524 137.331 39.1887 137.192C39.7022 136.613 40.1201 135.948 40.3883 135.209C40.6602 134.473 40.7785 133.668 40.7828 132.843C40.7874 132.018 40.6825 131.173 40.5136 130.33C40.343 129.486 40.0957 128.644 39.8299 127.805C39.3011 126.122 38.6431 124.459 38.0262 122.795C37.7119 121.965 37.4218 121.126 37.1582 120.287C36.8903 119.449 36.6671 118.598 36.4939 117.747C36.4553 117.532 36.4073 117.322 36.3776 117.106C36.3482 116.89 36.319 116.676 36.2903 116.462C36.2692 116.243 36.2558 116.018 36.2411 115.798C36.2205 115.569 36.2385 115.381 36.2367 115.174C36.2574 114.309 36.3761 113.498 36.5574 112.713C36.9331 111.151 37.5754 109.77 38.3019 108.601C39.021 107.424 39.8258 106.452 40.5823 105.642C41.3396 104.832 42.0623 104.192 42.6744 103.69C43.284 103.185 43.7971 102.832 44.1454 102.593C44.4957 102.357 44.6899 102.243 44.6899 102.243Z" fill="#3111A8"/>
<path d="M66.3981 119.039C66.3981 119.039 66.4808 119.284 66.6123 119.75C66.7424 120.217 66.9279 120.904 67.1032 121.793C67.2792 122.682 67.4603 123.77 67.5551 125.035C67.6424 126.298 67.6714 127.743 67.4247 129.307C67.301 130.088 67.1096 130.898 66.8054 131.708C66.5054 132.518 66.0643 133.323 65.4843 134.053C64.3699 135.466 63.0893 136.835 61.8676 138.312C60.6448 139.786 59.4891 141.386 58.5796 143.144C57.6717 144.9 57.0465 146.824 56.8086 148.807C56.6899 149.798 56.6594 150.799 56.7009 151.796C56.7445 152.293 56.7647 152.792 56.8433 153.284C56.8797 153.531 56.9019 153.779 56.9493 154.023C56.9954 154.267 57.0412 154.511 57.0871 154.755C57.1275 154.999 57.1924 155.239 57.2495 155.48C57.3083 155.72 57.3669 155.959 57.4257 156.198C57.5679 156.671 57.6856 157.148 57.8456 157.61C58.1488 158.532 58.4971 159.46 58.8294 160.367C59.5003 162.18 60.1367 163.939 60.7334 165.611C61.3332 167.282 61.8779 168.873 62.3357 170.359C62.5626 171.103 62.7742 171.818 62.9469 172.508C63.1178 173.198 63.259 173.86 63.3601 174.489C63.5726 175.743 63.5693 176.878 63.4005 177.78C63.2315 178.687 62.9028 179.338 62.6612 179.756C62.5986 179.86 62.5433 179.952 62.4957 180.032C62.4437 180.108 62.3998 180.173 62.3644 180.224C62.2942 180.328 62.2578 180.381 62.2578 180.381C62.2578 180.381 62.2898 180.325 62.3517 180.216C62.3827 180.162 62.4208 180.095 62.4665 180.015C62.5073 179.932 62.5547 179.837 62.6083 179.729C62.7134 179.512 62.8264 179.237 62.9353 178.907C63.0325 178.575 63.1341 178.189 63.1846 177.747C63.2895 176.864 63.2162 175.778 62.9473 174.565C62.6833 173.351 62.2512 172.008 61.7377 170.556C61.2182 169.106 60.6085 167.547 59.9657 165.896C59.317 164.246 58.6328 162.506 57.925 160.706C57.2324 158.918 56.4467 157.01 56.0493 154.968C55.9995 154.712 55.9499 154.457 55.9 154.201C55.8487 153.945 55.8228 153.684 55.7835 153.425C55.6981 152.907 55.6718 152.379 55.6235 151.854C55.573 150.798 55.5965 149.732 55.7199 148.674C55.9861 146.558 56.6701 144.503 57.6397 142.657C58.6049 140.803 59.8608 139.178 61.1293 137.694C62.3974 136.204 63.7266 134.881 64.8514 133.539C65.3987 132.895 65.8137 132.179 66.1266 131.437C66.4418 130.697 66.6566 129.939 66.8072 129.197C67.1015 127.711 67.1546 126.3 67.1375 125.055C67.1072 123.808 67.0058 122.72 66.889 121.828C66.7688 120.936 66.65 120.237 66.5546 119.763C66.4611 119.289 66.3981 119.039 66.3981 119.039Z" fill="#3111A8"/>
<path d="M64.9925 115.056C64.9925 115.056 65.095 115.263 65.2541 115.667C65.4121 116.07 65.6307 116.671 65.8218 117.462C66.0143 118.251 66.2004 119.228 66.2666 120.367C66.3366 121.505 66.2996 122.808 66.0261 124.201C65.9449 124.547 65.862 124.899 65.7777 125.259C65.6732 125.613 65.5534 125.971 65.4377 126.337C65.1898 127.056 64.7998 127.8 64.3736 128.486C63.5087 129.875 62.4305 131.18 61.3701 132.528C60.3092 133.875 59.2964 135.305 58.5265 136.868C58.1434 137.649 57.83 138.466 57.6063 139.308C57.3869 140.152 57.2655 141.022 57.2295 141.896C57.2265 142.115 57.2025 142.333 57.2129 142.553L57.2289 143.212C57.2399 143.431 57.266 143.65 57.2831 143.87L57.3129 144.198L57.3627 144.525C57.3972 144.743 57.4255 144.962 57.4641 145.178L57.602 145.826C57.6254 145.933 57.6458 146.041 57.672 146.149L57.7589 146.468C57.8166 146.681 57.8741 146.893 57.9316 147.106C58.2132 147.959 58.4927 148.806 58.7684 149.643C59.0583 150.479 59.2984 151.344 59.5503 152.18C59.6811 152.598 59.7805 153.019 59.8911 153.433C59.9984 153.848 60.1102 154.257 60.203 154.666C60.3733 155.49 60.5697 156.287 60.6948 157.079C60.9992 158.65 61.1504 160.163 61.2384 161.556C61.3323 162.951 61.2854 164.236 61.2066 165.366C61.1267 166.498 60.9538 167.473 60.8056 168.269C60.6428 169.064 60.4769 169.678 60.3632 170.096C60.2447 170.512 60.1817 170.734 60.1817 170.734C60.1817 170.734 60.2205 170.507 60.2934 170.081C60.3305 169.868 60.3652 169.603 60.4119 169.294C60.4569 168.985 60.494 168.627 60.5467 168.229C60.6228 167.43 60.7003 166.459 60.7029 165.346C60.7137 165.068 60.6935 164.78 60.69 164.485C60.6838 164.189 60.677 163.886 60.6505 163.575C60.6303 163.264 60.6092 162.945 60.5879 162.619C60.5546 162.293 60.5197 161.96 60.4846 161.62C60.4565 161.28 60.395 160.935 60.3465 160.583C60.2925 160.232 60.2504 159.872 60.1758 159.511C60.1099 159.148 60.0432 158.779 59.975 158.405C59.903 158.032 59.813 157.655 59.7311 157.272C59.5769 156.504 59.3506 155.729 59.1507 154.931C58.9159 154.142 58.7017 153.326 58.4398 152.514C58.1721 151.702 57.9232 150.879 57.609 150.041C57.4584 149.623 57.307 149.202 57.1549 148.779C57.0818 148.564 57.0085 148.349 56.935 148.134C56.8617 147.913 56.7834 147.695 56.714 147.472C56.651 147.247 56.5876 147.021 56.5242 146.795L56.4289 146.456C56.4002 146.342 56.3769 146.225 56.3506 146.11L56.1976 145.417C56.154 145.184 56.1204 144.947 56.0818 144.712L56.0254 144.359L55.9896 144.002C55.9683 143.763 55.9389 143.525 55.9248 143.285L55.9009 142.563C55.8895 142.322 55.9095 142.08 55.9148 141.839C55.9626 140.874 56.1057 139.91 56.3565 138.978C56.6118 138.048 56.9646 137.152 57.3878 136.308C58.2305 134.612 59.3647 133.153 60.467 131.808C61.5696 130.46 62.6864 129.23 63.5511 127.957C63.9876 127.314 64.338 126.698 64.6196 126.022C64.7469 125.685 64.8801 125.354 64.9986 125.025C65.098 124.689 65.1957 124.36 65.2914 124.037C65.6195 122.729 65.7507 121.485 65.7654 120.38C65.7757 119.273 65.6871 118.304 65.5661 117.513C65.4424 116.722 65.3037 116.104 65.1865 115.689C65.0726 115.273 64.9925 115.056 64.9925 115.056Z" fill="#3111A8"/>
<path d="M82.747 49.1155C85.2908 49.5024 87.7546 51.189 87.7546 51.189C87.3449 50.5757 86.7003 49.7289 86.7003 49.7289C87.4911 49.9332 88.6865 51.2203 88.6276 50.9284C88.5693 50.6363 88.0472 50.0936 88.0472 50.0936C88.7793 50.4444 89.4238 51.5391 89.6288 52.0938C89.8342 52.6487 90.8299 54.6342 90.8299 54.6342L90.0974 54.0504V54.4592C89.6872 53.9336 88.3992 53.3787 88.3992 53.3787L88.4429 54.0067C88.0035 53.4517 86.8467 53.0574 87.0223 53.1161C87.1981 53.1743 87.321 53.8264 87.321 53.8264C86.911 53.2132 84.8551 52.2109 85.6162 52.7071C85.6557 52.7329 85.6941 52.7594 85.731 52.7861C86.41 53.2741 86.6268 53.8023 86.6268 53.8023C86.085 53.3358 83.8884 52.0649 83.0685 51.919C82.2484 51.7728 81.3258 51.3934 79.0564 51.2765C77.1317 51.1774 74.9854 51.6562 75.6299 51.7043C75.6624 51.7067 75.6949 51.71 75.7263 51.7141C76.3177 51.7892 76.7134 52.1235 76.7134 52.1235C75.8643 51.9483 74.2827 52.5323 74.2827 52.5323C74.722 52.4154 76.3035 52.6491 76.3035 52.6491C75.4541 52.5616 73.7263 53.1456 73.7263 53.1456C74.1071 53.1165 74.4585 53.4084 74.4585 53.4084C73.9899 53.35 73.404 53.6712 73.404 53.6712C73.58 53.6712 74.1069 53.9922 74.1069 53.9922C73.1406 53.9922 71.8228 55.0145 71.8228 55.0145C71.8228 55.0145 71.9691 52.3279 73.6383 50.9848C73.6383 50.9848 75.0587 50.1453 75.8274 49.8387C76.5962 49.5324 77.431 48.7219 77.7166 48.481C77.7166 48.481 77.277 49.1816 77.0354 49.4225L78.1006 48.6232C78.1006 48.6232 77.8869 49.0728 77.6893 49.2481C77.6893 49.2481 78.7265 48.9188 79.1218 48.481C79.1218 48.481 78.9681 48.9847 78.6607 49.116C78.3539 49.2468 81.3558 48.9039 82.747 49.1155Z" fill="black" stroke="black" stroke-width="0.5" stroke-miterlimit="15" stroke-linecap="round"/>
<path d="M75.4517 60.384C75.4517 60.384 76.9196 60.4155 77.7979 59.7733C78.6766 59.1309 80.0239 58.255 81.4879 57.9631C82.9521 57.671 84.7596 57.6848 86.4665 58.693C87.683 59.4114 88.1263 59.6283 88.8644 59.8683C88.8644 59.8683 89.1499 59.923 90.0573 60.3114C90.0573 60.3114 89.8203 59.9998 89.1062 59.737C88.3866 59.472 87.9676 59.0361 86.8548 58.4232C85.7419 57.8099 84.9369 57.5605 84.2704 57.423C83.3522 57.234 82.4728 57.3788 81.4881 57.3355C80.5756 57.2955 80.0239 57.1021 80.0239 57.1021C80.0239 57.1021 80.3166 57.3797 81.0046 57.4961C81.0046 57.4961 80.287 57.7298 79.4671 57.5401C79.4671 57.5401 79.6789 57.9631 80.097 57.8469C80.097 57.8469 79.1125 58.3027 78.4863 58.1933C78.4863 58.1933 78.7058 58.4014 78.8267 58.4121C78.8267 58.4121 78.3106 58.5764 77.9261 58.478C77.9261 58.478 78.0907 58.6751 78.2445 58.6968C78.2445 58.6968 77.7325 59.0097 77.3294 59.4088C76.9179 59.8158 76.7401 59.9462 75.4517 60.384Z" fill="#020202" stroke="#020202" stroke-width="0.5" stroke-miterlimit="15" stroke-linecap="round"/>
<path d="M85.5142 61.3978C85.9924 61.2203 87.7549 60.7004 88.2603 60.5472C88.7653 60.3941 89.9517 60.3844 89.9517 60.3844C89.9517 60.3844 88.9852 60.2407 87.3816 60.5798C85.9389 60.8849 84.3217 61.2919 82.1322 61.1168C79.9426 60.9415 78.2664 60.1313 78.2664 60.1313C77.4537 60.1094 76.5972 60.7663 76.5972 60.7663C77.9811 60.175 78.4863 60.7444 78.4863 60.7444C77.8492 60.9413 77.6736 61.8503 77.6736 61.8503C77.9591 61.4781 78.6179 60.8102 79.2548 61.1824C79.8919 61.5549 80.5946 61.5873 80.5946 61.5873C80.4076 61.9045 80.4524 62.3763 80.4524 62.3763C80.5977 61.877 81.1437 61.5873 81.1437 61.5873C81.034 61.828 81.325 62.3831 81.325 62.3831C81.4681 61.8196 82.0883 61.5873 82.0883 61.5873C81.7477 62.1454 82.1609 62.8822 82.1609 62.8822C82.2709 61.601 82.9119 61.7301 82.9119 61.7301C82.868 62.2229 83.2007 62.626 83.2007 62.626C83.1432 62.2091 83.4197 61.8586 83.4197 61.8586C83.387 62.0227 83.6916 62.4748 83.6916 62.4748C83.7355 62.1135 83.9989 61.796 83.9989 61.796L85.5142 61.3978Z" fill="#020202" stroke="#020202" stroke-width="0.5" stroke-miterlimit="15" stroke-linecap="round"/>
<path d="M82.9556 58.2587C82.9556 58.2587 82.4283 58.2808 82.3736 58.4339C82.3188 58.5873 82.4504 59.737 83.2741 59.6711C84.0977 59.6055 83.8341 58.4996 83.8341 58.4996C83.8341 58.4996 83.6145 58.1709 82.9556 58.2587Z" fill="black"/>
<path d="M85.2619 58.0399C85.2619 58.0399 85.6636 58.7843 85.5317 59.6167C85.3802 60.5731 84.3174 61.2156 84.3174 61.2156C84.3174 61.2156 82.6923 61.4563 81.8572 61.1388C81.0229 60.821 80.6746 60.2147 80.5212 59.2736C80.433 58.7333 80.6932 58.0837 80.6932 58.0837C80.6932 58.0837 81.2425 58.0649 81.4293 58.2439C81.4293 58.2439 80.957 58.2478 80.8251 58.2918C80.8251 58.2918 81.3084 58.5158 81.4293 58.7432C81.4293 58.7432 81.045 58.7296 80.8688 58.8392C80.8688 58.8392 81.2096 58.9596 81.3084 59.1458C81.3084 59.1458 80.8688 59.1677 80.7703 59.3101C80.7703 59.3101 81.094 59.5981 81.2972 59.6714C81.2972 59.6714 81.0325 59.8464 80.858 59.8904C80.858 59.8904 81.0775 60.1521 81.3194 60.1309C81.3194 60.1309 81.2377 60.2906 81.0997 60.3845C81.0997 60.3845 81.4403 60.635 81.6815 60.4926C81.6815 60.4926 81.7146 60.7882 81.7804 60.9414C81.7804 60.9414 81.988 61.2355 82.3624 61.1935C82.7373 61.1512 84.0238 61.2304 84.1526 61.1714C84.2814 61.1123 84.7675 60.8427 84.6358 60.5799C84.6358 60.5799 85.2507 60.5132 85.13 60.1307C85.13 60.1307 85.4592 60.0215 85.3166 59.8572C85.3166 59.8572 85.6572 59.6602 85.2617 59.474C85.2617 59.474 85.8191 58.8112 85.1849 58.3793C85.1849 58.3793 85.075 58.0399 84.8665 58.0399H85.2619Z" fill="black" stroke="black" stroke-width="0.5" stroke-miterlimit="15" stroke-linecap="round"/>
<path d="M84.109 77.1691C84.109 77.1691 81.6951 78.7256 80.8166 79.1636C79.9379 79.6017 80.1115 80.544 80.5948 82.0978C80.5948 82.0978 79.4553 80.1598 80.4183 79.4467C81.9563 78.308 81.6488 78.9868 84.109 77.1691Z" fill="#49494A" stroke="#49494A" stroke-width="0.3" stroke-miterlimit="10"/>
<path d="M93.1263 69.0289C93.1263 69.0289 92.8263 70.549 91.3823 71.2344C90.4531 71.675 89.8803 73.2927 89.9237 74.1689C89.9661 75.0448 90.4261 76.1349 91.9726 76.9935C91.9726 76.9935 90.0956 76.5889 89.9215 74.7382C89.9215 74.7382 89.6733 72.9492 90.1375 72.6579C90.1375 72.6579 89.8073 72.2954 88.5 73.5C87.1922 74.7046 86.4073 75.0174 85.4215 75.9649C85.4215 75.9649 86.9645 74.6509 87.0936 73.994C87.2222 73.3369 84.4267 74.2837 81.7399 74.0643C78.8592 73.8288 77.056 73.7157 75.3892 71.247C75.3892 71.247 82.9776 73.2544 86.4073 72.2713C89.837 71.2882 92.5241 69.1009 93.1263 69.0289Z" fill="#49494A" stroke="#49494A" stroke-width="0.5" stroke-miterlimit="10"/>
<path d="M97.9932 79.4751C97.9439 79.4812 97.9024 79.4867 97.8721 79.4913C97.4255 79.5574 96.9502 79.2182 96.5622 79.2005C95.7894 79.1653 94.5965 77.527 93.924 77.3012C93.2977 77.0911 92.1914 77.0084 92.1914 77.0084C93.7474 77.539 93.9866 77.7924 94.3294 78.0843C94.6722 78.3762 95.6615 79.5961 96.0616 79.8005C96.4619 80.0046 97.2703 80.2348 97.8245 80.149C97.8787 80.1405 97.9349 80.1313 97.993 80.1208C97.993 79.9055 97.9932 79.6902 97.9932 79.4751Z" fill="#49494A"/>
<path d="M95.8355 62.8724C95.8355 62.8724 94.4081 67.0603 94.2143 68.6347C94.0201 70.2095 93.9251 71.5055 92.9403 72.7145C91.4985 74.4853 92.5065 75.2702 92.348 76.1888C92.348 76.1888 90.9755 74.0724 92.7924 72.2258C93.9305 71.0694 92.9408 68.4146 92.9408 68.4146L94.339 64.3129L95.8355 62.8724Z" fill="#49494A"/>
<path d="M97.9936 83.2175C97.2007 83.4862 96.7311 83.8048 96.7311 83.8048C95.6917 82.8995 92.3829 82.4326 91.4156 82.5022C90.6389 82.558 89.1062 82.491 87.1396 82.2278C85.9635 82.0704 82.8301 81.8164 82.8301 81.8164C83 82 84.9479 82.4212 85.9146 82.6547C86.8806 82.8886 88.3403 83.2792 89.7753 83.6293C91.2104 83.9798 94.0805 84.6807 94.4617 84.7682C94.8422 84.8557 96.2478 85.3813 96.7313 85.3231C97.1007 85.2787 97.5622 85.3017 97.9945 85.315C97.9941 84.6159 97.9936 83.9166 97.9936 83.2175Z" fill="#3111A8" stroke="#3111A8" stroke-miterlimit="15"/>
<path d="M97.9957 88.6388C96.5244 88.7548 94.7541 88.6633 92.7188 88.1371C89.4205 87.2843 86.9705 85.564 83.9018 82.0978C83.9018 82.0978 82.6386 81.821 82.2319 81.8164C82.2319 81.8164 84.1379 84.5183 85.7196 86.1776C87.2516 87.7848 89.4978 91.295 93.4805 92.0346C95.0686 92.3295 96.6144 92.3711 97.997 92.2565C97.9961 91.0504 97.9961 89.8447 97.9957 88.6388Z" fill="#140152"/>
<path d="M98.0569 124.776C97.1137 120.882 95.9969 117.628 95.9969 117.628L94.0933 117.5C95.3587 121.677 96.9565 135.462 96.9565 135.462C97.3674 135.56 97.756 135.502 98.0958 135.383C98.0808 131.847 98.0679 128.312 98.0569 124.776Z" fill="#FF7900"/>
<path d="M92.8099 117.38C92.8099 117.38 95.4943 128.561 95.2874 135.462C95.2874 135.462 87.7799 134.207 86.9251 127.87C86.0707 121.532 86.574 116.915 86.574 116.915L92.8099 117.38Z" fill="#FF7900"/>
<path d="M73.9916 70.5562C73.9916 70.5562 70.7844 73.7726 73.5977 78.5532C74.6351 80.3164 75.451 85.1213 75.3498 86.4948C75.3498 86.4948 75.0562 87.7237 77.2951 90.6536C77.2951 90.6536 77.2951 84.4351 74.3623 77.169C74.3623 77.169 73.5149 73.24 75.7804 71.8194C78.0461 70.3987 73.9916 70.5562 73.9916 70.5562Z" fill="#C6C5C5"/>
<path d="M98.0071 59.0784C97.3043 59.1112 95.6009 58.7038 94.4075 58.1939C93.1855 57.6716 91.3958 56.6272 86.6391 55.7135C81.8816 54.7997 76.1208 55.2785 73.6622 55.4524C71.2036 55.6264 69.4433 56.018 68.9199 56.2793V58.8033C68.9199 58.8033 69.0463 58.727 69.246 58.6103C70.0501 60.2875 69.6531 66.4366 74.506 71.0746C75.4196 71.9479 78.0896 72.7059 81.387 72.8951C84.5439 73.0763 88.1663 72.2932 89.9121 71.6405C91.6583 70.9877 92.6617 68.6812 93.3168 67.5064C93.9712 66.3314 94.1896 64.8084 95.0621 63.1984C95.9354 61.5884 96.459 61.8057 97.8993 61.7623C97.9359 61.7612 97.9691 61.7621 98.0044 61.7619C98.0053 60.867 98.006 59.9727 98.0071 59.0784ZM94.1457 62.5453C93.8839 63.7201 92.7054 67.8977 90.829 69.5077C88.9519 71.1177 84.3914 71.9011 80.878 71.7704C78.4341 71.6796 75.9665 70.675 75.0736 70.0733C74.2662 69.5296 72.827 67.1176 72.2366 65.9828C71.594 64.7474 70.6666 59.0309 70.498 57.9108C70.865 57.7171 71.2361 57.5335 71.5383 57.4106C72.4984 57.0189 75.9896 55.7568 80.9215 56.0178C85.8536 56.2789 90.6102 57.0189 92.4435 58.5854C94.2765 60.1519 94.4077 61.3704 94.1457 62.5453Z" fill="black" stroke="black" stroke-width="0.5" stroke-miterlimit="15" stroke-linecap="round"/>
<path d="M98.4274 117.503C97.8787 117.612 97.2203 117.796 96.4667 117.778C87.3181 117.559 78.3983 115.589 70.4463 111.157" stroke="white" stroke-width="5" stroke-miterlimit="10"/>
<path d="M70.0298 65.932C70.0298 65.932 69.7625 70.2297 70.3323 72.4496C70.9015 74.6697 72.2997 77.87 72.6623 79.8319C73.0244 81.7938 73.6931 84.6329 72.9704 87.2145C72.2477 89.7952 72.6574 94.3898 72.9704 95.6808C72.9704 95.6808 71.73 90.57 72.5584 86.2854C73.3386 82.2513 71.9613 78.7667 71.279 76.9506C71.2366 76.8377 71.1969 76.7313 71.1605 76.6316C70.5392 74.9279 72.1702 79.9096 72.1702 81.7682C72.1702 83.6266 71.1337 86.8788 71.6521 91.138C72.1704 95.3972 74.1818 101.282 73.2928 104.922C73.1602 105.464 73.0112 106.029 72.8536 106.606C71.9532 109.905 70.7725 113.623 70.7725 115.995C70.7725 115.995 70.9696 111.117 71.7642 108.406C71.7642 108.406 70.8504 111.194 70.5396 113.052C70.5396 113.052 69.1676 100.12 69.8668 98.107C69.8668 98.107 70.5392 105.807 71.0832 107.322C71.0832 107.322 71.394 104.689 71.0832 101.359C71.0832 101.359 71.5911 102.056 71.7644 103.063C71.7644 103.063 72.6368 102.366 72.326 98.9586C72.0155 95.5515 70.494 91.6021 70.0123 88.1952C69.5304 84.7881 67.977 79.5223 68.4431 76.967C68.4431 76.967 68.4431 79.5998 69.2198 81.1485C69.9963 82.6973 70.5401 85.485 70.6176 86.569C70.6176 86.569 70.8508 79.5223 70.074 77.1219C69.2966 74.7211 68.9942 69.5457 70.0298 65.932Z" fill="#22007C"/>
<path d="M98 95.8988C97.0559 95.7393 96.1315 95.7797 95.0792 95.8751C93.6635 96.0034 92.1808 96.325 91.1572 97.3808H93.4868C94.795 97.3808 96.0569 97.4839 97.3701 97.4841C97.5845 97.4843 97.7941 97.4751 98.0015 97.4624C98.0013 96.941 98.0004 96.4198 98 95.8988Z" fill="#C6C5C5"/>
<path d="M98.0014 96.9743C94.3968 96.6246 91.1108 97.3428 91.1108 97.3428L98.0023 97.6154C98.0019 97.4016 98.0017 97.1878 98.0014 96.9743Z" fill="#49494A"/>
<path d="M98.0014 96.9743L97.137 96.9323L96.7049 96.911C96.5607 96.9084 96.4165 96.913 96.2725 96.9137L95.4087 96.918L94.5458 96.964C94.4021 96.9732 94.2579 96.976 94.1148 96.9924L93.6849 97.0327C93.3978 97.0563 93.1112 97.0839 92.8259 97.1237C92.54 97.1583 92.2547 97.1955 91.9709 97.2434C91.6865 97.2861 91.4027 97.3384 91.1225 97.3955L91.113 97.2891C93.4101 97.3819 95.7072 97.4771 98.0027 97.606L97.9929 97.6156L98.0014 96.9743ZM98.0014 96.9743L98.0117 97.6154L98.012 97.6252L98.0019 97.625C95.7033 97.5723 93.4059 97.4854 91.1086 97.3966L90.6528 97.3788L91.0992 97.2902C91.3843 97.2336 91.6685 97.1832 91.9547 97.1417C92.24 97.0948 92.5268 97.0592 92.8141 97.0261C93.1007 96.9878 93.3884 96.9618 93.6765 96.9395L94.1084 96.9045C94.2522 96.8902 94.397 96.8898 94.5414 96.883L95.4074 96.8511L96.2745 96.8627C96.4189 96.8666 96.5633 96.8662 96.7073 96.8732L97.1387 96.9069L98.0014 96.9743Z" fill="#49494A"/>
<path d="M97.9932 79.3003C97.567 79.3198 97.1537 79.2699 96.7258 79.1701C96.1905 79.0451 95.862 78.8314 95.3272 78.2042C94.9607 77.7741 94.5406 77.4655 93.9551 77.2771C93.2976 77.0655 92.8813 76.9699 92.1274 77.0019V77.0277C92.1981 77.0421 92.2865 77.1421 92.3572 77.1568C92.9748 77.2848 93.5976 77.3879 94.0872 77.8132C94.3152 78.0113 94.4915 78.2106 94.7232 78.4056C94.9657 78.6104 95.2517 78.7379 95.5128 78.9185C96.0286 79.2751 96.4433 79.7421 97.0962 79.8346C97.3965 79.8771 97.6969 79.8545 97.9932 79.7966C97.9929 79.6311 97.9932 79.4657 97.9932 79.3003Z" fill="#49494A"/>
<path d="M97.5496 140.588C97.4399 142.229 97.769 143.761 98.2079 145.073" stroke="white" stroke-width="2" stroke-miterlimit="10"/>
<path d="M91.4987 72.2258C90.6263 72.8477 90.3311 74.0363 90.7426 75.0304C90.8451 75.2774 90.9921 75.5238 91.1596 75.7374C91.0288 75.4953 91.0084 74.7242 91.0516 74.3973C91.1344 73.7724 91.2123 73.5982 91.3804 73.1031C91.4708 72.8383 91.4583 72.5746 91.4947 72.3033" fill="white"/>
</g>
<defs>
<clipPath id="clip0">
<rect width="98" height="191" fill="white"/>
</clipPath>
</defs>
</svg>
