<svg width="292" height="570" viewBox="0 0 292 570" fill="none" xmlns="http://www.w3.org/2000/svg">
<g clip-path="url(#clip0)">
<path d="M292.584 550.039C291.472 535.123 291.566 520.126 292.223 505.185C291.489 417.011 291.297 328.83 291.297 240.653C291.297 168.675 291.429 96.6943 291.874 24.716C284.712 23.4054 263.078 20.0626 252.066 25.1772C247.699 27.2048 242.305 28.3602 236.781 28.9193C237.654 28.3634 238.507 27.8474 239.29 27.4194C243.609 25.0533 257.646 16.7316 275.101 20.4991C284.637 22.556 289.457 23.759 291.876 24.4296C291.882 23.5085 291.887 22.588 291.892 21.6675C287.949 19.6686 283.301 17.3579 278.193 14.9102C262.901 7.57687 235.602 14.0947 227.773 26.1571C227.055 27.2648 226.367 28.3047 225.692 29.3146C218.421 29.1365 212.041 28.169 208.879 27.103C208.879 27.103 215.46 29.4242 225.182 30.0753C222.767 33.6587 220.627 36.6407 218.72 39.1935C209.156 43.6707 197.308 52.4321 191.888 65.3399C180.585 78.3535 164.502 103.283 166.906 135.793C165.764 138.954 164.626 141.906 163.531 144.481C158.387 156.598 144.428 177.161 144.373 209.258C141.887 214.127 140.244 219.411 140.073 225.041C136.254 232.6 132.037 241.104 129.701 251.808C129.701 251.808 133.653 254.4 115.752 262.917C97.8519 271.434 95.5738 276.167 91.0177 287.498C90.118 289.734 89.7958 292.008 89.8975 294.254C73.217 301.2 60.4794 317.196 58.2581 333.093C58.2581 333.093 63.6956 311.525 79.2508 302.768C82.9335 300.695 86.6331 298.769 90.2192 296.966C90.653 299.212 91.4711 301.396 92.5279 303.453C87.0982 305.49 82.3874 307.224 77.7862 314.833C74.876 319.643 72.8093 323.231 71.4217 326.375C66.7468 330.368 63.1777 334.465 62.0008 338.413C62.0008 338.413 65.2555 333.374 70.631 328.322C69.5853 331.147 69.1195 333.725 69.1012 336.703C65.2339 340.056 60.9439 344.195 56.6096 348.805C46.5872 353.335 29.0925 363.16 21.6424 379.069C21.6424 379.069 19.1131 385.839 15.8982 396.184C13.6612 402.096 11.7381 408.7 10.2578 416.065C6.74153 429.815 3.58078 445.495 2.80055 459.606C-1.38312 535.328 0.326086 568.869 0.326086 568.869L21.8544 569.196L136.859 568.969H171.823C171.856 569.049 171.884 569.135 171.915 569.213H222.601L222.613 568.969H226.574C227.186 569.907 227.583 570.806 227.754 572.232C227.754 572.232 227.632 570.832 227.294 568.969H231.138C231.102 569.661 231.038 570.367 230.929 571.08C230.929 571.08 231.35 570.203 231.873 568.969H235.193C235.219 569.363 235.223 569.738 235.2 570.08C235.2 570.08 235.429 569.648 235.735 568.969H271.062L277.73 568.967C277.776 569.218 277.789 569.331 277.789 569.331H292.743C292.671 561.825 292.618 555.175 292.584 550.039ZM94.4876 294.842C104.276 290.019 112.685 286.098 116.598 282.54C116.598 282.54 119.909 282.987 107.322 294.743C102.859 298.911 98.8944 300.922 95.2613 302.395C94.6044 300.101 94.363 297.524 94.4876 294.842ZM78.3512 329.728C76.1599 331.023 73.463 333.018 70.4621 335.542C71.1842 332.354 72.5301 328.563 74.9843 324.651C78.0733 322.342 81.6 320.322 85.4353 319.171C88.8472 318.147 91.792 317.123 94.3226 316.145C89.2047 319.332 83.3601 323.795 78.3512 329.728ZM76.5089 322.359C82.4442 313.599 83.6491 310.209 93.8053 305.703C94.6364 307.034 95.549 308.294 96.5048 309.455C90.362 313.17 82.9367 317.622 76.5089 322.359ZM107.994 301.83C106.312 303.409 102.815 305.619 98.4645 308.265C98.1553 307.887 97.8441 307.496 97.5257 307.081C96.9764 306.364 96.5165 305.566 96.1218 304.718C96.737 304.466 97.3718 304.212 98.047 303.949C106.426 300.701 113.018 295.395 117.648 290.321C114.548 294.521 110.946 299.059 107.994 301.83ZM129.622 260.758C123.745 269.392 109.558 288.211 94.9463 292.467C94.8582 292.493 94.7714 292.522 94.6847 292.549C95.842 282.861 101.362 272.589 108.591 270.212C119.984 266.465 129.748 260.078 129.748 260.078C129.748 260.078 129.746 260.079 129.622 260.758ZM141.949 221.309C142.492 218.715 143.282 215.91 144.431 213.136C144.442 213.454 144.443 213.764 144.457 214.084C144.457 214.084 144.472 213.669 144.508 212.948C145.307 211.05 146.283 209.176 147.457 207.401C146.413 211.957 144.354 216.472 141.949 221.309ZM148.154 202.97C146.938 204.73 145.81 206.562 144.799 208.454C145.559 198.66 147.881 178.492 154.534 167.83C154.534 167.83 149.708 189.058 148.154 202.97ZM228.153 28.4743C230.57 24.9248 237.436 17.9046 248.414 15.6983C259.391 13.4913 266.604 9.12756 289.676 22.2142C289.676 22.2142 268.064 14.0021 252.067 20.4984C244.841 23.4334 239.464 26.4918 235.681 29.0223C232.943 29.2604 230.189 29.355 227.523 29.3407C227.781 28.9988 227.996 28.7046 228.153 28.4743ZM189.361 74.3061C184.816 80.6955 179.34 89.5854 177.928 96.9892C176.099 106.582 172.184 120.561 168.111 132.373C169.843 119.229 175.045 91.9072 189.612 72.8996C189.522 73.3661 189.432 73.8319 189.361 74.3061ZM190.199 73.1417C190.31 72.6635 190.434 72.1755 190.568 71.6771C192.235 69.6051 194.014 67.6389 195.921 65.8155C195.921 65.8155 193.385 68.7597 190.199 73.1417ZM220.6 296.679C220.424 295.997 220.343 295.618 220.343 295.618C220.606 296.185 220.962 296.939 221.368 297.776C221.42 297.987 221.5 298.227 221.604 298.492C221.265 297.886 220.929 297.281 220.6 296.679ZM230.806 312.916C229.442 311.039 228.141 309.142 226.898 307.237C228.103 308.973 229.447 310.841 230.879 312.784C230.845 312.845 230.821 312.889 230.806 312.916ZM232.673 447.137C232.444 447.473 232.219 447.776 231.995 448.043C231.995 448.043 231.995 448.044 231.994 448.045C232.221 447.709 232.451 447.364 232.686 447.007L232.673 447.137ZM198.258 58.6557C197.016 59.8267 195.544 61.2991 193.935 63.0468C197.11 56.9282 202.324 50.5082 210.903 45.4289C212.929 44.2298 214.719 43.2134 216.321 42.3418C214.246 45.0231 212.478 47.2033 210.952 49.1813C210.952 49.1813 213.794 45.8803 217.189 41.8767C228.882 35.6374 229.496 37.8887 233.656 36.5683C225.05 40.8283 207.295 50.1416 198.258 58.6557ZM234.26 317.463C234.26 317.463 234.27 317.415 234.285 317.34C235.199 318.547 236.128 319.762 237.06 320.973C236.161 319.845 235.236 318.686 234.26 317.463ZM224.534 36.8789C223.108 37.3362 221.549 37.9318 219.913 38.6514C222.603 35.4528 225.262 32.2464 226.885 30.1698C229.146 30.269 231.552 30.2716 234.072 30.134C230.214 32.8857 228.48 34.7834 228.48 34.7834C228.48 34.7834 231.64 32.3507 235.017 30.0772C240.63 29.6962 246.749 28.6068 252.968 26.3143C252.967 26.3143 237.85 32.6215 224.534 36.8789ZM255.085 343.497C254.956 343.338 254.819 343.166 254.68 342.994C255.098 343.086 257.686 343.632 260.534 343.921C258.661 343.776 256.825 343.632 255.085 343.497ZM262.297 344.057C262.761 344.081 263.221 344.098 263.67 344.098C265.679 344.098 268.307 344.406 271.301 344.735C268.433 344.524 265.345 344.291 262.297 344.057Z" fill="white"/>
<path d="M283.781 345.533C283.976 345.535 284.157 345.538 284.336 345.54L284.334 345.541C284.198 345.542 284.008 345.54 283.781 345.533Z" fill="white"/>
<path d="M189.084 83.5553C189.084 83.5553 189.081 83.5089 189.078 83.4404C189.08 83.4789 189.08 83.5161 189.084 83.5553Z" fill="white"/>
<path d="M292.584 550.038C291.472 535.123 291.566 520.126 292.223 505.185C291.983 476.258 291.802 447.33 291.666 418.402L290.192 417.376L257.354 409.791L248.554 569.521H292.584C292.516 562.247 292.618 555.045 292.584 550.038Z" fill="#FB5607"/>
<path d="M291.419 349.04C289.44 350.028 288.216 350.745 288.216 350.745C288.216 350.745 289.639 354.814 291.452 361.026C291.441 357.03 291.429 353.035 291.419 349.04Z" fill="#EF271B"/>
<path d="M39.7646 465.611V569.195L178.424 569.522L179.249 433.031L44.1329 456.763L39.7646 465.611Z" fill="#FF7900"/>
<path d="M46.9707 569.195H68.1728C68.1728 569.195 49.5385 518.728 71.7792 488.993C71.7792 488.993 83.867 526.119 142.274 537.499C200.681 548.879 156.485 503.883 156.485 503.883L61.8135 440.999L39.7646 475.954V569.195" fill="#FB5607"/>
<path d="M291.835 449.673C291.12 449.421 290.716 449.293 290.716 449.293L291.878 457.232C291.863 454.713 291.85 452.193 291.835 449.673Z" fill="#FF7900"/>
<path d="M291.298 240.653C291.298 185.015 291.379 129.377 291.619 73.7383L273.926 75.4886L214.479 130.544L216.561 248.009L232.824 283.217L273.004 314.312L291.348 312.849C291.313 288.783 291.298 264.718 291.298 240.653Z" fill="#E0E0E0"/>
<path d="M213.558 267.051C213.558 267.051 221.506 298.327 240.856 323.348C260.208 348.368 263.414 352.41 263.414 352.41C263.414 352.41 241.488 352.89 230.896 347.802C220.305 342.714 208.283 329.542 204.494 317.665C200.703 305.787 213.558 267.051 213.558 267.051Z" fill="#FF7900"/>
<path d="M291.613 406.063C282.298 406.79 264.213 406.149 256.014 391.811C249.856 381.045 248.559 358.718 250.164 347.792L229.157 342.475C229.157 342.475 225.692 383.962 247.454 401.426C256.672 408.823 274.688 422.791 286.693 419.491C288.504 418.993 290.145 418.504 291.665 418.043C291.646 414.051 291.63 410.057 291.613 406.063Z" fill="#EF271B"/>
<path d="M291.651 414.835C291.534 414.972 291.415 415.106 291.312 415.26C289.336 418.202 290.289 427.97 291.765 437.755C291.723 430.115 291.686 422.475 291.651 414.835Z" fill="#EF271B"/>
<path d="M79.8373 351.356C79.8373 351.356 49.9234 361.41 39.7646 383.787C39.7646 383.787 23.7932 427.892 21.9457 462.376C17.9884 536.265 19.8973 569.195 19.8973 569.195H53.8206C37.814 509.217 52.2426 466.165 64.2762 453.13C64.2762 453.13 74.9765 492.26 100.313 501.224C100.313 501.224 84.0921 491.719 82.7071 477.406C82.7071 477.406 93.3655 498.646 109.507 504.186C109.507 504.186 94.3056 492.895 93.1235 479.379C93.1235 479.379 99.3302 493.567 111.796 493.567C111.796 493.567 110.009 511.929 120.137 534.839C120.137 534.839 117.396 520.043 120.137 507.728C120.137 507.728 120.444 525.58 127.433 542.818C127.433 542.818 125.062 520.344 127.433 512.265C127.433 512.265 134.884 525.428 140.886 528.198C140.886 528.198 138.139 554.099 121.736 559.849C121.736 559.849 127.965 564.367 142.275 542.819C142.275 542.819 140.97 562.519 132.847 564.752C132.847 564.752 148.216 561.904 155.633 549.437L149.067 569.848L190.167 569.521L231.878 569.094L241.378 385.405L227.934 346.518C227.934 346.518 218.911 341.577 204.495 321.945C190.077 302.31 79.8373 351.356 79.8373 351.356Z" fill="#EF271B"/>
<path d="M244.793 392.143C244.793 392.143 253.72 404.083 265.923 405.11C265.923 405.11 272.705 436.575 263.213 463.51C253.72 490.446 251.789 509.823 256.532 522.389C261.275 534.955 273.168 554.11 275.628 569.521H228.331L244.793 392.143Z" fill="#EF271B"/>
<path d="M291.873 456.459C288.421 441.089 286.682 420.771 286.682 420.771H283.255C284.179 429.302 286.641 443.373 286.682 446.331C286.709 448.138 289.445 461.607 291.991 474.401C291.95 468.42 291.91 462.44 291.873 456.459Z" fill="#FB5607"/>
<path d="M227.694 302.031C227.694 302.031 230.784 317.011 240.704 328.4C240.704 328.4 226.097 319.385 223.124 309.424C223.124 309.424 227.405 325.937 234.09 331.171C234.09 331.171 225.083 324.775 221.231 317.968C221.231 317.968 222.309 330.248 227.694 336.558C227.694 336.558 225.817 341.961 226.062 348.571L201.781 331.931L212.512 283.969L218.042 261.951L229.308 297.309L227.694 302.031Z" fill="#FB5607"/>
<path d="M201.129 381.803C201.129 381.803 162.865 522.685 182.338 569.522H232.897L238.935 446.157L234.249 402.977L232.01 342.476C232.01 342.476 216.582 339.008 204.148 325.436C191.715 311.863 201.129 381.803 201.129 381.803Z" fill="#BA1713"/>
<path d="M88.7091 414.589C88.7091 414.589 37.4568 448.531 59.1579 500.899C59.1579 500.899 52.8488 464.381 66.8546 449.491C66.8546 449.491 54.0786 464.099 60.0811 492.521C60.0811 492.521 59.6198 460.657 74.3948 452.246C74.3948 452.246 61.6213 469.535 66.854 483.927C66.854 483.927 66.0829 460.688 83.1679 449.491C100.252 438.294 96.7144 422.442 96.7144 422.442L88.7091 414.589Z" fill="#BA1713"/>
<path d="M73.0102 359.031C73.0102 359.031 39.7646 374.66 39.7646 406.477C39.7646 438.294 39.7646 452.246 39.7646 452.246C39.7646 452.246 44.6933 398.2 95.3286 388.926C145.965 379.652 93.2129 352.421 93.2129 352.421L73.0102 359.031Z" fill="#BA1713"/>
<path d="M95.3287 397.92C95.3287 397.92 48.9998 405.971 44.3823 457.224C44.3823 457.224 47.9247 415.754 95.3287 406.476C142.733 397.198 95.3287 397.92 95.3287 397.92Z" fill="#BA1713"/>
<path d="M292.584 550.038C291.473 535.123 291.566 520.126 292.223 505.185C292.145 495.814 292.078 486.443 292.011 477.072C290.559 467.922 288.93 458.145 287.1 447.75C287.1 447.75 274.932 436.446 272.783 428.135C272.783 428.135 275.867 452.734 270.634 469.062C265.402 485.39 259.86 508.03 270.634 535.496C281.408 562.964 282.024 569.12 282.024 569.12H292.74C292.67 561.701 292.619 555.127 292.584 550.038Z" fill="#FF7900"/>
<path d="M216.813 384.489C231.592 395.918 247.249 407.008 264.864 414.184C272.692 417.446 281.291 420.765 290.632 418.171" stroke="#FCFCFC" stroke-width="4" stroke-miterlimit="10"/>
<path d="M291.347 312.137C285.939 312.021 272.899 311.574 271.86 309.93C270.546 307.852 230.001 283.969 230.001 283.969C230.001 283.969 226.999 297.232 228.663 304.135C230.326 311.039 260.113 348.247 260.113 348.247C260.113 348.247 264.835 349.336 268.671 349.336C272.507 349.336 278.714 350.563 285.362 350.697C289.378 350.778 290.869 350.762 291.422 350.736C291.391 337.869 291.366 325.003 291.347 312.137Z" fill="#989898"/>
<path d="M291.363 321.258C289.373 322.025 287.228 322.737 284.892 323.354C278.161 325.129 271.603 323.169 266.109 320.117C257.518 315.346 251.525 307.909 251.525 307.909C248.144 304.261 247.737 300.02 247.737 300.02C248.506 306.563 243.299 314.94 247.737 321.75C252.177 328.561 267.126 349.043 267.126 349.043C271.733 347.68 284.109 348.788 291.419 349.617C291.397 340.164 291.379 330.712 291.363 321.258Z" fill="#E0E0E0"/>
<path d="M291.362 320.732C287.008 322.253 282.35 323.014 277.966 321.989C263.498 318.604 257.354 313.833 257.354 313.833C257.354 313.833 269.392 326.246 271.86 332.556C274.328 338.866 277.098 347.638 282.024 345.483C284.652 344.334 287.871 338.275 291.384 332.054C291.377 328.28 291.368 324.506 291.362 320.732Z" fill="#F6F7F7"/>
<path d="M249.628 313.827C249.628 313.827 249.466 313.717 249.163 313.512C249.087 313.46 249.002 313.403 248.909 313.339L248.838 313.29L248.801 313.265L248.782 313.252L248.772 313.245L248.768 313.242C248.633 313.345 248.893 313.024 248.888 313.088C248.937 313.121 248.988 313.155 249.042 313.191C249.26 313.343 249.511 313.517 249.792 313.711C250.913 314.496 252.504 315.628 254.379 317.029C255.321 317.741 256.331 318.448 257.401 319.337C258.433 320.193 259.528 321.087 260.634 322.041C261.202 322.492 261.713 323.07 262.267 323.591C262.815 324.126 263.367 324.67 263.913 325.229L264.739 326.067C265.008 326.352 265.256 326.654 265.516 326.949C266.031 327.542 266.547 328.137 267.064 328.732C268.111 329.913 269.03 331.194 269.959 332.435C270.422 333.057 270.892 333.666 271.314 334.297C271.727 334.934 272.134 335.563 272.534 336.182C272.931 336.803 273.335 337.405 273.706 338.009C274.074 338.616 274.401 339.228 274.736 339.814C275.391 340.994 276.045 342.088 276.539 343.158C277.064 344.211 277.525 345.184 277.933 346.047C278.338 346.911 278.636 347.691 278.904 348.32C279.425 349.587 279.704 350.318 279.704 350.318C279.704 350.318 279.276 349.66 278.558 348.498C278.202 347.917 277.769 347.211 277.273 346.401C276.757 345.604 276.176 344.706 275.564 343.716C275.261 343.219 274.932 342.71 274.571 342.197C274.223 341.676 273.864 341.138 273.494 340.583C273.123 340.032 272.758 339.455 272.354 338.885C271.936 338.325 271.532 337.739 271.109 337.151C270.69 336.561 270.263 335.962 269.831 335.355C269.375 334.767 268.914 334.171 268.45 333.571C267.523 332.369 266.604 331.13 265.567 329.991C265.07 329.401 264.575 328.812 264.08 328.226C263.83 327.935 263.591 327.634 263.336 327.353L262.551 326.536C261.488 325.465 260.543 324.333 259.492 323.326C258.417 322.336 257.402 321.352 256.434 320.425L256.074 320.08C255.995 319.999 255.84 319.869 255.729 319.767C255.487 319.549 255.248 319.335 255.013 319.125C254.548 318.699 254.099 318.287 253.668 317.892C251.939 316.314 250.528 314.964 249.547 314.011C249.303 313.772 249.085 313.558 248.895 313.372C248.85 313.327 248.806 313.283 248.765 313.242C248.76 313.307 249.025 312.989 248.893 313.093L248.897 313.097L248.905 313.106L248.922 313.122L248.953 313.153L249.014 313.215C249.094 313.294 249.166 313.366 249.231 313.431C249.49 313.689 249.628 313.827 249.628 313.827Z" fill="#49494A"/>
<path d="M214.038 189.354C219.13 195.378 223.533 203.209 231.449 206.075C240.223 209.254 251.506 209.23 260.568 207.041C272.727 204.103 276.227 189.763 280.913 187.938C275.048 212.467 263.329 212.164 254.634 214.045C246.33 215.841 237.144 216.508 229.28 212.796C225.328 210.931 222.026 208.158 218.878 205.246C217.986 202.851 215.929 200.919 215.207 198.258C214.576 195.939 214.841 192.471 213.56 190.51" fill="white"/>
<path d="M130.336 498.627C130.336 498.627 123.949 544.231 127.433 570.019" stroke="white" stroke-width="3" stroke-miterlimit="10"/>
<path d="M78.0915 352.421C78.0915 352.421 31.1063 364.646 26.3375 440.766C21.5693 516.887 21.3747 541.651 21.528 569.195" stroke="#FF7900" stroke-width="5" stroke-miterlimit="10"/>
<path d="M291.419 349.028C289.48 350.056 288.216 350.745 288.216 350.745C288.216 350.745 289.954 351.287 291.424 351.462C291.422 350.651 291.421 349.839 291.419 349.028Z" fill="#140152"/>
<path d="M291.348 312.737C290.632 311.7 288.608 310.305 284.644 309.618C278.149 308.491 271.869 303.847 266.122 300.614C260.376 297.382 250.398 285.839 243.854 278.681C237.311 271.525 234.468 254.21 232.785 251.324C231.103 248.439 224.078 238.972 230.658 239.393C237.238 239.814 241.086 238.12 241.086 238.12C241.086 238.12 242.235 236.325 245.93 233.054C252.625 227.126 258.379 222.44 258.379 222.44L264.186 216.747C264.186 216.747 257.121 216.809 241.091 218.855C225.06 220.901 221.308 202.725 221.824 198.139C222.34 193.554 228.467 187.003 235.391 188.788C247.842 191.997 256.848 185.436 256.848 185.436C253.869 186.493 249.392 183.602 249.392 183.602C249.392 183.602 240.608 182.19 238.676 182.737C236.746 183.284 229.794 178.514 229.794 178.514L240.078 172.416C230.452 175.122 230.042 171.279 230.659 170.782C231.275 170.284 237.174 167.274 237.174 167.274L231.864 166.076C231.864 166.076 227.773 166.478 226.835 166.076C225.898 165.674 223.88 165.601 225.881 154.79C227.884 143.979 243.24 113.378 248.491 107.837C253.742 102.296 256.476 94.1656 256.476 94.1656L257.785 90.2905L231.488 110.145L201.453 187.002L207.918 240.356L231.863 277.641C231.863 277.641 261.479 305.692 264.186 308.001C266.893 310.31 290.106 314.234 291.276 314.003C291.303 313.998 291.323 313.984 291.348 313.975C291.349 313.563 291.348 313.15 291.348 312.737Z" fill="#727272"/>
<path d="M217.254 208.264C212.83 215.344 211.486 222.625 215.229 230.604C218.72 238.046 220.633 246.59 220.739 255.041C220.768 257.347 220.236 268.934 217.568 268.236C216.002 263.441 216.14 257.985 214.977 253.027C213.806 248.033 212.092 243.312 210.184 238.658C206.527 229.734 204.873 217.972 205.92 208.167C206.457 203.143 207.262 195.831 210.304 191.903C212.192 193.678 212.042 197.658 213.166 200.245C214.091 202.376 216.43 204.95 216.721 207.033" fill="#49494A"/>
<path d="M291.675 60.8496L273.786 64.9967L261.478 87.9753C261.478 87.9753 267.783 88.9323 281.214 81.6883C284.312 80.0176 287.884 78.6587 291.603 77.6149C291.626 72.0267 291.648 66.4385 291.675 60.8496Z" fill="#989898"/>
<path d="M229.77 177.913C229.77 177.913 231.109 180.024 232.402 180.18C233.695 180.335 237.535 181.629 238.543 182.127C239.55 182.625 249.779 183.375 249.779 183.375L256.012 181.803L261.685 180.262L265.709 180.031L267.707 179.813L266.302 179.231L263.704 177.913L257.167 174.325L253.935 172.32L243.243 171.806L235.004 174.325L229.77 177.913Z" fill="white"/>
<path d="M168.561 509.863C168.561 509.863 163.577 535.489 155.032 545.878C155.032 545.878 159.067 535.027 159.304 530.41C159.542 525.793 156.1 536.874 151.471 541.377C151.471 541.377 157.999 512.171 156.218 501.09C156.218 501.09 154.912 522.445 151.471 528.679C148.03 534.912 143.757 538.606 141.739 540.338C141.739 540.338 150.046 531.911 150.285 526.254C150.522 520.598 146.25 509.978 146.961 501.09C146.961 501.09 145.3 510.44 146.368 515.173C147.436 519.906 147.673 523.831 146.012 527.063C146.012 527.063 147.792 518.982 144.707 514.134C141.621 509.287 125.006 489.201 127.735 479.043C130.465 468.885 143.639 420.749 143.639 420.749L183.832 397.046L181.617 457.071L168.561 509.863Z" fill="#22007C"/>
<path d="M177.363 399.969C177.363 399.969 188.906 415.668 177.363 436.909C165.819 458.149 146.888 465.075 148.735 507.093C148.735 507.093 152.477 469.833 173.669 449.837C173.669 449.837 161.202 468.609 158.894 482.772C156.585 496.934 155.662 531.103 146.427 543.108C146.427 543.108 161.664 514.48 161.664 502.475C161.664 490.47 165.819 471.538 174.13 461.842C174.13 461.842 163.563 483.543 164.46 500.628C165.358 517.712 158.048 551.426 151.748 564.425C151.748 564.425 162.793 546.188 164.46 526.179C164.46 526.179 164.895 545.572 161.356 560.809C161.356 560.809 168.744 539.569 168.898 526.025C169.052 512.479 172.192 505.426 173.361 496.473C173.361 496.473 168.129 529.871 170.591 560.501C170.591 560.501 171.668 534.644 176.132 520.176C180.595 505.708 179.672 526.486 179.672 526.486L176.44 546.495L181.366 546.034L197.065 511.094L199.841 470.153L206.197 406.28L202.605 344.715L190.138 334.557L169.976 359.337L177.363 399.969Z" fill="#140152"/>
<path d="M254.165 71.3408C252.98 71.7766 252.165 72.0193 252.165 72.0193C252.815 71.8634 253.485 71.6305 254.165 71.3408Z" fill="#140152"/>
<path d="M291.779 41.2471C279.805 42.4618 279.177 46.0472 279.177 46.0472C279.177 46.0472 265.064 66.7007 254.165 71.341C256.272 70.5667 259.562 69.1751 261.63 67.402C261.63 67.402 263.131 72.7117 251.126 81.0229C239.12 89.3341 232.079 93.9516 229.885 102.956C229.885 102.956 232.656 93.6052 243.969 87.4879C255.281 81.3699 257.474 80.0998 258.86 78.8303C258.86 78.8303 255.166 83.6787 248.586 88.8729C242.006 94.0677 237.389 104.341 236.234 109.535C236.234 109.535 261.63 90.5482 266.478 81.6877C271.326 72.8271 273.75 70.6339 276.405 69.7101C279.06 68.7863 279.521 71.0957 278.483 73.2884C278.483 73.2884 280.645 70.4368 280.889 68.0929C280.909 67.8965 280.917 67.7041 280.908 67.5168C280.792 65.0926 282.87 69.8256 281.83 72.3653C281.83 72.3653 284.103 71.5172 284.255 66.8462C284.255 66.8462 285.766 69.9652 284.668 73.5604C285.522 71.343 287.622 66.2714 290.258 62.6684C290.568 62.245 291.052 61.8986 291.671 61.6174C291.705 54.8282 291.741 48.0376 291.779 41.2471Z" fill="#140152"/>
<path d="M291.778 41.2559C289.858 42.0563 288.735 42.7557 288.735 42.7557C289.772 42.2188 290.785 41.7504 291.778 41.3328C291.778 41.3074 291.778 41.282 291.778 41.2559Z" fill="#22007C"/>
<path d="M291.639 69.1873C291.665 63.265 291.69 57.3435 291.72 51.4219C291.684 51.4336 291.649 51.4434 291.612 51.4551C277.44 56.0818 268.671 69.1664 264.512 73.93C264.512 73.93 272.323 72.4909 275.751 67.6235C277.964 64.483 282.854 60.1708 284.407 62.1756C285.96 64.1797 286.68 69.7072 284.954 73.8563C284.954 73.8563 288.68 68.925 288.569 65.1876C288.569 65.1876 289.89 69.034 288.46 72.0538C288.46 72.0538 290.307 68.6869 290.023 66.8616C290.023 66.8616 290.828 69.3125 290.261 71.3179C290.261 71.3173 290.988 70.3753 291.639 69.1873Z" fill="#22007C"/>
<path d="M291.345 310.156C288.411 310.535 285.66 310.742 283.834 310.654C275.671 310.261 262.413 301.158 259.004 298.092C255.597 295.025 249.255 289.639 244.592 286.271C244.592 286.271 239.822 282.575 237.06 279.7C234.297 276.826 220.169 261.782 218.537 255.193C218.537 255.193 209.591 282.01 227.254 301.042C227.254 301.042 229.198 305.49 230.717 308.225C232.236 310.959 236.54 316.487 236.54 316.487C237.912 314.377 237.82 310.985 237.349 307.576C237.028 305.247 235.485 301.224 234.718 299.378C235.503 300.858 237.041 303.113 238.737 307.765C240.755 313.305 237.565 318.956 237.565 318.956L240.856 323.348C240.856 323.348 242.43 315.44 242.338 312.049C242.248 308.659 237.829 300.219 234.756 295.476C231.684 290.731 232.399 286.411 233.595 287.92C234.793 289.43 238.694 292.762 245.325 297.435C251.956 302.109 255.858 305.44 265.435 313.157C273.916 319.993 285.114 317.661 291.35 315.372C291.349 313.632 291.348 311.894 291.345 310.156Z" fill="#140152"/>
<path d="M210.034 335.705C210.034 335.705 210.752 359.051 217.144 370.737C223.536 382.423 236.465 411.512 230.463 429.059C224.46 446.605 225.436 447.528 221.023 455.839C221.023 455.839 228.154 429.059 229.078 423.517C230.001 417.977 227.693 395.813 223.075 390.272C218.458 384.732 212.23 377.521 210.034 370.737C207.838 363.954 207.838 363.954 207.838 363.954C207.838 363.954 218.16 373.189 219.926 393.967C221.69 414.746 221.382 433.159 219.458 439.882C217.534 446.606 220.305 461.842 224.46 470.615C228.616 479.388 233.695 488.162 229.078 500.629C229.078 500.629 229.539 484.93 224.46 477.541C219.381 470.154 213.431 459.995 211.789 446.605C210.146 433.215 212.507 420.747 211.789 409.666C211.789 409.666 208.3 457.225 214.764 469.231C221.228 481.235 225.845 497.571 226.308 509.027C226.308 509.027 225.076 496.473 219.458 488.624C213.84 480.774 211.07 480.521 209.685 475.568C209.685 475.568 208.992 489.316 211.763 496.935C214.534 504.553 214.534 520.252 212.918 533.181C211.302 546.111 209.224 549.573 214.072 558.578C214.072 558.578 204.838 547.496 205.761 535.721C205.761 535.721 201.937 558.088 218.855 563.426C218.855 563.426 207.377 564.119 200.682 548.881C200.682 548.881 203.684 563.665 212.226 563.431C212.226 563.431 202.298 565.966 197.681 557.193C193.063 548.419 190.293 539.415 190.755 532.489C190.755 532.489 189.577 551.34 190.705 563.77C190.705 563.77 186.907 549.112 186.907 545.11C186.907 545.11 184.753 557.943 188.139 568.764C188.139 568.764 178.904 556.5 181.058 549.727C181.058 549.727 181.366 563.175 184.752 568.764C184.752 568.764 173.671 561.732 178.595 542.955C183.521 524.178 189.677 505.396 186.906 494.622C184.136 483.848 183.521 464.762 183.521 464.762C183.521 464.762 180.689 482.924 177.334 490.313C173.978 497.7 169.669 525.097 172.44 534.332C172.44 534.332 171.516 531.561 173.978 522.942C173.978 522.942 171.59 539.873 171.553 553.109C171.553 553.109 173.231 535.696 176.654 528.908C176.785 528.648 176.919 528.403 177.056 528.175C180.751 522.018 169.668 550.337 175.517 563.575C175.517 563.575 177.979 522.326 189.062 511.245C189.062 511.245 183.213 451.528 190.909 436.444C190.909 436.444 187.523 469.072 193.679 481.386C193.679 481.386 190.909 435.827 197.681 417.666C197.681 417.666 200.759 383.533 197.681 370.739C197.681 370.739 199.22 391.497 197.066 400.424C194.91 409.352 194.295 421.971 197.989 428.128C197.989 428.128 189.764 412.43 193.987 398.577C198.211 384.725 195.525 369.948 193.987 364.716C192.448 359.484 190.909 335.474 194.602 327.47C198.296 319.466 204.039 294.169 201.783 289.271C201.782 289.27 213.769 313.774 210.034 335.705Z" fill="#22007C"/>
<path d="M115.741 425.003C115.741 425.003 119.366 406.11 127.432 397.045C127.432 397.045 118.261 400.07 113.643 411.024C109.026 421.979 98.8675 433.677 96.0969 440.141C93.3269 446.605 89.7056 465.342 104.558 478.311C119.41 491.281 122.878 480.774 122.878 480.774C122.878 480.774 113.952 490.008 97.6372 475.848C97.6372 475.848 105.333 490.008 123.495 488.776C123.495 488.776 104.93 491.238 93.5879 479.542C82.2457 467.845 74.0669 451.571 83.3893 438.776C92.7118 425.981 94.5586 417.977 94.5586 417.977C94.5586 417.977 62.8526 439.833 54.8487 455.224C54.8487 455.224 63.7771 438.602 69.6249 433.061C69.6249 433.061 52.3866 449.067 51.1543 457.071C51.1543 457.071 57.0035 437.37 67.7768 427.52C78.5513 417.669 93.3256 401.048 96.7121 387.502C100.099 373.958 105.023 355.796 114.566 354.258C124.109 352.719 142.274 381.903 142.274 381.903L133.828 410.18L115.741 425.003Z" fill="#22007C"/>
<path d="M124.444 304.828C124.444 304.828 107.016 327.886 94.3857 334.738C81.7551 341.59 46.9412 379.301 44.5862 400.796C44.5862 400.796 55.8572 374.058 66.9612 366.719C78.0653 359.379 88.4993 355.184 94.3857 348.37C94.3857 348.37 74.532 365.671 67.7186 370.388C60.9046 375.106 38.9731 407.612 37.9404 419.408C37.9404 419.408 50.3062 391.36 61.4102 382.71C72.5142 374.058 80.3375 373.797 87.907 368.03C87.907 368.03 42.0028 387.428 39.4546 436.447C39.4546 436.447 45.0063 400.01 65.6989 388.214C86.3928 376.418 91.692 374.845 95.7296 369.339C95.7296 369.339 62.0991 392.154 66.4563 421.243C66.4563 421.243 65.6989 400.534 77.5603 390.311C89.4211 380.088 93.9642 380.874 97.7487 373.797C97.7487 373.797 84.1871 394.006 61.6614 404.205C61.6614 404.205 83.8694 395.816 88.1588 390.835C92.4488 385.855 85.6354 398.175 81.3461 401.059C77.0561 403.943 51.3154 417.835 50.0537 426.487C50.0537 426.487 55.6054 417.312 70.242 410.758C84.8787 404.206 100.272 394.244 104.058 382.448C107.843 370.651 116.423 362.787 116.423 362.787L124.444 304.828Z" fill="#22007C"/>
<path d="M291.301 251.268L289.45 251.549L262.784 247.655L255.974 244.767L252.164 244.391L245.931 243.709L248.453 245.595V245.749C248.453 245.749 263.003 258.331 263.414 259.716C263.737 260.81 283.139 265.137 291.306 266.913C291.304 261.698 291.302 256.482 291.301 251.268Z" fill="#49494A" stroke="#49494A" stroke-width="0.5" stroke-miterlimit="10"/>
<path d="M291.337 179.209C288.886 179.765 284.025 181.874 284.025 181.874L279.812 193.542L275.632 204.93C275.632 204.93 269.391 217.134 271.437 214.354C273.482 211.574 275.632 215.982 275.632 215.982C275.632 215.982 278.026 208.478 278.903 205.885C279.781 203.292 284.256 189.263 287.21 187.718C288.33 187.133 289.778 186.64 291.328 187.062C291.33 184.444 291.333 181.827 291.337 179.209Z" fill="#49494A" stroke="#49494A" stroke-width="0.5" stroke-miterlimit="10"/>
<path d="M291.298 240.653C291.298 239.733 291.298 238.812 291.298 237.892C288.963 237.995 286.589 237.849 286.589 237.849L282.694 233.983L279.315 231.007L276.127 230.205C276.127 230.205 271.615 229.494 270.11 227.651C270.11 227.651 270.332 230.276 273.663 231.626C276.994 232.976 278.672 233.122 280.112 236.166C281.552 239.21 284.799 241.479 284.546 244.849C284.294 248.22 286.141 251.637 290.465 250.387C290.761 250.302 291.036 250.196 291.3 250.081C291.3 246.938 291.298 243.796 291.298 240.653Z" fill="#C6C5C5"/>
<path d="M231.771 177.591C231.771 177.591 235.388 180.105 239.813 181.029C244.237 181.953 252.933 181.337 257.397 180.567C261.86 179.797 261.86 179.828 262.476 179.274C263.092 178.72 262.476 177.591 262.476 177.591L265.533 178.841L267.706 179.813L265.708 180.031L260.766 180.997L250.873 183.099L240.313 182.768L232.357 180.153L229.308 178.488L231.771 177.591Z" fill="#989898"/>
<path d="M240.794 172.288L239.813 176.257L240.304 178.681L242.283 181.778C242.283 181.778 245.057 182.675 245.378 182.701C245.699 182.726 251.01 182.701 251.01 182.701L252.356 180.577L253.947 178.819L254.334 176.729L253.388 173.323L252.049 172.289L242.121 171.806L240.794 172.288Z" fill="#3B1FC9"/>
<path d="M275.769 212.157L272.576 218.244C272.576 218.244 270.753 223.892 279.326 230.203C287.897 236.513 285.447 237.509 285.447 237.509L278.698 231.204L274.395 229.901L269.859 227.956L267.718 224.859L267.091 218.953L269.2 213.721L276.552 208.701L275.769 212.157Z" fill="#676767"/>
<path d="M202.643 177.259C202.643 177.259 207.559 210.579 201.782 231.896C195.025 256.83 200.862 281.303 204.118 300.233C207.376 319.165 211.789 328.399 211.789 328.399L217.144 313.756C217.144 313.756 218.602 301.465 217.144 297.31C215.688 293.154 212.354 274.992 211.789 271.452C211.789 271.452 213.379 299.001 223.076 310.391C223.076 310.391 213.439 291.537 216.641 277.031C219.843 262.525 218.466 252.775 218.466 252.775L214.704 235.814L208.301 219.736L208.5 206.324C208.5 206.324 212.764 180.026 209.378 167.251L202.643 177.259Z" fill="#140152"/>
<path d="M223.711 125.762C223.711 125.762 214.163 162.791 215.29 174.636C216.415 186.48 218.068 200.939 213.622 207.841C209.177 214.745 200.252 140.098 215.29 126.918C230.328 113.74 223.711 125.762 223.711 125.762Z" fill="#49494A" stroke="#49494A" stroke-width="0.5" stroke-miterlimit="10"/>
<path d="M280.028 246.952C269.884 240.656 258.098 242.721 246.778 242.824C245.587 242.835 245.587 244.682 246.778 244.671C249.83 244.643 252.929 244.46 256.022 244.34C256.131 244.486 256.289 244.602 256.537 244.639C261.172 245.312 265.749 245.849 270.228 247.275C273.331 248.264 276.544 249.18 279.806 248.64C280.643 248.501 280.647 247.336 280.028 246.952Z" fill="white"/>
<path d="M120.136 569.874C120.136 569.874 113.141 519.923 127.734 479.042" stroke="white" stroke-width="8" stroke-miterlimit="10"/>
<path d="M291.299 236.758C290.709 235.795 283.785 232.325 281.981 227.15C281.327 225.274 281.201 223.715 281.193 221.968C281.186 219.975 281.726 218.362 282.338 216.541C284.883 208.969 286.29 189.143 286.29 189.143C285.121 188.741 277.691 207.786 276.974 214.407C276.491 217.477 272.649 218.461 272.616 221.424C272.593 223.346 274.197 224.112 274.392 225.811C274.715 228.627 277.338 227.131 278.113 228.707C279.114 230.745 286.059 238.693 291.227 236.995C291.259 236.985 291.28 236.97 291.299 236.955C291.299 236.89 291.299 236.824 291.299 236.758Z" fill="white"/>
<path d="M279.75 199.331C279.75 199.331 284.544 210.087 278.432 216.393C271.514 223.534 276.333 227.009 278.272 229.228C280.212 231.446 279.984 229.505 281.404 232.923C281.404 232.923 278.481 231.596 273.313 228.347C268.144 225.099 271.285 216.493 271.285 216.493C271.285 216.493 275.671 214.337 279.75 199.331Z" fill="#989898"/>
<path d="M93.4813 415.823C71.7795 440.296 77.628 433.214 54.5418 445.681C54.5418 445.681 82.2461 437.37 88.7098 426.288C88.7098 426.288 70.2405 444.296 49.9243 450.76C49.9243 450.76 72.3183 448.913 85.9399 436.677C85.9399 436.677 73.2414 448.452 64.238 453.299C64.238 453.299 82.4764 445.219 86.6314 440.14C90.7877 435.061 91.0186 437.369 98.4061 420.747C105.794 404.124 112.489 397.429 117.338 395.812C117.338 395.812 111.566 399.968 108.334 408.741C105.102 417.513 94.482 430.212 99.791 447.527C99.791 447.527 96.4672 429.349 113.182 405.047C129.896 380.744 136.269 383.345 136.269 383.345C136.269 383.345 138.115 386.115 126.572 405.97C115.029 425.825 101.475 447.988 104.558 464.612C107.642 481.234 115.953 497.108 130.267 509.026C130.267 509.026 109.488 481.695 113.644 464.612C113.644 464.612 119.185 501.55 144.58 518.173C144.58 518.173 127.034 499.703 133.498 466.921C133.498 466.921 145.503 441.442 144.58 429.017C144.58 429.017 149.76 449.374 144.631 457.685C139.501 465.997 133.037 489.084 142.272 506.168C142.272 506.168 137.736 481.479 146.898 470.614C156.059 459.749 200.933 399.28 176.5 354.903L185.675 343.174L199.842 210.655V144.166L178.288 155.248L144.58 263.756C144.58 263.756 127.173 293.522 109.096 298.956C91.0186 304.39 76.7049 321.555 74.3961 338.599C74.3961 338.599 79.5388 317.554 94.2518 309.008C108.963 300.46 124.033 294.468 129.574 289.271C129.574 289.271 132.707 289.705 120.802 301.178C108.898 312.65 100.716 307.391 92.8668 320.782C85.0174 334.172 83.6324 337.866 85.2477 349.41C85.2477 349.41 84.093 339.482 91.0199 329.093C97.9468 318.704 98.1771 315.703 112.029 310.162C125.881 304.62 134.596 292.944 137.194 287.074C137.194 287.074 127.744 301.985 121.438 308.092C115.131 314.2 81.9389 329.939 77.9372 343.791C77.9372 343.791 87.1715 329.017 100.101 325.015C113.03 321.013 118.878 317.012 120.726 315.781C120.726 315.781 84.0936 328.709 82.2474 363.801C82.2474 363.801 86.2484 343.793 98.8692 336.096C111.491 328.4 120.109 320.397 120.109 320.397C120.109 320.397 113.925 334.489 101.948 343.485C89.9715 352.48 75.725 378.346 77.5621 390.311C77.5621 390.311 77.6299 379.014 88.4039 370.638C99.1772 362.261 113.029 352.719 114.568 348.41C114.568 348.41 112.106 360.414 107.18 367.187C102.255 373.959 84.5621 387.554 79.8389 409.359C79.8389 409.359 92.0872 383.195 104.559 377.038C117.031 370.881 117.648 361.646 117.648 361.646C117.648 361.646 113.203 385.584 101.333 392.736C89.4633 399.888 80.182 397.046 71.7814 404.741C63.3802 412.437 53.9279 427.829 53.3114 431.215C53.3114 431.215 67.0119 409.619 73.9356 407.512C80.8592 405.404 89.8104 404.783 96.7164 400.74C103.024 397.045 93.4813 415.823 93.4813 415.823Z" fill="#140152"/>
<path d="M245.181 174.41C244.667 174.317 244.12 174.273 243.574 174.304C242.75 175.402 244.079 175.737 244.945 175.84C244.457 175.822 243.56 176.024 243.23 176.444C242.646 177.186 243.935 177.105 244.421 177.131C244.262 177.728 243.156 178.186 243.84 178.985C244.413 179.653 245.267 179.089 245.646 178.586C245.635 179.205 245.51 179.674 246.005 179.992C246.506 180.315 247.201 180.179 247.418 179.907C247.511 179.624 247.537 179.399 247.56 179.089C247.803 179.436 247.581 178.956 247.939 179.316C248.243 179.622 249.08 180.172 249.481 180.031C250.565 179.648 249.549 178.501 248.99 177.904C249.339 177.847 249.686 178.406 250.087 178.479C250.53 178.56 251.152 178.627 251.443 178.276C252.057 177.54 250.98 177.068 250.438 176.788C251.07 176.747 252.525 176.879 252.339 175.851C252.213 175.154 250.983 174.959 250.437 174.801C251.762 173.65 249.74 172.447 248.647 173.213C248.208 173.521 247.849 173.987 247.39 174.251C246.743 174.623 246.147 174.392 245.47 174.236" fill="#140152"/>
<path d="M291.449 359.958C289.651 354.282 288.215 350.746 288.215 350.746C284.688 350.793 248.902 347.793 248.902 347.793C245.978 378.268 248.943 386.711 260.162 399.046C267.872 407.525 282.943 407.955 291.618 407.396C291.55 391.583 291.492 375.771 291.449 359.958Z" fill="#FB5607"/>
<path d="M229.597 545.878V549.515C229.597 549.515 238.284 560.939 242.237 554.016C246.19 547.093 246.19 547.094 246.19 547.094C246.19 547.094 248.472 540.8 245.585 535.72C242.698 530.641 229.887 543.05 229.597 545.878Z" fill="#3B1FC9"/>
<path d="M246.19 547.094C246.19 547.094 236.547 562.353 229.449 547.956C229.449 547.956 226.388 556.204 229.449 562.203C232.51 568.201 234.292 568.407 234.704 571.95C234.704 571.95 234.126 565.053 231.934 561.603C231.934 561.603 233.602 562.975 234.864 568.132C234.887 568.228 234.911 568.327 234.934 568.427C234.934 568.427 235.366 565.803 233.187 561.229C233.187 561.229 236.146 562.129 236.435 567.302C236.435 567.302 237.301 563.102 237.128 561.078C237.128 561.078 238.455 565.803 237.705 570.826C237.705 570.826 240.187 565.503 240.476 562.653C240.476 562.653 241.918 567.227 241.745 569.852C241.745 569.852 244.19 565.089 243.775 562.185C243.758 562.062 243.735 561.944 243.708 561.827C243.708 561.827 245.132 564.553 244.939 567.352C244.939 567.352 247.132 561.055 246.939 558.755C246.939 558.755 248.21 559.555 248.557 561.653C248.556 561.653 248.883 551.192 246.19 547.094Z" fill="#140152"/>
<path d="M268.467 159.759L270.996 167.253C270.996 167.253 271.288 165.172 265.073 164.019C258.86 162.867 244.602 158.359 241.051 158.359C237.153 158.359 227.12 159.754 224.29 165.466C221.46 171.178 221.231 152.709 221.231 152.709C221.231 152.709 235.413 149.938 236.401 150.169C237.389 150.4 258.38 155.248 258.38 155.248L268.467 159.759Z" fill="#989898"/>
<path d="M176.256 336.677C179.073 341.882 182.489 346.931 186.644 351.618C186.644 351.618 181.853 345.942 176.256 336.677Z" fill="#3B1FC9"/>
<path d="M291.803 37.067C283.091 35.6612 266.669 33.8358 257.698 38.135C253.567 40.1143 248.465 41.2416 243.241 41.7869C244.067 41.2442 244.875 40.7405 245.614 40.323C249.699 38.0149 262.974 29.8948 279.483 33.5703C285.197 34.8418 289.115 35.7786 291.807 36.4616C291.81 35.883 291.813 35.305 291.817 34.7263C286.908 33.0608 270.428 28.2372 257.699 33.5703C250.864 36.4336 245.779 39.4188 242.201 41.8894C239.61 42.121 237.006 42.2136 234.484 42.1986C234.729 41.8646 234.932 41.5775 235.081 41.3525C237.367 37.8897 243.861 31.0397 254.243 28.8863C264.388 26.7811 271.154 22.6894 291.818 34.4197C291.822 33.905 291.824 33.3903 291.827 32.8755C288.948 31.3914 285.791 29.7898 282.408 28.1165C267.945 20.9612 242.126 27.3206 234.721 39.0913C234.042 40.1717 233.39 41.1868 232.751 42.1718C225.876 41.9977 219.841 41.0543 216.851 40.0144C216.851 40.0144 223.075 42.2795 232.27 42.9142C229.988 46.409 227.964 49.3173 226.16 51.8067C217.115 56.1744 205.905 64.7263 200.779 77.3217C190.086 90.0253 174.871 114.363 177.15 146.088C176.072 149.169 174.996 152.039 173.962 154.552C168.856 166.958 154.561 188.429 155.922 222.469C155.922 222.469 156.942 191.407 165.452 177.336C165.452 177.336 160.685 198.962 159.325 212.503C157.963 226.044 146.39 238.353 141.966 259.28C141.966 259.28 145.703 261.809 128.773 270.121C111.842 278.432 109.688 283.049 105.378 294.107C101.069 305.164 110.611 317.219 116.768 321.528C118.825 322.968 120.394 324.579 121.58 326.087C115.481 341.843 124.237 361.703 128.157 375.705C132.466 391.097 132.466 390.174 133.698 401.562C134.93 412.953 130.62 422.802 124.464 432.654C118.307 442.504 122.616 456.664 122.616 456.664C122.616 441.889 129.081 436.654 135.545 426.189C142.009 415.723 149.09 396.638 137.392 367.087C125.694 337.536 137.084 321.836 137.084 321.836C133.39 332.304 138.623 340.921 146.319 357.235C154.015 373.552 154.322 375.86 156.17 390.944C158.016 406.028 150.936 413.261 148.474 422.034C146.708 428.324 149.768 434.85 151.642 438.041C151.144 440.295 150.961 442.467 151.013 444.518C151.272 454.778 157.246 462.05 157.246 462.05C155.861 454.662 149.397 455.124 163.711 419.57C178.024 384.017 161.864 360.468 155.399 341.537C148.935 322.605 151.552 305.214 151.552 305.214C151.86 323.067 156.17 331.072 168.175 349.233C180.18 367.394 182.95 384.634 186.028 400.024C189.105 415.415 179.563 441.889 179.563 441.889C185.104 428.345 197.781 392.69 174.946 351.619C152.111 310.546 158.94 281.511 158.94 281.511C158.76 303.174 168.319 323.538 176.256 336.678C162.375 311.031 163.093 281.58 162.325 272.816C161.402 262.275 167.494 232.217 167.494 232.217C177.365 215.582 189.197 153.418 192.472 146.648C195.529 140.327 220.693 62.1729 291.761 44.1753C291.775 41.8052 291.79 39.4358 291.803 37.067ZM139.239 283.049C136.469 298.749 134.007 305.214 123.849 321.527C123.224 322.53 122.678 323.557 122.201 324.604C119.851 321.277 116.237 319.554 111.535 313.216C104.455 303.673 111.226 280.895 122.001 277.239C132.776 273.584 142.01 267.351 142.01 267.351C142.01 267.351 142.01 267.351 139.239 283.049ZM153.092 433.421C152.542 434.756 152.125 436.069 151.805 437.356C150.273 433.054 149.357 426.369 154.938 418.184C161.864 408.026 161.864 394.635 161.864 394.635C164.634 405.717 159.556 417.723 153.092 433.421ZM198.387 86.0817C194.09 92.3158 188.913 100.987 187.578 108.208C185.849 117.571 182.145 131.225 178.291 142.753C179.927 129.94 184.841 103.285 198.609 84.7307C198.526 85.1763 198.453 85.6277 198.387 86.0817ZM199.183 84.9388C199.29 84.4723 199.407 83.9961 199.535 83.5094C201.11 81.4877 202.793 79.5691 204.597 77.7901C204.597 77.7901 202.197 80.6631 199.183 84.9388ZM206.807 70.8038C205.632 71.9455 204.242 73.3794 202.719 75.084C205.723 69.1155 210.655 62.8527 218.766 57.8979C220.682 56.7282 222.377 55.734 223.891 54.884C221.928 57.5 220.256 59.6274 218.813 61.5584C218.813 61.5584 221.503 58.335 224.715 54.4254C235.767 48.3394 236.343 50.5385 240.264 49.2612C232.114 53.4259 215.344 62.5063 206.807 70.8038ZM231.658 49.5541C230.311 49.999 228.84 50.5737 227.293 51.2751C229.835 48.1567 232.347 45.0312 233.882 43.0056C236.02 43.1034 238.298 43.1054 240.68 42.9716C237.031 45.6568 235.39 47.5082 235.39 47.5082C235.39 47.5082 238.379 45.1349 241.573 42.9155C246.882 42.5437 252.67 41.481 258.551 39.2446C258.549 39.2453 244.252 45.4004 231.658 49.5541Z" fill="#3B1FC9"/>
<path d="M245.238 175.721C245.238 175.721 244.69 176.054 244.026 175.781C243.363 175.507 243.064 175.334 243.243 174.93C243.42 174.526 244.256 174.38 244.546 174.468C244.835 174.556 245.378 175.137 245.378 175.137L245.238 175.721Z" fill="white"/>
<path d="M244.285 173.041C244.285 173.041 243.937 173.516 244.285 173.775C244.633 174.034 245.057 174.294 245.378 174.323C245.701 174.352 248.298 173.977 248.298 173.977C248.298 173.977 248.788 173.544 248.557 173.198C248.326 172.852 247.481 172.318 247.081 172.32C246.681 172.323 244.716 172.334 244.285 173.041Z" fill="white"/>
<path d="M259.288 247.66C259.3 247.661 259.31 247.663 259.321 247.665C260.718 247.894 261.901 249.36 261.843 250.454C261.79 251.417 261.421 252.197 261.062 253.027C260.674 253.923 259.574 254.1 258.964 253.048C258.474 252.205 258.445 251.343 258.404 250.452C258.381 249.985 258.268 247.881 258.842 247.772C258.842 247.774 259.11 247.625 259.288 247.66Z" fill="white"/>
<path d="M262.518 248.713C263.816 248.898 264.523 250.491 264.864 251.307C265.278 252.298 265.468 253.759 265.274 254.808C265.209 255.152 265.091 255.745 264.75 255.934C264.341 256.163 263.791 255.879 263.339 255.745C262.325 255.445 261.864 254.946 261.626 254.075C261.402 253.245 261.487 252.276 261.524 251.437C261.556 250.695 261.695 249.386 262.172 248.766C262.172 248.766 262.265 248.677 262.518 248.713Z" fill="white"/>
<path d="M271.523 252.79C271.435 252.006 270.622 251.337 270.089 250.756C269.516 250.131 268.886 249.634 268.07 249.333C267.366 249.075 265.887 248.619 265.424 249.321C265.118 249.788 265.057 251.049 265.077 251.781C265.105 252.731 265.142 253.787 265.19 254.682C265.241 255.628 265.328 256.576 265.628 257.493C266.131 259.012 268.488 259.927 269.989 258.822C272.133 257.244 272.041 255.165 271.62 252.948" fill="white"/>
<path d="M278.112 255.953C278.106 254.161 277.324 252.52 275.72 251.786C275.058 251.483 273.74 251.172 272.958 251.447C272.245 251.697 271.783 252.548 271.547 253.251C271.258 254.112 271.173 255.258 271.066 256.225C270.959 257.183 270.946 257.723 271.215 258.564C271.479 259.382 271.892 260.082 272.691 260.484C273.533 260.907 274.493 261.084 275.469 261.082C276.066 261.081 276.823 261.172 277.395 261.025C277.952 260.88 278.232 260.267 278.295 259.678C278.406 258.665 278.577 256.563 278.113 255.709" fill="white"/>
<path d="M288.757 257.144C288.757 258.508 288.895 259.902 288.757 261.216C288.708 261.699 288.649 262.783 287.989 262.873C287.237 263.659 284.791 263.242 283.802 263.243C283.083 263.244 282.584 263.153 281.862 263.153C281.145 263.153 280.42 262.989 279.803 262.653C278.754 262.084 278.313 261.015 278.147 259.974C277.956 258.765 277.889 257.24 278.079 256.008C278.23 255.033 278.518 253.393 279.437 252.759C279.901 252.44 280.784 252.437 281.355 252.411C282.063 252.379 282.75 252.404 283.414 252.524C284.219 252.669 284.976 252.972 285.757 253.196C286.771 253.489 287.287 253.645 287.861 254.5C288.396 255.301 288.757 256.187 288.757 257.144Z" fill="white"/>
<path d="M291.302 253.297C290.468 253.56 290.01 253.747 289.511 254.551C289.016 255.351 288.682 256.236 288.682 257.194C288.682 258.558 288.673 259.926 288.801 261.241C288.848 261.722 288.969 262.523 289.392 262.923C289.753 263.169 290.52 263.26 291.305 263.29C291.304 259.959 291.302 256.628 291.302 253.297Z" fill="white"/>
<path d="M233.529 353.68C233.529 353.68 239.069 355.524 239.33 358.478C239.59 361.434 238.726 363.16 237.879 366.553C237.033 369.948 237.396 378.023 232.804 385.513C232.803 385.513 224.948 375.214 233.529 353.68Z" fill="#140152"/>
<path d="M234.804 353.334C234.804 353.334 221.599 355.378 224.211 363.096C226.352 369.423 229.428 374.227 229.428 374.227C229.428 374.227 230.173 364.598 230.991 362.009C231.905 359.117 234.804 353.334 234.804 353.334Z" fill="#3B1FC9"/>
<path d="M226.923 368.109C226.923 368.109 222.691 366.031 222.152 362.557C221.304 357.093 223.846 352.949 229.233 351.41C234.619 349.871 238.468 353.298 239.391 356.548C240.314 359.797 239.391 362.557 239.391 362.557C239.391 362.557 238.883 359.37 237.697 357.412C235.927 354.488 231.092 353.948 228.161 355.95C225.23 357.951 224.438 362.571 225.307 364.261C226.077 365.76 226.923 368.109 226.923 368.109Z" fill="#140152"/>
<path d="M238.935 360.524C238.935 360.524 243.392 368.19 242.699 373.745C242.007 379.301 241.614 384.732 238.655 389.516C235.697 394.299 233.003 399.244 232.772 402.488C232.772 402.488 229.015 391.793 232.394 384.169C235.773 376.543 238.935 360.524 238.935 360.524Z" fill="#3B1FC9"/>
<path d="M242.68 374.821C242.68 374.821 248.453 384.807 244.759 392.271C241.066 399.736 233.67 409.511 232.908 414.589C232.908 414.589 230.061 402.104 233.831 396.271C237.601 390.437 242.37 380.229 242.68 374.821Z" fill="#140152"/>
<path d="M245.362 389.864C245.362 389.864 247.395 400.021 244.234 406.337C241.073 412.653 234.34 425.461 234.269 429.673C234.269 429.673 231.16 415.337 234.269 408.53C238.466 399.341 244.968 393.99 245.362 389.864Z" fill="#3B1FC9"/>
<path d="M244.932 404.196C244.932 404.196 241.712 411.147 238.935 416.503C236.158 421.859 231.541 427.376 235.85 440.766C235.85 440.766 249.397 429.786 244.932 404.196Z" fill="#140152"/>
<path d="M245.834 416.59C245.834 416.59 245.084 424.671 241.544 430.596C238.005 436.522 230.155 446.373 236.004 454.761C236.004 454.761 242.777 445.295 244.008 440.909C245.239 436.522 249.68 427.749 245.834 416.59Z" fill="#3B1FC9"/>
<path d="M246.515 433.031C246.515 433.031 242.121 446.543 238.716 450.767C235.311 454.992 231.694 462.533 235.542 471.46C235.542 471.46 236.851 466.308 241.006 461.842C245.162 457.377 249.549 450.913 248.779 444.449C248.01 437.984 246.515 433.031 246.515 433.031Z" fill="#140152"/>
<path d="M234.465 483.927C231.849 472.306 236.543 466.92 240.705 462.176C244.866 457.432 248.108 450.587 248.108 450.587C248.108 450.587 250.472 459.127 245.085 467.257C239.698 475.387 234.465 483.927 234.465 483.927Z" fill="#3B1FC9"/>
<path d="M247.924 460.858C247.924 460.858 240.868 473.717 239.447 475.964C238.025 478.21 228.674 485.084 231.877 498.782C231.877 498.782 234.002 495.858 237.85 492.78C241.698 489.702 249.685 483.576 247.924 460.858Z" fill="#140152"/>
<path d="M246.823 479.052C246.823 479.052 242.93 489.854 237.851 492.779C232.772 495.703 227.693 502.475 230.309 514.019C230.309 514.019 234.107 507.246 238.211 503.245C242.315 499.243 247.638 495.8 246.823 479.052Z" fill="#3B1FC9"/>
<path d="M244.321 496.005C244.321 496.005 237.11 503.367 233.709 508.693C230.309 514.019 225.384 519.56 230.462 527.871C230.463 527.871 244.788 518.162 244.321 496.005Z" fill="#140152"/>
<path d="M243.16 507.401C243.16 507.401 239.593 521.628 229.597 528.64C226.308 530.948 227.654 537.72 231.213 542.492C231.213 542.492 235.575 534.026 238.252 530.948C240.929 527.87 246.468 519.563 243.16 507.401Z" fill="#3B1FC9"/>
<path d="M243.106 522.078C243.106 522.078 238.34 532.18 233.709 536.49C229.078 540.8 229.48 543.827 229.597 545.878C229.597 545.878 231.925 543.955 235.195 543.569C238.466 543.184 250.787 542.72 243.106 522.078Z" fill="#140152"/>
<path d="M228.336 178.242C230.203 176.72 232.204 175.197 234.182 173.932C235.176 173.297 236.067 172.854 237.141 172.436C238.228 172.014 253.463 173.459 253.935 172.321C235.478 165.686 231.161 173.572 227.277 176.798C226.172 177.717 225.379 178.805 224.082 179.483C229.766 180.986 234.158 184.343 240.172 184.821C241.18 184.901 247.326 185.419 244.723 183.588C242.522 182.039 238.613 182.556 236.068 182.073C233.26 181.541 230.901 180.086 228.644 178.397" fill="#49494A"/>
<path d="M228.336 178.242C230.203 176.72 232.204 175.197 234.182 173.932C235.176 173.297 236.067 172.854 237.141 172.436C238.228 172.014 253.463 173.459 253.935 172.321C235.478 165.686 231.161 173.572 227.277 176.798C226.172 177.717 225.379 178.805 224.082 179.483C229.766 180.986 234.158 184.343 240.172 184.821C241.18 184.901 247.326 185.419 244.723 183.588C242.522 182.039 238.613 182.556 236.068 182.073C233.26 181.541 230.901 180.086 228.644 178.397" stroke="#49494A" stroke-width="0.5" stroke-miterlimit="10"/>
<path d="M253.704 167.099C249.718 168.349 252.253 170.174 254.705 171.499C256.825 172.646 259.019 173.659 261.115 174.846C262.374 175.56 267.377 178.563 267.466 175.409C267.533 173.05 263.431 171.015 261.787 169.919C259.112 168.137 256.932 166.939 253.703 166.483" fill="white"/>
<path d="M291.316 284.188C284.268 282.899 276.55 283.652 269.757 282.82C259.232 281.531 252.25 275.304 245.218 267.552V268.623C244.889 268.805 244.628 268.949 244.25 269.042C244.787 270.309 245.326 271.577 245.871 272.841C250.169 282.792 254.9 292.454 263.005 299.658C270.412 306.241 281.102 312.089 291.347 311.875C291.333 302.646 291.324 293.417 291.316 284.188Z" fill="#C6C5C5"/>
<path d="M247.423 247.286C247.423 247.286 247.916 247.998 248.731 249.27C249.121 249.917 249.664 250.655 250.249 251.512C250.547 251.938 250.849 252.397 251.191 252.867C251.539 253.335 251.904 253.826 252.285 254.34C253.019 255.382 253.928 256.427 254.815 257.579C255.261 258.153 255.778 258.698 256.272 259.278C256.778 259.848 257.264 260.456 257.819 261.023C258.359 261.601 258.908 262.188 259.464 262.783C260.05 263.348 260.64 263.922 261.224 264.511C261.794 265.113 262.448 265.639 263.056 266.216L263.983 267.069C264.27 267.328 264.625 267.62 264.943 267.894C265.27 268.182 265.592 268.45 265.91 268.701C266.233 268.955 266.542 269.227 266.875 269.466L267.862 270.194C268.193 270.427 268.533 270.639 268.868 270.861C270.23 271.688 271.596 272.461 273.045 272.918C273.748 273.19 274.503 273.334 275.185 273.545C275.942 273.717 276.682 273.885 277.402 274.05C278.849 274.398 280.185 274.624 281.436 274.891C281.749 274.954 282.055 275.015 282.354 275.076C282.655 275.121 282.95 275.165 283.237 275.208C283.813 275.299 284.359 275.384 284.872 275.465C285.386 275.541 285.868 275.631 286.315 275.682C286.764 275.725 287.176 275.764 287.548 275.8C289.042 275.944 289.908 276.057 289.908 276.057C289.908 276.057 289.056 276.171 287.544 276.318C287.165 276.354 286.745 276.395 286.288 276.438C285.83 276.479 285.337 276.451 284.808 276.461C283.751 276.443 282.545 276.519 281.246 276.378C279.947 276.273 278.504 276.202 277.057 275.969C276.325 275.869 275.573 275.766 274.804 275.662C274.379 275.599 273.993 275.506 273.58 275.419C273.172 275.33 272.757 275.25 272.353 275.11C271.945 274.983 271.534 274.855 271.119 274.726C270.717 274.563 270.313 274.399 269.905 274.233C269.49 274.079 269.104 273.865 268.707 273.668C268.314 273.462 267.912 273.262 267.542 273.018C266.003 272.131 264.583 270.992 263.247 269.876C262.917 269.586 262.61 269.332 262.262 269.014L261.305 268.119C260.673 267.518 260.022 266.94 259.441 266.303C258.844 265.681 258.263 265.055 257.692 264.435C257.149 263.789 256.613 263.151 256.086 262.522C255.55 261.903 255.063 261.261 254.604 260.619C254.147 259.977 253.669 259.373 253.262 258.743C252.438 257.489 251.653 256.313 251.038 255.157C250.72 254.588 250.414 254.044 250.124 253.526C249.853 252.995 249.617 252.479 249.385 252.002C248.919 251.049 248.536 250.213 248.272 249.506C247.714 248.101 247.423 247.286 247.423 247.286Z" fill="white"/>
<path d="M291.333 298.993C286.83 296.924 281.344 297.088 276.389 296.378C276.114 296.274 275.793 296.229 275.442 296.231C274.615 296.09 273.805 295.92 273.023 295.701C270.662 295.037 268.443 294.142 266.339 293.068C261.865 289.823 257.838 284.821 254.937 281.577C251.675 277.928 248.694 274.034 245.87 270.023C246.226 269.513 246.315 268.833 245.869 268.132C243.716 264.733 241.593 261.038 240.057 257.171C239.728 256.183 239.395 255.196 239.091 254.199C237.859 246.873 238.814 239.73 243.605 234.277C243.675 234.196 243.753 234.122 243.824 234.042C245.332 232.939 246.913 231.924 248.242 230.802C252.215 227.448 256.197 224.198 259.663 220.28C259.686 220.255 259.699 220.227 259.72 220.202C259.726 220.194 259.735 220.188 259.741 220.179C260.502 219.519 261.247 218.849 261.972 218.162C266.674 213.707 271.71 208.378 272.209 201.531C272.243 201.064 272.131 200.689 271.931 200.403C274.341 197.305 276.307 193.756 277.863 190.689C280.14 186.203 281.816 180.831 282.277 175.437L287.958 173.558C287.958 173.558 290.217 152.13 279.545 145.487C279.545 145.487 263.809 131.701 246 132.187C246 132.187 237.603 128.692 244.286 117.345C250.969 105.998 261.753 91.891 258.401 87.0596C258.401 87.0596 257.293 88.9019 256.655 89.5007C256.017 90.0996 256.017 90.0996 256.017 90.0996C256.017 90.0996 256.153 96.823 249.329 103.607C242.503 110.392 229.068 136.647 228.013 145.487L258.51 152.294L269.23 157.997C269.555 158.558 269.876 159.112 270.193 159.664L270.425 161.069C270.425 161.069 270.658 161.088 271.049 161.167C273.846 166.151 276.057 170.969 275.953 177.136C275.819 185.08 270.341 192.496 264.143 196.79C258.309 200.833 251.264 202.685 244.031 203.552C243.036 203.595 242.04 203.636 241.043 203.65C237.809 203.692 234.597 204.01 231.376 203.56C228.629 203.175 224.101 200.464 221.782 199.037C221.782 199.037 222.457 203.752 220.918 206.466C220.994 207.833 221.013 207.268 221.322 208.541C220.735 208.848 220.26 209.408 220.056 210.274C219.235 213.763 216.527 216.109 216.133 219.932C215.635 224.762 216.95 228.776 218.902 233.112C219.505 234.451 220.112 235.784 220.726 237.11C221.642 239.866 222.388 242.674 222.982 245.551C224.011 250.544 223.781 255.762 225.209 260.654C227.603 268.856 234.501 276.408 240.373 282.251C247.205 289.049 255.349 294.837 262.743 301.001C264.763 302.686 266.844 304.231 269.009 305.556C275.682 310.22 284.028 312.405 291.345 309.36C291.339 305.905 291.337 302.45 291.333 298.993ZM240.739 212.532C240.122 212.193 238.733 211.786 237 211.367C243.56 211.797 250.438 210.547 256.742 207.916C261.035 208.76 264.72 207.278 267.851 204.69C266.275 209.291 262.23 213.459 258.091 217.033C257.784 217.073 257.48 217.217 257.198 217.482C257.186 217.492 257.177 217.503 257.165 217.513C257.127 217.549 257.089 217.577 257.051 217.618C256.683 218.035 256.302 218.446 255.921 218.855C255.734 219.009 255.545 219.166 255.36 219.317C255.035 218.136 253.427 217.249 252.204 218.324C250.53 219.814 248.502 220.395 246.326 220.456C245.829 219.303 243.909 218.732 242.911 220.117C242.895 220.14 242.878 220.161 242.862 220.184C242.427 220.112 241.991 220.029 241.554 219.936C241.002 219.258 240.01 218.999 239.257 219.374C238.819 219.256 238.384 219.134 237.953 219.009C240.876 216.259 242.592 213.546 240.739 212.532Z" fill="#F6F7F7"/>
<path d="M227.939 146.102C227.873 146.657 227.774 147.487 227.691 148.18C227.751 147.676 227.833 146.996 227.939 146.102Z" fill="#F6F7F7"/>
<path d="M243.081 219.503C243.081 219.503 247.097 223.04 252.016 222.774C256.936 222.507 246.176 230.743 240.705 233.628C235.234 236.514 234.695 241.557 239.813 247.655C244.931 253.752 266.724 216.746 266.724 216.746L243.081 219.503Z" fill="#C6C5C5"/>
<path d="M255.426 167.665C250.386 165.597 243.955 165.286 238.612 166.1C232.588 167.016 227.894 173.442 223.076 176.728C221.12 178.062 222.496 180.236 224.47 178.89C228.955 175.831 233.018 172.124 238.111 170.072C242.51 168.3 250.221 169.493 254.444 171.227C256.648 172.132 257.598 168.557 255.426 167.665Z" fill="white"/>
<path d="M221.862 186.392C221.862 186.392 225.752 186.382 228 187.476C230.198 188.546 231.091 189.264 232.223 189.961C232.223 189.961 229.175 188.677 228.087 188.307C227.545 188.123 223.444 186.482 221.862 186.392Z" fill="#49494A" stroke="#49494A" stroke-width="0.5" stroke-miterlimit="10"/>
<path d="M221.166 192.051C221.166 192.051 228.186 189.318 232.222 190.57C242.734 193.835 245.117 194.012 247.543 193.9C253.158 193.638 258.841 191.364 262.039 189.83C264.215 188.785 263.931 188.451 265.956 187.886C265.956 187.886 265.956 187.886 264.563 189.01C263.17 190.135 255.221 195.293 247.082 195.337C238.941 195.38 234.833 193.444 231.438 192.486C228.043 191.529 226.737 190.918 221.166 192.051Z" fill="#49494A" stroke="#49494A" stroke-width="0.5" stroke-miterlimit="10"/>
<path d="M240.319 166.717C240.319 166.717 233.266 167.762 229.088 171.941C224.91 176.12 223.256 177.181 221.862 177.913C221.862 177.913 225.694 175.097 227.043 173.041C228.393 170.983 233.876 166.108 240.319 166.717Z" fill="#1B1A1A" stroke="#1B1A1A" stroke-miterlimit="10"/>
<path d="M236.401 185.695C236.401 185.695 244.765 188.936 256.075 184.825C261.733 182.768 263.911 182.214 264.606 182.127C264.606 182.127 254.595 186.032 251.983 186.909C249.372 187.786 243.191 189.178 236.401 185.695Z" fill="#49494A" stroke="#49494A" stroke-width="0.5" stroke-miterlimit="10"/>
<path d="M271.702 176.729C271.702 176.729 263.475 169.462 257.599 167.677C251.722 165.89 261.386 167.677 261.386 167.677C261.386 167.677 265.826 168.894 271.702 176.729Z" fill="#1B1A1A" stroke="#1B1A1A" stroke-miterlimit="10"/>
<path d="M216.073 184.434C215.582 184.811 220.972 181.835 226.062 181.104C226.062 181.103 220.317 181.169 216.073 184.434Z" fill="#49494A" stroke="#49494A" stroke-width="0.5" stroke-miterlimit="10"/>
<path d="M211.372 181.691C210.98 181.688 217.141 182.344 221.862 180.516C226.586 178.688 225.019 178.558 225.019 178.558C225.019 178.558 217.174 181.735 211.372 181.691Z" fill="#49494A" stroke="#49494A" stroke-width="0.5" stroke-miterlimit="10"/>
<path d="M290.716 44.2787C290.716 44.2787 277.253 39.198 260.323 50.2799C243.392 61.3611 235.389 67.3635 224.769 70.4421C224.769 70.4421 237.697 66.7484 249.548 59.8221C249.548 59.8221 259.597 54.4694 267.095 53.3578C267.095 53.3578 249.394 60.5913 243.852 65.8246C238.312 71.0579 210.249 78.1375 204.118 102.764C197.987 127.39 193.062 137.574 184.75 143.089C184.75 143.089 203.056 131.115 206.195 111.074C209.335 91.0342 214.608 95.0679 221.689 89.2193C221.689 89.2193 211.383 93.221 211.456 102.764C211.53 112.306 200.449 120.156 192.445 143.089C184.573 165.648 184.441 177.565 168.742 186.184C168.742 186.184 183.103 178.797 187.159 167.253C187.159 167.253 187.521 181.875 177.669 191.417C167.818 200.96 147.809 218.506 152.428 240.67C152.428 240.67 151.812 219.737 164.125 209.887C176.438 200.037 183.21 193.265 184.441 191.11C184.441 191.11 176.747 209.579 167.512 221.584C158.277 233.589 155.507 250.52 154.891 264.064C154.891 264.064 156.43 242.209 169.051 227.433C181.671 212.657 191.215 207.027 194.292 197.529C194.292 197.529 190.673 214.196 171.551 235.436C152.428 256.676 162.262 300.886 168.855 317.779C168.855 317.779 153.659 269.451 168.435 247.826C183.21 226.201 187.212 230.511 191.829 221.584C191.829 221.584 188.443 233.743 181.979 247.826C175.514 261.909 170.589 280.07 176.437 302.85C182.287 325.629 181.977 340.712 173.359 364.415C164.74 388.118 158.275 399.507 166.895 416.746C166.895 416.746 160.084 400.02 169.402 384.756C178.719 369.492 190.906 344.406 191.214 333.94C191.214 333.94 184.754 369.727 175.207 381.654C165.66 393.58 166.354 408.434 171.551 420.747C171.551 420.747 166.588 401.662 173.36 391.196C180.132 380.73 197.37 357.028 196.754 346.254C196.754 346.254 196.55 367.186 206.195 377.96C215.84 388.734 215.532 393.352 214.608 399.2C214.608 399.2 220.003 388.15 211.456 380.73C202.909 373.31 199.537 357.027 199.839 348.716C200.14 340.405 211.171 310.239 204.116 288.075C197.062 265.911 198.186 247.134 201.78 235.128C205.374 223.123 206.49 189.327 204.239 181.907C201.988 174.486 207.066 126.158 236.233 109.536C236.233 109.536 221.073 103.38 232.462 90.2971C243.852 77.2137 266.63 59.6682 266.63 59.6682C266.63 59.6682 281.09 42.2772 290.716 44.2787Z" fill="#3111A8"/>
<path d="M283.871 47.0479C283.871 47.0479 273.712 47.3173 262.938 59.6687C252.165 72.02 225.688 81.6889 213.687 87.9888C213.687 87.9888 230.978 82.4508 240.032 79.217C240.032 79.217 214.149 86.1426 215.093 109.537C215.093 109.537 224.785 87.9921 232.772 88.2967C232.772 88.2967 212.405 105.843 204.119 132.931C195.833 160.019 200.77 182.402 199.841 197.529C198.911 212.658 197.987 223.531 196.756 230.203C196.756 230.203 202.913 200.96 201.373 175.103C199.834 149.245 205.427 145.073 209.377 140.742C209.377 140.742 200.758 156.941 204.144 179.412C207.53 201.884 210.559 175.721 210.559 175.721C210.559 175.721 207.69 175.62 211.458 161.047C215.226 146.475 231.21 124.169 238.313 113.255C245.416 102.341 246.71 93.3317 251.549 90.1429C259.784 84.7172 268.193 54.935 283.871 47.0479Z" fill="#140152"/>
<path d="M190.908 241.593C190.908 241.593 182.596 260.678 181.981 271.144C181.365 281.611 184.75 296.386 186.443 309.931C188.137 323.476 189.602 336.405 186.407 344.408C186.407 344.408 191.83 320.091 190.907 311.163C189.983 302.235 186.905 287.46 189.368 279.149C189.368 279.149 189.983 289.615 192.447 297.003C194.909 304.39 198.018 324.68 192.512 338.6C187.006 352.52 185.025 359.701 184.069 362.558C184.069 362.558 202.19 334.249 201.782 317.781C201.374 301.313 197.68 297.003 196.756 284.689C195.832 272.376 194.236 246.519 200.758 233.283C207.28 220.047 203.669 208.034 201.789 198.806C201.788 198.805 205.685 218.949 190.908 241.593Z" fill="#3B1FC9"/>
<path d="M276.405 69.7104C276.405 69.7104 275.916 69.8664 275.07 70.308C274.221 70.7419 273.027 71.4738 271.564 72.4772C270.102 73.4844 268.395 74.8029 266.487 76.3718C264.583 77.9493 262.517 79.8248 260.293 81.9C259.745 82.4219 259.186 82.9549 258.616 83.4977C258.054 84.0594 257.463 84.6315 256.919 85.2134C255.807 86.3792 254.664 87.6168 253.573 88.9417C251.372 91.5871 249.343 94.5854 247.41 97.8173C246.446 99.4371 245.514 101.123 244.551 102.848C243.59 104.573 242.595 106.338 241.441 108.063C240.295 109.79 239.008 111.493 237.518 113.041C236.055 114.551 234.593 115.937 233.18 117.383C230.325 120.233 227.603 123.183 225.187 126.297C222.762 129.399 220.575 132.603 218.731 135.865C216.913 139.139 215.374 142.428 214.178 145.655C212.991 148.884 212.103 152.029 211.465 154.979C210.822 157.928 210.46 160.685 210.211 163.137C210.112 164.366 210.001 165.518 209.968 166.587C209.921 167.656 209.854 168.64 209.869 169.529C209.864 170.421 209.859 171.216 209.855 171.908C209.874 172.601 209.892 173.19 209.905 173.667C209.933 174.625 209.947 175.136 209.947 175.136C209.947 175.136 209.872 174.631 209.728 173.683C209.657 173.208 209.568 172.623 209.465 171.934C209.38 171.243 209.307 170.447 209.22 169.553C209.057 167.765 208.931 165.582 208.963 163.071C208.95 162.442 208.991 161.796 209.018 161.128C209.053 160.461 209.059 159.772 209.122 159.069C209.187 158.365 209.254 157.644 209.322 156.905C209.393 156.166 209.52 155.417 209.62 154.647C210.069 151.575 210.776 148.264 211.874 144.861C212.956 141.456 214.382 137.943 216.208 134.488C217.136 132.771 218.109 131.037 219.202 129.351C219.73 128.494 220.312 127.669 220.876 126.824C221.477 126.006 222.065 125.171 222.698 124.366C225.181 121.109 227.971 118.017 230.87 115.083C232.324 113.625 233.836 112.214 235.214 110.818C236.558 109.448 237.74 107.919 238.828 106.311C240.988 103.085 242.892 99.5963 244.972 96.3175C247.032 93.0236 249.334 89.9953 251.743 87.3519C252.951 86.0289 254.164 84.7953 255.41 83.6536C256.033 83.0697 256.643 82.5511 257.244 82.024C257.861 81.5067 258.467 80.9991 259.06 80.502C263.797 76.5591 268.068 73.6547 271.226 71.9266C272.797 71.0478 274.1 70.4861 275 70.1449C275.901 69.807 276.405 69.7104 276.405 69.7104Z" fill="#3B1FC9"/>
<path d="M275.38 70.0752C275.38 70.0752 274.781 70.2435 273.679 70.6134C272.577 70.9813 270.975 71.5672 268.968 72.3794C266.964 73.2001 264.566 74.2771 261.907 75.6745C259.258 77.0856 256.349 78.832 253.43 81.0527C251.976 82.1669 250.526 83.4077 249.141 84.7986C248.454 85.4973 247.771 86.2234 247.116 86.986C246.435 87.7812 245.787 88.5641 245.141 89.3952C242.532 92.7001 240.167 96.4558 237.822 100.452C236.646 102.449 235.471 104.51 234.191 106.57C232.915 108.632 231.519 110.69 229.9 112.622C229.096 113.591 228.238 114.529 227.327 115.419C226.876 115.868 226.407 116.302 225.928 116.724L225.241 117.326L224.554 117.948C224.118 118.368 223.75 118.744 223.346 119.186C222.955 119.633 222.553 120.067 222.185 120.543C221.806 121.005 221.435 121.477 221.083 121.967C220.719 122.446 220.372 122.94 220.035 123.443C217.288 127.432 215.04 131.801 213.194 136.24C212.737 137.353 212.291 138.466 211.889 139.59C211.452 140.701 211.096 141.834 210.705 142.948C209.987 145.199 209.323 147.439 208.793 149.674C207.714 154.141 206.957 158.532 206.525 162.731C206.102 166.931 205.966 170.93 206.029 174.622C206.081 178.317 206.39 181.697 206.729 184.687C207.108 187.671 207.534 190.267 207.963 192.39C208.183 193.451 208.379 194.4 208.549 195.224C208.748 196.043 208.918 196.739 209.056 197.304C209.331 198.435 209.479 199.038 209.479 199.038C209.479 199.038 209.284 198.448 208.92 197.343C208.737 196.789 208.511 196.107 208.247 195.305C208.016 194.491 207.753 193.556 207.457 192.509C206.887 190.407 206.274 187.828 205.74 184.834C205.229 181.839 204.728 178.432 204.53 174.683C204.298 170.939 204.263 166.86 204.582 162.561C204.889 158.264 205.51 153.743 206.553 149.149C207.581 144.554 208.981 139.869 210.862 135.281C212.74 130.694 215.02 126.169 217.885 121.965C219.351 119.87 220.894 117.876 222.843 116.04L223.534 115.423L224.243 114.81C224.69 114.419 225.128 114.018 225.551 113.603C226.405 112.78 227.21 111.91 227.97 111.004C231.022 107.383 233.417 103.25 235.854 99.2708C238.271 95.2751 240.842 91.4835 243.624 88.1701C244.312 87.3383 245.032 86.5222 245.722 85.7641C246.444 84.9786 247.174 84.2323 247.93 83.5363C249.439 82.1447 250.996 80.9248 252.543 79.8406C255.64 77.6688 258.7 76.0548 261.464 74.7762C264.229 73.4956 266.721 72.5816 268.788 71.8901C270.855 71.196 272.511 70.7621 273.64 70.4758C274.771 70.1952 275.38 70.0752 275.38 70.0752Z" fill="#3111A8"/>
<path d="M148.735 262.833C148.735 262.833 148.522 263.708 148.123 265.347C147.923 266.168 147.668 267.177 147.353 268.36C147.041 269.544 146.696 270.909 146.251 272.422C145.405 275.458 144.315 279.131 142.945 283.309C142.22 285.385 141.505 287.615 140.644 289.931C140.198 291.084 139.742 292.266 139.274 293.477C139.039 294.083 138.801 294.695 138.561 295.314C138.314 295.93 138.022 296.539 137.75 297.162C137.195 298.405 136.628 299.674 136.051 300.967L135.834 301.453L135.714 301.718L135.592 301.954C135.43 302.268 135.267 302.585 135.103 302.903C134.769 303.538 134.462 304.181 134.097 304.826C132.661 307.443 131.045 309.986 129.439 312.618C126.19 317.83 123.265 323.525 122.255 329.988C122.189 330.389 122.084 330.784 122.051 331.193L121.928 332.419C121.862 333.24 121.727 334.054 121.713 334.887C121.699 336.553 121.577 338.223 121.721 339.92C121.763 340.766 121.806 341.615 121.849 342.466C121.93 343.316 122.043 344.169 122.137 345.024C122.245 345.878 122.314 346.737 122.438 347.594C122.583 348.45 122.728 349.308 122.872 350.168C123.018 351.02 123.163 351.873 123.309 352.728C123.493 353.598 123.677 354.469 123.863 355.341C124.069 356.182 124.277 357.026 124.484 357.869L125.19 360.41C126.185 363.788 127.397 367.117 128.746 370.407C130.077 373.706 131.55 376.966 132.991 380.27C134.429 383.57 135.821 386.94 136.844 390.459C137.352 392.221 137.737 394.023 138.016 395.838C138.236 397.664 138.364 399.499 138.291 401.323C138.18 404.973 137.385 408.508 136.261 411.801C135.697 413.45 135.038 415.042 134.322 416.582C133.987 417.364 133.581 418.102 133.207 418.852C132.833 419.579 132.46 420.303 132.091 421.022C131.364 422.467 130.58 423.89 129.921 425.307C129.275 426.727 128.638 428.129 128.008 429.513C125.622 435.138 123.876 440.667 122.816 445.889C121.763 451.112 121.382 456.012 121.463 460.354C121.551 464.697 122.033 468.477 122.577 471.566C123.177 474.643 123.746 477.05 124.189 478.677C124.64 480.302 124.881 481.169 124.881 481.169C124.881 481.169 124.582 480.32 124.02 478.729C123.474 477.13 122.709 474.77 121.943 471.7C121.221 468.623 120.498 464.828 120.217 460.405C119.921 455.989 120.071 450.948 120.975 445.552C121.857 440.154 123.443 434.408 125.756 428.59C126.369 427.142 126.991 425.674 127.619 424.189C128.261 422.712 128.991 421.299 129.684 419.826C130.037 419.092 130.393 418.354 130.75 417.612C131.096 416.89 131.476 416.175 131.781 415.427C132.438 413.951 133.034 412.438 133.537 410.888C134.539 407.79 135.209 404.543 135.256 401.243C135.296 399.594 135.151 397.937 134.928 396.282C134.661 394.63 134.303 392.978 133.82 391.337C132.847 388.056 131.496 384.814 130.053 381.555C128.613 378.296 127.1 375.005 125.727 371.634C124.364 368.259 123.128 364.811 122.116 361.305L121.397 358.668C121.183 357.774 120.969 356.882 120.755 355.991C120.576 355.117 120.396 354.245 120.217 353.375C120.067 352.476 119.918 351.58 119.77 350.685C119.625 349.798 119.481 348.912 119.337 348.028C119.215 347.14 119.137 346.245 119.044 345.355C118.959 344.464 118.858 343.578 118.788 342.691C118.756 341.797 118.725 340.906 118.693 340.018C118.575 338.246 118.724 336.466 118.772 334.708C118.803 333.828 118.955 332.953 119.042 332.081L119.196 330.776C119.239 330.342 119.357 329.916 119.433 329.486C120.008 326.041 121.156 322.749 122.569 319.724C123.987 316.695 125.685 313.92 127.385 311.325C129.076 308.726 130.731 306.218 132.19 303.784C132.563 303.176 132.904 302.529 133.258 301.911C133.434 301.599 133.608 301.289 133.782 300.98L133.912 300.749L134.016 300.534L134.247 300.065C134.86 298.815 135.462 297.59 136.052 296.389C136.342 295.786 136.651 295.2 136.917 294.6C137.176 293.996 137.434 293.399 137.688 292.81C138.199 291.631 138.698 290.479 139.185 289.355C140.146 287.101 140.957 284.92 141.776 282.891C143.314 278.795 144.623 275.207 145.636 272.227C146.649 269.249 147.447 266.905 147.954 265.297C148.464 263.691 148.735 262.833 148.735 262.833Z" fill="#3111A8"/>
<path d="M132.847 304.828C132.847 304.828 130.689 306.439 127.373 309.72C125.712 311.355 123.792 313.434 121.761 315.941C119.749 318.46 117.657 321.442 115.796 324.899C114.861 326.624 114.011 328.481 113.289 330.45C112.569 332.419 111.933 334.487 111.516 336.658C111.111 338.817 110.884 341.115 110.929 343.361C110.93 344.614 111.078 345.688 111.194 346.823C111.288 347.405 111.382 347.989 111.478 348.576C111.573 349.164 111.725 349.753 111.845 350.344C112.9 355.082 114.73 359.874 116.571 364.775C118.431 369.679 120.45 374.667 122.127 379.853C123.747 385.04 125.081 390.482 125.01 396.115C124.973 396.819 124.981 397.519 124.903 398.221C124.814 398.923 124.725 399.623 124.635 400.321C124.473 401.012 124.311 401.701 124.149 402.389C123.962 403.069 123.696 403.731 123.47 404.397C122.442 407.032 120.87 409.395 119.022 411.371C118.538 411.841 118.056 412.309 117.576 412.775C117.088 413.23 116.546 413.606 116.038 414.02C115.036 414.88 113.895 415.477 112.83 416.172L112.628 416.298L112.397 416.424L111.999 416.636L111.207 417.059C110.68 417.34 110.156 417.619 109.636 417.897C108.589 418.448 107.588 419.02 106.508 419.508C105.45 420.011 104.406 420.508 103.378 420.997C102.868 421.25 102.351 421.473 101.834 421.683C101.319 421.895 100.809 422.106 100.301 422.316C98.2892 423.184 96.2759 423.858 94.3619 424.536C90.4926 425.787 86.8883 426.755 83.6251 427.273C80.3737 427.834 77.5065 428.108 75.1417 428.127C72.7794 428.174 70.928 428.024 69.678 427.854C68.4281 427.684 67.7783 427.517 67.7783 427.517C67.7783 427.517 68.4444 427.611 69.695 427.642C70.9462 427.683 72.782 427.59 75.0921 427.35C77.4054 427.121 80.1819 426.576 83.3133 425.809C84.0916 425.601 84.8959 425.387 85.7238 425.166C86.5399 424.905 87.3795 424.637 88.2413 424.362C89.1063 424.102 89.9753 423.777 90.8664 423.45C91.7537 423.112 92.6781 422.819 93.5901 422.426C95.4174 421.652 97.3315 420.885 99.2423 419.921C100.195 419.44 101.209 419.032 102.166 418.499C103.136 417.986 104.119 417.466 105.116 416.939C106.114 416.438 107.114 415.811 108.132 415.218C108.64 414.919 109.152 414.617 109.666 414.313L110.44 413.857L110.828 413.628L110.925 413.57C110.943 413.559 111.023 413.514 110.99 413.531L111.166 413.408C111.638 413.084 112.112 412.758 112.588 412.431C112.823 412.266 113.075 412.118 113.3 411.938L113.964 411.387C114.4 411.011 114.875 410.67 115.284 410.265C115.685 409.854 116.088 409.441 116.494 409.027C118.02 407.298 119.262 405.315 120.059 403.114C120.868 400.919 121.219 398.519 121.232 396.06C121.246 393.599 120.934 391.08 120.432 388.566C119.925 386.049 119.19 383.539 118.4 381.037C116.828 376.022 114.872 371.063 113.038 366.1C112.104 363.627 111.241 361.126 110.458 358.623C109.661 356.125 108.998 353.59 108.483 351.051C108.368 350.41 108.225 349.783 108.137 349.14C108.05 348.497 107.963 347.857 107.878 347.221C107.815 346.566 107.775 345.896 107.732 345.24C107.67 344.559 107.724 343.999 107.719 343.381C107.78 340.8 108.133 338.384 108.672 336.043C109.789 331.385 111.698 327.268 113.857 323.782C115.995 320.273 118.387 317.375 120.636 314.962C122.888 312.547 125.036 310.639 126.855 309.143C128.668 307.636 130.193 306.584 131.228 305.871C132.269 305.168 132.847 304.828 132.847 304.828Z" fill="#3111A8"/>
<path d="M197.378 354.904C197.378 354.904 197.624 355.633 198.015 357.023C198.401 358.415 198.953 360.463 199.474 363.115C199.997 365.765 200.535 369.01 200.817 372.781C201.077 376.547 201.163 380.855 200.43 385.518C200.062 387.844 199.493 390.26 198.589 392.676C197.697 395.089 196.386 397.491 194.661 399.666C191.349 403.879 187.542 407.962 183.91 412.363C180.275 416.759 176.84 421.529 174.136 426.77C171.437 432.004 169.579 437.743 168.872 443.655C168.519 446.608 168.428 449.593 168.551 452.565C168.681 454.048 168.741 455.534 168.975 457.003C169.083 457.737 169.149 458.476 169.29 459.204C169.427 459.933 169.563 460.66 169.7 461.387C169.82 462.115 170.013 462.83 170.182 463.548C170.357 464.264 170.531 464.978 170.706 465.691C171.129 467.099 171.479 468.521 171.954 469.899C172.856 472.649 173.891 475.414 174.879 478.118C176.873 483.524 178.765 488.768 180.539 493.754C182.322 498.736 183.941 503.478 185.302 507.909C185.976 510.127 186.605 512.261 187.119 514.317C187.627 516.375 188.046 518.348 188.347 520.222C188.978 523.962 188.969 527.345 188.467 530.035C187.965 532.737 186.987 534.679 186.269 535.927C186.083 536.237 185.919 536.511 185.777 536.747C185.623 536.976 185.492 537.168 185.387 537.322C185.178 537.631 185.07 537.79 185.07 537.79C185.07 537.79 185.165 537.622 185.349 537.299C185.441 537.137 185.555 536.935 185.691 536.697C185.812 536.451 185.953 536.167 186.112 535.845C186.424 535.198 186.76 534.378 187.084 533.396C187.373 532.403 187.675 531.253 187.825 529.936C188.137 527.304 187.919 524.065 187.12 520.45C186.335 516.829 185.051 512.826 183.524 508.497C181.98 504.173 180.168 499.526 178.257 494.605C176.328 489.685 174.294 484.497 172.19 479.129C170.131 473.8 167.796 468.109 166.614 462.021C166.466 461.261 166.319 460.499 166.171 459.735C166.018 458.972 165.941 458.193 165.824 457.421C165.571 455.878 165.492 454.305 165.349 452.738C165.199 449.59 165.269 446.412 165.635 443.257C166.427 436.948 168.46 430.823 171.342 425.32C174.211 419.791 177.945 414.946 181.716 410.521C185.485 406.079 189.436 402.135 192.78 398.133C194.407 396.214 195.641 394.079 196.571 391.868C197.508 389.662 198.146 387.4 198.594 385.19C199.469 380.757 199.627 376.551 199.576 372.839C199.486 369.123 199.184 365.878 198.837 363.219C198.48 360.561 198.127 358.476 197.843 357.063C197.565 355.65 197.378 354.904 197.378 354.904Z" fill="#3111A8"/>
<path d="M193.2 343.029C193.2 343.029 193.504 343.645 193.977 344.85C194.447 346.053 195.097 347.844 195.665 350.202C196.237 352.554 196.79 355.467 196.987 358.864C197.196 362.255 197.085 366.14 196.272 370.294C196.031 371.324 195.784 372.375 195.534 373.448C195.223 374.503 194.867 375.57 194.523 376.663C193.786 378.805 192.627 381.026 191.36 383.071C188.789 387.21 185.584 391.102 182.432 395.121C179.278 399.137 176.267 403.4 173.979 408.06C172.84 410.389 171.908 412.824 171.243 415.335C170.591 417.851 170.23 420.443 170.123 423.051C170.114 423.704 170.043 424.354 170.074 425.01L170.121 426.973C170.154 427.627 170.232 428.281 170.283 428.935L170.371 429.914L170.519 430.889C170.622 431.539 170.706 432.19 170.821 432.836L171.23 434.766C171.3 435.087 171.361 435.409 171.439 435.729L171.697 436.681C171.868 437.316 172.039 437.949 172.21 438.582C173.047 441.127 173.878 443.652 174.698 446.148C175.56 448.638 176.273 451.218 177.022 453.711C177.411 454.957 177.707 456.212 178.035 457.446C178.354 458.683 178.686 459.903 178.962 461.124C179.469 463.579 180.052 465.955 180.424 468.316C181.329 473.002 181.779 477.51 182.04 481.665C182.319 485.825 182.18 489.656 181.946 493.025C181.708 496.4 181.194 499.305 180.754 501.679C180.27 504.049 179.777 505.879 179.439 507.125C179.086 508.365 178.899 509.028 178.899 509.028C178.899 509.028 179.015 508.35 179.231 507.08C179.341 506.445 179.444 505.657 179.583 504.735C179.717 503.813 179.827 502.747 179.984 501.561C180.21 499.177 180.441 496.284 180.448 492.963C180.48 492.134 180.42 491.277 180.41 490.396C180.392 489.516 180.371 488.612 180.293 487.683C180.233 486.757 180.17 485.806 180.107 484.833C180.007 483.863 179.904 482.869 179.799 481.856C179.716 480.842 179.533 479.814 179.389 478.764C179.229 477.716 179.103 476.645 178.881 475.567C178.686 474.486 178.487 473.387 178.285 472.27C178.071 471.157 177.803 470.034 177.56 468.892C177.101 466.603 176.429 464.291 175.834 461.913C175.136 459.561 174.499 457.127 173.721 454.707C172.925 452.286 172.185 449.833 171.251 447.335C170.804 446.087 170.354 444.832 169.902 443.57C169.684 442.931 169.466 442.29 169.248 441.647C169.03 440.99 168.797 440.338 168.591 439.674C168.404 439.003 168.215 438.33 168.027 437.656L167.743 436.644C167.658 436.304 167.589 435.958 167.511 435.615L167.056 433.547C166.926 432.853 166.826 432.147 166.711 431.447L166.544 430.393L166.437 429.328C166.374 428.616 166.287 427.906 166.245 427.191L166.174 425.038C166.14 424.32 166.199 423.599 166.215 422.879C166.357 420.002 166.783 417.128 167.528 414.35C168.287 411.576 169.336 408.907 170.594 406.39C173.099 401.333 176.47 396.985 179.747 392.975C183.025 388.955 186.345 385.286 188.915 381.492C190.213 379.576 191.254 377.738 192.091 375.724C192.47 374.717 192.866 373.731 193.218 372.75C193.514 371.749 193.804 370.768 194.088 369.805C195.064 365.906 195.454 362.197 195.497 358.901C195.528 355.603 195.264 352.714 194.905 350.354C194.537 347.996 194.125 346.154 193.776 344.916C193.438 343.677 193.2 343.029 193.2 343.029Z" fill="#3111A8"/>
<path d="M245.977 146.433C253.539 147.587 260.863 152.615 260.863 152.615C259.645 150.787 257.729 148.262 257.729 148.262C260.08 148.871 263.633 152.709 263.458 151.838C263.285 150.967 261.733 149.349 261.733 149.349C263.909 150.395 265.825 153.659 266.434 155.313C267.045 156.967 270.005 162.887 270.005 162.887L267.827 161.146V162.365C266.608 160.798 262.779 159.144 262.779 159.144L262.909 161.016C261.603 159.361 258.164 158.186 258.686 158.361C259.209 158.534 259.574 160.478 259.574 160.478C258.355 158.65 252.244 155.662 254.506 157.141C254.624 157.218 254.738 157.297 254.848 157.377C256.866 158.832 257.511 160.407 257.511 160.407C255.9 159.016 249.37 155.227 246.933 154.792C244.495 154.356 241.752 153.225 235.006 152.876C229.285 152.581 222.905 154.008 224.821 154.152C224.917 154.159 225.014 154.169 225.107 154.181C226.865 154.405 228.042 155.402 228.042 155.402C225.518 154.879 220.816 156.62 220.816 156.62C222.122 156.272 226.823 156.969 226.823 156.969C224.298 156.708 219.162 158.449 219.162 158.449C220.294 158.362 221.338 159.232 221.338 159.232C219.946 159.058 218.204 160.016 218.204 160.016C218.727 160.016 220.293 160.973 220.293 160.973C217.421 160.973 213.503 164.021 213.503 164.021C213.503 164.021 213.939 156.011 218.901 152.007C218.901 152.007 223.123 149.503 225.408 148.589C227.693 147.676 230.175 145.26 231.024 144.542C231.024 144.542 229.717 146.63 228.999 147.349L232.165 144.966C232.165 144.966 231.53 146.306 230.943 146.829C230.943 146.829 234.026 145.847 235.201 144.542C235.201 144.542 234.744 146.043 233.83 146.435C232.918 146.825 241.842 145.803 245.977 146.433Z" fill="black" stroke="black" stroke-width="0.5" stroke-miterlimit="15" stroke-linecap="round"/>
<path d="M224.29 180.03C224.29 180.03 228.653 180.124 231.264 178.209C233.876 176.293 237.881 173.682 242.233 172.812C246.586 171.941 251.959 171.982 257.033 174.988C260.649 177.13 261.967 177.776 264.161 178.492C264.161 178.492 265.009 178.655 267.707 179.813C267.707 179.813 267.002 178.884 264.88 178.101C262.74 177.31 261.495 176.011 258.187 174.184C254.879 172.355 252.486 171.611 250.504 171.202C247.775 170.638 245.161 171.07 242.234 170.941C239.521 170.821 237.881 170.245 237.881 170.245C237.881 170.245 238.751 171.072 240.797 171.42C240.797 171.42 238.663 172.116 236.226 171.551C236.226 171.551 236.856 172.812 238.098 172.465C238.098 172.465 235.172 173.824 233.311 173.498C233.311 173.498 233.963 174.118 234.322 174.15C234.322 174.15 232.788 174.64 231.645 174.347C231.645 174.347 232.134 174.935 232.592 174.999C232.592 174.999 231.07 175.932 229.871 177.122C228.648 178.335 228.12 178.724 224.29 180.03Z" fill="#020202" stroke="#020202" stroke-width="0.5" stroke-miterlimit="15" stroke-linecap="round"/>
<path d="M254.202 183.052C255.624 182.523 260.863 180.973 262.365 180.516C263.866 180.06 267.393 180.031 267.393 180.031C267.393 180.031 264.52 179.602 259.753 180.613C255.464 181.523 250.657 182.736 244.148 182.214C237.64 181.692 232.657 179.276 232.657 179.276C230.241 179.211 227.695 181.169 227.695 181.169C231.809 179.406 233.31 181.104 233.31 181.104C231.417 181.691 230.895 184.401 230.895 184.401C231.743 183.291 233.702 181.3 235.595 182.41C237.489 183.52 239.578 183.617 239.578 183.617C239.022 184.563 239.155 185.969 239.155 185.969C239.587 184.481 241.21 183.617 241.21 183.617C240.884 184.335 241.749 185.99 241.749 185.99C242.174 184.31 244.018 183.617 244.018 183.617C243.005 185.281 244.234 187.478 244.234 187.478C244.561 183.658 246.466 184.043 246.466 184.043C246.336 185.512 247.325 186.714 247.325 186.714C247.154 185.471 247.976 184.426 247.976 184.426C247.879 184.915 248.784 186.263 248.784 186.263C248.915 185.186 249.697 184.239 249.697 184.239L254.202 183.052Z" fill="#020202" stroke="#020202" stroke-width="0.5" stroke-miterlimit="15" stroke-linecap="round"/>
<path d="M246.598 173.693C246.598 173.693 245.03 173.759 244.868 174.215C244.705 174.673 245.096 178.1 247.544 177.904C249.993 177.708 249.209 174.411 249.209 174.411C249.209 174.411 248.556 173.431 246.598 173.693Z" fill="black"/>
<path d="M253.452 173.041C253.452 173.041 254.646 175.26 254.254 177.742C253.804 180.593 250.645 182.508 250.645 182.508C250.645 182.508 245.814 183.226 243.332 182.279C240.851 181.332 239.816 179.524 239.36 176.719C239.098 175.108 239.871 173.171 239.871 173.171C239.871 173.171 241.504 173.115 242.059 173.649C242.059 173.649 240.656 173.66 240.263 173.791C240.263 173.791 241.7 174.459 242.059 175.137C242.059 175.137 240.917 175.097 240.393 175.424C240.393 175.424 241.406 175.782 241.7 176.338C241.7 176.338 240.393 176.403 240.1 176.828C240.1 176.828 241.063 177.686 241.667 177.905C241.667 177.905 240.88 178.427 240.361 178.558C240.361 178.558 241.014 179.338 241.733 179.275C241.733 179.275 241.49 179.751 241.08 180.031C241.08 180.031 242.092 180.778 242.809 180.353C242.809 180.353 242.908 181.234 243.103 181.691C243.103 181.691 243.72 182.568 244.833 182.443C245.948 182.317 249.772 182.553 250.155 182.377C250.538 182.2 251.983 181.397 251.591 180.613C251.591 180.613 253.419 180.414 253.06 179.274C253.06 179.274 254.039 178.948 253.615 178.458C253.615 178.458 254.627 177.871 253.452 177.316C253.452 177.316 255.109 175.34 253.223 174.052C253.223 174.052 252.897 173.041 252.277 173.041H253.452Z" fill="black" stroke="black" stroke-width="0.5" stroke-miterlimit="15" stroke-linecap="round"/>
<path d="M250.025 230.072C250.025 230.072 245.063 235.557 242.452 236.863C239.839 238.169 238.142 240.134 239.579 244.767C239.579 244.767 236.191 238.989 239.054 236.863C243.626 233.468 242.712 235.492 250.025 230.072Z" fill="#49494A" stroke="#49494A" stroke-width="0.5" stroke-miterlimit="10"/>
<path d="M276.831 205.803C276.831 205.803 275.939 210.335 271.647 212.378C268.885 213.692 267.182 218.515 267.311 221.127C267.437 223.739 268.804 226.989 273.402 229.549C273.402 229.549 267.822 228.343 267.304 222.825C267.304 222.825 266.567 217.491 267.946 216.623C267.946 216.623 267.118 215.578 263.232 219.169C259.344 222.76 257.114 224.654 253.928 226.482C253.928 226.482 258.514 222.565 258.898 220.606C259.28 218.647 250.97 221.47 242.983 220.816C234.42 220.114 229.06 219.776 224.105 212.416C224.105 212.416 246.663 218.401 256.858 215.47C267.053 212.539 275.041 206.018 276.831 205.803Z" fill="#49494A" stroke="#49494A" stroke-width="0.5" stroke-miterlimit="10"/>
<path d="M291.299 236.947C291.152 236.966 291.029 236.982 290.939 236.996C289.611 237.193 288.198 236.182 287.045 236.129C284.748 236.024 281.202 231.139 279.203 230.466C277.341 229.84 274.052 229.593 274.052 229.593C278.678 231.175 279.389 231.931 280.408 232.801C281.427 233.671 284.368 237.308 285.557 237.918C286.747 238.526 289.15 239.212 290.797 238.957C290.958 238.931 291.126 238.904 291.298 238.873C291.298 238.231 291.299 237.589 291.299 236.947Z" fill="#49494A"/>
<path d="M284.883 187.448C284.883 187.448 280.64 199.934 280.064 204.628C279.487 209.323 279.204 213.187 276.277 216.791C271.991 222.071 274.987 224.411 274.516 227.15C274.516 227.15 270.436 220.84 275.837 215.335C279.221 211.887 276.278 203.972 276.278 203.972L280.435 191.743L284.883 187.448Z" fill="#49494A"/>
<path d="M291.3 248.105C288.943 248.907 287.547 249.856 287.547 249.856C284.458 247.157 274.622 245.765 271.746 245.973C269.437 246.139 264.881 245.939 259.035 245.155C255.539 244.686 246.225 243.928 246.225 243.928C249.066 244.625 252.52 245.731 255.394 246.427C258.265 247.125 262.604 248.289 266.87 249.333C271.136 250.378 279.668 252.468 280.801 252.729C281.932 252.99 286.111 254.557 287.548 254.383C288.646 254.251 290.018 254.319 291.303 254.359C291.302 252.275 291.3 250.19 291.3 248.105Z" fill="#3111A8" stroke="#3111A8" stroke-miterlimit="15"/>
<path d="M291.305 264.269C286.932 264.614 281.669 264.342 275.619 262.773C265.814 260.23 258.531 255.101 249.409 244.767C249.409 244.767 245.654 243.942 244.445 243.928C244.445 243.928 250.111 251.984 254.813 256.931C259.367 261.722 266.044 272.188 277.883 274.393C282.604 275.272 287.199 275.396 291.309 275.054C291.307 271.458 291.307 267.864 291.305 264.269Z" fill="#140152"/>
<path d="M291.487 372.009C288.683 360.399 285.363 350.697 285.363 350.697L279.704 350.316C283.466 362.768 288.216 403.868 288.216 403.868C289.437 404.161 290.592 403.988 291.602 403.632C291.558 393.091 291.519 382.549 291.487 372.009Z" fill="#FF7900"/>
<path d="M275.89 349.959C275.89 349.959 283.87 383.294 283.255 403.868C283.255 403.868 260.938 400.126 258.397 381.232C255.857 362.338 257.353 348.571 257.353 348.571L275.89 349.959Z" fill="#FF7900"/>
<path d="M219.95 210.357C219.95 210.357 210.416 219.946 218.778 234.199C221.862 239.456 224.288 253.781 223.987 257.876C223.987 257.876 223.114 261.54 229.77 270.275C229.77 270.275 229.77 251.736 221.051 230.072C221.051 230.072 218.533 218.358 225.267 214.123C232.002 209.887 219.95 210.357 219.95 210.357Z" fill="#C6C5C5"/>
<path d="M291.34 176.137C289.251 176.235 284.187 175.02 280.639 173.5C277.007 171.943 271.687 168.829 257.547 166.105C243.404 163.38 226.28 164.808 218.971 165.326C211.663 165.845 206.43 167.013 204.874 167.792V175.317C204.874 175.317 205.25 175.089 205.843 174.741C208.234 179.742 207.054 198.075 221.48 211.903C224.195 214.506 232.132 216.766 241.934 217.33C251.318 217.87 262.086 215.536 267.276 213.59C272.467 211.644 275.45 204.767 277.397 201.264C279.342 197.761 279.991 193.221 282.585 188.42C285.181 183.62 286.738 184.268 291.019 184.139C291.128 184.136 291.227 184.138 291.332 184.138C291.334 181.469 291.336 178.803 291.34 176.137ZM279.861 186.473C279.083 189.976 275.579 202.431 270.002 207.231C264.422 212.031 250.865 214.367 240.421 213.977C233.156 213.706 225.821 210.711 223.167 208.917C220.766 207.296 216.488 200.105 214.733 196.722C212.823 193.039 210.066 175.995 209.565 172.656C210.656 172.078 211.759 171.531 212.657 171.164C215.512 169.997 225.89 166.234 240.55 167.012C255.212 167.79 269.351 169.997 274.801 174.667C280.25 179.337 280.64 182.97 279.861 186.473Z" fill="black" stroke="black" stroke-width="0.5" stroke-miterlimit="15" stroke-linecap="round"/>
<path d="M292.589 350.324C290.958 350.65 289.001 351.199 286.761 351.145C259.566 350.493 233.05 344.619 209.412 331.405" stroke="white" stroke-width="5" stroke-miterlimit="10"/>
<path d="M208.174 196.57C208.174 196.57 207.379 209.384 209.073 216.002C210.765 222.621 214.921 232.162 215.999 238.012C217.075 243.861 219.063 252.325 216.915 260.022C214.766 267.716 215.984 281.415 216.915 285.264C216.915 285.264 213.228 270.026 215.69 257.252C218.009 245.225 213.915 234.836 211.887 229.421C211.761 229.085 211.643 228.768 211.535 228.47C209.688 223.391 214.536 238.243 214.536 243.784C214.536 249.325 211.455 259.021 212.996 271.72C214.537 284.418 220.516 301.964 217.873 312.815C217.479 314.432 217.036 316.116 216.568 317.837C213.891 327.671 210.381 338.756 210.381 345.829C210.381 345.829 210.967 331.284 213.329 323.203C213.329 323.203 210.613 331.514 209.689 337.055C209.689 337.055 205.61 298.5 207.689 292.497C207.689 292.497 209.688 315.454 211.305 319.971C211.305 319.971 212.229 312.121 211.305 302.193C211.305 302.193 212.815 304.272 213.33 307.273C213.33 307.273 215.923 305.194 214.999 295.036C214.076 284.878 209.553 273.103 208.121 262.946C206.689 252.788 202.071 237.089 203.457 229.47C203.457 229.47 203.457 237.319 205.766 241.937C208.074 246.554 209.69 254.866 209.921 258.098C209.921 258.098 210.614 237.089 208.305 229.932C205.994 222.774 205.095 207.344 208.174 196.57Z" fill="#22007C"/>
<path d="M291.319 285.913C288.512 285.438 285.764 285.558 282.636 285.843C278.428 286.225 274.02 287.184 270.978 290.332H277.902C281.791 290.332 285.542 290.639 289.446 290.64C290.084 290.64 290.707 290.613 291.323 290.575C291.322 289.021 291.32 287.467 291.319 285.913Z" fill="#C6C5C5"/>
<path d="M291.322 289.12C280.607 288.077 270.839 290.218 270.839 290.218L291.325 291.031C291.323 290.394 291.323 289.756 291.322 289.12Z" fill="#49494A"/>
<path d="M291.322 289.12L288.753 288.994L287.468 288.931C287.039 288.923 286.611 288.937 286.183 288.939L283.615 288.952L281.05 289.089C280.623 289.116 280.194 289.125 279.769 289.174L278.491 289.294C277.637 289.364 276.785 289.447 275.937 289.565C275.087 289.668 274.239 289.779 273.396 289.922C272.55 290.049 271.707 290.205 270.874 290.376L270.846 290.058C277.674 290.335 284.502 290.619 291.326 291.003L291.297 291.032L291.322 289.12ZM291.322 289.12L291.353 291.031L291.354 291.061L291.324 291.06C284.491 290.903 277.662 290.644 270.833 290.379L269.478 290.326L270.804 290.062C271.652 289.893 272.497 289.743 273.347 289.619C274.196 289.479 275.048 289.373 275.902 289.274C276.754 289.16 277.609 289.083 278.466 289.016L279.75 288.912C280.177 288.869 280.608 288.868 281.037 288.848L283.611 288.752L286.189 288.787C286.618 288.799 287.047 288.797 287.475 288.818L288.758 288.919L291.322 289.12Z" fill="#49494A"/>
<path d="M291.299 236.427C290.032 236.485 288.804 236.336 287.531 236.038C285.94 235.666 284.964 235.029 283.374 233.159C282.284 231.876 281.036 230.956 279.295 230.395C277.341 229.764 276.103 229.479 273.862 229.574V229.651C274.072 229.694 274.335 229.992 274.545 230.036C276.381 230.418 278.233 230.725 279.688 231.993C280.366 232.584 280.89 233.178 281.579 233.759C282.299 234.37 283.149 234.75 283.926 235.288C285.459 236.352 286.692 237.744 288.633 238.02C289.525 238.146 290.418 238.079 291.299 237.906C291.298 237.413 291.299 236.92 291.299 236.427Z" fill="#49494A"/>
<path d="M289.98 419.149C289.654 424.042 290.632 428.609 291.937 432.523" stroke="white" stroke-width="2" stroke-miterlimit="10"/>
<path d="M271.992 215.334C269.399 217.189 268.521 220.732 269.744 223.696C270.049 224.432 270.486 225.167 270.984 225.804C270.595 225.082 270.534 222.783 270.663 221.809C270.909 219.945 271.14 219.426 271.64 217.95C271.909 217.16 271.872 216.374 271.98 215.565" fill="white"/>
</g>
<defs>
<clipPath id="clip0">
<rect width="291.318" height="569.449" fill="white"/>
</clipPath>
</defs>
</svg>
