<svg width="41" height="33" viewBox="0 0 41 33" fill="none" xmlns="http://www.w3.org/2000/svg">
<path fill-rule="evenodd" clip-rule="evenodd" d="M36.8423 4.49356H38.8443C40.0456 4.49356 40.8464 5.2858 40.8464 6.47431V30.2424C40.8464 31.4309 40.0456 32.2232 38.8443 32.2232H2.80677C1.60556 32.2232 0.804688 31.4309 0.804688 30.2424V6.47431C0.804688 5.2858 1.60549 4.49356 2.80677 4.49356H4.80892V3.50325C4.80892 2.909 5.20939 2.51288 5.80999 2.51288H9.81415C10.4147 2.51288 10.8152 2.90907 10.8152 3.50325V4.49356H20.8256L22.6275 1.12639C22.6275 0.730196 23.0279 0.532135 23.4283 0.532135H34.2396C34.64 0.532135 35.0405 0.730196 35.0405 1.12639L36.8423 4.49356ZM16.8214 18.3583C16.8214 23.9042 21.226 28.2618 26.8318 28.2618C32.4376 28.2618 36.8423 23.9043 36.8423 18.3583C36.8423 12.8125 32.4376 8.45492 26.8318 8.45492C21.226 8.45492 16.8214 12.8125 16.8214 18.3583ZM33.0063 18.37C33.0063 21.7884 30.2052 24.5597 26.7498 24.5597C23.2944 24.5597 20.4932 21.7884 20.4932 18.37C20.4932 14.9515 23.2944 12.1803 26.7498 12.1803C30.2052 12.1803 33.0063 14.9515 33.0063 18.37ZM38.224 8.94008C38.0557 9.17686 37.7857 9.33868 37.4492 9.33868C37.0331 9.33868 36.7497 9.06249 36.7497 8.64021C36.7497 7.90625 37.312 7.34193 37.8787 7.34193C38.2241 7.34193 38.4056 7.51157 38.4631 7.72076H38.4808C38.5252 7.57082 38.5561 7.48006 38.5916 7.38532H38.9015C38.8705 7.47608 38.8218 7.66158 38.7775 7.8352C38.7067 8.12326 38.6315 8.44291 38.5782 8.69939C38.5208 8.96768 38.5517 9.07821 38.7111 9.07423L38.6315 9.3268C38.6005 9.3347 38.5651 9.33861 38.5163 9.33861C38.3393 9.33861 38.2153 9.22019 38.2374 8.94002H38.224V8.94008ZM37.582 9.07423C37.8654 9.07423 38.1177 8.81383 38.2284 8.55728C38.2638 8.4784 38.286 8.40343 38.3081 8.2929C38.3214 8.21793 38.3347 8.13507 38.3347 8.06402C38.3347 7.82723 38.1842 7.60233 37.8875 7.60233C37.5112 7.60233 37.1305 8.06003 37.1305 8.59277C37.1305 8.8691 37.2854 9.07423 37.582 9.07423ZM11.4163 28.795C11.648 28.795 11.836 28.6079 11.836 28.3772V9.41035C11.836 9.17961 11.6481 8.9926 11.4163 8.9926H4.51352C4.28181 8.9926 4.09389 9.17961 4.09389 9.41035V28.3772C4.09389 28.6079 4.28174 28.795 4.51352 28.795H11.4163Z" fill="white"/>
</svg>
