<?xml version="1.0" encoding="utf-8"?>
<!-- Generator: Adobe Illustrator 16.0.0, SVG Export Plug-In . SVG Version: 6.00 Build 0)  -->
<!DOCTYPE svg PUBLIC "-//W3C//DTD SVG 1.1//EN" "http://www.w3.org/Graphics/SVG/1.1/DTD/svg11.dtd">
<svg version="1.1" id="Capa_1" xmlns="http://www.w3.org/2000/svg" xmlns:xlink="http://www.w3.org/1999/xlink" x="0px" y="0px"
	 width="66.167px" height="50px" viewBox="-8 0 66.167 50" enable-background="new -8 0 66.167 50" xml:space="preserve">
<g>
	<path fill="#FFFFFF" d="M56.86,46.793L36.122,10.876c-0.185-0.321-0.527-0.519-0.897-0.519c-0.371,0-0.713,0.198-0.899,0.519
		l-3.708,6.424l-5.594-9.689c-0.186-0.321-0.528-0.519-0.898-0.519s-0.713,0.198-0.899,0.519l-9.051,15.676l-2.833-4.908
		c-0.186-0.321-0.528-0.519-0.899-0.519s-0.713,0.198-0.898,0.519L-6.86,46.793c-0.186,0.322-0.186,0.717,0,1.038
		c0.185,0.321,0.527,0.519,0.898,0.519h61.925c0.369,0,0.712-0.197,0.897-0.52C57.046,47.51,57.046,47.115,56.86,46.793z
		 M35.225,13.471l5.851,10.132l-1.938,2.94l-3.348-3.6c-0.192-0.207-0.459-0.326-0.74-0.331c-0.282-0.005-0.554,0.104-0.752,0.303
		l-2.903,2.893l-1.841-2.435L35.225,13.471z M24.125,10.206l3.755,6.506l-1.07,1.66l-2.208-2.651
		c-0.221-0.266-0.562-0.404-0.906-0.368c-0.345,0.037-0.648,0.242-0.81,0.549l-1.422,2.701l-1.391-1.382L24.125,10.206z M19,19.081
		l1.998,1.984c0.196,0.194,0.459,0.301,0.731,0.301c0.052,0,0.105-0.003,0.157-0.012c0.325-0.05,0.608-0.251,0.761-0.542L24,18.242
		l2.121,2.544c0.211,0.254,0.531,0.392,0.861,0.372c0.329-0.02,0.63-0.196,0.808-0.474l1.258-1.951l0.371,0.644l-8.751,15.158
		l-5.295-9.171L19,19.081z M10.442,20.974l4.208,7.289l-2.026,2.297l-2.131-2.588c-0.355-0.433-0.991-0.504-1.434-0.164L7.523,28.99
		l-0.619-1.888L10.442,20.974z M5.511,29.515l0.496,1.516c0.105,0.319,0.359,0.568,0.681,0.667c0.321,0.101,0.672,0.038,0.938-0.167
		l1.902-1.465l2.268,2.755c0.193,0.233,0.48,0.372,0.784,0.377c0.005,0,0.012,0,0.018,0c0.297,0,0.581-0.127,0.778-0.353l2.37-2.686
		l9.304,16.116H-4.165L5.511,29.515z M27.446,46.275l-5.58-9.665l6.539-11.326l2.05,2.726c0.18,0.24,0.455,0.391,0.755,0.411
		c0.299,0.021,0.594-0.089,0.807-0.301l2.986-2.977l3.512,3.779c0.198,0.212,0.474,0.331,0.761,0.331
		c0.029,0,0.057-0.001,0.087-0.004c0.317-0.026,0.605-0.197,0.78-0.463l2.093-3.174l11.93,20.662H27.446L27.446,46.275z"/>
	<path fill="#FFFFFF" d="M5.956,15.763c3.891,0,7.057-3.166,7.057-7.056c0-3.892-3.166-7.057-7.057-7.057
		c-3.891,0-7.056,3.166-7.056,7.057C-1.101,12.598,2.065,15.763,5.956,15.763z M5.956,3.726c2.747,0,4.981,2.234,4.981,4.981
		c0,2.746-2.234,4.98-4.981,4.98c-2.746,0-4.98-2.234-4.98-4.98C0.975,5.96,3.209,3.726,5.956,3.726z"/>
</g>
</svg>
