<svg width="41" height="41" viewBox="0 0 41 41" fill="none" xmlns="http://www.w3.org/2000/svg">
<g clip-path="url(#clip0)">
<path d="M40.1636 0.686985C39.9144 0.584336 39.6271 0.641004 39.4366 0.830758L27.3339 12.8627L20.2965 5.86444C20.2457 5.81328 20.1867 5.77119 20.1223 5.73978L18.41 4.89268L17.0944 2.70888C17.0905 2.7024 17.0823 2.69916 17.0778 2.69236C17.0299 2.61789 16.9674 2.55345 16.8944 2.50261C16.885 2.49678 16.8749 2.49289 16.8651 2.48674C16.8348 2.46699 16.8032 2.4495 16.7703 2.43428L12.0507 0.559079C11.8028 0.460316 11.5198 0.517954 11.3312 0.705766C11.1426 0.893255 11.0843 1.17465 11.1836 1.42107L13.0708 6.10957C13.0852 6.14292 13.1031 6.17498 13.1233 6.2051C13.1295 6.21449 13.1327 6.22388 13.1386 6.2323C13.1891 6.30548 13.2542 6.36797 13.3294 6.41557C13.3363 6.42011 13.3395 6.42788 13.3467 6.43209L15.5401 7.7403L16.3987 9.44161C16.4306 9.50508 16.4723 9.56304 16.5228 9.61324L23.5651 16.6125L22.144 18.0217L16.0524 11.9596C15.9274 11.8349 15.758 11.7647 15.5808 11.7647C15.4039 11.7647 15.2342 11.8346 15.1092 11.9589L14.1594 11.0225C14.3519 10.8308 14.4079 10.5419 14.3007 10.2929L12.8858 7.01042C12.7962 6.80253 12.6064 6.65487 12.3823 6.61763L6.72425 5.67663C6.69656 5.67501 6.6692 5.67501 6.64151 5.67663H6.59884C6.52426 5.67825 6.45032 5.69282 6.38061 5.71905C6.36759 5.72423 6.35488 5.73006 6.34251 5.73621C6.19072 5.79709 6.07021 5.9169 6.00897 6.0678C6.00311 6.08107 5.9966 6.0937 5.99106 6.10763C5.965 6.17628 5.95099 6.24881 5.94904 6.32199V6.367C5.94871 6.3942 5.95002 6.4214 5.95295 6.4486L6.89622 12.0755C6.93368 12.2983 7.08253 12.4868 7.29132 12.5755L10.5938 13.9828C10.8442 14.0893 11.1348 14.0336 11.3276 13.8422L12.2722 14.7807C12.1471 14.905 12.0764 15.0737 12.0764 15.2499C12.0764 15.426 12.1471 15.5947 12.2722 15.7191L18.3673 21.7786L16.9543 23.1843L6.14773 12.4324C6.14186 12.4265 6.13307 12.4252 6.12721 12.4191C6.07542 12.3718 6.01646 12.3329 5.9523 12.3038C5.93829 12.297 5.92559 12.2899 5.91093 12.2837C5.89627 12.2779 5.89497 12.2753 5.8865 12.2724L1.63721 10.8661C1.39748 10.7867 1.133 10.8489 0.954508 11.0267C0.776016 11.2045 0.713804 11.4674 0.79393 11.7054L2.20819 15.9227C2.20819 15.9312 2.21633 15.938 2.21959 15.9457C2.22285 15.9538 2.2336 15.9742 2.24076 15.9898C2.26942 16.05 2.30688 16.1057 2.35216 16.1546C2.35835 16.1614 2.3603 16.1701 2.36681 16.1766L13.1829 26.9311L0.746701 39.2947C0.555832 39.4844 0.498831 39.7697 0.602083 40.0174C0.705335 40.2651 0.94832 40.4267 1.21834 40.4267H39.9082C40.2766 40.4267 40.5753 40.1298 40.5753 39.7635V1.29964C40.5753 1.03152 40.4127 0.789634 40.1636 0.686985V0.686985ZM8.15577 11.4939L7.61475 8.26293L8.97364 9.61388C9.23421 9.87293 9.65667 9.87261 9.91724 9.61356C10.1775 9.35451 10.1775 8.93452 9.91692 8.67547L8.55607 7.32743L11.8025 7.86594L12.8966 10.4024L10.7051 12.581L8.15577 11.4939ZM13.2181 11.9583L14.1594 12.8986L13.2181 13.8335L12.2748 12.8986L13.2181 11.9583ZM19.4451 10.6417L21.3303 8.76776L24.3895 11.809L22.5042 13.6852L19.4451 10.6417ZM15.3333 3.29271L13.9327 4.68511L12.9985 2.36402L15.3333 3.29271ZM16.3879 4.12006L17.0944 5.29259L15.9417 6.43468L14.7665 5.73233L16.3879 4.12006ZM16.8609 7.40094L18.0663 6.20704L19.4291 6.8783L20.3884 7.83194L18.5018 9.70617L17.5426 8.75189L16.8609 7.40094ZM23.4475 14.623L25.3327 12.7487L26.3907 13.8005L24.5054 15.6747L23.4475 14.623ZM20.73 19.428L16.9944 15.7145L17.468 15.2437L21.2036 18.9572L20.73 19.428ZM15.5782 13.3695L16.5208 14.3059L14.631 16.1847L13.6923 15.245L15.5782 13.3695ZM15.5782 17.1215L16.0505 16.6513L19.7861 20.3651L19.3145 20.834L15.5782 17.1215ZM15.5401 24.5877L5.20055 14.3085L5.67544 13.8384L16.015 24.1214L15.5401 24.5877ZM4.43544 13.1878L3.12997 14.4827L2.47951 12.5405L4.43544 13.1878ZM3.78303 15.711L4.25467 15.2437L14.5942 25.5229L14.1232 25.9908L3.78303 15.711ZM3.88661 38.0486V39.1004H2.82868L3.88661 38.0486ZM37.2399 39.1004V37.774C37.2399 37.4078 36.9413 37.1109 36.5729 37.1109C36.2045 37.1109 35.9058 37.4078 35.9058 37.774V39.1004H34.5717V37.774C34.5717 37.4078 34.273 37.1109 33.9046 37.1109C33.5362 37.1109 33.2375 37.4078 33.2375 37.774V39.1004H31.9034V37.774C31.9034 37.4078 31.6047 37.1109 31.2363 37.1109C30.868 37.1109 30.5693 37.4078 30.5693 37.774V39.1004H29.2351V37.774C29.2351 37.4078 28.9365 37.1109 28.5681 37.1109C28.1997 37.1109 27.901 37.4078 27.901 37.774V39.1004H26.5669V37.774C26.5669 37.4078 26.2682 37.1109 25.8998 37.1109C25.5314 37.1109 25.2327 37.4078 25.2327 37.774V39.1004H23.8986V37.774C23.8986 37.4078 23.5999 37.1109 23.2315 37.1109C22.8632 37.1109 22.5645 37.4078 22.5645 37.774V39.1004H21.2303V37.774C21.2303 37.4078 20.9317 37.1109 20.5633 37.1109C20.1949 37.1109 19.8962 37.4078 19.8962 37.774V39.1004H18.5621V37.774C18.5621 37.4078 18.2634 37.1109 17.895 37.1109C17.5266 37.1109 17.2279 37.4078 17.2279 37.774V39.1004H15.8938V37.774C15.8938 37.4078 15.5951 37.1109 15.2267 37.1109C14.8584 37.1109 14.5597 37.4078 14.5597 37.774V39.1004H13.2255V37.774C13.2255 37.4078 12.9269 37.1109 12.5585 37.1109C12.1901 37.1109 11.8914 37.4078 11.8914 37.774V39.1004H10.5573V37.774C10.5573 37.4078 10.2586 37.1109 9.89021 37.1109C9.52182 37.1109 9.22314 37.4078 9.22314 37.774V39.1004H7.88901V37.774C7.88901 37.4078 7.59032 37.1109 7.22194 37.1109C6.85355 37.1109 6.55487 37.4078 6.55487 37.774V39.1004H5.22074V37.774C5.21976 37.4978 5.04518 37.2514 4.78363 37.1575L17.4279 24.5896L19.7913 22.24L39.2411 2.90058V4.61549H37.907C37.5386 4.61549 37.2399 4.91243 37.2399 5.27866C37.2399 5.6449 37.5386 5.94183 37.907 5.94183H39.2411V7.26818H37.907C37.5386 7.26818 37.2399 7.56511 37.2399 7.93135C37.2399 8.29758 37.5386 8.59452 37.907 8.59452H39.2411V9.92086H37.907C37.5386 9.92086 37.2399 10.2178 37.2399 10.584C37.2399 10.9503 37.5386 11.2472 37.907 11.2472H39.2411V12.5735H37.907C37.5386 12.5735 37.2399 12.8705 37.2399 13.2367C37.2399 13.6029 37.5386 13.8999 37.907 13.8999H39.2411V15.2262H37.907C37.5386 15.2262 37.2399 15.5232 37.2399 15.8894C37.2399 16.2556 37.5386 16.5526 37.907 16.5526H39.2411V17.8789H37.907C37.5386 17.8789 37.2399 18.1758 37.2399 18.5421C37.2399 18.9083 37.5386 19.2052 37.907 19.2052H39.2411V20.5316H37.907C37.5386 20.5316 37.2399 20.8285 37.2399 21.1948C37.2399 21.561 37.5386 21.8579 37.907 21.8579H39.2411V23.1843H37.907C37.5386 23.1843 37.2399 23.4812 37.2399 23.8474C37.2399 24.2137 37.5386 24.5106 37.907 24.5106H39.2411V25.837H37.907C37.5386 25.837 37.2399 26.1339 37.2399 26.5001C37.2399 26.8664 37.5386 27.1633 37.907 27.1633H39.2411V28.4896H37.907C37.5386 28.4896 37.2399 28.7866 37.2399 29.1528C37.2399 29.519 37.5386 29.816 37.907 29.816H39.2411V31.1423H37.907C37.5386 31.1423 37.2399 31.4393 37.2399 31.8055C37.2399 32.1717 37.5386 32.4687 37.907 32.4687H39.2411V33.795H37.907C37.5386 33.795 37.2399 34.0919 37.2399 34.4582C37.2399 34.8244 37.5386 35.1213 37.907 35.1213H39.2411V36.4477H37.907C37.5386 36.4477 37.2399 36.7446 37.2399 37.1109C37.2399 37.4771 37.5386 37.774 37.907 37.774H39.2411V39.1004H37.2399Z" fill="white"/>
<path d="M34.8263 13.4954C34.5771 13.3928 34.2899 13.4495 34.0993 13.6392L25.4555 22.2326L25.448 22.2374L25.4434 22.2446L22.6204 25.0511L22.6116 25.0566L22.6064 25.0643L20.2655 27.3922L20.2583 27.3968L20.2534 27.4042L13.629 33.9893C13.4382 34.179 13.3812 34.4643 13.4844 34.712C13.5877 34.9598 13.831 35.1213 14.1007 35.1213H34.571C34.9393 35.1213 35.238 34.8244 35.238 34.4582V14.1081C35.238 13.84 35.0755 13.5981 34.8263 13.4954V13.4954ZM33.9039 19.395L32.0499 17.5522L33.9039 15.709V19.395ZM31.1066 18.4896L33.5036 20.87L31.6157 22.7439L29.2217 20.3638L31.1066 18.4896ZM25.9196 23.6486L28.3117 26.0306L26.4254 27.9055L24.0311 25.5261L25.9196 23.6486ZM22.651 31.6591L20.257 29.2788L20.7306 28.8079L23.1227 31.1902L22.651 31.6591ZM21.2361 33.0654L18.8421 30.6854L19.3131 30.2172L21.7071 32.5975L21.2361 33.0654ZM17.9008 31.6232L20.086 33.795H15.7117L17.9008 31.6232ZM22.3862 33.795L24.5363 31.6578C24.7965 31.3988 24.7965 30.9788 24.5363 30.7201L21.6726 27.8682L23.0852 26.4645L25.9538 29.3115C26.2141 29.5699 26.6359 29.5699 26.8961 29.3115L29.7259 26.5001C29.9865 26.2414 29.9865 25.8214 29.7259 25.5624L26.8629 22.7109L28.2778 21.3042L31.1461 24.156C31.4066 24.4148 31.8288 24.4148 32.0893 24.156L33.9039 22.3449V33.795H22.3862Z" fill="white"/>
</g>
<defs>
<clipPath id="clip0">
<rect width="40.1498" height="39.9153" fill="white" transform="translate(0.424805 0.511475)"/>
</clipPath>
</defs>
</svg>
