<?xml version="1.0" encoding="utf-8"?>
<!-- Generator: Adobe Illustrator 16.0.0, SVG Export Plug-In . SVG Version: 6.00 Build 0)  -->
<!DOCTYPE svg PUBLIC "-//W3C//DTD SVG 1.1//EN" "http://www.w3.org/Graphics/SVG/1.1/DTD/svg11.dtd">
<svg version="1.1" id="Warstwa_1" xmlns="http://www.w3.org/2000/svg" xmlns:xlink="http://www.w3.org/1999/xlink" x="0px" y="0px"
	 width="100px" height="100px" viewBox="0 0 100 100" enable-background="new 0 0 100 100" xml:space="preserve">
<path fill="#FFFFFF" d="M5.292,68.516l43.19,28.8c1.473,0.905,3.048,0.918,4.536,0l43.191-28.8C97.314,67.779,98,66.46,98,65.142
	V36.351c0-1.319-0.686-2.638-1.791-3.375L53.018,4.182c-1.472-0.906-3.047-0.914-4.536,0L5.292,32.976
	C4.185,33.713,3.5,35.032,3.5,36.351v28.791C3.5,66.46,4.185,67.779,5.292,68.516z M46.691,86.345L14.892,65.146l14.187-9.493
	l17.613,11.761V86.345z M54.81,86.345V67.413l17.612-11.761l14.187,9.493L54.81,86.345z M89.882,57.546l-10.18-6.8l10.18-6.803
	V57.546z M54.81,15.151l31.799,21.2l-14.187,9.494L54.81,34.083V15.151z M50.75,41.147l14.345,9.599l-14.345,9.6l-14.345-9.6
	L50.75,41.147z M46.691,15.151v18.932L29.078,45.844l-14.187-9.494L46.691,15.151z M11.623,43.95v-0.003l10.178,6.804l-10.178,6.804
	V43.95z"/>
</svg>
