<svg width="37" height="37" viewBox="0 0 37 37" fill="none" xmlns="http://www.w3.org/2000/svg">
<g clip-path="url(#clip0)">
<path d="M31.5785 5.42097C24.3506 -1.80706 12.6505 -1.80822 5.42148 5.42097C-1.80662 12.649 -1.8077 24.3489 5.42148 31.5781C12.6494 38.8061 24.3495 38.8072 31.5785 31.5781C38.8066 24.35 38.8076 12.6501 31.5785 5.42097ZM30.8055 28.9415C29.9413 28.1687 29.0169 27.4849 28.0425 26.8955C28.6865 24.6709 29.0681 22.2229 29.1583 19.6782H34.5961C34.3502 23.1082 33.0323 26.3258 30.8055 28.9415ZM2.40382 19.6782H7.84164C7.93182 22.2229 8.31336 24.6709 8.95737 26.8955C7.98302 27.4849 7.05863 28.1687 6.19446 28.9415C3.9676 26.3258 2.64976 23.1082 2.40382 19.6782ZM6.19453 8.05752C7.0587 8.83028 7.98309 9.51415 8.95745 10.1035C8.31343 12.3281 7.93189 14.7761 7.84171 17.3208H2.40382C2.64976 13.8909 3.9676 10.6733 6.19453 8.05752ZM17.3214 10.3471C15.3991 10.2096 13.5456 9.73619 11.8273 8.95513C12.8266 6.38175 14.6689 3.29528 17.3214 2.53039V10.3471ZM17.3214 12.7089V17.3209H10.2C10.2816 15.1683 10.5866 13.1012 11.0938 11.2099C13.0465 12.0636 15.1466 12.5733 17.3214 12.7089ZM17.3214 19.6782V24.2902C15.1466 24.4258 13.0465 24.9355 11.0938 25.7892C10.5866 23.8979 10.2816 21.8308 10.2 19.6782H17.3214ZM17.3214 26.652V34.4686C14.6691 33.7038 12.8268 30.6176 11.8273 28.044C13.5456 27.2629 15.3991 26.7895 17.3214 26.652ZM19.6786 26.652C21.6009 26.7895 23.4544 27.2629 25.1727 28.044C24.1733 30.6174 22.3311 33.7038 19.6786 34.4686V26.652ZM19.6786 24.2902V19.6782H26.8C26.7184 21.8308 26.4134 23.8979 25.9062 25.7892C23.9535 24.9355 21.8534 24.4258 19.6786 24.2902ZM19.6786 17.3209V12.7089C21.8534 12.5733 23.9535 12.0636 25.9062 11.2099C26.4134 13.1012 26.7184 15.1683 26.8 17.3209H19.6786ZM19.6786 10.3471V2.53046C22.3311 3.29535 24.1733 6.38182 25.1727 8.9552C23.4544 9.73619 21.6009 10.2096 19.6786 10.3471ZM24.9728 3.70722C26.4816 4.36791 27.8892 5.26378 29.151 6.37533C28.5504 6.90489 27.9166 7.38506 27.2548 7.81448C26.6671 6.35937 25.9164 4.94527 24.9728 3.70722ZM9.74508 7.81448C9.0833 7.38506 8.44962 6.90489 7.84893 6.37533C9.11074 5.26378 10.5183 4.36791 12.0271 3.70722C11.0835 4.94542 10.3328 6.35951 9.74508 7.81448ZM9.74515 29.1846C10.3328 30.6397 11.0836 32.0538 12.0272 33.2919C10.5184 32.6312 9.11081 31.7353 7.849 30.6238C8.44962 30.0942 9.08337 29.614 9.74515 29.1846ZM27.2548 29.1846C27.9166 29.614 28.5504 30.0942 29.151 30.6237C27.8892 31.7353 26.4816 32.6311 24.9728 33.2918C25.9163 32.0539 26.6671 30.6397 27.2548 29.1846ZM29.1583 17.3209C29.0682 14.7762 28.6866 12.3281 28.0426 10.1036C29.017 9.51422 29.9413 8.83035 30.8055 8.0576C33.0324 10.6733 34.3502 13.8909 34.5962 17.3209H29.1583Z" fill="white"/>
</g>
<defs>
<clipPath id="clip0">
<rect width="37" height="37" fill="white"/>
</clipPath>
</defs>
</svg>
