<svg width="369" height="102" viewBox="0 0 369 102" fill="none" xmlns="http://www.w3.org/2000/svg">
<path d="M225.176 102.634C225.176 102.634 230.074 92.7735 220.847 79.1369C211.619 65.501 197.378 56.2698 204.213 40.7449C211.049 25.2204 220.696 25.01 220.657 14.7302" stroke="white" stroke-miterlimit="10" stroke-linecap="round" stroke-linejoin="round"/>
<path d="M225.116 87.6091C225.116 87.6091 223.543 73.8232 231.593 69.1377" stroke="white" stroke-miterlimit="10" stroke-linecap="round" stroke-linejoin="round"/>
<path d="M218.443 75.8051C218.443 75.8051 221.234 71.5843 220.072 68.5421C218.91 65.5006 215.265 61.1999 217.543 59.4163" stroke="white" stroke-miterlimit="10" stroke-linecap="round" stroke-linejoin="round"/>
<path d="M207.543 45.4304C207.543 45.4304 204.78 47.6696 206.187 53.8227C207.594 59.9754 207.821 62.5634 207.821 62.5634" stroke="white" stroke-miterlimit="10" stroke-linecap="round" stroke-linejoin="round"/>
<path d="M202.418 49.2053C202.418 49.2053 201.116 45.4361 195.089 42.9855" stroke="white" stroke-miterlimit="10" stroke-linecap="round" stroke-linejoin="round"/>
<path d="M191.131 33.1562C191.131 33.1562 191.493 36.4782 194.378 38.1572C197.264 39.8354 199.484 42.8413 198.753 44.9751" stroke="white" stroke-miterlimit="10" stroke-linecap="round" stroke-linejoin="round"/>
<path d="M206.804 35.7262C206.804 35.7262 205.347 33.9608 205.787 31.9337C206.227 29.906 206.53 28.0181 206.53 28.0181" stroke="white" stroke-miterlimit="10" stroke-linecap="round" stroke-linejoin="round"/>
<path d="M201.214 64.8281C201.214 64.8281 205.514 67.2276 208.798 67.6113C212.083 67.9949 215.865 72.5511 215.865 72.5511" stroke="white" stroke-miterlimit="10" stroke-linecap="round" stroke-linejoin="round"/>
<path d="M219.682 91.0229C219.682 91.0229 225.498 92.4229 226.267 98.5774" stroke="white" stroke-miterlimit="10" stroke-linecap="round" stroke-linejoin="round"/>
<path d="M337.869 99C337.869 99 337.223 94.8081 339.977 89.6815C342.729 84.5547 342.159 79.4485 338.468 74.5821C334.776 69.7144 338.706 63.8829 343 58" stroke="white" stroke-miterlimit="10" stroke-linecap="round" stroke-linejoin="round"/>
<path d="M339.918 91C339.918 91 341.271 87.5542 333 83" stroke="white" stroke-miterlimit="10" stroke-linecap="round" stroke-linejoin="round"/>
<path d="M338 74C338 74 333.751 70.8993 335.366 66.8155C336.983 62.7304 338.942 61.3673 335.779 59" stroke="white" stroke-miterlimit="10" stroke-linecap="round" stroke-linejoin="round"/>
<path d="M341.002 79C341.002 79 340.751 73.5188 346 69" stroke="white" stroke-miterlimit="10" stroke-linecap="round" stroke-linejoin="round"/>
<path d="M225.722 1C225.722 1 218.583 5.58959 220.253 15.136C220.253 15.136 228.228 12.6267 226.708 8.068C225.189 3.50893 225.797 4.24339 225.722 1Z" fill="white" stroke="white" stroke-miterlimit="10" stroke-linecap="round" stroke-linejoin="round"/>
<path d="M203.87 19.1664C203.87 19.1664 201.151 24.368 201.607 26.999C202.062 29.6297 207.075 33.6082 207.531 35.1388C207.531 35.1388 208.291 32.5698 208.898 31.5285C209.505 30.4876 210.746 26.2649 208.544 23.5108C206.341 20.7571 203.87 19.1664 203.87 19.1664Z" fill="white" stroke="white" stroke-miterlimit="10" stroke-linecap="round" stroke-linejoin="round"/>
<path d="M217.792 30.0916C217.792 30.0916 216.278 33.672 213.679 35.8375C211.082 38.0034 206.416 41.358 207.544 46.3765C207.544 46.3765 208.132 44.9521 212.653 43.4247C217.172 41.897 219.795 38.7245 220.17 37.1424C220.709 34.8748 220.227 32.8885 217.792 30.0916Z" fill="white" stroke="white" stroke-miterlimit="10" stroke-linecap="round" stroke-linejoin="round"/>
<path d="M229.61 72.4387C229.61 72.4387 224.01 66.6282 231.777 59.7698C231.777 59.7698 231.945 62.383 232.626 63.3225C233.309 64.2633 234.022 68.6045 229.61 72.4387Z" fill="white" stroke="white" stroke-miterlimit="10" stroke-linecap="round" stroke-linejoin="round"/>
<path d="M271.594 71.122C271.594 71.122 270.076 63.7764 281.847 60.7174C281.847 60.7174 281.391 61.697 281.239 63.9001C281.087 66.1031 280.633 70.1436 271.594 71.122Z" fill="white" stroke="white" stroke-miterlimit="10" stroke-linecap="round" stroke-linejoin="round"/>
<path d="M217.543 61.6149C217.318 61.6467 214.178 57.9436 218.443 53.9047C222.708 49.8658 225.062 49.4969 226.657 47.9062C226.657 47.9062 225.593 51.2126 225.745 53.354C225.898 55.495 223.694 60.7587 217.543 61.6149Z" fill="white" stroke="white" stroke-miterlimit="10" stroke-linecap="round" stroke-linejoin="round"/>
<path d="M185.366 54.6413C185.126 54.1106 188.481 55.866 193.417 56.722C198.353 57.5782 201.999 60.394 203.215 65.3508C203.215 65.3508 190.834 66.758 185.366 54.6413Z" fill="white" stroke="white" stroke-miterlimit="10" stroke-linecap="round" stroke-linejoin="round"/>
<path d="M192.131 35.6352C192.131 35.6352 190.765 35.0241 188.638 33.9828C186.51 32.9418 180.207 27.9876 183.853 21.5605C183.853 21.5605 184.08 23.5786 186.738 25.3543C189.397 27.1285 193.802 30.127 192.131 35.6352Z" fill="white" stroke="white" stroke-miterlimit="10" stroke-linecap="round" stroke-linejoin="round"/>
<path d="M178.152 36.0165C178.152 36.0165 179.823 36.3233 182.633 36.0165C185.443 35.7093 191.52 38.0345 195.089 43.2364C195.089 43.2364 188.888 45.1327 184.607 42.1347C180.327 39.1374 180.886 38.0958 178.152 36.0165Z" fill="white" stroke="white" stroke-miterlimit="10" stroke-linecap="round" stroke-linejoin="round"/>
<path d="M216.809 45.7525C216.809 45.7525 214.318 44.9605 212.13 48.1966C209.944 51.4352 207.322 54.0484 206.187 53.9883C206.187 53.9883 213.321 54.1244 214.967 51.1697C216.614 48.2138 215.788 46.5503 216.809 45.7525Z" fill="white" stroke="white" stroke-miterlimit="10" stroke-linecap="round" stroke-linejoin="round"/>
<path d="M103.91 73.3553C103.91 73.3553 109.201 72.1247 111.399 62.6553C113.595 53.1869 117.964 51.7391 120.261 48.4775C122.556 45.2186 126.176 34.2662 123.309 28.1905" stroke="white" stroke-miterlimit="10" stroke-linecap="round" stroke-linejoin="round"/>
<path d="M127.747 42.4848C127.747 42.4848 125.202 46.1473 121.207 46.8424" stroke="white" stroke-miterlimit="10" stroke-linecap="round" stroke-linejoin="round"/>
<path d="M113.522 59.2188C113.522 59.2188 112.181 59.9515 111.398 62.655" stroke="white" stroke-miterlimit="10" stroke-linecap="round" stroke-linejoin="round"/>
<path d="M120.896 41.8898C120.896 41.8898 122.109 44.5394 119.066 46.9006C116.023 49.2586 116.836 52.0961 116.836 52.0961" stroke="white" stroke-miterlimit="10" stroke-linecap="round" stroke-linejoin="round"/>
<path d="M108.602 60.3566C108.602 60.3566 110.91 64.2686 109.48 67.9892" stroke="white" stroke-miterlimit="10" stroke-linecap="round" stroke-linejoin="round"/>
<path d="M113.462 59.0063C113.462 59.0063 115.137 60.8917 120.136 58.8252C125.134 56.7593 129.992 55.4806 131.025 56.0567C131.025 56.0567 124.314 52.6778 120.084 54.7264C115.855 56.7694 115.153 58.7201 113.462 59.0063Z" fill="white" stroke="white" stroke-miterlimit="10" stroke-linecap="round" stroke-linejoin="round"/>
<path d="M108.562 61.7599C108.562 61.7599 108.966 58.236 109.889 56.6433C110.81 55.0483 114.969 50.2177 107.168 47.7269C107.168 47.7269 109.418 49.5987 107.983 52.5343C106.546 55.4672 103.743 59.31 108.562 61.7599Z" fill="white" stroke="white" stroke-miterlimit="10" stroke-linecap="round" stroke-linejoin="round"/>
<path d="M127.687 42.2718C127.687 42.2718 133.102 38.5594 133.427 34.5422C133.752 30.5263 132.155 29.1808 132.354 27.1258C132.354 27.1258 131.413 31.556 130.035 32.5584C128.66 33.5603 125.425 38.5343 127.687 42.2718Z" fill="white" stroke="white" stroke-miterlimit="10" stroke-linecap="round" stroke-linejoin="round"/>
<path d="M123.249 27.9782C123.249 27.9782 125.281 23.519 121.619 20.3626C117.957 17.2048 117.343 17.7643 116.831 16.6933C116.831 16.6933 117.812 18.054 118.184 20.155C118.557 22.2555 117.092 25.493 123.249 27.9782Z" fill="white" stroke="white" stroke-miterlimit="10" stroke-linecap="round" stroke-linejoin="round"/>
<path d="M120.836 41.6774C120.836 41.6774 122.093 33.3185 113.38 32.1084C113.38 32.1084 115.163 33.6879 115.016 35.4405C114.87 37.1938 116.327 41.3163 120.836 41.6774Z" fill="white" stroke="white" stroke-miterlimit="10" stroke-linecap="round" stroke-linejoin="round"/>
<path d="M205.101 80.931C205.101 80.931 205.328 91.5187 219.683 91.2736C219.682 91.2739 219.53 85.8882 205.101 80.931Z" fill="white" stroke="white" stroke-miterlimit="10" stroke-linecap="round" stroke-linejoin="round"/>
<path d="M93.3403 79.1528C93.3403 79.1528 98.8641 82.1501 101.514 85.9458C104.163 89.7408 106.72 97.8174 108.708 101" stroke="white" stroke-miterlimit="10" stroke-linecap="round" stroke-linejoin="round"/>
<path d="M100.745 81.7229C100.745 81.7229 99.4713 84.1101 101.513 85.9456" stroke="white" stroke-miterlimit="10" stroke-linecap="round" stroke-linejoin="round"/>
<path d="M79.3276 68.2843C79.3276 68.2843 78.7576 74.9847 82.1758 75.9949C85.5935 77.0047 92.3148 77.9226 93.3402 78.9321C93.3402 78.9321 92.5429 74.4341 87.872 72.8739C83.2004 71.3134 79.0992 69.11 79.3276 68.2843Z" fill="white" stroke="white" stroke-miterlimit="10" stroke-linecap="round" stroke-linejoin="round"/>
<path d="M99.7196 64.9792C99.7196 64.9792 95.9603 71.7722 98.4665 75.4439C100.973 79.1159 100.745 81.5027 100.745 81.5027C100.745 81.5027 105.326 76.544 105.416 74.2506C105.495 72.2313 104.846 69.8448 99.7196 64.9792Z" fill="white" stroke="white" stroke-miterlimit="10" stroke-linecap="round" stroke-linejoin="round"/>
<path d="M86.3154 83.9808C86.3154 83.9808 85.7068 90.1312 92.77 90.59C99.8336 91.0489 104.517 93.4357 105.422 94.3536C105.422 94.3536 99.8336 88.0197 96.6435 87.1018C93.4539 86.1836 89.5444 86.7346 86.3154 83.9808Z" fill="white" stroke="white" stroke-miterlimit="10" stroke-linecap="round" stroke-linejoin="round"/>
<path d="M17.6044 32.9907C17.6044 32.9907 11.6808 35.7203 12.8957 41.8214" stroke="white" stroke-miterlimit="10" stroke-linecap="round" stroke-linejoin="round"/>
<path d="M18.2387 34.6427C18.2387 34.6427 13.3511 38.9356 11.9085 44.3468C10.4659 49.7583 11.1963 53.9193 14.1726 59.4271C17.1486 64.9346 28.0853 81.3341 17.6048 98.3478" stroke="white" stroke-miterlimit="10" stroke-linecap="round" stroke-linejoin="round"/>
<path d="M5.41455 53.9196C5.41455 53.9196 8.60876 60.4051 15.9171 62.5484" stroke="white" stroke-miterlimit="10" stroke-linecap="round" stroke-linejoin="round"/>
<path d="M15.8223 82.4219C15.8223 82.4219 18.2634 84.3022 18.2384 86.7355C18.2123 89.1697 17.2244 92.8951 19.3134 95.1942" stroke="white" stroke-miterlimit="10" stroke-linecap="round" stroke-linejoin="round"/>
<path d="M16.1176 45.9982C16.1176 45.9982 8.80473 50.2968 12.9899 58.1149" stroke="white" stroke-miterlimit="10" stroke-linecap="round" stroke-linejoin="round"/>
<path d="M21.7059 63.062C21.7059 63.062 18.1357 65.6012 19.6755 72.0231" stroke="white" stroke-miterlimit="10" stroke-linecap="round" stroke-linejoin="round"/>
<path d="M7.96166 68.1567C7.96166 68.1567 4.08813 78.988 15.8226 82.2011C15.8222 82.2011 19.8096 76.5099 7.96166 68.1567Z" fill="white" stroke="white" stroke-miterlimit="10" stroke-linecap="round" stroke-linejoin="round"/>
<path d="M-3.20534 41.3978C-3.20534 41.3978 -7.91477 51.679 5.4147 53.6986C5.4147 53.6986 6.43972 48.6502 1.99694 45.9881C-2.44659 43.3262 -2.14249 42.7755 -3.20534 41.3978Z" fill="white" stroke="white" stroke-miterlimit="10" stroke-linecap="round" stroke-linejoin="round"/>
<path d="M14.87 46.9064C14.676 47.1503 17.3762 39.1036 24.6675 39.1036C31.9588 39.1036 32.1865 37.635 32.1865 37.635C32.1865 37.635 30.8192 43.051 27.5157 43.9692C24.2118 44.8868 16.6928 44.6111 14.87 46.9064Z" fill="white" stroke="white" stroke-miterlimit="10" stroke-linecap="round" stroke-linejoin="round"/>
<path d="M21.7061 63.0618C21.7061 63.0618 22.048 55.4428 36.5163 51.679C36.5163 51.679 35.9229 55.1401 34.4659 57.3702C32.187 60.8588 27.4023 62.6946 21.7061 63.0618Z" fill="white" stroke="white" stroke-miterlimit="10" stroke-linecap="round" stroke-linejoin="round"/>
<path d="M17.6044 32.7699C17.6044 32.7699 17.6044 29.5574 16.0098 27.8128C14.4144 26.0688 11.7943 21.5708 18.7441 15.9714C18.7441 15.9714 18.7441 18.0829 20.3391 19.7808C21.9334 21.4789 24.8953 28.731 17.6044 32.7699Z" fill="white" stroke="white" stroke-miterlimit="10" stroke-linecap="round" stroke-linejoin="round"/>
<path d="M18.2383 34.4219C18.2383 34.4219 19.0209 27.3857 27.9711 26.8029C27.9711 26.8029 25.9207 28.0883 25.6926 29.5573C25.4649 31.0255 23.2008 33.7799 18.2383 34.4219Z" fill="white" stroke="white" stroke-miterlimit="10" stroke-linecap="round" stroke-linejoin="round"/>
<path d="M148.857 30.1676C148.857 30.1676 148.614 32.4541 153.381 34.5229C158.149 36.5905 164.666 44.0687 160.794 53.0459C156.923 62.0238 150.552 72.5507 154.102 79.5631C157.652 86.5749 163.396 91.735 162.645 97.6297" stroke="white" stroke-miterlimit="10" stroke-linecap="round" stroke-linejoin="round"/>
<path d="M152.453 43.1167C152.453 43.1167 161.082 46.8113 159.878 55.1102" stroke="white" stroke-miterlimit="10" stroke-linecap="round" stroke-linejoin="round"/>
<path d="M149.852 69.6481C149.852 69.6481 152.746 72.0173 153.076 74.8546" stroke="white" stroke-miterlimit="10" stroke-linecap="round" stroke-linejoin="round"/>
<path d="M167.641 51.8498C167.641 51.8498 162.361 54.544 161.642 58.7731C160.923 63.0021 154.842 66.5585 154.842 66.5585" stroke="white" stroke-miterlimit="10" stroke-linecap="round" stroke-linejoin="round"/>
<path d="M161.944 29.2289C161.944 29.2289 164.923 32.559 160.266 41.0367" stroke="white" stroke-miterlimit="10" stroke-linecap="round" stroke-linejoin="round"/>
<path d="M162.677 94.6687C162.677 94.6687 166.193 91.078 164.764 86.7769" stroke="white" stroke-miterlimit="10" stroke-linecap="round" stroke-linejoin="round"/>
<path d="M144.552 63.0812C144.552 63.0812 142.993 72.2512 151.61 70.5874C151.61 70.5874 152.922 66.2125 144.552 63.0812Z" fill="white" stroke="white" stroke-miterlimit="10" stroke-linecap="round" stroke-linejoin="round"/>
<path d="M164.664 87.0883C164.664 87.0883 172.931 81.4055 169.988 76.455C167.045 71.5046 168.21 69.6965 168.21 69.6965C168.21 69.6965 160.583 79.3783 164.664 87.0883Z" fill="white" stroke="white" stroke-miterlimit="10" stroke-linecap="round" stroke-linejoin="round"/>
<path d="M146.142 21.5022C146.142 21.5022 145.358 31.9212 152.857 34.7276C152.857 34.7276 154.005 32.9186 154.166 32.2972C154.613 30.5728 155.672 26.7225 151.511 25.1961C147.351 23.6697 146.142 21.5022 146.142 21.5022Z" fill="white" stroke="white" stroke-miterlimit="10" stroke-linecap="round" stroke-linejoin="round"/>
<path d="M163.052 14.523C163.052 14.523 156.533 23.4714 162.263 31.6447C162.263 31.6447 165.513 28.5182 166.235 25.7238C167.661 20.1984 162.948 21.0649 163.052 14.523Z" fill="white" stroke="white" stroke-miterlimit="10" stroke-linecap="round" stroke-linejoin="round"/>
<path d="M141.285 39.8436C141.285 39.8436 142.442 43.2268 145.25 42.7843C148.057 42.3415 153.237 41.6177 155.12 46.6063C155.12 46.6063 143.016 52.3788 141.285 39.8436Z" fill="white" stroke="white" stroke-miterlimit="10" stroke-linecap="round" stroke-linejoin="round"/>
<path d="M166.498 51.9036C166.498 51.9036 168.194 49.6656 167.955 47.1147C167.716 44.5642 169.493 39.6848 171.876 37.9937C171.876 37.9937 171.296 39.7561 172.508 41.5977C173.719 43.4384 173.81 48.3484 166.498 51.9036Z" fill="white" stroke="white" stroke-miterlimit="10" stroke-linecap="round" stroke-linejoin="round"/>
<path d="M253.827 103.705C253.827 103.705 256.537 93.6948 254.292 87.9114C252.045 82.1285 249.767 77.602 254.064 72.4453C258.361 67.2892 264.706 59.4137 256.428 48.7937" stroke="white" stroke-miterlimit="10" stroke-linecap="round" stroke-linejoin="round"/>
<path d="M261.15 73.4131C261.15 73.4131 253.105 78.4017 254.108 87.0921" stroke="white" stroke-miterlimit="10" stroke-linecap="round" stroke-linejoin="round"/>
<path d="M265.696 47.6187C265.696 47.6187 266.617 55.073 260.107 56.0296" stroke="white" stroke-miterlimit="10" stroke-linecap="round" stroke-linejoin="round"/>
<path d="M252.701 59.2996C252.701 59.2996 259.021 59.6241 257.986 67.1413" stroke="white" stroke-miterlimit="10" stroke-linecap="round" stroke-linejoin="round"/>
<path d="M243.228 81.5593C243.228 81.5593 250.585 83.1286 250.474 88.7697C250.363 94.4101 251.358 96.3296 254.84 98.4351" stroke="white" stroke-miterlimit="10" stroke-linecap="round" stroke-linejoin="round"/>
<path d="M261.199 73.6321C261.199 73.6321 264.039 72.4727 266.12 72.0225C268.2 71.5726 272.885 67.8895 274.813 62.6642C274.813 62.664 264.926 64.655 261.199 73.6321Z" fill="white" stroke="white" stroke-miterlimit="10" stroke-linecap="round" stroke-linejoin="round"/>
<path d="M243.278 81.778C243.278 81.778 249.103 77.0374 240.763 70.5759C240.763 70.5759 236.942 77.5937 243.278 81.778Z" fill="white" stroke="white" stroke-miterlimit="10" stroke-linecap="round" stroke-linejoin="round"/>
<path d="M265.743 47.8384C265.743 47.8384 274.964 44.9205 272.645 35.6099C272.645 35.6099 265.219 40.3846 265.743 47.8384Z" fill="white" stroke="white" stroke-miterlimit="10" stroke-linecap="round" stroke-linejoin="round"/>
<path d="M256.478 49.0122C256.478 49.0122 261.82 45.7003 260.278 41.9033C258.737 38.106 255.938 36.3822 256.43 31.9198C256.43 31.92 249.262 40.9121 256.478 49.0122Z" fill="white" stroke="white" stroke-miterlimit="10" stroke-linecap="round" stroke-linejoin="round"/>
<path d="M252.75 59.5185C252.75 59.5185 253.962 53.1584 243.791 50.8156C243.791 50.8156 242.583 56.6857 252.75 59.5185Z" fill="white" stroke="white" stroke-miterlimit="10" stroke-linecap="round" stroke-linejoin="round"/>
<path d="M305.388 33.5056C305.388 33.5056 299.306 35.9681 300.15 42.1154" stroke="white" stroke-miterlimit="10" stroke-linecap="round" stroke-linejoin="round"/>
<path d="M305.919 35.1844C305.919 35.1844 300.78 39.2539 299.011 44.5941C297.242 49.9347 297.719 54.1231 300.359 59.7565C302.996 65.3892 312.923 82.2539 301.425 98.7805" stroke="white" stroke-miterlimit="10" stroke-linecap="round" stroke-linejoin="round"/>
<path d="M291.945 53.8658C291.945 53.8658 294.744 60.4852 301.91 62.9509" stroke="white" stroke-miterlimit="10" stroke-linecap="round" stroke-linejoin="round"/>
<path d="M300.611 82.7947C300.611 82.7947 302.936 84.7803 302.761 87.2119C302.587 89.6401 301.378 93.3178 303.322 95.7053" stroke="white" stroke-miterlimit="10" stroke-linecap="round" stroke-linejoin="round"/>
<path d="M308.25 63.876C308.25 63.876 303.094 64.5084 304.434 68.9116" stroke="white" stroke-miterlimit="10" stroke-linecap="round" stroke-linejoin="round"/>
<path d="M301.8 47.5021C301.8 47.5021 298.174 51.7521 299.115 56.4832" stroke="white" stroke-miterlimit="10" stroke-linecap="round" stroke-linejoin="round"/>
<path d="M293.593 68.6384C293.593 68.6384 289.07 79.284 300.591 83.0145C300.591 83.0148 304.919 77.5079 293.593 68.6384Z" fill="white" stroke="white" stroke-miterlimit="10" stroke-linecap="round" stroke-linejoin="round"/>
<path d="M284.063 41.4178C284.063 41.4178 278.738 51.4761 291.926 54.0862C291.926 54.0862 293.256 49.0899 288.981 46.2332C284.705 43.377 285.042 42.8403 284.063 41.4178Z" fill="white" stroke="white" stroke-miterlimit="10" stroke-linecap="round" stroke-linejoin="round"/>
<path d="M301.78 47.722C301.571 47.957 304.755 40.0413 312.036 40.3653C319.316 40.6899 319.635 39.2334 319.635 39.2334C319.635 39.2334 317.941 44.581 314.586 45.3511C311.231 46.1211 303.74 45.5113 301.78 47.722Z" fill="white" stroke="white" stroke-miterlimit="10" stroke-linecap="round" stroke-linejoin="round"/>
<path d="M307.627 64.1616C307.627 64.1616 308.43 56.5675 323.105 53.4525C323.105 53.4525 322.304 56.8825 320.714 59.0446C318.226 62.4276 313.336 64.0478 307.627 64.1616Z" fill="white" stroke="white" stroke-miterlimit="10" stroke-linecap="round" stroke-linejoin="round"/>
<path d="M305.368 33.7257C305.368 33.7257 305.562 30.5169 304.076 28.7043C302.588 26.8914 300.244 22.2827 307.523 17C307.523 17 307.395 19.1067 308.884 20.8748C310.375 22.6433 312.893 30.0162 305.368 33.7257Z" fill="white" stroke="white" stroke-miterlimit="10" stroke-linecap="round" stroke-linejoin="round"/>
<path d="M305.899 35.4042C305.899 35.4042 307.109 28.4112 316.083 28.2284C316.083 28.2284 313.957 29.4204 313.639 30.8772C313.323 32.3331 310.895 34.9829 305.899 35.4042Z" fill="white" stroke="white" stroke-miterlimit="10" stroke-linecap="round" stroke-linejoin="round"/>
<path d="M346 70C346 70 346.51 69.8165 349.336 69.869C352.162 69.9191 358.227 68.2754 357.993 61C357.993 61 355.202 62.6708 351.889 63.7893C348.581 64.9075 346.963 67.5618 346 70Z" fill="white" stroke="white" stroke-miterlimit="10" stroke-linecap="round" stroke-linejoin="round"/>
<path d="M343.84 62C343.84 62 346.218 60.4039 348.097 58.9776C349.245 58.1071 352.869 54.885 351.808 51.4154C350.748 47.9467 350.549 46 350.549 46C350.549 46 346.699 49.6572 345.055 51.3251C343.413 52.9927 342.063 56.9549 343.84 62Z" fill="white" stroke="white" stroke-miterlimit="10" stroke-linecap="round" stroke-linejoin="round"/>
<path d="M337.747 63C331.826 62.1441 328.48 57.4544 328.285 54.4128C328.144 52.2064 328 50 328 50C329.21 51.9201 333.858 53.268 336.136 56.0324C338.417 58.7957 337.963 62.9925 337.963 62.9925" fill="white"/>
<path d="M337.747 63C331.826 62.1441 328.48 57.4544 328.285 54.4128C328.144 52.2064 328 50 328 50C329.21 51.9201 333.858 53.268 336.136 56.0324C338.417 58.7957 337.963 62.9925 337.963 62.9925" stroke="white" stroke-miterlimit="10" stroke-linecap="round" stroke-linejoin="round"/>
<path d="M334 83C334 83 332.852 81.222 331.829 79.0098C330.806 76.7978 328.904 75.4297 327.454 74.9045C326.004 74.3796 323.351 73.5139 323 73C323 73 323.605 75.9447 324.392 77.4102C325.365 79.2162 328.322 82.6204 334 83Z" fill="white" stroke="white" stroke-miterlimit="10" stroke-linecap="round" stroke-linejoin="round"/>
<path d="M50.8485 97.512C50.8485 97.512 41.9667 84.8427 49.6848 72.596C57.4026 60.3486 69.5475 43.5886 67.0394 35.0568" stroke="white" stroke-miterlimit="10" stroke-linecap="round" stroke-linejoin="round"/>
<path d="M59.0267 56.4073C59.0267 56.4073 62.3318 47.2536 52.3633 43.5609" stroke="white" stroke-miterlimit="10" stroke-linecap="round" stroke-linejoin="round"/>
<path d="M47.6009 76.9515C47.6009 76.9515 45.5037 74.7345 45.2573 71.2485C45.0112 67.7628 45.168 63.1389 44.1807 62.3418" stroke="white" stroke-miterlimit="10" stroke-linecap="round" stroke-linejoin="round"/>
<path d="M75.4131 57.9424C75.4131 57.9424 68.0206 56.4007 62.7539 60.4202C57.4868 64.4397 57.6897 67.2793 52.4976 68.2058" stroke="white" stroke-miterlimit="10" stroke-linecap="round" stroke-linejoin="round"/>
<path d="M70.1436 50.8794C70.1436 50.8794 66.3178 54.0382 64.6729 58.7801" stroke="white" stroke-miterlimit="10" stroke-linecap="round" stroke-linejoin="round"/>
<path d="M52.8909 82.5131C52.8909 82.5131 48.2805 83.6132 49.3108 94.8037" stroke="white" stroke-miterlimit="10" stroke-linecap="round" stroke-linejoin="round"/>
<path d="M66.2379 35.2214C66.2379 35.2214 68.4834 31.6197 68.7027 29.7235C68.9217 27.8275 68.3774 25.2073 66.0153 22.5359C64.4081 20.7182 64.0801 19.6079 64.0801 19.6079C64.0801 19.6079 62.8506 24.4102 62.4589 26.1891C61.53 30.4051 64.4276 33.5681 66.2379 35.2214Z" fill="white" stroke="white" stroke-miterlimit="10" stroke-linecap="round" stroke-linejoin="round"/>
<path d="M53.3308 43.8006C53.3308 43.8006 56.0317 37.9964 52.5396 35.5654C49.0469 33.1341 46.9519 29.1781 46.7932 28.9492C46.7932 28.9492 47.2278 32.3503 46.7061 34.4815C46.1853 36.6134 47.4918 40.5232 53.3308 43.8006Z" fill="white" stroke="white" stroke-miterlimit="10" stroke-linecap="round" stroke-linejoin="round"/>
<path d="M44.264 62.545C44.264 62.545 48.2775 57.2515 39.5839 51.1567C39.5842 51.1567 38.1436 58.0944 44.264 62.545Z" fill="white" stroke="white" stroke-miterlimit="10" stroke-linecap="round" stroke-linejoin="round"/>
<path d="M68.2515 70.8788C68.6239 70.8155 65.1916 73.149 63.9359 76.4083C62.6799 79.6675 57.8715 82.9198 52.9742 82.716C52.9742 82.716 51.6512 73.7197 68.2515 70.8788Z" fill="white" stroke="white" stroke-miterlimit="10" stroke-linecap="round" stroke-linejoin="round"/>
<path d="M74.6118 58.1078C74.6118 58.1078 79.9541 51.9193 87.9999 54.0092C87.9999 54.0095 80.6549 59.6963 74.6118 58.1078Z" fill="white" stroke="white" stroke-miterlimit="10" stroke-linecap="round" stroke-linejoin="round"/>
<path d="M84.4475 38.3204C84.4475 38.3204 81.4357 41.7536 80.8601 43.1936C79.6294 46.2717 77.2282 50.1433 70.2271 51.0819C70.2271 51.0819 71.4763 40.0342 84.4475 38.3204Z" fill="white" stroke="white" stroke-miterlimit="10" stroke-linecap="round" stroke-linejoin="round"/>
<path d="M272.01 18.7225C272.01 18.7225 273.45 22.0025 271.825 26.2646C270.201 30.5254 255.622 39.427 264.505 44.2773" stroke="white" stroke-miterlimit="10" stroke-linecap="round" stroke-linejoin="round"/>
<path d="M277.96 15.1046C277.96 15.1046 273.965 18.0421 274.74 22.5701C275.517 27.098 273.016 28.9052 267.128 31.8567" stroke="white" stroke-miterlimit="10" stroke-linecap="round" stroke-linejoin="round"/>
<path d="M263.846 26.2646C263.67 26.7304 264.069 30.3776 260.679 34.7358C257.291 39.0926 262.853 43.0701 262.853 43.0701" stroke="white" stroke-miterlimit="10" stroke-linecap="round" stroke-linejoin="round"/>
<path d="M277.449 14.9608C277.449 14.9608 277.972 14.7698 280.864 14.8244C283.756 14.8763 289.963 13.1647 289.726 5.58899C289.726 5.58899 286.867 7.32911 283.477 8.49344C280.09 9.65809 278.434 12.422 277.449 14.9608Z" fill="white" stroke="white" stroke-miterlimit="10" stroke-linecap="round" stroke-linejoin="round"/>
<path d="M272.447 19.2866C272.447 19.2866 276.661 16.8559 277.772 15.1918C278.886 13.5283 279.448 10.8893 277.949 7.47709C276.929 5.15606 277.056 4 277.056 4C277.056 4 273.467 7.94575 272.208 9.43184C269.229 12.9585 271.121 17.0378 272.447 19.2866Z" fill="white" stroke="white" stroke-miterlimit="10" stroke-linecap="round" stroke-linejoin="round"/>
<path d="M263.903 26.7982C263.903 26.7982 256.647 21.2675 259.789 13.2269C259.789 13.2269 266.284 20.7601 263.903 26.7982Z" fill="white" stroke="white" stroke-miterlimit="10" stroke-linecap="round" stroke-linejoin="round"/>
<path d="M365.878 48.7013C365.878 48.7013 369.605 31.7879 360.172 29.4543C354.193 27.9751 348.557 29.8707 346.536 24.2379C345.126 20.3026 345.689 16.5685 345.689 16.5685" stroke="white" stroke-miterlimit="10" stroke-linecap="round" stroke-linejoin="round"/>
<path d="M366.602 41.2754C366.602 41.2754 362.201 32.377 354.074 35.9751" stroke="white" stroke-miterlimit="10" stroke-linecap="round" stroke-linejoin="round"/>
<path d="M341.72 27.5181C341.72 27.5181 343.212 30.3656 345.427 30.7238C347.642 31.0836 352.663 28.0476 354.563 28.7073" stroke="white" stroke-miterlimit="10" stroke-linecap="round" stroke-linejoin="round"/>
<path d="M345.882 16.7369C345.882 16.7369 345.27 7.90571 332.94 6.88306C332.94 6.88306 335.36 8.3491 336.094 11.1484C336.828 13.95 340.998 16.8125 345.882 16.7369Z" fill="white" stroke="white" stroke-miterlimit="10" stroke-linecap="round" stroke-linejoin="round"/>
<path d="M341.913 27.6856C342.357 27.6515 338.599 18.4466 325.802 23.2454C325.802 23.2454 333.42 28.3494 341.913 27.6856Z" fill="white" stroke="white" stroke-miterlimit="10" stroke-linecap="round" stroke-linejoin="round"/>
<path d="M354.267 36.1432C354.267 36.1432 349.289 32.5809 346.114 34.7285C342.94 36.8766 340.87 37.6085 338.459 37.3023C338.459 37.3023 346.868 43.4306 354.267 36.1432Z" fill="white" stroke="white" stroke-miterlimit="10" stroke-linecap="round" stroke-linejoin="round"/>
</svg>
