<svg width="318" height="1033" viewBox="0 0 318 1033" fill="none" xmlns="http://www.w3.org/2000/svg">
<g opacity="0.2">
<g clip-path="url(#clip0)">
<path d="M323.174 628.865C323.174 628.865 304.926 621.343 279.69 635.513C254.456 649.683 237.373 671.551 208.643 661.055C179.914 650.559 179.525 635.745 160.501 635.804" stroke="white" stroke-width="2" stroke-miterlimit="10" stroke-linecap="round" stroke-linejoin="round"/>
<path d="M295.369 628.957C295.369 628.957 269.857 631.371 261.186 619.01" stroke="white" stroke-width="2" stroke-miterlimit="10" stroke-linecap="round" stroke-linejoin="round"/>
<path d="M273.525 639.205C273.525 639.205 265.714 634.918 260.084 636.702C254.455 638.487 246.496 644.085 243.196 640.586" stroke="white" stroke-width="2" stroke-miterlimit="10" stroke-linecap="round" stroke-linejoin="round"/>
<path d="M217.314 655.942C217.314 655.942 221.458 660.186 232.844 658.024C244.231 655.864 249.02 655.515 249.02 655.515" stroke="white" stroke-width="2" stroke-miterlimit="10" stroke-linecap="round" stroke-linejoin="round"/>
<path d="M224.3 663.812C224.3 663.812 217.325 665.812 212.79 675.066" stroke="white" stroke-width="2" stroke-miterlimit="10" stroke-linecap="round" stroke-linejoin="round"/>
<path d="M194.6 681.144C194.6 681.144 200.747 680.588 203.854 676.157C206.96 671.727 212.522 668.317 216.471 669.439" stroke="white" stroke-width="2" stroke-miterlimit="10" stroke-linecap="round" stroke-linejoin="round"/>
<path d="M199.356 657.076C199.356 657.076 196.089 659.314 192.338 658.638C188.585 657.963 185.091 657.497 185.091 657.497" stroke="white" stroke-width="2" stroke-miterlimit="10" stroke-linecap="round" stroke-linejoin="round"/>
<path d="M253.211 665.661C253.211 665.661 257.651 659.058 258.361 654.014C259.071 648.969 267.503 643.163 267.503 643.163" stroke="white" stroke-width="2" stroke-miterlimit="10" stroke-linecap="round" stroke-linejoin="round"/>
<path d="M301.687 637.301C301.687 637.301 304.277 628.369 315.667 627.188" stroke="white" stroke-width="2" stroke-miterlimit="10" stroke-linecap="round" stroke-linejoin="round"/>
<path d="M201.958 751.878C201.958 751.878 205.319 754.044 213.218 749.492C221.115 744.938 239.23 742.475 249.584 754.786C259.939 767.097 270.296 783.926 284.787 784.959C299.278 785.992 312.992 782.664 321.536 788.409" stroke="white" stroke-width="2" stroke-miterlimit="10" stroke-linecap="round" stroke-linejoin="round"/>
<path d="M225.835 757.651C225.835 757.651 240.054 749.371 251.939 757.651" stroke="white" stroke-width="2" stroke-miterlimit="10" stroke-linecap="round" stroke-linejoin="round"/>
<path d="M265.046 782.493C265.046 782.493 271.593 780.633 276.379 782.493" stroke="white" stroke-width="2" stroke-miterlimit="10" stroke-linecap="round" stroke-linejoin="round"/>
<path d="M254.371 744.88C254.371 744.88 253.467 753.952 259.421 758.309C265.375 762.666 265.047 773.48 265.047 773.48" stroke="white" stroke-width="2" stroke-miterlimit="10" stroke-linecap="round" stroke-linejoin="round"/>
<path d="M213.229 734.033C213.229 734.033 221.371 732.835 230.173 745.769" stroke="white" stroke-width="2" stroke-miterlimit="10" stroke-linecap="round" stroke-linejoin="round"/>
<path d="M321.503 352.169C321.503 352.169 283.392 371.228 261.811 364.289C240.231 357.351 228.584 337.527 215.126 326.796C201.668 316.065 186.657 301.636 171.254 302.668" stroke="white" stroke-width="2" stroke-miterlimit="10" stroke-linecap="round" stroke-linejoin="round"/>
<path d="M183.678 307.816C183.678 307.816 191.986 318.925 203.684 317.495" stroke="white" stroke-width="2" stroke-miterlimit="10" stroke-linecap="round" stroke-linejoin="round"/>
<path d="M191.637 326.622C191.637 326.622 207.237 324.373 217.652 329.082" stroke="white" stroke-width="2" stroke-miterlimit="10" stroke-linecap="round" stroke-linejoin="round"/>
<path d="M254.726 343.543C254.726 343.543 259.451 348.438 261.811 352.17C265.984 358.77 271.302 365.161 286.568 364.29" stroke="white" stroke-width="2" stroke-miterlimit="10" stroke-linecap="round" stroke-linejoin="round"/>
<path d="M280.013 374.382C280.013 374.382 284.386 365.538 294.151 362.488" stroke="white" stroke-width="2" stroke-miterlimit="10" stroke-linecap="round" stroke-linejoin="round"/>
<path d="M240.944 366.334C240.944 366.334 253.932 369.942 258.211 362.978" stroke="white" stroke-width="2" stroke-miterlimit="10" stroke-linecap="round" stroke-linejoin="round"/>
<path d="M224.734 352.169C224.734 352.169 237.516 356.531 241.462 352.511" stroke="white" stroke-width="2" stroke-miterlimit="10" stroke-linecap="round" stroke-linejoin="round"/>
<path d="M316.908 785.974C316.908 785.974 314.684 778.48 306.525 776.869" stroke="white" stroke-width="2" stroke-miterlimit="10" stroke-linecap="round" stroke-linejoin="round"/>
<path d="M321.324 235.05C321.324 235.05 312.896 235.993 302.587 231.973C292.278 227.954 282.011 228.788 272.226 234.175C262.438 239.565 250.713 233.827 238.884 227.559" stroke="white" stroke-width="2" stroke-miterlimit="10" stroke-linecap="round" stroke-linejoin="round"/>
<path d="M306.092 233.181C306.092 233.181 299.083 231.144 289.82 243.595" stroke="white" stroke-width="2" stroke-miterlimit="10" stroke-linecap="round" stroke-linejoin="round"/>
<path d="M270.032 235.176C270.032 235.176 263.926 241.601 255.884 239.158C247.84 236.714 245.156 233.752 240.494 238.535" stroke="white" stroke-width="2" stroke-miterlimit="10" stroke-linecap="round" stroke-linejoin="round"/>
<path d="M281.432 230.496C281.432 230.496 269.721 230.833 260.067 223.792" stroke="white" stroke-width="2" stroke-miterlimit="10" stroke-linecap="round" stroke-linejoin="round"/>
<path d="M312.467 114.418C312.467 114.418 303.583 117.556 291.142 116.399C278.702 115.243 267.781 118.76 258.77 126.546C249.756 134.329 235.248 131.891 220.468 128.968" stroke="white" stroke-width="2" stroke-miterlimit="10" stroke-linecap="round" stroke-linejoin="round"/>
<path d="M295.323 116.636C295.323 116.636 287.073 116.525 280.783 130.987" stroke="white" stroke-width="2" stroke-miterlimit="10" stroke-linecap="round" stroke-linejoin="round"/>
<path d="M256.688 128.089C256.688 128.089 251.995 135.901 242.499 135.668C233.003 135.434 229.179 133.284 225.56 139.134" stroke="white" stroke-width="2" stroke-miterlimit="10" stroke-linecap="round" stroke-linejoin="round"/>
<path d="M267.668 120.559C267.668 120.559 255.026 123.979 242.375 119.733" stroke="white" stroke-width="2" stroke-miterlimit="10" stroke-linecap="round" stroke-linejoin="round"/>
<path d="M242.817 119.606C242.817 119.606 242.137 118.94 240.908 114.624C239.678 110.306 231.997 99.8604 214.669 104.446C214.669 104.446 220.854 109.915 225.118 114.285C229.382 118.657 236.514 119.566 242.817 119.606Z" fill="white" stroke="white" stroke-width="2" stroke-miterlimit="10" stroke-linecap="round" stroke-linejoin="round"/>
<path d="M222.405 129.619C222.405 129.619 217.279 126.909 212.815 124.868C210.088 123.62 199.461 117.762 191.347 121.494C183.236 125.228 178.486 126.708 178.486 126.708C178.486 126.708 189.463 130.45 194.414 131.983C199.362 133.516 210.723 135.416 222.405 129.619Z" fill="white" stroke="white" stroke-width="2" stroke-miterlimit="10" stroke-linecap="round" stroke-linejoin="round"/>
<path d="M225.02 137.963C225.754 147.704 214.651 153.592 207.033 155.769C201.503 157.349 195.976 158.931 195.976 158.931C200.254 155.865 202.236 150.005 208.13 144.757C214.025 139.509 224.894 137.63 224.894 137.63" fill="white"/>
<path d="M225.02 137.963C225.754 147.704 214.651 153.592 207.033 155.769C201.503 157.349 195.976 158.931 195.976 158.931C200.254 155.865 202.236 150.005 208.13 144.757C214.025 139.509 224.894 137.63 224.894 137.63" stroke="white" stroke-width="2" stroke-miterlimit="10" stroke-linecap="round" stroke-linejoin="round"/>
<path d="M281.226 130.861C281.226 130.861 277.106 133.633 271.799 136.503C266.493 139.372 263.784 142.974 263.073 145.389C262.362 147.803 261.303 152.159 260.122 152.989C260.122 152.989 267.527 150.256 270.996 148.194C275.265 145.658 282.805 139.254 281.226 130.861Z" fill="white" stroke="white" stroke-width="2" stroke-miterlimit="10" stroke-linecap="round" stroke-linejoin="round"/>
<path d="M130.14 627.406C130.14 627.406 139.846 638.369 160.034 635.804C160.034 635.804 154.728 623.558 145.087 625.892C135.446 628.225 136.999 627.291 130.14 627.406Z" fill="white" stroke="white" stroke-width="2" stroke-miterlimit="10" stroke-linecap="round" stroke-linejoin="round"/>
<path d="M150.847 663.118C150.847 663.118 161.847 667.294 167.411 666.594C172.974 665.894 181.387 658.196 184.624 657.497C184.624 657.497 179.191 656.33 176.989 655.397C174.788 654.465 165.858 652.559 160.034 655.942C154.211 659.324 150.847 663.118 150.847 663.118Z" fill="white" stroke="white" stroke-width="2" stroke-miterlimit="10" stroke-linecap="round" stroke-linejoin="round"/>
<path d="M182.409 640.204C182.409 640.204 189.981 642.53 194.56 646.521C199.141 650.507 206.235 657.672 216.848 655.942C216.848 655.942 213.835 655.038 210.605 648.096C207.374 641.156 200.666 637.128 197.32 636.553C192.524 635.725 188.324 636.464 182.409 640.204Z" fill="white" stroke="white" stroke-width="2" stroke-miterlimit="10" stroke-linecap="round" stroke-linejoin="round"/>
<path d="M263.503 623.592C263.503 623.592 251.216 632.192 236.712 620.264C236.712 620.264 242.238 620.006 244.225 618.961C246.215 617.912 255.395 616.817 263.503 623.592Z" fill="white" stroke="white" stroke-width="2" stroke-miterlimit="10" stroke-linecap="round" stroke-linejoin="round"/>
<path d="M260.719 619.009C260.719 619.009 245.185 621.341 238.716 603.264C238.716 603.264 240.788 603.965 245.447 604.198C250.106 604.432 258.65 605.13 260.719 619.009Z" fill="white" stroke="white" stroke-width="2" stroke-miterlimit="10" stroke-linecap="round" stroke-linejoin="round"/>
<path d="M242.729 640.586C242.796 640.931 234.965 645.754 226.424 639.205C217.883 632.655 217.103 629.04 213.739 626.591C213.739 626.591 220.731 628.225 225.259 627.991C229.787 627.756 240.918 631.14 242.729 640.586Z" fill="white" stroke="white" stroke-width="2" stroke-miterlimit="10" stroke-linecap="round" stroke-linejoin="round"/>
<path d="M230.096 693.07C228.974 693.437 232.686 688.286 234.496 680.706C236.307 673.126 242.261 667.527 252.744 665.661C252.744 665.661 255.72 684.672 230.096 693.07Z" fill="white" stroke="white" stroke-width="2" stroke-miterlimit="10" stroke-linecap="round" stroke-linejoin="round"/>
<path d="M194.133 681.144C194.133 681.144 192.84 683.243 190.638 686.509C188.437 689.776 177.96 699.455 164.369 693.857C164.369 693.857 168.636 693.508 172.391 689.426C176.143 685.343 182.484 678.579 194.133 681.144Z" fill="white" stroke="white" stroke-width="2" stroke-miterlimit="10" stroke-linecap="round" stroke-linejoin="round"/>
<path d="M197.054 701.076C197.054 701.076 197.703 698.509 197.054 694.194C196.404 689.879 201.321 680.547 212.322 675.066C212.322 675.066 216.332 684.59 209.992 691.163C203.654 697.735 201.451 696.877 197.054 701.076Z" fill="white" stroke="white" stroke-width="2" stroke-miterlimit="10" stroke-linecap="round" stroke-linejoin="round"/>
<path d="M204.955 641.714C204.955 641.714 203.28 645.538 210.123 648.898C216.972 652.255 222.498 656.281 222.371 658.025C222.371 658.025 222.659 647.069 216.411 644.541C210.16 642.012 206.642 643.281 204.955 641.714Z" fill="white" stroke="white" stroke-width="2" stroke-miterlimit="10" stroke-linecap="round" stroke-linejoin="round"/>
<path d="M260.01 839.493C260.01 839.493 260.544 831.159 242.533 823.963C224.524 816.769 224.086 809.708 218.766 804.954C213.452 800.203 193.239 790.286 179.227 791.99" stroke="white" stroke-width="2" stroke-miterlimit="10" stroke-linecap="round" stroke-linejoin="round"/>
<path d="M210.868 791.39C210.868 791.39 216.861 796.679 215.982 802.873" stroke="white" stroke-width="2" stroke-miterlimit="10" stroke-linecap="round" stroke-linejoin="round"/>
<path d="M236.758 819.392C236.758 819.392 237.479 821.679 242.532 823.963" stroke="white" stroke-width="2" stroke-miterlimit="10" stroke-linecap="round" stroke-linejoin="round"/>
<path d="M205.723 801.268C205.723 801.268 211.813 800.58 214.871 806.062C217.923 811.542 224.164 811.525 224.164 811.525" stroke="white" stroke-width="2" stroke-miterlimit="10" stroke-linecap="round" stroke-linejoin="round"/>
<path d="M236.249 827.138C236.249 827.138 245.536 825.358 252.287 829.022" stroke="white" stroke-width="2" stroke-miterlimit="10" stroke-linecap="round" stroke-linejoin="round"/>
<path d="M236.292 819.392C236.292 819.392 241.091 817.703 239.755 809.454C238.421 801.206 238.608 793.492 240.374 792.205C240.374 792.205 229.643 800.716 231.383 807.821C233.113 814.924 236.68 816.775 236.292 819.392Z" fill="white" stroke="white" stroke-width="2" stroke-miterlimit="10" stroke-linecap="round" stroke-linejoin="round"/>
<path d="M239.082 827.782C239.082 827.782 232.142 825.715 229.431 823.687C226.713 821.661 219.27 813.5 209.721 823.991C209.721 823.991 214.823 821.445 219.973 824.791C225.117 828.137 231.329 833.882 239.082 827.782Z" fill="white" stroke="white" stroke-width="2" stroke-miterlimit="10" stroke-linecap="round" stroke-linejoin="round"/>
<path d="M210.401 791.39C210.401 791.39 205.955 781.84 197.965 779.685C189.978 777.53 186.323 779.329 182.255 778.177C182.255 778.177 190.731 781.416 191.98 783.87C193.229 786.32 201.496 793.175 210.401 791.39Z" fill="white" stroke="white" stroke-width="2" stroke-miterlimit="10" stroke-linecap="round" stroke-linejoin="round"/>
<path d="M178.76 791.99C178.76 791.99 170.852 787.127 162.325 791.223C153.795 795.318 154.581 796.459 152.107 796.769C152.107 796.769 155.44 795.887 159.93 796.212C164.419 796.538 170.167 800.053 178.76 791.99Z" fill="white" stroke="white" stroke-width="2" stroke-miterlimit="10" stroke-linecap="round" stroke-linejoin="round"/>
<path d="M205.257 801.268C205.257 801.268 188.966 795.926 181.5 808.298C181.5 808.298 185.738 806.321 189.221 807.268C192.705 808.216 201.932 807.782 205.257 801.268Z" fill="white" stroke="white" stroke-width="2" stroke-miterlimit="10" stroke-linecap="round" stroke-linejoin="round"/>
<path d="M114.161 1001.84C114.161 1001.84 110.614 1005.1 102.189 1004" stroke="white" stroke-width="2" stroke-miterlimit="10" stroke-linecap="round" stroke-linejoin="round"/>
<path d="M146.579 994.9C146.579 994.9 128.405 1005.24 109.695 1000.68C99.6017 998.218 95.6649 998.734 91.0605 999.458C83.2952 1000.68 79.4136 996.883 79.4136 996.883" stroke="white" stroke-width="2" stroke-miterlimit="10" stroke-linecap="round" stroke-linejoin="round"/>
<path d="M131.291 1000.49C131.291 1000.49 127.039 1001.02 122.25 999.449" stroke="white" stroke-width="2" stroke-miterlimit="10" stroke-linecap="round" stroke-linejoin="round"/>
<path d="M47.2383 995.834C47.2383 995.834 54.9067 1002.36 61.4906 1000.26C68.0765 998.166 76.1013 995.718 78.9475 996.883C78.9475 996.883 72.3475 988.836 64.5822 991.751C56.8169 994.667 49.3079 998.166 47.2383 995.834Z" fill="white" stroke="white" stroke-width="2" stroke-miterlimit="10" stroke-linecap="round" stroke-linejoin="round"/>
<path d="M71.9585 1020.21C71.9585 1020.21 82.1833 1026.04 87.8763 1016.83C93.5707 1007.61 96.9339 1004.81 101.723 1004C101.723 1004 94.7379 1001.43 87.8763 1004C81.0161 1006.56 79.596 1017.76 71.9585 1020.21Z" fill="white" stroke="white" stroke-width="2" stroke-miterlimit="10" stroke-linecap="round" stroke-linejoin="round"/>
<path d="M121.784 999.449C121.784 999.449 102.24 1000.26 96.6763 986.969C96.6763 986.969 112.985 983.47 121.784 999.449Z" fill="white" stroke="white" stroke-width="2" stroke-miterlimit="10" stroke-linecap="round" stroke-linejoin="round"/>
<path d="M280.773 50.4409C280.773 50.4409 262.024 54.3272 259.235 63.0541C254.689 77.2727 243.399 78.4077 243.399 78.4077" stroke="white" stroke-width="2" stroke-miterlimit="10" stroke-linecap="round" stroke-linejoin="round"/>
<path d="M274.073 56.9871C274.073 56.9871 275.556 54.2304 274.418 52.2253L274.073 56.9871Z" fill="white"/>
<path d="M274.073 56.9871C274.073 56.9871 275.556 54.2304 274.418 52.2253" stroke="white" stroke-width="2" stroke-miterlimit="10" stroke-linecap="round" stroke-linejoin="round"/>
<path d="M256.254 55.9901C256.254 55.9901 262.419 52.5115 268.246 54.7489" stroke="white" stroke-width="2" stroke-miterlimit="10" stroke-linecap="round" stroke-linejoin="round"/>
<path d="M274.964 57.754C274.964 57.754 280.372 64.2436 274.839 71.2982C269.308 78.3535 272.459 79.78 264.46 82.974C264.46 82.974 266.5 80.9568 265.812 76.5582C265.126 72.1596 263.459 66.4664 266.102 64.0142C268.744 61.5625 274.328 60.1052 274.964 57.754Z" fill="white" stroke="white" stroke-width="2" stroke-miterlimit="10" stroke-linecap="round" stroke-linejoin="round"/>
<path d="M250.825 76.6198C250.825 76.6198 251.315 90.0996 231.299 93.1373C231.299 93.1373 234.446 89.1801 234.688 87.1983C234.93 85.2183 239.534 78.2537 250.825 76.6198Z" fill="white" stroke="white" stroke-width="2" stroke-miterlimit="10" stroke-linecap="round" stroke-linejoin="round"/>
<path d="M256.13 56.3788C256.13 56.3788 246.919 71.3277 230.716 68.9237C230.716 68.9231 235.572 55.0603 256.13 56.3788Z" fill="white" stroke="white" stroke-width="2" stroke-miterlimit="10" stroke-linecap="round" stroke-linejoin="round"/>
<path d="M279.348 659.693C279.348 659.693 301.738 659.343 301.219 637.301C301.22 637.301 289.831 637.535 279.348 659.693Z" fill="white" stroke="white" stroke-width="2" stroke-miterlimit="10" stroke-linecap="round" stroke-linejoin="round"/>
<path d="M277.702 848.204C277.702 848.204 284.04 839.722 292.067 835.653C300.092 831.585 317.172 827.658 323.903 824.606" stroke="white" stroke-width="2" stroke-miterlimit="10" stroke-linecap="round" stroke-linejoin="round"/>
<path d="M283.137 836.834C283.137 836.834 288.185 838.789 292.067 835.654" stroke="white" stroke-width="2" stroke-miterlimit="10" stroke-linecap="round" stroke-linejoin="round"/>
<path d="M254.718 869.722C254.718 869.722 268.887 870.597 271.024 865.349C273.159 860.1 275.1 849.779 277.235 848.204C277.235 848.204 267.723 849.429 264.424 856.601C261.123 863.775 256.464 870.073 254.718 869.722Z" fill="white" stroke="white" stroke-width="2" stroke-miterlimit="10" stroke-linecap="round" stroke-linejoin="round"/>
<path d="M247.729 838.408C247.729 838.408 262.094 844.181 269.858 840.333C277.624 836.484 282.671 836.834 282.671 836.834C282.671 836.834 272.185 829.799 267.335 829.661C263.065 829.539 258.018 830.536 247.729 838.408Z" fill="white" stroke="white" stroke-width="2" stroke-miterlimit="10" stroke-linecap="round" stroke-linejoin="round"/>
<path d="M287.912 858.991C287.912 858.991 300.918 859.926 301.888 849.08C302.859 838.233 307.906 831.041 309.847 829.651C309.847 829.651 296.453 838.233 294.512 843.131C292.57 848.03 293.735 854.033 287.912 858.991Z" fill="white" stroke="white" stroke-width="2" stroke-miterlimit="10" stroke-linecap="round" stroke-linejoin="round"/>
<path d="M243.227 785.641C243.227 785.641 257.98 795.089 264.581 782.493C264.581 782.493 258.175 777.244 243.227 785.641Z" fill="white" stroke="white" stroke-width="2" stroke-miterlimit="10" stroke-linecap="round" stroke-linejoin="round"/>
<path d="M49.9316 712.883C49.9316 712.883 58.3558 708.879 66.1473 713.336C73.9361 717.792 82.8014 729.429 94.9895 732.477C107.176 735.525 126.376 738.998 143.577 743.983C171.338 752.029 205.934 738.364 216.854 734.025" stroke="white" stroke-width="2" stroke-miterlimit="10" stroke-linecap="round" stroke-linejoin="round"/>
<path d="M123.736 745.351C123.736 745.351 137.954 752.504 144.834 744.329" stroke="white" stroke-width="2" stroke-miterlimit="10" stroke-linecap="round" stroke-linejoin="round"/>
<path d="M156.279 737.819C156.279 737.819 159.051 741.574 166.442 741.062C173.833 740.55 180.594 739.861 187.724 743.697" stroke="white" stroke-width="2" stroke-miterlimit="10" stroke-linecap="round" stroke-linejoin="round"/>
<path d="M198.657 733.84C198.657 733.84 202.804 739.425 208.003 736.956" stroke="white" stroke-width="2" stroke-miterlimit="10" stroke-linecap="round" stroke-linejoin="round"/>
<path d="M104.017 727.783C104.017 727.783 105.334 733.488 115.314 737.043" stroke="white" stroke-width="2" stroke-miterlimit="10" stroke-linecap="round" stroke-linejoin="round"/>
<path d="M66.0908 705.341C66.0908 705.341 83.3762 710.729 81.4956 725.461" stroke="white" stroke-width="2" stroke-miterlimit="10" stroke-linecap="round" stroke-linejoin="round"/>
<path d="M66.6631 738.689C66.6631 738.689 70.3484 733.48 78.1755 733.751C81.7297 733.874 85.3403 734.818 88.8427 735.395C93.0485 736.089 97.0982 736.254 100.708 733.833" stroke="white" stroke-width="2" stroke-miterlimit="10" stroke-linecap="round" stroke-linejoin="round"/>
<path d="M75.7476 747.743C75.7476 747.743 74.1473 735.793 87.0126 735.067" stroke="white" stroke-width="2" stroke-miterlimit="10" stroke-linecap="round" stroke-linejoin="round"/>
<path d="M123.277 745.424C123.277 745.424 114.684 756.985 96.6753 749.642C96.6753 749.642 101.826 747.874 103.339 746.332C104.852 744.788 113.172 741.216 123.277 745.424Z" fill="white" stroke="white" stroke-width="2" stroke-miterlimit="10" stroke-linecap="round" stroke-linejoin="round"/>
<path d="M155.821 737.892C155.821 737.892 146.921 734.395 143.805 734.284C137.838 734.071 130.528 734.966 124.979 724.64C124.979 724.64 129.845 723.46 134.144 723.187C143.491 722.594 151.352 726.15 155.821 737.892Z" fill="white" stroke="white" stroke-width="2" stroke-miterlimit="10" stroke-linecap="round" stroke-linejoin="round"/>
<path d="M170.018 723.902C170.018 723.902 180.427 735.736 198.197 733.914C198.197 733.914 195.387 730.907 194.339 728.761C193.291 726.615 186.057 721.359 180.519 722.237C174.982 723.115 174.092 724.501 170.018 723.902Z" fill="white" stroke="white" stroke-width="2" stroke-miterlimit="10" stroke-linecap="round" stroke-linejoin="round"/>
<path d="M64.4224 765.933C64.4224 765.933 81.8066 762.872 75.3074 747.972C75.3074 747.972 67.6646 750.767 67.1031 757.241C66.5403 763.712 65.5715 763.826 64.4224 765.933Z" fill="white" stroke="white" stroke-width="2" stroke-miterlimit="10" stroke-linecap="round" stroke-linejoin="round"/>
<path d="M36.9443 748.737C36.9443 748.737 56.5575 755.588 66.2054 738.761C66.2048 738.761 55.4118 730.69 36.9443 748.737Z" fill="white" stroke="white" stroke-width="2" stroke-miterlimit="10" stroke-linecap="round" stroke-linejoin="round"/>
<path d="M103.558 727.856C103.558 727.856 99.7402 720.104 96.4463 717.603C93.151 715.101 87.0014 703.804 87.6308 697.479C87.6308 697.479 93.0098 701.428 95.4021 702.472C97.7937 703.515 107.099 707.407 103.558 727.856Z" fill="white" stroke="white" stroke-width="2" stroke-miterlimit="10" stroke-linecap="round" stroke-linejoin="round"/>
<path d="M17.0781 710.978C17.0781 710.978 31.2478 721.004 49.4718 712.956C49.4718 712.956 40.4983 706.019 35.5053 705.744C30.5129 705.467 26.2957 707.916 17.0781 710.978Z" fill="white" stroke="white" stroke-width="2" stroke-miterlimit="10" stroke-linecap="round" stroke-linejoin="round"/>
<path d="M65.6316 705.413C65.6316 705.413 49.789 703.301 41.5464 691.446C41.5464 691.446 44.8578 692.166 49.5134 691.784C54.1676 691.402 66.6556 693.512 65.6316 705.413Z" fill="white" stroke="white" stroke-width="2" stroke-miterlimit="10" stroke-linecap="round" stroke-linejoin="round"/>
<path d="M66.8198 27.3698C66.8198 27.3698 75.244 23.3661 83.0355 27.8234C90.8243 32.2795 99.6896 43.9164 111.878 46.9646C124.064 50.0122 143.264 53.4855 160.465 58.4701C188.227 66.5169 222.822 52.8512 233.742 48.5119" stroke="white" stroke-width="2" stroke-miterlimit="10" stroke-linecap="round" stroke-linejoin="round"/>
<path d="M140.625 59.8392C140.625 59.8392 154.843 66.9913 161.722 58.8164" stroke="white" stroke-width="2" stroke-miterlimit="10" stroke-linecap="round" stroke-linejoin="round"/>
<path d="M173.167 52.3071C173.167 52.3071 175.939 56.062 183.329 55.5492C190.721 55.0374 197.481 54.3492 204.612 58.1843" stroke="white" stroke-width="2" stroke-miterlimit="10" stroke-linecap="round" stroke-linejoin="round"/>
<path d="M215.545 48.3273C215.545 48.3273 219.692 53.9126 224.891 51.4429" stroke="white" stroke-width="2" stroke-miterlimit="10" stroke-linecap="round" stroke-linejoin="round"/>
<path d="M120.905 42.2703C120.905 42.2703 122.222 47.9758 132.201 51.5305" stroke="white" stroke-width="2" stroke-miterlimit="10" stroke-linecap="round" stroke-linejoin="round"/>
<path d="M82.979 19.8279C82.979 19.8279 100.264 25.2162 98.3838 39.9489" stroke="white" stroke-width="2" stroke-miterlimit="10" stroke-linecap="round" stroke-linejoin="round"/>
<path d="M83.5513 53.1759C83.5513 53.1759 87.2366 47.9671 95.0637 48.2377C98.6179 48.3609 102.229 49.3053 105.731 49.8815C109.937 50.5756 113.986 50.7405 117.596 48.3203" stroke="white" stroke-width="2" stroke-miterlimit="10" stroke-linecap="round" stroke-linejoin="round"/>
<path d="M92.6358 62.2299C92.6358 62.2299 91.0355 50.28 103.901 49.554" stroke="white" stroke-width="2" stroke-miterlimit="10" stroke-linecap="round" stroke-linejoin="round"/>
<path d="M140.165 59.9125C140.165 59.9125 131.572 71.4719 113.563 64.1303C113.563 64.1303 118.714 62.3624 120.227 60.8203C121.74 59.2759 130.06 55.7039 140.165 59.9125Z" fill="white" stroke="white" stroke-width="2" stroke-miterlimit="10" stroke-linecap="round" stroke-linejoin="round"/>
<path d="M172.708 52.3796C172.708 52.3796 163.809 48.8825 160.692 48.771C154.726 48.5578 147.416 49.4529 141.867 39.1271C141.867 39.1271 146.732 37.9474 151.032 37.6738C160.379 37.082 168.24 40.6372 172.708 52.3796Z" fill="white" stroke="white" stroke-width="2" stroke-miterlimit="10" stroke-linecap="round" stroke-linejoin="round"/>
<path d="M186.906 38.3893C186.906 38.3893 197.315 50.2229 215.086 48.4008C215.086 48.4008 212.276 45.3945 211.227 43.2484C210.179 41.1023 202.945 35.8464 197.407 36.7246C191.87 37.6023 190.98 38.9887 186.906 38.3893Z" fill="white" stroke="white" stroke-width="2" stroke-miterlimit="10" stroke-linecap="round" stroke-linejoin="round"/>
<path d="M81.3105 80.4208C81.3105 80.4208 98.6948 77.3593 92.1956 62.4593C92.1956 62.4593 84.5527 65.2542 83.9913 71.7281C83.4285 78.2003 82.4596 78.313 81.3105 80.4208Z" fill="white" stroke="white" stroke-width="2" stroke-miterlimit="10" stroke-linecap="round" stroke-linejoin="round"/>
<path d="M53.8325 63.2249C53.8325 63.2249 73.4457 70.0757 83.0936 53.2487C83.093 53.2487 72.2993 45.177 53.8325 63.2249Z" fill="white" stroke="white" stroke-width="2" stroke-miterlimit="10" stroke-linecap="round" stroke-linejoin="round"/>
<path d="M120.445 42.3435C120.445 42.3435 116.627 34.5913 113.334 32.0908C110.038 29.5892 103.889 18.2916 104.518 11.9676C104.518 11.9676 109.897 15.9166 112.289 16.9603C114.682 18.0023 123.986 21.8939 120.445 42.3435Z" fill="white" stroke="white" stroke-width="2" stroke-miterlimit="10" stroke-linecap="round" stroke-linejoin="round"/>
<path d="M33.9663 25.4655C33.9663 25.4655 48.136 35.4916 66.36 27.4431C66.36 27.4431 57.3865 20.5063 52.3934 20.231C47.401 19.9551 43.1839 22.4022 33.9663 25.4655Z" fill="white" stroke="white" stroke-width="2" stroke-miterlimit="10" stroke-linecap="round" stroke-linejoin="round"/>
<path d="M82.5197 19.9005C82.5197 19.9005 66.6772 17.7886 58.4346 5.93347C58.4346 5.93347 61.746 6.65314 66.4016 6.27096C71.0557 5.88878 83.5431 8.00004 82.5197 19.9005Z" fill="white" stroke="white" stroke-width="2" stroke-miterlimit="10" stroke-linecap="round" stroke-linejoin="round"/>
<path d="M306.667 777.253C306.667 777.253 305.652 761.865 293.475 761.706C281.298 761.546 279.343 758.564 279.343 758.564C279.343 758.564 288.261 776.348 306.667 777.253Z" fill="white" stroke="white" stroke-width="2" stroke-miterlimit="10" stroke-linecap="round" stroke-linejoin="round"/>
<path d="M172.891 793.679C172.891 793.679 131.529 788.102 109.721 811.767C87.9124 835.433 69.2748 843.712 59.2188 846.084" stroke="white" stroke-width="2" stroke-miterlimit="10" stroke-linecap="round" stroke-linejoin="round"/>
<path d="M142.487 811.823C142.487 811.823 143.435 796.779 159.199 793.15" stroke="white" stroke-width="2" stroke-miterlimit="10" stroke-linecap="round" stroke-linejoin="round"/>
<path d="M97.3667 795.891C97.3667 795.891 112.475 808.241 127.542 799.484" stroke="white" stroke-width="2" stroke-miterlimit="10" stroke-linecap="round" stroke-linejoin="round"/>
<path d="M92.042 816.53C92.042 816.53 103.247 817.586 109.721 811.767" stroke="white" stroke-width="2" stroke-miterlimit="10" stroke-linecap="round" stroke-linejoin="round"/>
<path d="M99.3369 840.39C99.3369 840.39 100.156 833.94 105.15 830.068C110.143 826.196 116.735 819.161 112.233 810.212" stroke="white" stroke-width="2" stroke-miterlimit="10" stroke-linecap="round" stroke-linejoin="round"/>
<path d="M97.8211 795.8C97.8211 795.8 91.6548 783.206 75.0142 791.744C75.0142 791.744 85.4575 800.968 97.8211 795.8Z" fill="white" stroke="white" stroke-width="2" stroke-miterlimit="10" stroke-linecap="round" stroke-linejoin="round"/>
<path d="M142.941 811.732C142.941 811.732 138.248 814.287 135.032 814.93C131.817 815.574 122.166 818.223 122.053 831.175C122.053 831.175 130.822 830.439 136.087 825.555C141.353 820.669 142.941 811.732 142.941 811.732Z" fill="white" stroke="white" stroke-width="2" stroke-miterlimit="10" stroke-linecap="round" stroke-linejoin="round"/>
<path d="M92.496 816.439C92.496 816.439 80.4053 806.647 64.856 819.995C64.856 819.995 77.7125 828.555 92.496 816.439Z" fill="white" stroke="white" stroke-width="2" stroke-miterlimit="10" stroke-linecap="round" stroke-linejoin="round"/>
<path d="M99.792 840.299C99.792 840.299 83.392 848.25 94.8494 865.71C94.8494 865.71 95.7201 864.1 98.1232 858.77C100.526 853.44 101.431 847.154 99.792 840.299Z" fill="white" stroke="white" stroke-width="2" stroke-miterlimit="10" stroke-linecap="round" stroke-linejoin="round"/>
<path d="M59.6727 845.993C59.6727 845.993 55.1281 847.621 48.9517 846.881C42.7759 846.141 31.9843 849.737 24.7744 859.262C24.7744 859.262 33.6753 856.043 36.8772 856.839C40.079 857.635 51.3817 860.402 59.6727 845.993Z" fill="white" stroke="white" stroke-width="2" stroke-miterlimit="10" stroke-linecap="round" stroke-linejoin="round"/>
<path d="M180.082 993.682C180.082 993.682 185.854 1002.78 198.757 1000.91" stroke="white" stroke-width="2" stroke-miterlimit="10" stroke-linecap="round" stroke-linejoin="round"/>
<path d="M183.575 992.708C183.575 992.708 192.654 1000.21 204.097 1002.43C215.541 1004.64 224.34 1003.52 235.988 998.952C247.634 994.382 282.315 977.588 318.294 993.682" stroke="white" stroke-width="2" stroke-miterlimit="10" stroke-linecap="round" stroke-linejoin="round"/>
<path d="M224.341 1012.4C224.341 1012.4 238.056 1007.5 242.588 996.273" stroke="white" stroke-width="2" stroke-miterlimit="10" stroke-linecap="round" stroke-linejoin="round"/>
<path d="M284.615 996.419C284.615 996.419 288.592 992.67 293.737 992.708C298.885 992.748 306.763 994.265 311.625 991.058" stroke="white" stroke-width="2" stroke-miterlimit="10" stroke-linecap="round" stroke-linejoin="round"/>
<path d="M207.589 995.965C207.589 995.965 216.68 1007.2 233.213 1000.77" stroke="white" stroke-width="2" stroke-miterlimit="10" stroke-linecap="round" stroke-linejoin="round"/>
<path d="M243.674 987.384C243.674 987.384 249.044 992.866 262.625 990.502" stroke="white" stroke-width="2" stroke-miterlimit="10" stroke-linecap="round" stroke-linejoin="round"/>
<path d="M254.449 1008.49C254.449 1008.49 277.354 1014.44 284.149 996.418C284.149 996.419 272.113 990.295 254.449 1008.49Z" fill="white" stroke="white" stroke-width="2" stroke-miterlimit="10" stroke-linecap="round" stroke-linejoin="round"/>
<path d="M197.861 1025.64C197.861 1025.64 219.603 1032.87 223.874 1012.4C223.874 1012.4 213.198 1010.83 207.568 1017.65C201.939 1024.47 200.774 1024.01 197.861 1025.64Z" fill="white" stroke="white" stroke-width="2" stroke-miterlimit="10" stroke-linecap="round" stroke-linejoin="round"/>
<path d="M209.51 997.88C210.026 998.178 193.009 994.032 193.009 982.835C193.009 971.639 189.903 971.289 189.903 971.289C189.903 971.289 201.357 973.389 203.298 978.462C205.239 983.535 204.656 995.081 209.51 997.88Z" fill="white" stroke="white" stroke-width="2" stroke-miterlimit="10" stroke-linecap="round" stroke-linejoin="round"/>
<path d="M243.674 987.384C243.674 987.384 227.562 986.859 219.603 964.641C219.603 964.641 226.922 965.552 231.638 967.79C239.015 971.289 242.898 978.637 243.674 987.384Z" fill="white" stroke="white" stroke-width="2" stroke-miterlimit="10" stroke-linecap="round" stroke-linejoin="round"/>
<path d="M179.615 993.682C179.615 993.682 172.821 993.682 169.132 996.13C165.444 998.58 155.932 1002.6 144.091 991.932C144.091 991.932 148.556 991.932 152.147 989.482C155.738 987.034 171.074 982.486 179.615 993.682Z" fill="white" stroke="white" stroke-width="2" stroke-miterlimit="10" stroke-linecap="round" stroke-linejoin="round"/>
<path d="M183.108 992.708C183.108 992.708 168.229 991.506 166.996 977.762C166.996 977.762 169.715 980.911 172.821 981.261C175.926 981.611 181.751 985.088 183.108 992.708Z" fill="white" stroke="white" stroke-width="2" stroke-miterlimit="10" stroke-linecap="round" stroke-linejoin="round"/>
<path d="M182.834 126.043C182.834 126.043 164.271 118.769 144.486 129.332C124.7 139.894 123.585 134.766 115.947 131.778C108.311 128.789 89.392 125.626 76.1704 140.045" stroke="white" stroke-width="2" stroke-miterlimit="10" stroke-linecap="round" stroke-linejoin="round"/>
<path d="M54.9829 136.314C54.9829 136.314 63.8031 130.435 70.2942 133.199C76.7867 135.961 84.4673 133.473 84.4673 133.473" stroke="white" stroke-width="2" stroke-miterlimit="10" stroke-linecap="round" stroke-linejoin="round"/>
<path d="M84.1528 123.556C84.1528 123.556 90.7677 128.601 102.779 129.259" stroke="white" stroke-width="2" stroke-miterlimit="10" stroke-linecap="round" stroke-linejoin="round"/>
<path d="M122.967 115.818C122.967 115.818 126.696 130.036 147.517 127.846" stroke="white" stroke-width="2" stroke-miterlimit="10" stroke-linecap="round" stroke-linejoin="round"/>
<path d="M162.631 123.843C162.631 123.843 159.251 124.458 155.173 127.092C152.074 129.094 150.303 130.618 147.574 135.569" stroke="white" stroke-width="2" stroke-miterlimit="10" stroke-linecap="round" stroke-linejoin="round"/>
<path d="M158.41 148.337C158.41 148.337 154.4 131.141 170.652 123.799" stroke="white" stroke-width="2" stroke-miterlimit="10" stroke-linecap="round" stroke-linejoin="round"/>
<path d="M118.999 93.6218C118.999 93.6218 131.101 102.478 123.435 115.816C123.435 115.816 112.324 109.755 118.999 93.6218Z" fill="white" stroke="white" stroke-width="2" stroke-miterlimit="10" stroke-linecap="round" stroke-linejoin="round"/>
<path d="M84.6188 123.554C84.6188 123.554 82.8955 120.064 81.6731 112.374C80.4514 104.682 70.7201 101.413 61.7876 100.938C61.7876 100.937 67.4577 119.625 84.6188 123.554Z" fill="white" stroke="white" stroke-width="2" stroke-miterlimit="10" stroke-linecap="round" stroke-linejoin="round"/>
<path d="M55.4495 136.312C55.4495 136.312 53.1117 135.275 51.1564 133.361C49.2005 131.448 41.9872 127.29 33.871 132.233C25.7554 137.176 24.7966 138.931 21.4966 138.774C21.4959 138.774 44.2552 145.122 55.4495 136.312Z" fill="white" stroke="white" stroke-width="2" stroke-miterlimit="10" stroke-linecap="round" stroke-linejoin="round"/>
<path d="M76.6369 140.043C76.6369 140.043 65.5434 136.256 53.8857 160.989C53.8857 160.989 56.5934 159.748 62.2131 158.317C67.8322 156.887 72.6618 153.886 76.6369 140.043Z" fill="white" stroke="white" stroke-width="2" stroke-miterlimit="10" stroke-linecap="round" stroke-linejoin="round"/>
<path d="M148.038 135.099C148.038 135.099 143.92 138.303 137.716 139.488C131.514 140.673 127.715 146.176 126.306 151.083C124.898 155.988 122.706 157.167 122.706 157.167C122.706 157.167 132.406 156.531 138.715 152.064C145.025 147.596 144.578 139.784 148.042 135.566" fill="white"/>
<path d="M148.038 135.099C148.038 135.099 143.92 138.303 137.716 139.488C131.514 140.673 127.715 146.176 126.306 151.083C124.898 155.988 122.706 157.167 122.706 157.167C122.706 157.167 132.406 156.531 138.715 152.064C145.025 147.596 144.578 139.784 148.042 135.566" stroke="white" stroke-width="2" stroke-miterlimit="10" stroke-linecap="round" stroke-linejoin="round"/>
<path d="M158.876 148.335C158.876 148.335 166.481 161.588 154.649 171.684C154.649 171.684 148.725 158.304 158.487 148.337" fill="white"/>
<path d="M158.876 148.335C158.876 148.335 166.481 161.588 154.649 171.684C154.649 171.684 148.725 158.304 158.487 148.337" stroke="white" stroke-width="2" stroke-miterlimit="10" stroke-linecap="round" stroke-linejoin="round"/>
<path d="M101.361 654.037C101.361 654.037 106.639 644.954 114.309 646.264" stroke="white" stroke-width="2" stroke-miterlimit="10" stroke-linecap="round" stroke-linejoin="round"/>
<path d="M178.851 644.138C178.851 644.138 132.907 663.236 109.027 642.308C85.1465 621.383 59.8988 610.207 36.8101 617.167" stroke="white" stroke-width="2" stroke-miterlimit="10" stroke-linecap="round" stroke-linejoin="round"/>
<path d="M130.656 635.353C130.656 635.353 139.413 638.286 143.744 651.996" stroke="white" stroke-width="2" stroke-miterlimit="10" stroke-linecap="round" stroke-linejoin="round"/>
<path d="M139.449 665.282C139.449 665.282 144.367 656.187 152.711 654.697C161.056 653.209 168.302 648.365 168.302 648.365" stroke="white" stroke-width="2" stroke-miterlimit="10" stroke-linecap="round" stroke-linejoin="round"/>
<path d="M81.5195 604.464C81.5195 604.464 83.7888 606.48 87.0955 608.887C91.2939 611.945 98.4399 620.294 93.6599 629.749" stroke="white" stroke-width="2" stroke-miterlimit="10" stroke-linecap="round" stroke-linejoin="round"/>
<path d="M77.8375 621.436C77.8375 621.436 65.2587 621.421 61.7422 630.146" stroke="white" stroke-width="2" stroke-miterlimit="10" stroke-linecap="round" stroke-linejoin="round"/>
<path d="M115.866 613.578C115.866 613.578 118.088 618.186 121.076 618.962C124.065 619.738 134.035 625.698 131.141 635.266C131.141 635.266 111.635 632.791 115.866 613.578Z" fill="white" stroke="white" stroke-width="2" stroke-miterlimit="10" stroke-linecap="round" stroke-linejoin="round"/>
<path d="M66.773 584.363C66.773 584.363 67.8118 587.75 69.6696 589.205C72.5178 591.435 82.6263 595.349 80.675 605.343C80.6744 605.344 60.6517 601.772 66.773 584.363Z" fill="white" stroke="white" stroke-width="2" stroke-miterlimit="10" stroke-linecap="round" stroke-linejoin="round"/>
<path d="M38.0577 616.389C38.0577 616.389 34.4551 617.629 28.7769 616.141C23.0987 614.654 16.1457 618.395 13.91 620.759C11.6744 623.124 7.08005 623.827 6.35254 623.716C6.35254 623.716 15.9769 629.738 23.8726 627.021C32.0924 624.191 31.6171 622.082 38.0577 616.389Z" fill="white" stroke="white" stroke-width="2" stroke-miterlimit="10" stroke-linecap="round" stroke-linejoin="round"/>
<path d="M62.2279 630.059C62.2279 630.059 51.3602 629.138 47.5378 635.419C43.716 641.7 44.7535 649.376 37.6519 650.522C37.6519 650.522 64.21 649.476 62.2279 630.059Z" fill="white" stroke="white" stroke-width="2" stroke-miterlimit="10" stroke-linecap="round" stroke-linejoin="round"/>
<path d="M139.933 665.195C139.933 665.195 129.095 659.806 110.523 677.054C110.523 677.054 132.176 680.693 139.933 665.195Z" fill="white" stroke="white" stroke-width="2" stroke-miterlimit="10" stroke-linecap="round" stroke-linejoin="round"/>
<path d="M101.847 653.951C101.847 653.951 100.411 658.495 100.138 660.866C99.864 663.237 99.0982 674.092 79.7734 673.254C79.7734 673.254 84.7275 671.477 85.34 668.151C85.9539 664.826 93.498 654.19 101.847 653.951Z" fill="white" stroke="white" stroke-width="2" stroke-miterlimit="10" stroke-linecap="round" stroke-linejoin="round"/>
<path d="M167.174 543.946C167.174 543.946 146.217 542.939 139.058 552.144C131.897 561.35 129.768 564.432 129.768 564.432" stroke="white" stroke-width="2" stroke-miterlimit="10" stroke-linecap="round" stroke-linejoin="round"/>
<path d="M110.948 543.635C110.948 543.635 133.315 552.645 142.569 548.992" stroke="white" stroke-width="2" stroke-miterlimit="10" stroke-linecap="round" stroke-linejoin="round"/>
<path d="M88.1353 558.467C88.1353 558.467 104.048 559.233 115.616 553.929C127.185 548.623 133.499 549.677 133.499 549.677" stroke="white" stroke-width="2" stroke-miterlimit="10" stroke-linecap="round" stroke-linejoin="round"/>
<path d="M66.4907 532.422C66.4907 532.422 78.777 534.121 84.8351 540.525C90.8933 546.931 112.479 553.48 123.35 551.011" stroke="white" stroke-width="2" stroke-miterlimit="10" stroke-linecap="round" stroke-linejoin="round"/>
<path d="M54.0581 510.899C54.0581 510.899 63.2535 517.18 70.2919 518.693C77.331 520.206 85.4117 529.266 84.8341 540.525" stroke="white" stroke-width="2" stroke-miterlimit="10" stroke-linecap="round" stroke-linejoin="round"/>
<path d="M36.6126 486.287C36.6126 486.287 38.7239 489.819 43.6591 490.967C48.5951 492.114 59.0128 497.978 54.522 510.941C54.522 510.941 34.6143 501.234 36.6126 486.287Z" fill="white" stroke="white" stroke-width="2" stroke-miterlimit="10" stroke-linecap="round" stroke-linejoin="round"/>
<path d="M66.9543 532.463C66.9543 532.463 52.8855 524.513 23.3198 528.536C23.3198 528.536 30.2473 530.743 35.8563 533.709C41.4646 536.677 52.9064 540.521 66.9543 532.463Z" fill="white" stroke="white" stroke-width="2" stroke-miterlimit="10" stroke-linecap="round" stroke-linejoin="round"/>
<path d="M88.5996 558.508C88.5996 558.508 84.9062 556.769 83.076 554.142C81.2458 551.515 71.5837 547.479 54.1147 551.535C54.1147 551.535 70.2323 563.539 88.5996 558.508Z" fill="white" stroke="white" stroke-width="2" stroke-miterlimit="10" stroke-linecap="round" stroke-linejoin="round"/>
<path d="M111.412 543.676C112.239 543.836 116.114 532.667 96.6624 525.638C96.6624 525.638 96.294 540.732 111.412 543.676Z" fill="white" stroke="white" stroke-width="2" stroke-miterlimit="10" stroke-linecap="round" stroke-linejoin="round"/>
<path d="M130.232 564.474C130.232 564.474 125.641 566.943 122.38 566.474C119.119 566.004 111.392 567.418 108.451 572.959C105.511 578.499 103.689 579.038 103.689 579.038C103.689 579.038 130.857 578.708 130.232 564.474Z" fill="white" stroke="white" stroke-width="2" stroke-miterlimit="10" stroke-linecap="round" stroke-linejoin="round"/>
<path d="M186.744 465.599C186.744 465.599 180.8 467.066 175.965 471.771C171.13 476.477 167.207 479.701 167.207 479.701" stroke="white" stroke-width="2" stroke-miterlimit="10" stroke-linecap="round" stroke-linejoin="round"/>
<path d="M167.03 480.075C167.03 480.075 157.107 475.237 151.668 478.513C146.23 481.785 142.439 486.086 136.662 486.861C136.661 486.861 157.55 491.721 167.03 480.075Z" fill="white" stroke="white" stroke-width="2" stroke-miterlimit="10" stroke-linecap="round" stroke-linejoin="round"/>
<path d="M137.593 308.602C137.079 308.904 145.824 309.608 150.405 310.527C159.141 312.277 163.411 311.226 169.914 303.528C169.914 303.528 158.753 296.181 137.593 308.602Z" fill="white" stroke="white" stroke-width="2" stroke-miterlimit="10" stroke-linecap="round" stroke-linejoin="round"/>
<path d="M162.634 324.872C162.634 324.872 169.041 324.293 172.729 325.806C176.417 327.32 184.959 331.869 191.171 326.621C191.171 326.621 187.288 325.806 183.988 322.947C182.235 321.428 178.552 316.124 162.634 324.872Z" fill="white" stroke="white" stroke-width="2" stroke-miterlimit="10" stroke-linecap="round" stroke-linejoin="round"/>
<path d="M183.211 307.815C183.211 307.815 173.699 307.027 172.341 299.505C170.982 291.982 161.665 289.008 161.665 289.008C161.665 289.008 186.899 292.508 183.211 307.815Z" fill="white" stroke="white" stroke-width="2" stroke-miterlimit="10" stroke-linecap="round" stroke-linejoin="round"/>
<path d="M208.059 369.811C208.059 369.811 215.235 369.811 217.185 369.132C220.048 368.137 223.164 367.558 227.938 368.258C232.713 368.957 238.535 367.732 240.477 366.333C240.477 366.333 235.042 365.109 233.101 363.184C231.159 361.26 221.841 355.794 208.059 369.811Z" fill="white" stroke="white" stroke-width="2" stroke-miterlimit="10" stroke-linecap="round" stroke-linejoin="round"/>
<path d="M318.288 40.1556C318.288 40.1556 297.656 61.1396 283.806 52.0538C275.027 46.2949 271.566 37.6569 261.085 40.7184C253.766 42.8553 248.923 47.1743 248.923 47.1743" stroke="white" stroke-width="2" stroke-miterlimit="10" stroke-linecap="round" stroke-linejoin="round"/>
<path d="M260.558 31.716C260.558 31.716 266.376 30.7362 269.353 33.056C272.329 35.3758 273.44 44.3822 276.509 46.0265" stroke="white" stroke-width="2" stroke-miterlimit="10" stroke-linecap="round" stroke-linejoin="round"/>
<path d="M299.102 53.6453C299.102 53.6453 289.115 47.6703 285.804 35.9945" stroke="white" stroke-width="2" stroke-miterlimit="10" stroke-linecap="round" stroke-linejoin="round"/>
<path d="M249.383 47.2452C249.383 47.2452 235.782 55.1212 220.644 41.2679C220.644 41.2679 225.467 42.7531 230.377 40.9049C235.288 39.0578 244.092 41.2871 249.383 47.2452Z" fill="white" stroke="white" stroke-width="2" stroke-miterlimit="10" stroke-linecap="round" stroke-linejoin="round"/>
<path d="M261.018 31.7859C261.459 32.3563 243.829 36.8071 236.697 16.7117C236.697 16.7117 252.594 20.9105 261.018 31.7859Z" fill="white" stroke="white" stroke-width="2" stroke-miterlimit="10" stroke-linecap="round" stroke-linejoin="round"/>
<path d="M287.063 38.4196C287.063 38.4196 276.342 35.8976 275.973 29.9795C275.605 24.0615 274.387 20.8547 271.272 18.2491C271.273 18.2485 289.545 22.4015 287.063 38.4196Z" fill="white" stroke="white" stroke-width="2" stroke-miterlimit="10" stroke-linecap="round" stroke-linejoin="round"/>
<path d="M180.86 576.422C180.86 576.422 182.293 568.611 190.804 562.411C199.315 556.211 209.602 552.709 209.86 547.829" stroke="white" stroke-width="2" stroke-miterlimit="10" stroke-linecap="round" stroke-linejoin="round"/>
<path d="M226.932 556.155C226.932 556.155 239.286 556.57 241.374 552.101" stroke="white" stroke-width="2" stroke-miterlimit="10" stroke-linecap="round" stroke-linejoin="round"/>
<path d="M217.546 539.585C217.546 539.585 226.281 543.234 231.453 550.334" stroke="white" stroke-width="2" stroke-miterlimit="10" stroke-linecap="round" stroke-linejoin="round"/>
<path d="M177.682 556.125C177.682 556.125 178.028 554.535 183.385 554.278C188.743 554.024 196.138 552.924 198.875 549.015" stroke="white" stroke-width="2" stroke-miterlimit="10" stroke-linecap="round" stroke-linejoin="round"/>
<path d="M184.267 551.015C184.267 551.015 190.007 551.134 192.773 550.26C195.539 549.384 210.339 545.364 221.893 548.451C233.447 551.537 235.961 549.679 255.423 554.742C274.885 559.805 306.746 560.872 314.963 537.09" stroke="white" stroke-width="2" stroke-miterlimit="10" stroke-linecap="round" stroke-linejoin="round"/>
<path d="M273.437 543.51C273.437 543.51 292.313 555.512 305.637 550.06" stroke="white" stroke-width="2" stroke-miterlimit="10" stroke-linecap="round" stroke-linejoin="round"/>
<path d="M272.223 561.559C272.223 561.559 272.373 559.301 279.143 557.684" stroke="white" stroke-width="2" stroke-miterlimit="10" stroke-linecap="round" stroke-linejoin="round"/>
<path d="M306.683 554.961C306.683 554.961 311.409 551.843 309.464 547.331" stroke="white" stroke-width="2" stroke-miterlimit="10" stroke-linecap="round" stroke-linejoin="round"/>
<path d="M312.677 551.302C312.677 551.302 307.784 557.204 310.12 562.977C312.459 568.75 313.076 572.139 312.053 573.756C311.026 575.38 311.677 574.349 311.677 574.349C311.677 574.349 326.239 564.102 312.677 551.302Z" fill="white" stroke="white" stroke-width="2" stroke-miterlimit="10" stroke-linecap="round" stroke-linejoin="round"/>
<path d="M286.401 580.339C286.585 581.17 286.874 574.532 293.159 573.091C299.443 571.65 309.566 564.697 306.39 555.275C306.39 555.275 302.847 556.886 300.31 557.611C291.096 560.243 283.632 567.969 286.401 580.339Z" fill="white" stroke="white" stroke-width="2" stroke-miterlimit="10" stroke-linecap="round" stroke-linejoin="round"/>
<path d="M250.749 579.273C250.749 579.273 252.595 575.376 258.876 575.093C265.161 574.807 273.532 574.491 271.929 561.873C271.929 561.873 269.047 567.609 263.124 567.731C257.201 567.852 249.524 572.26 250.749 579.273Z" fill="white" stroke="white" stroke-width="2" stroke-miterlimit="10" stroke-linecap="round" stroke-linejoin="round"/>
<path d="M169.688 603.187C169.688 603.187 178.995 597.389 180.648 591.433C182.3 585.477 178.885 579.657 180.568 576.736C180.568 576.736 169.95 582.267 169.775 590.543C169.6 598.819 170.876 598.845 169.688 603.187Z" fill="white" stroke="white" stroke-width="2" stroke-miterlimit="10" stroke-linecap="round" stroke-linejoin="round"/>
<path d="M148.801 580.686C148.801 580.686 154.542 572.194 159.853 571.152C165.164 570.109 177.589 566.266 176.71 556.611C176.71 556.611 176.36 556.149 170.631 556.689C157.547 557.92 144.213 566.083 148.801 580.686Z" fill="white" stroke="white" stroke-width="2" stroke-miterlimit="10" stroke-linecap="round" stroke-linejoin="round"/>
<path d="M183.974 551.33C183.974 551.33 177.747 554.103 171.46 550.806C165.173 547.508 155.456 546.776 155.456 546.776C155.456 546.776 174.95 537.301 183.974 551.33Z" fill="white" stroke="white" stroke-width="2" stroke-miterlimit="10" stroke-linecap="round" stroke-linejoin="round"/>
<path d="M225.722 556.476C225.722 556.476 224.601 564.093 220.811 566.624C217.021 569.155 203.412 569.807 201.782 576.854C201.782 576.854 208.485 554.604 225.722 556.476Z" fill="white" stroke="white" stroke-width="2" stroke-miterlimit="10" stroke-linecap="round" stroke-linejoin="round"/>
<path d="M217.253 539.899C217.253 539.899 201.468 527.545 187.505 535.27C187.505 535.27 191.832 535.266 197.948 538.659C204.063 542.054 214.192 541.511 217.253 539.899Z" fill="white" stroke="white" stroke-width="2" stroke-miterlimit="10" stroke-linecap="round" stroke-linejoin="round"/>
<path d="M273.143 543.824C273.143 543.824 263.455 546.126 256.388 544.224C250.163 542.546 240.612 540.783 239.043 541.63C239.043 541.631 252.001 527.176 273.143 543.824Z" fill="white" stroke="white" stroke-width="2" stroke-miterlimit="10" stroke-linecap="round" stroke-linejoin="round"/>
<path d="M170.237 749.954C170.237 749.954 188.098 759.4 201.491 751.878C201.491 751.878 199.517 748.917 198.579 748.204C195.977 746.226 190.232 741.731 182.856 745.93C175.48 750.128 170.237 749.954 170.237 749.954Z" fill="white" stroke="white" stroke-width="2" stroke-miterlimit="10" stroke-linecap="round" stroke-linejoin="round"/>
<path d="M182.856 719.163C182.856 719.163 191.689 734.908 212.763 734.034C212.763 734.034 210.76 727.263 206.539 724.062C198.191 717.734 194.503 724.587 182.856 719.163Z" fill="white" stroke="white" stroke-width="2" stroke-miterlimit="10" stroke-linecap="round" stroke-linejoin="round"/>
<path d="M197.809 771.122C197.809 771.122 205.18 772.346 207.51 768.322C209.839 764.299 214.303 756.951 225.369 758.526C225.369 758.526 222.274 778.994 197.809 771.122Z" fill="white" stroke="white" stroke-width="2" stroke-miterlimit="10" stroke-linecap="round" stroke-linejoin="round"/>
<path d="M253.905 744.88C253.905 744.88 251.768 740.857 246.916 739.107C242.063 737.358 235.269 731.093 234.88 726.615C234.88 726.615 237.404 728.796 242.064 728.703C246.722 728.61 255.652 732.459 253.905 744.88Z" fill="white" stroke="white" stroke-width="2" stroke-miterlimit="10" stroke-linecap="round" stroke-linejoin="round"/>
<path d="M256.006 389.106C256.006 389.106 261.636 388.436 265.518 389.106C269.4 389.776 277.463 390.125 279.547 374.381C279.547 374.381 269.013 374.555 266.489 380.153C263.965 385.752 262.218 386.687 256.006 389.106Z" fill="white" stroke="white" stroke-width="2" stroke-miterlimit="10" stroke-linecap="round" stroke-linejoin="round"/>
<path d="M165.96 105.18C165.96 105.18 175.071 115.024 182.75 114.564C190.426 114.103 195.6 119.618 198.294 123.949" stroke="white" stroke-width="2" stroke-miterlimit="10" stroke-linecap="round" stroke-linejoin="round"/>
<path d="M173.005 117.898C173.005 117.898 180.995 118.637 184.102 114.545" stroke="white" stroke-width="2" stroke-miterlimit="10" stroke-linecap="round" stroke-linejoin="round"/>
<path d="M186.116 106.531C186.116 106.531 186.176 109.69 188.554 111.673C190.938 113.658 194.653 118.087 195.554 120.387" stroke="white" stroke-width="2" stroke-miterlimit="10" stroke-linecap="round" stroke-linejoin="round"/>
<path d="M173.426 118.072C173.426 118.072 167.387 113.009 161.753 113.305C156.121 113.603 152.783 113.219 151.145 112.067C149.493 110.909 150.54 111.642 150.54 111.642C150.54 111.642 161.249 124.9 173.426 118.072Z" fill="white" stroke="white" stroke-width="2" stroke-miterlimit="10" stroke-linecap="round" stroke-linejoin="round"/>
<path d="M140.777 84.4406C139.96 84.3727 146.548 86.2214 148.217 91.2095C149.882 96.1936 157.161 105.369 166.381 105.355C166.381 105.355 164.645 102.347 163.832 100.299C160.873 92.8614 152.931 85.4536 140.777 84.4406Z" fill="white" stroke="white" stroke-width="2" stroke-miterlimit="10" stroke-linecap="round" stroke-linejoin="round"/>
<path d="M168.805 84.5544C168.805 84.5544 175.216 89.4798 175.678 93.3632C176.14 97.2524 179.735 103.441 186.536 106.705C186.536 106.705 185.2 102.023 185.695 100.643C186.181 99.2656 185.689 89.6872 168.805 84.5544Z" fill="white" stroke="white" stroke-width="2" stroke-miterlimit="10" stroke-linecap="round" stroke-linejoin="round"/>
<path d="M198.741 339.568C198.741 339.568 211.941 354.973 224.267 352.169C224.267 352.169 221.11 350.865 219.123 347.439C215.981 342.018 214.355 340.975 210.23 340.266C206.515 339.629 199.905 340.442 198.741 339.568Z" fill="white" stroke="white" stroke-width="2" stroke-miterlimit="10" stroke-linecap="round" stroke-linejoin="round"/>
<path d="M231.926 339.568C231.926 339.568 236.788 339.743 238.73 341.666C240.671 343.591 248.241 347.166 254.259 343.542C254.259 343.542 247.641 332.744 231.926 339.568Z" fill="white" stroke="white" stroke-width="2" stroke-miterlimit="10" stroke-linecap="round" stroke-linejoin="round"/>
<path d="M224.868 477.313C224.868 477.313 236.352 490.732 254.792 486.552C273.233 482.372 299.634 475.313 319.822 487.357" stroke="white" stroke-width="2" stroke-miterlimit="10" stroke-linecap="round" stroke-linejoin="round"/>
<path d="M276.78 485.091C276.78 485.091 281.324 480.554 289.732 480.717" stroke="white" stroke-width="2" stroke-miterlimit="10" stroke-linecap="round" stroke-linejoin="round"/>
<path d="M237.258 488.979C237.258 488.979 240.619 486.986 242.305 487.264" stroke="white" stroke-width="2" stroke-miterlimit="10" stroke-linecap="round" stroke-linejoin="round"/>
<path d="M256.53 481.402C256.53 481.402 258.62 485.311 267.877 483.63" stroke="white" stroke-width="2" stroke-miterlimit="10" stroke-linecap="round" stroke-linejoin="round"/>
<path d="M256.063 481.4C256.063 481.4 246.221 482.72 242.318 476.601C238.411 470.481 230.246 468.906 230.246 468.906C230.246 468.906 254.134 465.283 256.063 481.4Z" fill="white" stroke="white" stroke-width="2" stroke-miterlimit="10" stroke-linecap="round" stroke-linejoin="round"/>
<path d="M224.402 477.312C224.402 477.312 215.435 483.063 208.471 477.25C201.507 471.432 192.702 472.946 192.702 472.946C192.702 472.946 214.249 458.479 224.402 477.312Z" fill="white" stroke="white" stroke-width="2" stroke-miterlimit="10" stroke-linecap="round" stroke-linejoin="round"/>
<path d="M213.175 496.564C213.175 496.564 217.382 493.066 222.072 494.114C226.761 495.164 234.525 494.465 236.466 488.516C236.466 488.516 220.943 485.367 213.175 496.564Z" fill="white" stroke="white" stroke-width="2" stroke-miterlimit="10" stroke-linecap="round" stroke-linejoin="round"/>
<path d="M262.285 501.886C262.285 501.886 264.718 491.739 276.313 485.091C276.313 485.091 279.368 497.861 262.285 501.886Z" fill="white" stroke="white" stroke-width="2" stroke-miterlimit="10" stroke-linecap="round" stroke-linejoin="round"/>
<path d="M206.06 468.558C206.06 468.558 191.199 456.845 178.319 455.032C165.439 453.22 154.771 452.478 150.383 442.675C145.998 432.873 139.053 418.183 110.721 420.252" stroke="white" stroke-width="2" stroke-miterlimit="10" stroke-linecap="round" stroke-linejoin="round"/>
<path d="M160.1 434.257C160.1 434.257 159.963 448.794 176.645 454.601" stroke="white" stroke-width="2" stroke-miterlimit="10" stroke-linecap="round" stroke-linejoin="round"/>
<path d="M119.06 407.247C119.06 407.247 133.438 412.149 127.815 421.391" stroke="white" stroke-width="2" stroke-miterlimit="10" stroke-linecap="round" stroke-linejoin="round"/>
<path d="M125.323 433.69C125.323 433.69 133.024 425.743 145.311 433.238" stroke="white" stroke-width="2" stroke-miterlimit="10" stroke-linecap="round" stroke-linejoin="round"/>
<path d="M154.485 464.212C154.485 464.212 165.583 455.935 175.552 460.696C185.522 465.454 190.078 465.732 197.769 462.93" stroke="white" stroke-width="2" stroke-miterlimit="10" stroke-linecap="round" stroke-linejoin="round"/>
<path d="M160.547 434.373C160.547 434.373 161.671 429.734 163.21 426.662C164.749 423.59 163.436 414.489 156.257 407.708C156.257 407.708 148.68 422.185 160.547 434.373Z" fill="white" stroke="white" stroke-width="2" stroke-miterlimit="10" stroke-linecap="round" stroke-linejoin="round"/>
<path d="M154.933 464.327C154.933 464.327 153.012 452.879 132.052 458.43C132.052 458.43 140.306 469.137 154.933 464.327Z" fill="white" stroke="white" stroke-width="2" stroke-miterlimit="10" stroke-linecap="round" stroke-linejoin="round"/>
<path d="M119.506 407.364C119.506 407.364 124.673 392.995 105.398 388.392C105.398 388.392 105.577 401.947 119.506 407.364Z" fill="white" stroke="white" stroke-width="2" stroke-miterlimit="10" stroke-linecap="round" stroke-linejoin="round"/>
<path d="M111.167 420.366C111.167 420.366 111.259 410.715 102.727 409.611C94.195 408.508 87.9567 410.734 80.5249 406.444C80.5249 406.445 88.5416 423.116 111.167 420.366Z" fill="white" stroke="white" stroke-width="2" stroke-miterlimit="10" stroke-linecap="round" stroke-linejoin="round"/>
<path d="M125.769 433.807C125.769 433.807 115.753 427.027 100.101 438.328C100.101 438.328 109.245 444.7 125.769 433.807Z" fill="white" stroke="white" stroke-width="2" stroke-miterlimit="10" stroke-linecap="round" stroke-linejoin="round"/>
<path d="M305.145 122.892C305.145 122.892 308.036 114.172 319.535 113.607" stroke="white" stroke-width="2" stroke-miterlimit="10" stroke-linecap="round" stroke-linejoin="round"/>
<path d="M281.986 144.095C281.986 144.095 304.544 144.939 304.717 123.053C304.717 123.053 293.244 122.678 281.986 144.095Z" fill="white" stroke="white" stroke-width="2" stroke-miterlimit="10" stroke-linecap="round" stroke-linejoin="round"/>
<path d="M66.7812 337.617C66.7812 337.617 71.9888 346.956 84.9885 345.661" stroke="white" stroke-width="2" stroke-miterlimit="10" stroke-linecap="round" stroke-linejoin="round"/>
<path d="M70.3315 336.802C70.3315 336.802 78.9373 344.693 90.2305 347.41C101.524 350.127 110.382 349.394 122.295 345.341C134.207 341.291 169.871 326.047 204.82 343.704" stroke="white" stroke-width="2" stroke-miterlimit="10" stroke-linecap="round" stroke-linejoin="round"/>
<path d="M109.838 358.26C109.838 358.26 123.836 353.963 129.05 342.957" stroke="white" stroke-width="2" stroke-miterlimit="10" stroke-linecap="round" stroke-linejoin="round"/>
<path d="M171.015 344.953C171.015 344.953 175.214 341.383 180.356 341.651C185.491 341.918 193.268 343.776 198.317 340.79" stroke="white" stroke-width="2" stroke-miterlimit="10" stroke-linecap="round" stroke-linejoin="round"/>
<path d="M131.007 333.222C131.007 333.222 132.344 341.141 141.656 339.083" stroke="white" stroke-width="2" stroke-miterlimit="10" stroke-linecap="round" stroke-linejoin="round"/>
<path d="M96.3804 343.127C96.3804 343.127 105.368 348.696 115.373 347.251" stroke="white" stroke-width="2" stroke-miterlimit="10" stroke-linecap="round" stroke-linejoin="round"/>
<path d="M141.078 355.731C141.078 355.731 163.59 362.676 171.479 344.984C171.48 344.984 159.834 338.339 141.078 355.731Z" fill="white" stroke="white" stroke-width="2" stroke-miterlimit="10" stroke-linecap="round" stroke-linejoin="round"/>
<path d="M83.5137 370.365C83.5137 370.365 104.784 378.541 110.304 358.29C110.304 358.29 99.7381 356.248 93.6968 362.813C87.6569 369.379 86.5219 368.861 83.5137 370.365Z" fill="white" stroke="white" stroke-width="2" stroke-miterlimit="10" stroke-linecap="round" stroke-linejoin="round"/>
<path d="M96.8456 343.158C97.3425 343.479 80.603 338.59 81.2882 327.409C81.9747 316.229 78.8945 315.74 78.8945 315.74C78.8945 315.74 90.2032 318.341 91.8317 323.493C93.4602 328.645 92.1706 340.149 96.8456 343.158Z" fill="white" stroke="white" stroke-width="2" stroke-miterlimit="10" stroke-linecap="round" stroke-linejoin="round"/>
<path d="M131.611 334.18C131.611 334.18 115.551 332.946 108.964 310.411C108.964 310.411 116.217 311.642 120.79 314.084C127.944 317.904 131.37 325.413 131.611 334.18Z" fill="white" stroke="white" stroke-width="2" stroke-miterlimit="10" stroke-linecap="round" stroke-linejoin="round"/>
<path d="M67.2468 337.648C67.2468 337.648 60.4612 337.35 56.628 339.633C52.7941 341.917 43.048 345.516 31.8765 334.34C31.8765 334.34 36.3316 334.535 40.0707 332.249C43.8105 329.96 59.4022 326.093 67.2468 337.648Z" fill="white" stroke="white" stroke-width="2" stroke-miterlimit="10" stroke-linecap="round" stroke-linejoin="round"/>
<path d="M70.7964 336.833C70.7964 336.833 56.0082 334.976 55.6216 321.195C55.6216 321.195 58.1423 324.46 61.2231 324.947C64.302 325.433 69.9055 329.162 70.7964 336.833Z" fill="white" stroke="white" stroke-width="2" stroke-miterlimit="10" stroke-linecap="round" stroke-linejoin="round"/>
<path d="M169.031 893.318C169.031 893.318 139.394 883.191 132.124 896.84C127.515 905.49 129.168 914.518 118.255 916.079C110.631 917.168 104.004 915.326 104.004 915.326" stroke="white" stroke-width="2" stroke-miterlimit="10" stroke-linecap="round" stroke-linejoin="round"/>
<path d="M155.727 890.251C155.727 890.251 138.1 894.546 142.059 907.794" stroke="white" stroke-width="2" stroke-miterlimit="10" stroke-linecap="round" stroke-linejoin="round"/>
<path d="M122.693 924.235C122.693 924.235 128.361 922.733 129.722 919.478C131.087 916.223 127.159 907.823 128.969 905.125" stroke="white" stroke-width="2" stroke-miterlimit="10" stroke-linecap="round" stroke-linejoin="round"/>
<path d="M104.373 915.079C104.373 915.079 88.0807 913.66 82.2734 932.037C82.2734 932.037 85.7194 928.767 91.0567 928.399C96.398 928.032 102.949 922.485 104.373 915.079Z" fill="white" stroke="white" stroke-width="2" stroke-miterlimit="10" stroke-linecap="round" stroke-linejoin="round"/>
<path d="M123.06 923.986C123.14 923.305 105.16 926.546 109.815 947.176C109.815 947.176 121.554 937.008 123.06 923.986Z" fill="white" stroke="white" stroke-width="2" stroke-miterlimit="10" stroke-linecap="round" stroke-linejoin="round"/>
<path d="M142.427 907.546C142.427 907.546 134.342 914.13 137.241 919.501C140.141 924.873 140.814 928.197 139.484 931.763C139.484 931.763 153.344 920.67 142.427 907.546Z" fill="white" stroke="white" stroke-width="2" stroke-miterlimit="10" stroke-linecap="round" stroke-linejoin="round"/>
<path d="M148.652 458.066C148.652 458.066 124.48 440.993 114.4 452.03C108.011 459.025 107.182 467.965 96.9211 466.67C89.7516 465.764 84.2388 462.346 84.2388 462.346" stroke="white" stroke-width="2" stroke-miterlimit="10" stroke-linecap="round" stroke-linejoin="round"/>
<path d="M137.422 451.797C137.422 451.797 120.389 451.38 120.558 464.889" stroke="white" stroke-width="2" stroke-miterlimit="10" stroke-linecap="round" stroke-linejoin="round"/>
<path d="M98.832 475.493C98.832 475.493 104.338 475.514 106.406 472.786C108.475 470.058 107.087 461.135 109.419 459.05" stroke="white" stroke-width="2" stroke-miterlimit="10" stroke-linecap="round" stroke-linejoin="round"/>
<path d="M84.6705 462.191C84.6705 462.191 70.3147 456.719 60.3413 472.592C60.3413 472.592 64.2955 470.379 69.2146 471.388C74.1317 472.396 81.4788 468.823 84.6705 462.191Z" fill="white" stroke="white" stroke-width="2" stroke-miterlimit="10" stroke-linecap="round" stroke-linejoin="round"/>
<path d="M99.2637 475.34C99.5104 474.717 82.4321 473.215 81.3301 493.867C81.3301 493.867 94.553 487.248 99.2637 475.34Z" fill="white" stroke="white" stroke-width="2" stroke-miterlimit="10" stroke-linecap="round" stroke-linejoin="round"/>
<path d="M120.99 464.735C120.99 464.735 111.991 468.898 113.231 474.703C114.468 480.509 114.219 483.816 112.103 486.844C112.104 486.844 127.479 479.891 120.99 464.735Z" fill="white" stroke="white" stroke-width="2" stroke-miterlimit="10" stroke-linecap="round" stroke-linejoin="round"/>
<path d="M282.445 433.277C282.445 433.277 296.907 434.768 301.953 427.637C307.001 420.506 315.154 421.282 320.589 423.081" stroke="white" stroke-width="2" stroke-miterlimit="10" stroke-linecap="round" stroke-linejoin="round"/>
<path d="M297.787 439.324C297.787 439.324 304.034 433.069 302.897 426.437" stroke="white" stroke-width="2" stroke-miterlimit="10" stroke-linecap="round" stroke-linejoin="round"/>
<path d="M297.787 417.008C297.787 417.008 300.401 419.981 303.701 419.806C307.001 419.63 313.236 420.637 315.748 422.058" stroke="white" stroke-width="2" stroke-miterlimit="10" stroke-linecap="round" stroke-linejoin="round"/>
<path d="M297.32 439.323C297.32 439.323 288.93 439.733 285.19 444.926C281.454 450.12 278.784 452.661 276.685 452.987C274.577 453.316 275.915 453.105 275.915 453.105C275.915 453.105 294.287 456.475 297.32 439.323Z" fill="white" stroke="white" stroke-width="2" stroke-miterlimit="10" stroke-linecap="round" stroke-linejoin="round"/>
<path d="M246.843 435.55C246.208 436.195 252.375 432.227 257.616 435.55C262.857 438.875 275.475 441.324 281.978 433.276C281.978 433.276 278.302 431.904 276.058 430.652C267.904 426.104 256.257 425.929 246.843 435.55Z" fill="white" stroke="white" stroke-width="2" stroke-miterlimit="10" stroke-linecap="round" stroke-linejoin="round"/>
<path d="M266.74 411.234C266.74 411.234 275.281 410.365 278.775 413.687C282.269 417.008 289.853 419.806 297.32 417.008C297.32 417.008 292.557 413.683 291.782 411.933C291.004 410.183 282.852 401.437 266.74 411.234Z" fill="white" stroke="white" stroke-width="2" stroke-miterlimit="10" stroke-linecap="round" stroke-linejoin="round"/>
<path d="M259.6 223.791C259.6 223.791 259.196 222.989 259.312 218.548C259.422 214.106 255.802 204.574 239.782 204.94C239.782 204.94 243.461 209.328 245.924 214.535C248.386 219.734 254.231 222.278 259.6 223.791Z" fill="white" stroke="white" stroke-width="2" stroke-miterlimit="10" stroke-linecap="round" stroke-linejoin="round"/>
<path d="M239.481 228.658C239.481 228.658 235.833 224.85 232.573 221.842C230.583 220.004 223.218 214.201 215.287 215.901C207.358 217.598 202.909 217.916 202.909 217.916C202.909 217.916 211.268 224.08 215.081 226.712C218.892 229.342 227.949 231.503 239.481 228.658Z" fill="white" stroke="white" stroke-width="2" stroke-miterlimit="10" stroke-linecap="round" stroke-linejoin="round"/>
<path d="M241.559 237.206C239.563 246.754 228.629 252.15 221.538 252.464C216.393 252.691 211.249 252.924 211.249 252.924C215.726 250.972 218.868 243.477 225.314 239.804C231.756 236.126 241.542 236.857 241.542 236.857" fill="white"/>
<path d="M241.559 237.206C239.563 246.754 228.629 252.15 221.538 252.464C216.393 252.691 211.249 252.924 211.249 252.924C215.726 250.972 218.868 243.477 225.314 239.804C231.756 236.126 241.542 236.857 241.542 236.857" stroke="white" stroke-width="2" stroke-miterlimit="10" stroke-linecap="round" stroke-linejoin="round"/>
<path d="M289.352 243.595C289.352 243.595 285.09 245.302 279.788 246.825C274.486 248.348 271.207 251.177 269.949 253.334C268.691 255.493 266.616 259.441 265.384 259.963C265.384 259.963 272.442 259.063 275.954 257.891C280.283 256.444 288.442 252.044 289.352 243.595Z" fill="white" stroke="white" stroke-width="2" stroke-miterlimit="10" stroke-linecap="round" stroke-linejoin="round"/>
<path d="M316.527 916.894C316.527 916.894 289.735 933.832 263.836 919.113C237.936 904.394 202.493 881.233 184.451 886.016" stroke="white" stroke-width="2" stroke-miterlimit="10" stroke-linecap="round" stroke-linejoin="round"/>
<path d="M229.602 901.298C229.602 901.298 210.244 894.994 202.435 914.005" stroke="white" stroke-width="2" stroke-miterlimit="10" stroke-linecap="round" stroke-linejoin="round"/>
<path d="M273.047 923.087C273.047 923.087 268.359 927.086 260.987 927.556C253.615 928.025 243.837 927.726 242.151 929.609" stroke="white" stroke-width="2" stroke-miterlimit="10" stroke-linecap="round" stroke-linejoin="round"/>
<path d="M232.848 870.046C232.848 870.046 229.587 884.145 238.088 894.189C246.588 904.234 252.593 903.847 254.552 913.749" stroke="white" stroke-width="2" stroke-miterlimit="10" stroke-linecap="round" stroke-linejoin="round"/>
<path d="M217.912 880.096C217.912 880.096 224.592 887.392 234.619 890.529" stroke="white" stroke-width="2" stroke-miterlimit="10" stroke-linecap="round" stroke-linejoin="round"/>
<path d="M284.809 912.998C284.809 912.998 287.135 921.791 310.8 919.826" stroke="white" stroke-width="2" stroke-miterlimit="10" stroke-linecap="round" stroke-linejoin="round"/>
<path d="M184.799 887.544C184.799 887.544 177.182 883.261 173.172 882.843C169.163 882.425 163.622 883.463 157.973 887.968C154.129 891.033 151.781 891.659 151.781 891.659C151.781 891.659 161.936 894.004 165.698 894.75C174.614 896.522 181.303 890.996 184.799 887.544Z" fill="white" stroke="white" stroke-width="2" stroke-miterlimit="10" stroke-linecap="round" stroke-linejoin="round"/>
<path d="M202.942 912.159C202.942 912.159 190.668 907.009 185.527 913.668C180.385 920.329 172.019 924.325 171.535 924.627C171.535 924.627 178.728 923.799 183.235 924.794C187.743 925.787 196.011 923.295 202.942 912.159Z" fill="white" stroke="white" stroke-width="2" stroke-miterlimit="10" stroke-linecap="round" stroke-linejoin="round"/>
<path d="M242.581 929.451C242.581 929.451 231.387 921.797 218.498 938.376C218.498 938.376 233.169 941.123 242.581 929.451Z" fill="white" stroke="white" stroke-width="2" stroke-miterlimit="10" stroke-linecap="round" stroke-linejoin="round"/>
<path d="M260.205 883.704C260.071 882.993 265.006 889.539 271.898 891.934C278.791 894.329 285.668 903.499 285.237 912.839C285.237 912.839 266.212 915.362 260.205 883.704Z" fill="white" stroke="white" stroke-width="2" stroke-miterlimit="10" stroke-linecap="round" stroke-linejoin="round"/>
<path d="M233.197 871.574C233.197 871.574 220.11 861.386 224.53 846.042C224.53 846.042 236.557 860.05 233.197 871.574Z" fill="white" stroke="white" stroke-width="2" stroke-miterlimit="10" stroke-linecap="round" stroke-linejoin="round"/>
<path d="M191.353 852.817C191.353 852.817 198.613 858.56 201.658 859.658C208.167 862.005 216.355 866.585 218.34 879.937C218.34 879.937 194.977 877.554 191.353 852.817Z" fill="white" stroke="white" stroke-width="2" stroke-miterlimit="10" stroke-linecap="round" stroke-linejoin="round"/>
<path d="M263.518 302.03C263.518 302.03 270.454 299.818 279.467 302.313C288.478 304.808 307.302 327.195 317.56 313.554" stroke="white" stroke-width="2" stroke-miterlimit="10" stroke-linecap="round" stroke-linejoin="round"/>
<path d="M255.867 292.893C255.867 292.893 262.079 299.027 271.655 297.837C281.23 296.644 285.052 300.485 291.293 309.526" stroke="white" stroke-width="2" stroke-miterlimit="10" stroke-linecap="round" stroke-linejoin="round"/>
<path d="M279.468 314.568C280.453 314.838 288.166 314.225 297.382 319.43C306.595 324.635 315.007 316.093 315.007 316.093" stroke="white" stroke-width="2" stroke-miterlimit="10" stroke-linecap="round" stroke-linejoin="round"/>
<path d="M255.564 293.677C255.564 293.677 255.159 292.875 255.275 288.434C255.385 283.993 251.765 274.461 235.745 274.825C235.745 274.825 239.425 279.215 241.887 284.421C244.35 289.621 250.195 292.165 255.564 293.677Z" fill="white" stroke="white" stroke-width="2" stroke-miterlimit="10" stroke-linecap="round" stroke-linejoin="round"/>
<path d="M264.711 301.359C264.711 301.359 259.571 294.887 256.051 293.181C252.534 291.471 246.953 290.608 239.737 292.909C234.829 294.475 232.384 294.281 232.384 294.281C232.384 294.281 240.728 299.793 243.871 301.725C251.329 306.301 259.955 303.395 264.711 301.359Z" fill="white" stroke="white" stroke-width="2" stroke-miterlimit="10" stroke-linecap="round" stroke-linejoin="round"/>
<path d="M280.596 314.48C280.596 314.48 268.9 325.622 251.896 320.796C251.896 320.796 267.827 310.823 280.596 314.48Z" fill="white" stroke="white" stroke-width="2" stroke-miterlimit="10" stroke-linecap="round" stroke-linejoin="round"/>
<path d="M217.191 221.767C217.191 221.767 200.197 246.404 169.695 241.601C139.197 236.797 96.0945 227.448 81.6499 237.943" stroke="white" stroke-width="2" stroke-miterlimit="10" stroke-linecap="round" stroke-linejoin="round"/>
<path d="M129.433 235.184C129.433 235.184 108.762 235.917 110.178 256.052" stroke="white" stroke-width="2" stroke-miterlimit="10" stroke-linecap="round" stroke-linejoin="round"/>
<path d="M179.973 242.148C179.973 242.148 177.467 247.412 170.896 250.334C164.322 253.255 155.188 256.28 154.487 258.582" stroke="white" stroke-width="2" stroke-miterlimit="10" stroke-linecap="round" stroke-linejoin="round"/>
<path d="M118.971 206.901C118.971 206.901 122.347 220.977 134.716 227.352C147.086 233.729 152.437 231.344 158.725 239.798" stroke="white" stroke-width="2" stroke-miterlimit="10" stroke-linecap="round" stroke-linejoin="round"/>
<path d="M109.08 219.614C109.08 219.614 118.529 224.073 129.178 223.575" stroke="white" stroke-width="2" stroke-miterlimit="10" stroke-linecap="round" stroke-linejoin="round"/>
<path d="M186.232 228.889C186.232 228.889 192.352 236.199 213.245 226.398" stroke="white" stroke-width="2" stroke-miterlimit="10" stroke-linecap="round" stroke-linejoin="round"/>
<path d="M81.9733 237.653C81.9733 237.653 73.024 236.281 69.143 237.249C65.2634 238.219 60.6334 241.046 57.4726 247.102C55.3197 251.22 53.4424 252.587 53.4424 252.587C53.4424 252.587 63.8501 251.317 67.6497 250.735C76.6629 249.353 80.3172 242.008 81.9733 237.653Z" fill="white" stroke="white" stroke-width="2" stroke-miterlimit="10" stroke-linecap="round" stroke-linejoin="round"/>
<path d="M110.502 255.761C110.502 255.761 96.874 255.165 95.1527 263.03C93.4361 270.898 87.5441 277.401 87.2368 277.843C87.2368 277.843 93.4812 274.65 98.0789 274.044C102.679 273.437 109.16 268.351 110.502 255.761Z" fill="white" stroke="white" stroke-width="2" stroke-miterlimit="10" stroke-linecap="round" stroke-linejoin="round"/>
<path d="M154.81 258.291C154.81 258.291 141.043 255.026 136.682 274.639C136.681 274.639 151.431 272.215 154.81 258.291Z" fill="white" stroke="white" stroke-width="2" stroke-miterlimit="10" stroke-linecap="round" stroke-linejoin="round"/>
<path d="M150.332 210.235C149.888 209.628 157.39 213.985 164.818 213.862C172.246 213.74 182.727 219.857 186.555 228.599C186.555 228.599 170.186 237.347 150.332 210.235Z" fill="white" stroke="white" stroke-width="2" stroke-miterlimit="10" stroke-linecap="round" stroke-linejoin="round"/>
<path d="M119.295 206.611C119.295 206.611 102.639 201.651 99.7632 186.035C99.7639 186.035 117.173 194.868 119.295 206.611Z" fill="white" stroke="white" stroke-width="2" stroke-miterlimit="10" stroke-linecap="round" stroke-linejoin="round"/>
<path d="M72.2925 203.474C72.2925 203.474 81.5719 206.309 84.8713 206.292C91.9272 206.253 101.537 207.704 109.404 219.323C109.404 219.323 86.8218 225.018 72.2925 203.474Z" fill="white" stroke="white" stroke-width="2" stroke-miterlimit="10" stroke-linecap="round" stroke-linejoin="round"/>
</g>
</g>
<defs>
<clipPath id="clip0">
<rect y="1033" width="1035" height="322" transform="rotate(-90 0 1033)" fill="white"/>
</clipPath>
</defs>
</svg>
