<svg width="54" height="54" viewBox="0 0 54 54" fill="none" xmlns="http://www.w3.org/2000/svg">
<path d="M15.2388 4.82117L38.057 21.3527L30.1006 33.857L15.3392 33.0653L15.2388 4.82117Z" stroke="white" stroke-width="1.5" stroke-miterlimit="10" stroke-linecap="round" stroke-linejoin="round"/>
<path d="M15.103 4.55762L48.1759 12.5853L51.1372 21.3527H38.0573L15.103 4.55762Z" stroke="white" stroke-width="1.5" stroke-miterlimit="10" stroke-linecap="round" stroke-linejoin="round"/>
<path d="M15.3393 33.0653L8.34525 43.5813L2.57373 36.0105L15.1028 4.55762L15.3393 33.0653Z" stroke="white" stroke-width="1.5" stroke-miterlimit="10" stroke-linecap="round" stroke-linejoin="round"/>
<path d="M51.1368 21.3527L38.6315 50.5224L30.1006 33.857L38.0569 21.3527H51.1368Z" stroke="white" stroke-width="1.5" stroke-miterlimit="10" stroke-linecap="round" stroke-linejoin="round"/>
<path d="M8.34521 43.5813L38.6317 50.5224L30.1007 33.8569L15.3393 33.0653L8.34521 43.5813Z" stroke="white" stroke-width="1.5" stroke-miterlimit="10" stroke-linecap="round" stroke-linejoin="round"/>
<path d="M5.26514 35.8852L8.3453 39.2386" stroke="white" stroke-width="1.5" stroke-miterlimit="10" stroke-linecap="round" stroke-linejoin="round"/>
<path d="M18.8989 24.5268L20.0826 21.6227L24.5754 30.3998" stroke="white" stroke-width="1.5" stroke-miterlimit="10" stroke-linecap="round" stroke-linejoin="round"/>
<path d="M24.6989 21.1799C24.2679 20.3397 24.6006 19.3104 25.4408 18.8806C26.2811 18.4508 27.3092 18.7823 27.7401 19.6236L30.7533 25.5096C31.1832 26.3488 30.8505 27.378 30.0103 27.8079C29.1711 28.2377 28.1419 27.9062 27.711 27.0659L24.6989 21.1799Z" stroke="white" stroke-width="1.5" stroke-miterlimit="10" stroke-linecap="round" stroke-linejoin="round"/>
<path d="M42.5532 23.4328H47.9964L44.7132 30.4247" stroke="white" stroke-width="1.5" stroke-miterlimit="10" stroke-linecap="round" stroke-linejoin="round"/>
</svg>
