<svg width="37" height="39" viewBox="0 0 37 39" fill="none" xmlns="http://www.w3.org/2000/svg">
<path d="M18.5 0.800049C8.5595 0.800049 0.5 9.39685 0.5 20C0.5 28.9968 6.308 36.5248 14.138 38.608C14.054 38.3488 14 38.0481 14 37.6753V34.3936C13.2695 34.3936 12.0455 34.3936 11.738 34.3936C10.5065 34.3936 9.4115 33.8288 8.8805 32.7792C8.291 31.6128 8.189 29.8288 6.728 28.7376C6.2945 28.3744 6.6245 27.96 7.124 28.016C8.0465 28.2944 8.8115 28.9696 9.5315 29.9712C10.2485 30.9744 10.586 31.2016 11.9255 31.2016C12.575 31.2016 13.547 31.1616 14.462 31.008C14.954 29.6752 15.8045 28.448 16.844 27.8688C10.85 27.2112 7.9895 24.0304 7.9895 19.712C7.9895 17.8528 8.732 16.0544 9.9935 14.5392C9.5795 13.0352 9.059 9.96805 10.1525 8.80005C12.8495 8.80005 14.48 10.6656 14.8715 11.1696C16.2155 10.6784 17.6915 10.4 19.2425 10.4C20.7965 10.4 22.2785 10.6784 23.6255 11.1728C24.0125 10.672 25.6445 8.80005 28.3475 8.80005C29.4455 9.96965 28.919 13.0496 28.5005 14.5504C29.7545 16.0624 30.4925 17.856 30.4925 19.712C30.4925 24.0272 27.6365 27.2064 21.6515 27.8672C23.2985 28.784 24.5 31.36 24.5 33.3008V37.6753C24.5 37.8417 24.4655 37.9617 24.4475 38.1041C31.4615 35.4817 36.5 28.3776 36.5 20C36.5 9.39685 28.4405 0.800049 18.5 0.800049Z" fill="white"/>
</svg>
