<svg width="50" height="52" viewBox="0 0 50 52" fill="none" xmlns="http://www.w3.org/2000/svg">
<g clip-path="url(#clip0)">
<path d="M25.134 12.2913C22.7718 12.2913 20.7536 13.3203 19.8675 14.976C19.6756 15.3338 19.8072 15.7812 20.1607 15.9751C20.5142 16.1694 20.9561 16.0361 21.1476 15.6783C21.7697 14.5164 23.3342 13.7653 25.134 13.7653C26.9341 13.7653 28.4986 14.5164 29.1207 15.6783C29.2527 15.9248 29.503 16.0645 29.7613 16.0645C29.8785 16.0645 29.9976 16.0357 30.1076 15.9755C30.4611 15.7816 30.5923 15.3342 30.4008 14.976C29.5148 13.3203 27.4966 12.2913 25.134 12.2913Z" fill="white"/>
<path d="M32.5635 13.2098C32.6955 13.4559 32.9459 13.5957 33.2042 13.5957C33.3214 13.5957 33.4405 13.5669 33.5505 13.5066C33.904 13.3127 34.0352 12.8653 33.8437 12.5075C32.3921 9.79549 29.0547 8.11139 25.1336 8.11139C21.2129 8.11139 17.8756 9.79587 16.424 12.5075C16.2325 12.8653 16.3637 13.3127 16.7172 13.5066C17.0707 13.7005 17.5126 13.5676 17.7041 13.2098C18.9008 10.9743 21.7477 9.58546 25.1336 9.58546C28.5199 9.58546 31.3669 10.9739 32.5635 13.2098Z" fill="white"/>
<path d="M13.0674 11.5725C13.4213 11.7668 13.8628 11.6339 14.0547 11.2761C15.851 7.92283 20.0964 5.83979 25.1341 5.83979C30.1715 5.83979 34.4169 7.92283 36.2136 11.2761C36.3452 11.5222 36.5955 11.6619 36.8542 11.6619C36.9714 11.6619 37.0901 11.6332 37.2005 11.5725C37.554 11.3786 37.6852 10.9313 37.4933 10.5734C35.4421 6.74443 30.7063 4.36572 25.1341 4.36572C19.562 4.36572 14.8262 6.74443 12.7746 10.5734C12.5831 10.9313 12.7143 11.3786 13.0674 11.5725V11.5725Z" fill="white"/>
<path d="M39.1156 26.8473C40.1591 26.8473 41.0079 25.9868 41.0079 24.9289C41.0079 23.8711 40.1591 23.0106 39.1156 23.0106C38.0711 23.0106 37.2207 23.8711 37.2207 24.9289C37.2207 25.9868 38.0711 26.8473 39.1156 26.8473ZM39.1156 24.4847C39.3565 24.4847 39.5518 24.684 39.5518 24.9289C39.5518 25.1701 39.3523 25.3736 39.1156 25.3736C38.8736 25.3736 38.6768 25.1739 38.6768 24.9289C38.6768 24.684 38.874 24.4847 39.1156 24.4847Z" fill="white"/>
<path d="M39.1156 29.0735C38.0711 29.0735 37.2207 29.9344 37.2207 30.9922C37.2207 32.0501 38.0711 32.9106 39.1156 32.9106C40.1591 32.9106 41.0079 32.0501 41.0079 30.9922C41.0079 29.9344 40.1591 29.0735 39.1156 29.0735V29.0735ZM39.1156 31.4365C38.8736 31.4365 38.6768 31.2372 38.6768 30.9922C38.6768 30.7473 38.8736 30.5476 39.1156 30.5476C39.3523 30.5476 39.5518 30.7511 39.5518 30.9922C39.5522 31.2372 39.3565 31.4365 39.1156 31.4365Z" fill="white"/>
<path d="M38.0135 27.9604C38.0135 26.9029 37.1635 26.0421 36.1186 26.0421C35.0736 26.0421 34.2236 26.9025 34.2236 27.9604C34.2236 29.0182 35.0736 29.8791 36.1186 29.8791C37.1635 29.8791 38.0135 29.0182 38.0135 27.9604ZM36.1186 28.405C35.8766 28.405 35.6797 28.2057 35.6797 27.9604C35.6797 27.7154 35.8766 27.5161 36.1186 27.5161C36.3606 27.5161 36.5578 27.7154 36.5578 27.9604C36.5578 28.2057 36.3606 28.405 36.1186 28.405Z" fill="white"/>
<path d="M42.1106 26.0421C41.0657 26.0421 40.2153 26.9025 40.2153 27.9604C40.2153 29.0182 41.0657 29.8791 42.1106 29.8791C43.1556 29.8791 44.0056 29.0182 44.0056 27.9604C44.0056 26.9029 43.1556 26.0421 42.1106 26.0421V26.0421ZM42.1106 28.405C41.8687 28.405 41.6714 28.2057 41.6714 27.9604C41.6714 27.7154 41.8687 27.5161 42.1106 27.5161C42.3526 27.5161 42.5495 27.7154 42.5495 27.9604C42.5495 28.2057 42.3526 28.405 42.1106 28.405Z" fill="white"/>
<path d="M18.2093 30.7818C16.3072 30.7818 14.7593 32.3484 14.7593 34.2744C14.7593 36.2004 16.3072 37.767 18.2093 37.767C20.1118 37.767 21.6593 36.2 21.6593 34.2744C21.6593 32.3484 20.1118 30.7818 18.2093 30.7818ZM18.2093 36.2933C17.1097 36.2933 16.2154 35.3875 16.2154 34.2744C16.2154 33.1613 17.1097 32.2559 18.2093 32.2559C19.3089 32.2559 20.2036 33.1613 20.2036 34.2744C20.2036 35.3875 19.3089 36.2933 18.2093 36.2933V36.2933Z" fill="white"/>
<path d="M49.5225 39.2726L46.016 24.6187C45.5115 22.5111 44.5098 20.9045 43.0385 19.8436C42.7351 19.6247 42.4131 19.4316 42.0759 19.265V18.9632C42.0759 17.4292 40.8444 16.1813 39.3306 16.1813H37.6985C36.1829 16.1813 34.9502 17.4292 34.9502 18.9632V19.389C34.3627 19.7131 33.8988 20.1082 33.6204 20.5447H26.5982C26.1962 20.5447 25.87 20.8746 25.87 21.2816C25.87 21.6886 26.1962 22.0188 26.5982 22.0188H33.3538V23.5247C33.3538 24.3568 32.6862 25.0338 31.8662 25.0338H18.1321C17.3106 25.0338 16.6419 24.3568 16.6419 23.5247V22.0188H23.2351C23.6371 22.0188 23.9629 21.6886 23.9629 21.2816C23.9629 20.8746 23.6371 20.5447 23.2351 20.5447H16.3752C16.0976 20.1089 15.6349 19.7142 15.0481 19.3901V18.9632C15.0481 17.4292 13.8154 16.1809 12.2998 16.1809H10.6707C9.15508 16.1809 7.92239 17.4292 7.92239 18.9632V19.2646C7.58596 19.4312 7.26508 19.624 6.96203 19.8421C5.48963 20.9026 4.48717 22.5099 3.98233 24.6187L0.475799 39.2722C-0.0404143 41.4282 0.04265 43.252 0.722337 44.6935C1.33034 45.9821 2.38476 46.8917 3.77183 47.3233C6.74432 48.2487 10.2247 46.7043 11.2199 44.0185L12.9044 39.4765C13.1209 38.892 13.2928 38.8179 13.2947 38.8172C13.3144 38.8126 13.4464 38.8298 13.6967 39.0149C16.0555 41.1832 19.9186 41.0895 22.4625 38.8425H27.5355C28.7124 39.8827 30.2079 40.4986 31.779 40.5842C33.4941 40.6775 35.0977 40.1204 36.3012 39.0149C36.5834 38.806 36.7014 38.816 36.7025 38.8172C36.704 38.8179 36.8755 38.8917 37.0936 39.4761L38.7753 44.0185C39.5749 46.1733 41.9731 47.5932 44.4249 47.5928C45.0302 47.5928 45.639 47.5064 46.2276 47.3229C47.6143 46.8909 48.6683 45.9813 49.276 44.6923C49.9557 43.2513 50.0387 41.4278 49.5225 39.2726V39.2726ZM37.6982 17.655H39.3302C39.9625 17.655 40.489 18.1192 40.5982 18.7293C39.994 18.5807 39.3594 18.5024 38.7036 18.5001C38.6934 18.5001 38.6835 18.5001 38.6737 18.5001C37.8851 18.5001 37.1156 18.6099 36.4165 18.8034C36.495 18.1576 37.0393 17.655 37.6982 17.655V17.655ZM10.6707 17.655H12.2998C12.959 17.655 13.5033 18.1576 13.5814 18.8038C12.8827 18.6103 12.1128 18.5001 11.3242 18.5001C11.3159 18.5001 11.3076 18.5001 11.2992 18.5001C10.6419 18.502 10.0058 18.5803 9.40011 18.7293C9.50972 18.1192 10.0369 17.655 10.6707 17.655ZM45.7994 45.9141C43.7835 46.5423 40.9339 45.6434 40.1389 43.5005L38.4564 38.9569C38.1294 38.0807 37.6883 37.5723 37.108 37.4019C36.5762 37.2452 36.0016 37.3988 35.4 37.8569C35.3811 37.8715 35.3625 37.8872 35.345 37.9033C33.4717 39.6473 30.3198 39.4987 28.3195 37.572C28.184 37.4414 28.0043 37.3688 27.8177 37.3688H22.1807C21.994 37.3688 21.8143 37.4414 21.6789 37.572C19.677 39.4999 16.5254 39.6489 14.6536 37.9037C14.6358 37.8872 14.6172 37.8715 14.5979 37.8569C13.9956 37.398 13.4202 37.2452 12.8873 37.4022C12.3062 37.5735 11.8659 38.0826 11.5412 38.9585L9.85677 43.5005C9.06292 45.6434 6.21521 46.5423 4.19966 45.9149C1.94251 45.2118 1.10087 42.9176 1.89055 39.6197L5.39708 24.9662C6.0305 22.3202 7.4369 21.0474 8.83686 20.4553C8.89565 20.4395 8.95179 20.4169 9.00375 20.3873C9.83894 20.0655 10.6609 19.9761 11.3034 19.9742C12.3904 19.9726 13.328 20.2088 14.0126 20.5113C14.0244 20.5167 14.0362 20.5225 14.0487 20.5275C14.6711 20.8081 15.0766 21.1426 15.1854 21.3979V23.5247C15.1854 25.1693 16.5072 26.5074 18.1317 26.5074H31.8658C33.4888 26.5074 34.8095 25.1693 34.8095 23.5247V21.3983C34.9172 21.146 35.3139 20.8162 35.9223 20.5374C35.958 20.5244 35.9925 20.5098 36.0251 20.4918C36.7014 20.1996 37.6143 19.9742 38.6718 19.9742H38.698C39.3397 19.9765 40.1609 20.0663 40.9949 20.3881C41.0461 20.4169 41.1015 20.4392 41.1595 20.4549C42.5599 21.0466 43.9671 22.3195 44.6005 24.9658L48.107 39.6197C48.8971 42.9168 48.0558 45.2111 45.7994 45.9141V45.9141Z" fill="white"/>
<path d="M32.3592 30.7818C30.4567 30.7818 28.9092 32.3484 28.9092 34.2744C28.9092 36.2004 30.4567 37.767 32.3592 37.767C34.2613 37.767 35.8092 36.2 35.8092 34.2744C35.8092 32.3484 34.2613 30.7818 32.3592 30.7818ZM32.3592 36.2933C31.2596 36.2933 30.3653 35.3875 30.3653 34.2744C30.3653 33.1613 31.2596 32.2559 32.3592 32.2559C33.4588 32.2559 34.3531 33.1613 34.3531 34.2744C34.3531 35.3875 33.4588 36.2933 32.3592 36.2933V36.2933Z" fill="white"/>
<path d="M13.1777 26.0394H12.9562V25.8152C12.9562 24.5684 11.9541 23.554 10.7226 23.554C9.49102 23.554 8.48894 24.5684 8.48894 25.8152V26.0394H8.26744C7.03588 26.0394 6.03418 27.0539 6.03418 28.3006C6.03418 29.5474 7.03588 30.5618 8.26744 30.5618H8.48894V30.7861C8.48894 32.0328 9.49102 33.0473 10.7226 33.0473C11.9541 33.0473 12.9562 32.0328 12.9562 30.7861V30.5618H13.1777C14.4093 30.5618 15.4114 29.5474 15.4114 28.3006C15.4114 27.0539 14.4093 26.0394 13.1777 26.0394ZM13.1777 29.0877H12.2284C11.8263 29.0877 11.5001 29.4176 11.5001 29.8246V30.7861C11.5001 31.2199 11.1516 31.5732 10.7226 31.5732C10.294 31.5732 9.94541 31.2199 9.94541 30.7861V29.8246C9.94541 29.4176 9.61922 29.0877 9.21718 29.0877H8.26782C7.83922 29.0877 7.49027 28.7345 7.49027 28.3006C7.49027 27.8667 7.83922 27.5135 8.26782 27.5135H9.21718C9.61922 27.5135 9.94541 27.1832 9.94541 26.7762V25.8152C9.94541 25.3809 10.294 25.028 10.7226 25.028C11.1516 25.028 11.5001 25.3809 11.5001 25.8152V26.7762C11.5001 27.1832 11.8263 27.5135 12.2284 27.5135H13.1777C13.6063 27.5135 13.9553 27.8667 13.9553 28.3006C13.9553 28.7345 13.6067 29.0877 13.1777 29.0877Z" fill="white"/>
<path d="M23.0891 28.7671H22.0321C21.63 28.7671 21.3042 29.0973 21.3042 29.5043C21.3042 29.9113 21.63 30.2411 22.0321 30.2411H23.0891C23.4912 30.2411 23.817 29.9113 23.817 29.5043C23.817 29.0973 23.4912 28.7671 23.0891 28.7671Z" fill="white"/>
<path d="M27.9662 28.7671H26.9065C26.5044 28.7671 26.1782 29.0973 26.1782 29.5043C26.1782 29.9113 26.5044 30.2411 26.9065 30.2411H27.9662C28.3682 30.2411 28.6941 29.9113 28.6941 29.5043C28.6941 29.0973 28.3682 28.7671 27.9662 28.7671Z" fill="white"/>
<path d="M25.8084 32.6291H24.7517C24.3496 32.6291 24.0234 32.9589 24.0234 33.3659C24.0234 33.7729 24.3496 34.1032 24.7517 34.1032H25.8084C26.2108 34.1032 26.5366 33.7729 26.5366 33.3659C26.5366 32.9589 26.2108 32.6291 25.8084 32.6291Z" fill="white"/>
</g>
<defs>
<clipPath id="clip0">
<rect width="49.7142" height="50.3279" fill="white" transform="translate(0.14209 0.72876)"/>
</clipPath>
</defs>
</svg>
