<svg width="41" height="42" viewBox="0 0 41 42" fill="none" xmlns="http://www.w3.org/2000/svg">
<g clip-path="url(#clip0)">
<path d="M38.4566 24.6057H31.7369C32.4281 23.7576 32.9478 22.9537 33.421 22.2204C33.539 22.0378 33.6552 21.8576 33.7722 21.6798C34.9467 19.8922 35.5053 18.4269 35.5835 16.9288C35.6569 15.5205 35.2798 14.0829 34.4344 12.5615C34.4341 12.561 34.4338 12.5605 34.4335 12.5599C34.2366 12.2057 34.0144 11.8469 33.7664 11.4828C32.3384 9.38869 31.5868 8.093 32.4069 5.69063C32.4245 5.65319 32.4383 5.61385 32.4478 5.57267C32.7667 4.68069 33.2975 3.63657 34.0846 2.34684C34.2303 2.10973 34.5017 1.66819 34.2706 1.24739C34.05 0.845276 33.5995 0.845276 33.3576 0.845276H17.571C17.329 0.845276 16.8787 0.845276 16.6579 1.24747C16.427 1.66827 16.6982 2.10981 16.843 2.3454C18.7065 5.39757 19.0339 6.98743 18.8019 8.24315H12.0655L13.4967 6.83458C13.5022 6.82934 13.5074 6.82385 13.5127 6.81829C15.08 5.15259 15.2907 3.43475 14.076 2.22268C13.449 1.59753 12.6468 1.61772 11.9822 2.27546C10.6924 3.5535 9.3909 4.86374 8.1322 6.13098C7.46238 6.80525 6.79256 7.47961 6.12179 8.15206C5.57893 8.69645 5.53551 8.73206 5.15824 8.73437C5.04243 8.11303 4.50326 7.64128 3.85644 7.64128H1.9379C1.20699 7.64136 0.612305 8.24346 0.612305 8.98363V19.6432C0.612305 20.3834 1.20699 20.9855 1.9379 20.9855H3.85644C4.58735 20.9855 5.18203 20.3834 5.18203 19.6432V19.5873C5.47364 19.5856 5.74154 19.5786 5.97976 19.5718C7.21623 19.5369 7.59201 19.5528 8.02361 20.136C8.67161 21.0111 9.62291 21.5129 10.6337 21.5129H17.0494C17.0832 21.5651 17.1186 21.6194 17.1584 21.6793C17.2724 21.8532 17.3859 22.0294 17.501 22.2081C17.9757 22.945 18.497 23.753 19.1918 24.6057H13.7051C12.4059 24.6057 11.349 25.675 11.349 26.9892C11.349 28.3049 12.4059 29.3752 13.7051 29.3752H21.4402V31.4186C21.4402 32.3427 22.1436 33.0944 23.0084 33.0944H23.5724V36.3405H19.1425C18.2446 36.3405 17.5142 37.0802 17.5142 37.9893V39.4184C17.5142 40.3263 18.2446 41.065 19.1425 41.065H33.0195C33.9173 41.065 34.6477 40.3263 34.6477 39.4184V37.9893C34.6477 37.0802 33.9173 36.3405 33.0195 36.3405H28.5895V33.0944H29.1536C30.0183 33.0944 30.7217 32.3427 30.7217 31.4186V29.3752H38.4569C39.756 29.3752 40.813 28.305 40.813 26.9892C40.8126 25.6749 39.7557 24.6057 38.4566 24.6057ZM4.00429 19.6432C4.00421 19.7244 3.93653 19.7932 3.85636 19.7932H1.9379C1.85773 19.7932 1.79005 19.7245 1.79005 19.6432V8.98363C1.79005 8.90232 1.85773 8.83364 1.9379 8.83364H3.85644C3.93661 8.83364 4.00429 8.90224 4.00429 8.98363V19.6432ZM10.6336 20.3208V20.3206C9.98778 20.3206 9.39553 20.0011 8.96597 19.4211C8.14971 18.318 7.22565 18.3442 5.94694 18.38C5.71688 18.3865 5.45857 18.3934 5.18195 18.395V9.9253C5.95597 9.90892 6.24483 9.70671 6.95037 8.99937C7.62177 8.32637 8.29214 7.65146 8.96259 6.97655C10.2196 5.71106 11.5195 4.40241 12.8056 3.12794C13.0564 2.87971 13.1291 2.9522 13.2493 3.07206C14.2156 4.0363 13.3038 5.30942 12.6675 5.98814L10.6245 7.99881C10.3609 8.25992 10.2749 8.6153 10.4001 8.92616C10.5268 9.24045 10.8354 9.43575 11.2055 9.43575H20.809C21.3324 9.43575 21.7582 9.86703 21.7582 10.3972C21.7582 10.9286 21.3324 11.3609 20.809 11.3609H16.8496C16.5244 11.3609 16.2608 11.6277 16.2608 11.957C16.2608 12.2863 16.5244 12.5532 16.8496 12.5532H23.6334C24.1567 12.5532 24.5825 12.9845 24.5825 13.5146C24.5825 14.0448 24.1567 14.4761 23.6334 14.4761H16.5313C16.2061 14.4761 15.9425 14.743 15.9425 15.0722C15.9425 15.4015 16.2061 15.6684 16.5313 15.6684H22.5028C23.0274 15.6684 23.4541 16.1007 23.4541 16.632C23.4541 16.9847 23.2648 17.2927 22.984 17.46C22.9742 17.4654 22.9649 17.4716 22.9554 17.4776C22.8207 17.5515 22.6666 17.5936 22.5029 17.5936H15.6145C15.2893 17.5936 15.0256 17.8604 15.0256 18.1897C15.0256 18.5189 15.2893 18.7859 15.6145 18.7859H18.5501C18.9679 18.7859 19.3077 19.1302 19.3077 19.5534C19.3077 19.9766 18.9678 20.321 18.5501 20.321H10.6336V20.3208ZM18.4874 21.5569C18.4779 21.5421 18.4684 21.5278 18.4589 21.5129H18.5502C19.6174 21.5129 20.4856 20.6337 20.4856 19.5531C20.4856 19.2807 20.4304 19.0215 20.3308 18.7855H22.503C22.6835 18.7855 22.878 18.7839 23.053 18.7365C23.2503 18.6831 23.4414 18.6266 23.6085 18.5028C23.8713 18.3078 24.1293 18.0544 24.2875 17.7657C24.4877 17.4004 24.632 17.0597 24.632 16.6319C24.632 16.2359 24.5256 15.8647 24.3407 15.5453C24.3728 15.6008 24.9937 15.1755 25.0474 15.1277C25.4084 14.8056 25.6649 14.3331 25.7184 13.8476C25.7688 13.3889 25.6356 12.9865 25.4825 12.5634C25.2093 11.8086 24.4103 11.3609 23.6336 11.3609H22.7109C22.8546 11.0707 22.9359 10.7434 22.9359 10.3972C22.9359 9.20969 21.9819 8.24346 20.8092 8.24346H19.9937C20.0315 8.24346 20.0429 7.52945 20.0421 7.46149C20.039 7.19974 20.0048 6.95946 19.9661 6.70367C19.9264 6.44073 19.9191 6.18113 19.8518 5.92177C19.787 5.67227 19.7169 5.42888 19.6297 5.19011C19.5473 4.96453 19.4318 4.76041 19.3337 4.54334C19.217 4.28477 19.1383 4.01174 18.9976 3.76398C18.7854 3.39024 18.596 3.00847 18.3838 2.63346C18.3436 2.5624 18.1004 2.03764 18.0373 2.03764C18.0373 2.03764 32.8912 2.03764 32.8912 2.03764C32.8597 2.03764 32.7325 2.30662 32.7116 2.34254C32.6483 2.45136 32.5856 2.56049 32.5238 2.67018C32.4037 2.88289 32.2866 3.09726 32.1733 3.3137C31.9564 3.72829 31.7358 4.15108 31.5428 4.57616C31.4983 4.67417 31.4664 4.77551 31.4339 4.87956C31.3653 5.0987 31.3188 5.31784 31.253 5.53365C31.2001 5.70724 31.1478 5.87933 31.0966 6.05245C30.9342 6.60129 30.8662 7.17081 30.8901 7.74724C30.9537 9.28186 31.6986 10.5382 32.6816 11.9899C32.6905 11.9883 32.699 11.9943 32.7066 12.0108C32.7156 12.0303 32.7253 12.0493 32.7348 12.0685C32.7556 12.0991 32.7759 12.1293 32.7969 12.1601C32.8172 12.1898 32.8366 12.2193 32.8565 12.2489H32.8388C32.9563 12.3626 33.0407 12.5119 33.1153 12.6718C33.2845 12.9102 33.4548 13.1477 33.5705 13.4179C33.5911 13.4661 33.6099 13.5145 33.6286 13.5631C33.6621 13.5995 33.6856 13.6502 33.7008 13.7106C33.9407 14.2126 34.137 14.7365 34.2611 15.2802C34.3207 15.5413 34.3639 15.8061 34.3892 16.0729C34.414 16.3332 34.4078 16.5945 34.4249 16.8543C34.435 17.0066 34.4126 17.1584 34.39 17.3085C34.3636 17.4848 34.3218 17.654 34.2829 17.8277C34.2439 18.0017 34.2069 18.18 34.1516 18.3496C34.1256 18.4292 34.0905 18.5058 34.054 18.581C34.0153 18.661 33.9941 18.7455 33.9604 18.8273C33.9018 18.9695 33.863 19.1203 33.7919 19.2572C33.7198 19.3961 33.6542 19.5381 33.5822 19.6786C33.4334 19.9696 33.2711 20.2532 33.1012 20.5318C33.001 20.6962 32.8972 20.8584 32.7916 21.0192C32.6729 21.1998 32.5548 21.3826 32.435 21.5682C31.8105 22.5359 31.1651 23.535 30.1678 24.6057H20.7606C19.7594 23.5306 19.113 22.528 18.4874 21.5569Z" fill="white"/>
</g>
<defs>
<clipPath id="clip0">
<rect width="40.2003" height="40.6966" fill="white" transform="translate(0.612305 0.606445)"/>
</clipPath>
</defs>
</svg>
