<?xml version="1.0" encoding="utf-8"?>
<!-- Generator: Adobe Illustrator 16.0.0, SVG Export Plug-In . SVG Version: 6.00 Build 0)  -->
<!DOCTYPE svg PUBLIC "-//W3C//DTD SVG 1.1//EN" "http://www.w3.org/Graphics/SVG/1.1/DTD/svg11.dtd">
<svg version="1.1" id="Layer_1" xmlns="http://www.w3.org/2000/svg" xmlns:xlink="http://www.w3.org/1999/xlink" x="0px" y="0px"
	 width="100px" height="100px" viewBox="0 0 100 100" enable-background="new 0 0 100 100" xml:space="preserve">
<path fill="#FFFFFF" d="M90.954,0H9.046C4.05,0,0,4.05,0,9.046v81.908C0,95.95,4.05,100,9.046,100h81.908
	c4.996,0,9.046-4.05,9.046-9.046V9.046C100,4.05,95.95,0,90.954,0z M30.944,86.347c0,1.454-1.179,2.632-2.632,2.632H17.106
	c-1.454,0-2.632-1.178-2.632-2.632V39.373c0-1.454,1.178-2.632,2.632-2.632h11.206c1.454,0,2.632,1.178,2.632,2.632V86.347z
	 M22.709,32.312c-5.879,0-10.646-4.766-10.646-10.646s4.766-10.646,10.646-10.646s10.646,4.766,10.646,10.646
	S28.588,32.312,22.709,32.312z M89.506,86.559c0,1.337-1.084,2.42-2.421,2.42H75.061c-1.337,0-2.421-1.083-2.421-2.42V64.525
	c0-3.287,0.964-14.404-8.59-14.404c-7.411,0-8.913,7.609-9.216,11.024v25.413c0,1.337-1.083,2.42-2.42,2.42h-11.63
	c-1.337,0-2.42-1.083-2.42-2.42V39.161c0-1.337,1.083-2.42,2.42-2.42h11.63c1.336,0,2.42,1.083,2.42,2.42v4.098
	c2.748-4.124,6.832-7.307,15.527-7.307c19.254,0,19.145,17.989,19.145,27.873V86.559L89.506,86.559z"/>
</svg>
