<?xml version="1.0" encoding="utf-8"?>
<!-- Generator: Adobe Illustrator 16.0.0, SVG Export Plug-In . SVG Version: 6.00 Build 0)  -->
<!DOCTYPE svg PUBLIC "-//W3C//DTD SVG 1.1//EN" "http://www.w3.org/Graphics/SVG/1.1/DTD/svg11.dtd">
<svg version="1.1" xmlns="http://www.w3.org/2000/svg" xmlns:xlink="http://www.w3.org/1999/xlink" x="0px" y="0px"
	 width="602.063px" height="344px" viewBox="0 0 602.063 344" enable-background="new 0 0 602.063 344" xml:space="preserve">
<g id="Warstwa_4">
	<g>
		
			<path fill="none" stroke="#FFFFFF" stroke-width="1.5" stroke-linecap="round" stroke-linejoin="round" stroke-miterlimit="10" d="
			M25.625,296.748c0,0,15.204-0.441,18.282,14.711c3.078,15.152,2.394,24.243,7.183,32.253"/>
		
			<path fill="none" stroke="#FFFFFF" stroke-width="1.5" stroke-linecap="round" stroke-linejoin="round" stroke-miterlimit="10" d="
			M31.251,279.559c0,0,2.736,6.115,8.551,11.216c5.815,5.1,8.884,10.87,5.981,31.903"/>
		
			<path fill="none" stroke="#FFFFFF" stroke-width="1.5" stroke-linecap="round" stroke-linejoin="round" stroke-miterlimit="10" d="
			M105.254,217.082c0,0-7.312,5.629-16.482,17.316c-9.171,11.69-15.328,31.137-5.75,48.472c9.578,17.334,19.83,42.009,14.362,60.842
			"/>
		
			<path fill="none" stroke="#FFFFFF" stroke-width="1.5" stroke-linecap="round" stroke-linejoin="round" stroke-miterlimit="10" d="
			M59.361,158.255c0,0-11.084,22.028-3.631,33.285c7.453,11.256,29.7,28.972,26.381,54.163"/>
		
			<path fill="none" stroke="#FFFFFF" stroke-width="1.5" stroke-linecap="round" stroke-linejoin="round" stroke-miterlimit="10" d="
			M246.449,263.544c0,0,4.829,8.202-2.411,22.377c-7.24,14.173-9.178,37.551,0,58.114"/>
		
			<path fill="none" stroke="#FFFFFF" stroke-width="1.5" stroke-linecap="round" stroke-linejoin="round" stroke-miterlimit="10" d="
			M87.558,211.866c0,0,7.061,7.458,4.169,18.892"/>
		
			<path fill="none" stroke="#FFFFFF" stroke-width="1.5" stroke-linecap="round" stroke-linejoin="round" stroke-miterlimit="10" d="
			M69.978,184.905c0,0-6.796,6.151-2.178,21.545"/>
		
			<path fill="none" stroke="#FFFFFF" stroke-width="1.5" stroke-linecap="round" stroke-linejoin="round" stroke-miterlimit="10" d="
			M44.426,175.058c0,0,7.275-1.327,8.728,6.532"/>
		
			<path fill="none" stroke="#FFFFFF" stroke-width="1.5" stroke-linecap="round" stroke-linejoin="round" stroke-miterlimit="10" d="
			M55.718,221.004c0,0,20.539-8.501,25.118,8.509"/>
		
			<path fill="none" stroke="#FFFFFF" stroke-width="1.5" stroke-linecap="round" stroke-linejoin="round" stroke-miterlimit="10" d="
			M62.649,277.631c0,0,19.005-1.538,24.909,13.144"/>
		
			<path fill="none" stroke="#FFFFFF" stroke-width="1.5" stroke-linecap="round" stroke-linejoin="round" stroke-miterlimit="10" d="
			M101.194,296.668c0,0-5.232,11.758-3.812,21.993"/>
		
			<path fill="none" stroke="#FFFFFF" stroke-width="1.5" stroke-linecap="round" stroke-linejoin="round" stroke-miterlimit="10" d="
			M97.388,258.068c0,0-12.645-9.467-19.15,7.676"/>
		
			<path fill="none" stroke="#FFFFFF" stroke-width="1.5" stroke-linecap="round" stroke-linejoin="round" stroke-miterlimit="10" d="
			M260.138,291.65c0,0,0.433,5.12-8.033,8.297c-8.466,3.176-13.868,7.073-14.245,16.814"/>
		
			<path fill="none" stroke="#FFFFFF" stroke-width="1.5" stroke-linecap="round" stroke-linejoin="round" stroke-miterlimit="10" d="
			M233.125,276.529c0,0,11.144,4.046,8.351,15.43"/>
		
			<path fill="none" stroke="#FFFFFF" stroke-width="1.5" stroke-linecap="round" stroke-linejoin="round" stroke-miterlimit="10" d="
			M222.256,312.92c0,0,3.533,17.918,16.819,14.938"/>
		
			<path fill="none" stroke="#FFFFFF" stroke-width="1.5" stroke-linecap="round" stroke-linejoin="round" stroke-miterlimit="10" d="
			M439.46,257.095c0,0-6.474,7.165-5.19,27.084"/>
		
			<path fill="none" stroke="#FFFFFF" stroke-width="1.5" stroke-linecap="round" stroke-linejoin="round" stroke-miterlimit="10" d="
			M370.535,91.758c0,0,3.194,18.928,11.787,26.021c8.594,7.091,23.679,30.367,21.267,56.718s-0.798,48.105,15.839,73.108
			c16.638,24.999,23.564,74.353,11.764,96.107"/>
		
			<path fill="none" stroke="#FFFFFF" stroke-width="1.5" stroke-linecap="round" stroke-linejoin="round" stroke-miterlimit="10" d="
			M418.195,302.206"/>
		
			<path fill="none" stroke="#FFFFFF" stroke-width="1.5" stroke-linecap="round" stroke-linejoin="round" stroke-miterlimit="10" d="
			M423.711,289.112c0,0,10.449,5.37,13.069,31.121"/>
		
			<path fill="none" stroke="#FFFFFF" stroke-width="1.5" stroke-linecap="round" stroke-linejoin="round" stroke-miterlimit="10" d="
			M418.195,302.206c0,0,14.53,0.594,18.124,23.972"/>
		
			<path fill="none" stroke="#FFFFFF" stroke-width="1.5" stroke-linecap="round" stroke-linejoin="round" stroke-miterlimit="10" d="
			M452.676,299.31c0,0-3.036,3.928-3.795,13.287c-0.758,9.36-2.378,16.993-14.779,24.055"/>
		
			<path fill="none" stroke="#FFFFFF" stroke-width="1.5" stroke-linecap="round" stroke-linejoin="round" stroke-miterlimit="10" d="
			M446.512,188.098c0,0-27.018,0.088-20.784,70.222"/>
		
			<path fill="none" stroke="#FFFFFF" stroke-width="1.5" stroke-linecap="round" stroke-linejoin="round" stroke-miterlimit="10" d="
			M424.507,187.307c0,0-6.224,13.379,2.539,26.771"/>
		
			<path fill="none" stroke="#FFFFFF" stroke-width="1.5" stroke-linecap="round" stroke-linejoin="round" stroke-miterlimit="10" d="
			M437.541,210.281c0,0-13.084,5-12.677,23.57"/>
		
			<path fill="none" stroke="#FFFFFF" stroke-width="1.5" stroke-linecap="round" stroke-linejoin="round" stroke-miterlimit="10" d="
			M558.404,258.319c0,0,16.766,32.143,2.4,85.393"/>
		
			<path fill="none" stroke="#FFFFFF" stroke-width="1.5" stroke-linecap="round" stroke-linejoin="round" stroke-miterlimit="10" d="
			M547.979,270.783c0,0,13.896-7.111,18.619,28.526"/>
		
			<path fill="none" stroke="#FFFFFF" stroke-width="1.5" stroke-linecap="round" stroke-linejoin="round" stroke-miterlimit="10" d="
			M584.918,291.635c0,0-4.617,4.672-5.387,16.361c-0.77,11.688-15.215,19.872-15.215,19.872"/>
		
			<path fill="none" stroke="#FFFFFF" stroke-width="1.5" stroke-linecap="round" stroke-linejoin="round" stroke-miterlimit="10" d="
			M578.762,254.07c0,0,1.887,25.777-12.141,42.774"/>
		
			<path fill="none" stroke="#FFFFFF" stroke-width="1.5" stroke-linecap="round" stroke-linejoin="round" stroke-miterlimit="10" d="
			M315.698,224.696c0,0,7.997,16.717,26.493,30.396c16.474,12.185,24.053,50.853,15.599,87.354"/>
		
			<path fill="none" stroke="#FFFFFF" stroke-width="1.5" stroke-linecap="round" stroke-linejoin="round" stroke-miterlimit="10" d="
			M494.102,255.767c0,0-4.425,6.895-2.528,18.13c1.896,11.235-2.784,16.562-11.979,23.366c-9.195,6.804-13.937,24.647-5.087,45.403"
			/>
		
			<path fill="none" stroke="#FFFFFF" stroke-width="1.5" stroke-linecap="round" stroke-linejoin="round" stroke-miterlimit="10" d="
			M317.357,257.595c0,0,7.033-1.925,15.078,6.043c8.048,7.968,10.641,24.212,27.086,27.049"/>
		
			<path fill="none" stroke="#FFFFFF" stroke-width="1.5" stroke-linecap="round" stroke-linejoin="round" stroke-miterlimit="10" d="
			M327.483,281.938c0,0,7.348-9.293,19.262,2.007"/>
		
			<path fill="none" stroke="#FFFFFF" stroke-width="1.5" stroke-linecap="round" stroke-linejoin="round" stroke-miterlimit="10" d="
			M353.631,240.951c0,0-9.903,5.864-5.308,19.268"/>
		
			<path fill="none" stroke="#FFFFFF" stroke-width="1.5" stroke-linecap="round" stroke-linejoin="round" stroke-miterlimit="10" d="
			M378.889,290.866c0,0-0.771,13.737-17.684,25.216"/>
		
			<path fill="none" stroke="#FFFFFF" stroke-width="1.5" stroke-linecap="round" stroke-linejoin="round" stroke-miterlimit="10" d="
			M373.759,284.621c0,0,1.185,15.429-12.526,23.697"/>
		
			<path fill="none" stroke="#FFFFFF" stroke-width="1.5" stroke-linecap="round" stroke-linejoin="round" stroke-miterlimit="10" d="
			M500.745,287.536c0,0-10.06,8.749-21.151,9.727"/>
		
			<path fill="none" stroke="#FFFFFF" stroke-width="1.5" stroke-linecap="round" stroke-linejoin="round" stroke-miterlimit="10" d="
			M500.86,282.961c0,0-2.479,6.57-15.364,9.468"/>
		
			<path fill="none" stroke="#FFFFFF" stroke-width="1.5" stroke-linecap="round" stroke-linejoin="round" stroke-miterlimit="10" d="
			M318.156,116.551c0,0,7.209,13.889,2.075,34.859"/>
		
			<path fill="none" stroke="#FFFFFF" stroke-width="1.5" stroke-linecap="round" stroke-linejoin="round" stroke-miterlimit="10" d="
			M350.361,211.319c0,0-16.691,13.434-10.894,41.389"/>
		
			<path fill="none" stroke="#FFFFFF" stroke-width="1.5" stroke-linecap="round" stroke-linejoin="round" stroke-miterlimit="10" d="
			M322.129,173.121c0,0,10.496,3.825,11.352,16.916c0.854,13.092-4.484,31.684,4.377,61.639"/>
		
			<path fill="none" stroke="#FFFFFF" stroke-width="1.5" stroke-linecap="round" stroke-linejoin="round" stroke-miterlimit="10" d="
			M301.202,150.712c0,0,18.389-18.365,30.429,31.451"/>
		
			<path fill="none" stroke="#FFFFFF" stroke-width="1.5" stroke-linecap="round" stroke-linejoin="round" stroke-miterlimit="10" d="
			M167.258,188.092c0,0,2.69,9.105-6.095,33.534c-8.784,24.429,3.018,40.648,7.891,46.825"/>
		
			<path fill="none" stroke="#FFFFFF" stroke-width="1.5" stroke-linecap="round" stroke-linejoin="round" stroke-miterlimit="10" d="
			M207.331,99.619c0,0,2.256,11.876,10.722,16.328c8.465,4.451,23.601,17.439,2.309,52.83
			c-21.293,35.393-75.419,77.297-40.02,176.308"/>
		
			<path fill="none" stroke="#FFFFFF" stroke-width="1.5" stroke-linecap="round" stroke-linejoin="round" stroke-miterlimit="10" d="
			M156.057,276.83c0,0-0.172,12.352,12.997,23.853"/>
		
			<path fill="none" stroke="#FFFFFF" stroke-width="1.5" stroke-linecap="round" stroke-linejoin="round" stroke-miterlimit="10" d="
			M194.482,284.056c0,0-3.708,6.698-12.943,10.594s-11.188,15.971-8.172,27.175"/>
		
			<path fill="none" stroke="#FFFFFF" stroke-width="1.5" stroke-linecap="round" stroke-linejoin="round" stroke-miterlimit="10" d="
			M197.034,239.045c0,0-19.615-2.602-24.824,14.487"/>
		
			<path fill="none" stroke="#FFFFFF" stroke-width="1.5" stroke-linecap="round" stroke-linejoin="round" stroke-miterlimit="10" d="
			M187.58,192.794c0,0-6.266,18.985-3.844,30.549"/>
		
			<path fill="none" stroke="#FFFFFF" stroke-width="1.5" stroke-linecap="round" stroke-linejoin="round" stroke-miterlimit="10" d="
			M227.59,197.183c0,0-5.588,6.71-16.499,6.849c-10.91,0.139-15.346,3.445-22.107,10.018"/>
		
			<path fill="none" stroke="#FFFFFF" stroke-width="1.5" stroke-linecap="round" stroke-linejoin="round" stroke-miterlimit="10" d="
			M159.819,199.84c0,0,1.783,3.551-1.759,12.165c-3.544,8.614-1.518,14.113,0.72,18.399"/>
		
			<path fill="none" stroke="#FFFFFF" stroke-width="1.5" stroke-linecap="round" stroke-linejoin="round" stroke-miterlimit="10" d="
			M232.624,110.009c0,0-4.681,8.847-2.314,20.55"/>
		
			<path fill="none" stroke="#FFFFFF" stroke-width="1.5" stroke-linecap="round" stroke-linejoin="round" stroke-miterlimit="10" d="
			M194.194,131.554c0,0,4.755,4.214,14.093,1.833c9.338-2.382,21.016-3.097,16.545,27.241"/>
		
			<path fill="none" stroke="#FFFFFF" stroke-width="1.5" stroke-linecap="round" stroke-linejoin="round" stroke-miterlimit="10" d="
			M252.343,62.828c0,0-5.815,14.361,0,27.74c5.814,13.379,22.574,33.511,5.473,52.56c-17.103,19.047-31.069,21.077-42.642,33.591"/>
		
			<path fill="none" stroke="#FFFFFF" stroke-width="1.5" stroke-linecap="round" stroke-linejoin="round" stroke-miterlimit="10" d="
			M247.518,130.559c0,0,4.805,20.264-7.281,28.007"/>
		
			<path fill="none" stroke="#FFFFFF" stroke-width="1.5" stroke-linecap="round" stroke-linejoin="round" stroke-miterlimit="10" d="
			M268.419,89.229c0,0-7.783,8.784-6.029,21.817"/>
		
			<path fill="none" stroke="#FFFFFF" stroke-width="1.5" stroke-linecap="round" stroke-linejoin="round" stroke-miterlimit="10" d="
			M451.457,44.347c0,0,10.006,36.041,1.54,52.112c-8.466,16.072-32.682,23.863-49.241,68.996"/>
		
			<path fill="none" stroke="#FFFFFF" stroke-width="1.5" stroke-linecap="round" stroke-linejoin="round" stroke-miterlimit="10" d="
			M382,148.982c0,0,12.408,9.568,20.475,6.447"/>
		
			<path fill="none" stroke="#FFFFFF" stroke-width="1.5" stroke-linecap="round" stroke-linejoin="round" stroke-miterlimit="10" d="
			M404.58,117.295c0,0-8.811,4.473-4.775,28.425"/>
		
			<path fill="none" stroke="#FFFFFF" stroke-width="1.5" stroke-linecap="round" stroke-linejoin="round" stroke-miterlimit="10" d="
			M384.844,86.929c0,0,1.83,9.473-0.731,32.474"/>
		
			<path fill="none" stroke="#FFFFFF" stroke-width="1.5" stroke-linecap="round" stroke-linejoin="round" stroke-miterlimit="10" d="
			M431.799,94.187c0,0,5.736,6.04,4.424,21.039"/>
		
			<path fill="none" stroke="#FFFFFF" stroke-width="1.5" stroke-linecap="round" stroke-linejoin="round" stroke-miterlimit="10" d="
			M458.904,127.526c0,0-19.557,15.393-39.477,7.109"/>
		
			<path fill="none" stroke="#FFFFFF" stroke-width="1.5" stroke-linecap="round" stroke-linejoin="round" stroke-miterlimit="10" d="
			M460.952,77.391c0,0-0.884,10.251-6.408,15.309"/>
		
			<path fill="none" stroke="#FFFFFF" stroke-width="1.5" stroke-linecap="round" stroke-linejoin="round" stroke-miterlimit="10" d="
			M437.088,59.444c0,0,11.799,4.234,19.305,17.946"/>
		
			<path fill="none" stroke="#FFFFFF" stroke-width="1.5" stroke-linecap="round" stroke-linejoin="round" stroke-miterlimit="10" d="
			M559.055-236.115"/>
	</g>
	<path fill="none" stroke="#FFFFFF" stroke-width="1.5" stroke-linecap="round" stroke-linejoin="round" stroke-miterlimit="10" d="
		M123.962,180.285c0,0,0.718,3.72-1.213,7.813"/>
	<path fill="none" stroke="#FFFFFF" stroke-width="1.5" stroke-linecap="round" stroke-linejoin="round" stroke-miterlimit="10" d="
		M111.428,176.171c0,0-0.839,4.074,0,7.773"/>
	<path fill="none" stroke="#FFFFFF" stroke-width="1.5" stroke-linecap="round" stroke-linejoin="round" stroke-miterlimit="10" d="
		M134.157,193.922c0,0-1.368,3.354-2.565,4.165"/>
	<path fill="none" stroke="#FFFFFF" stroke-width="1.5" stroke-linecap="round" stroke-linejoin="round" stroke-miterlimit="10" d="
		M131.591,185.105c0,0-2.205,11.35-5.806,12.354"/>
	<path fill="none" stroke="#FFFFFF" stroke-width="1.5" stroke-linecap="round" stroke-linejoin="round" stroke-miterlimit="10" d="
		M121.549,174.496c0,0-5.008,4.708-5.179,7.846"/>
	<path fill="none" stroke="#FFFFFF" stroke-width="1.5" stroke-linecap="round" stroke-linejoin="round" stroke-miterlimit="10" d="
		M80.113,125.303c0,0,1.756,11.976-3.398,16.379"/>
	<path fill="none" stroke="#FFFFFF" stroke-width="1.5" stroke-linecap="round" stroke-linejoin="round" stroke-miterlimit="10" d="
		M73.145,123.921c0,0,2.267,6.286,0,9.572"/>
	<path fill="none" stroke="#FFFFFF" stroke-width="1.5" stroke-linecap="round" stroke-linejoin="round" stroke-miterlimit="10" d="
		M65.241,114.882c0,0-1.362,5.227,0,10.421"/>
	<path fill="none" stroke="#FFFFFF" stroke-width="1.5" stroke-linecap="round" stroke-linejoin="round" stroke-miterlimit="10" d="
		M58.7,118.593c0,0-0.478,6.656-1.504,9.173"/>
	<path fill="none" stroke="#FFFFFF" stroke-width="1.5" stroke-linecap="round" stroke-linejoin="round" stroke-miterlimit="10" d="
		M49.572,121.814c0,0,0.27,4.787,2.322,8.033"/>
	<path fill="none" stroke="#FFFFFF" stroke-width="1.5" stroke-linecap="round" stroke-linejoin="round" stroke-miterlimit="10" d="
		M227.68,230.546c0,0,0.15,1.906,1.641,6.071"/>
	<path fill="none" stroke="#FFFFFF" stroke-width="1.5" stroke-linecap="round" stroke-linejoin="round" stroke-miterlimit="10" d="
		M235.549,221.254c0,0-0.803,8.29,0.736,11.528"/>
	<path fill="none" stroke="#FFFFFF" stroke-width="1.5" stroke-linecap="round" stroke-linejoin="round" stroke-miterlimit="10" d="
		M242.943,223.531c0,0,1.356,10.002,0,13.086"/>
	<path fill="none" stroke="#FFFFFF" stroke-width="1.5" stroke-linecap="round" stroke-linejoin="round" stroke-miterlimit="10" d="
		M255.825,220.576c0,0-5.174,7.536-5.174,13.006"/>
	<path fill="none" stroke="#FFFFFF" stroke-width="1.5" stroke-linecap="round" stroke-linejoin="round" stroke-miterlimit="10" d="
		M264.333,227.58c0,0-1.935,11.95-10.288,15.066"/>
	<path fill="none" stroke="#FFFFFF" stroke-width="1.5" stroke-linecap="round" stroke-linejoin="round" stroke-miterlimit="10" d="
		M463.279,151.503c0,0-6.776,5.066-8.658,14.219"/>
	<path fill="none" stroke="#FFFFFF" stroke-width="1.5" stroke-linecap="round" stroke-linejoin="round" stroke-miterlimit="10" d="
		M472.342,159.983c0,0-12.111,5.211-15.088,12.755"/>
	<path fill="none" stroke="#FFFFFF" stroke-width="1.5" stroke-linecap="round" stroke-linejoin="round" stroke-miterlimit="10" d="
		M482.71,188.6c0,0-13.337,4.239-19.431,0.992"/>
	<path fill="none" stroke="#FFFFFF" stroke-width="1.5" stroke-linecap="round" stroke-linejoin="round" stroke-miterlimit="10" d="
		M482.71,179.095c0,0-10.136,7.008-16.461,3.017"/>
	<path fill="none" stroke="#FFFFFF" stroke-width="1.5" stroke-linecap="round" stroke-linejoin="round" stroke-miterlimit="10" d="
		M478.672,172.74c0,0-9.642,3.728-15.393,2.605"/>
	<path fill="none" stroke="#FFFFFF" stroke-width="1.5" stroke-linecap="round" stroke-linejoin="round" stroke-miterlimit="10" d="
		M532.242,233.852c0,0-0.387,6.87,6.819,8.471"/>
	<path fill="none" stroke="#FFFFFF" stroke-width="1.5" stroke-linecap="round" stroke-linejoin="round" stroke-miterlimit="10" d="
		M534.742,226.379c0,0,3.356,7.697,7.355,9.914"/>
	<path fill="none" stroke="#FFFFFF" stroke-width="1.5" stroke-linecap="round" stroke-linejoin="round" stroke-miterlimit="10" d="
		M546.855,222.219c0,0,3.215,8.178,1.826,15.916"/>
	<path fill="none" stroke="#FFFFFF" stroke-width="1.5" stroke-linecap="round" stroke-linejoin="round" stroke-miterlimit="10" d="
		M556.148,214.078c0,0,2.525,12.73,0,19.773"/>
	<path fill="none" stroke="#FFFFFF" stroke-width="1.5" stroke-linecap="round" stroke-linejoin="round" stroke-miterlimit="10" d="
		M563.639,218.376c0,0,1.096,6.877-1.127,13.398"/>
	<path fill="none" stroke="#FFFFFF" stroke-width="1.5" stroke-linecap="round" stroke-linejoin="round" stroke-miterlimit="10" d="
		M312.782,190.844c0,0,3.584,5.559,3.58,10.438"/>
	<path fill="none" stroke="#FFFFFF" stroke-width="1.5" stroke-linecap="round" stroke-linejoin="round" stroke-miterlimit="10" d="
		M304.257,191.338c0,0,6.409,9.019,6.752,12.235"/>
	<path fill="none" stroke="#FFFFFF" stroke-width="1.5" stroke-linecap="round" stroke-linejoin="round" stroke-miterlimit="10" d="
		M298.909,198.628c0,0,1.887,6.094,6.094,8.896"/>
	<path fill="none" stroke="#FFFFFF" stroke-width="1.5" stroke-linecap="round" stroke-linejoin="round" stroke-miterlimit="10" d="
		M292.093,199.697c0,0,2.154,8.858,7.092,11.023"/>
	<path fill="none" stroke="#FFFFFF" stroke-width="1.5" stroke-linecap="round" stroke-linejoin="round" stroke-miterlimit="10" d="
		M287.042,211.271c0,0,2.335,6.885,7.575,7.546"/>
	<path fill="none" stroke="#FFFFFF" stroke-width="1.5" stroke-linecap="round" stroke-linejoin="round" stroke-miterlimit="10" d="
		M176.408,149.032c0,0,3.079,11.819,0,17.027"/>
	<path fill="none" stroke="#FFFFFF" stroke-width="1.5" stroke-linecap="round" stroke-linejoin="round" stroke-miterlimit="10" d="
		M169.054,146.092c0,0,1.54,6.132,0,12.516"/>
	<path fill="none" stroke="#FFFFFF" stroke-width="1.5" stroke-linecap="round" stroke-linejoin="round" stroke-miterlimit="10" d="
		M161.163,150.055c0,0,3.168,11.23,2.365,16.005"/>
	<path fill="none" stroke="#FFFFFF" stroke-width="1.5" stroke-linecap="round" stroke-linejoin="round" stroke-miterlimit="10" d="
		M156.793,149.032c0,0-1.062,11.412,1.41,15.525"/>
	<path fill="none" stroke="#FFFFFF" stroke-width="1.5" stroke-linecap="round" stroke-linejoin="round" stroke-miterlimit="10" d="
		M149.6,157.546c0,0,0.896,5.81,2.821,9.549"/>
	<path fill="none" stroke="#FFFFFF" stroke-width="1.5" stroke-linecap="round" stroke-linejoin="round" stroke-miterlimit="10" d="
		M218.209,67.149c0,0,0.101,6.576-2.465,12.487"/>
	<path fill="none" stroke="#FFFFFF" stroke-width="1.5" stroke-linecap="round" stroke-linejoin="round" stroke-miterlimit="10" d="
		M204.456,64.31c0,0,4.104,9.767,3.078,16.261"/>
	<path fill="none" stroke="#FFFFFF" stroke-width="1.5" stroke-linecap="round" stroke-linejoin="round" stroke-miterlimit="10" d="
		M194.194,64.31c0,0,6.771,8.468,6.636,16.261"/>
	<path fill="none" stroke="#FFFFFF" stroke-width="1.5" stroke-linecap="round" stroke-linejoin="round" stroke-miterlimit="10" d="
		M181.815,75.118c0,0,3.144,11.924,7.591,13.558"/>
	<path fill="none" stroke="#FFFFFF" stroke-width="1.5" stroke-linecap="round" stroke-linejoin="round" stroke-miterlimit="10" d="
		M177.093,84.156c0,0,0.293,4.206,5.876,6.804"/>
	<path fill="none" stroke="#FFFFFF" stroke-width="1.5" stroke-linecap="round" stroke-linejoin="round" stroke-miterlimit="10" d="
		M266.024,23.3c0,0-0.896,8.184-4.296,12.813"/>
	<path fill="none" stroke="#FFFFFF" stroke-width="1.5" stroke-linecap="round" stroke-linejoin="round" stroke-miterlimit="10" d="
		M261.064,16.47c0,0,2.224,17.561-2.907,23.622"/>
	<path fill="none" stroke="#FFFFFF" stroke-width="1.5" stroke-linecap="round" stroke-linejoin="round" stroke-miterlimit="10" d="
		M249.808,13.836c0,0,0.482,11.754,0.824,19.546"/>
	<path fill="none" stroke="#FFFFFF" stroke-width="1.5" stroke-linecap="round" stroke-linejoin="round" stroke-miterlimit="10" d="
		M244.349,19.732c0,0,0.117,13.433,3.03,20.359"/>
	<path fill="none" stroke="#FFFFFF" stroke-width="1.5" stroke-linecap="round" stroke-linejoin="round" stroke-miterlimit="10" d="
		M231.22,21.477c0,0,1.113,12.121,8.467,18.615"/>
</g>
<g id="Warstwa_3">
	<g>
		<path fill="#FFFFFF" stroke="#FFFFFF" stroke-width="0.25" stroke-miterlimit="10" d="M105.254,217.082
			c0,0,12.57-6.169,23.088-6.169s11.801-9.416,6.669-13.313c-5.13-3.895-12.313,0-15.135,2.599c0,0,9.749-8.442,6.927-12.338
			c-2.822-3.897-5.388-3.572-8.979,2.272c0,0,3.335-7.468-2.052-10.065c-5.387-2.597-6.157,5.845-6.414,7.793
			c0,0,1.026-6.181-4.104-8.285s-8.722,3.09-7.696,7.96C98.584,192.406,108.589,203.12,105.254,217.082z"/>
		<path fill="#FFFFFF" stroke="#FFFFFF" stroke-width="0.25" stroke-miterlimit="10" d="M167.5,194.119
			c0,0,6.771-14.757,14.984-23.072c8.213-8.316,4.567-16.684-1.363-15.669c-5.929,1.014-9.615,9.735-10.536,13.995
			c0,0,3.445-14.3-0.682-15.111c-4.127-0.813-5.97,1.471-5.89,8.875c0,0-1.081-8.469-6.57-6.237
			c-5.488,2.23-1.923,9.432-1.161,11.156c0,0-2.249-5.637-7.295-3.225c-5.045,2.412-5.286,9.31-2.08,12.301
			C150.112,180.124,163.213,180.58,167.5,194.119z"/>
		<path fill="#FFFFFF" stroke="#FFFFFF" stroke-width="0.25" stroke-miterlimit="10" d="M558.404,258.319
			c0,0,3.326-9.688,7.875-13.301c7.09-5.626,12.631-9.354,9.164-17.565c-3.465-8.212-11.367-3.381-14.334,7.224
			c0,0,0.248-11.947-4.695-12.437c-2.857-0.283-8.008,2.322-5.418,14.042c0,0-7.287-11.716-11.189-7.496
			c-3.904,4.22-2.145,9.091,1.904,12.981c0,0-11.096-6.858-12.842,2.578c-1.746,9.438,7.352,10.382,12.657,9.795
			C545.298,253.723,555.27,253.552,558.404,258.319z"/>
		<path fill="#FFFFFF" stroke="#FFFFFF" stroke-width="0.25" stroke-miterlimit="10" d="M247.264,265.353
			c0,0,6.035-8.487,11.676-10.212c8.791-2.691,15.479-4.105,14.152-14.025c-1.326-9.92-10.734-8.401-16.649,1.181
			c0,0,3.491-12.137-1.442-14.786c-2.853-1.531-8.837-1.096-9.359,12.042c0,0-4.292-15.172-9.437-12.542
			c-5.144,2.63-4.661,8.385-1.565,14.133c0,0-9.512-11.848-13.859-2.934c-4.348,8.914,4.721,13.831,10.318,15.533
			C235.077,254.952,245.342,259.105,247.264,265.353z"/>
		<path fill="#FFFFFF" stroke="#FFFFFF" stroke-width="0.25" stroke-miterlimit="10" d="M252.344,66.283
			c0,0,8.38-9.44,15.903-13.659c7.526-4.217,14.196-14.461,10.775-17.475c-3.42-3.013-7.525-3.414-13.682,5.224
			c0,0,4.104-11.048-0.514-12.254c-4.617-1.204-6.841,4.017-8.38,9.04c0,0,1.539-10.445-4.104-11.851
			c-5.645-1.408-7.526,6.023-6.5,11.247c0,0-3.763-9.039-8.038-7.432c-4.275,1.606-4.789,6.629-2.053,12.654
			c0,0-5.472-9.643-11.801-5.223c-6.327,4.419-4.788,12.253-0.854,14.663C227.031,53.63,243.449,56.039,252.344,66.283z"/>
		<path fill="#FFFFFF" stroke="#FFFFFF" stroke-width="0.25" stroke-miterlimit="10" d="M60.286,159.983
			c0,0,8.596-6.029,15.558-7.711c6.962-1.681,14.289-8.87,12-12.429c-2.29-3.557-5.608-5.009-12.225,0.912
			c0,0,5.351-8.583,1.752-10.877c-3.6-2.294-6.362,1.688-8.525,5.677c0,0,3.125-8.741-1.285-11.487
			c-4.411-2.744-7.284,3.267-7.364,8.118c0,0-1.502-8.931-5.318-8.667c-3.816,0.262-5.131,4.526-3.941,10.541
			c0,0-2.808-9.918-8.817-7.74c-6.01,2.179-6.128,9.457-3.309,12.623C41.631,142.11,54.761,148.622,60.286,159.983z"/>
		<path fill="#FFFFFF" stroke="#FFFFFF" stroke-width="0.25" stroke-miterlimit="10" d="M208.39,103.948
			c0,0-0.171-9.092,5.985-12.123c6.157-3.029,12.657-7.142,11.459-12.771c-1.197-5.627-8.039-5.629-12.484,3.029
			c0,0,3.933-10.605-1.54-12.121c-5.472-1.514-7.695,4.33-7.524,11.905c0,0-6.328-15.801-11.973-10.39
			c-5.643,5.411-1.88,11.256,0.686,13.854c0,0-4.789-5.845-8.723-3.464c-3.934,2.382-3.934,7.146,0,9.524
			c0,0-6.842-3.029-8.381,3.247c-1.538,6.278,5.473,10.391,13.854,9.309C198.128,102.865,206.851,100.918,208.39,103.948z"/>
		<path fill="#FFFFFF" stroke="#FFFFFF" stroke-width="0.25" stroke-miterlimit="10" d="M446.512,188.098
			c0,0,3.582-7.886-0.684-14.269c-4.266-6.384-8.425-13.927-5.248-18.147c3.176-4.221,9.186-0.086,9.825,10.21
			c0,0,0.546-11.695,5.927-9.721c5.38,1.977,5.128,8.456,2.118,15.009c0,0,11.522-10.057,14.438-1.892
			c2.918,8.166-2.595,11.026-5.828,11.758c0,0,6.412-2.239,8.97,2.229c2.558,4.47,0.759,8.655-3.595,8.369
			c0,0,7.154,1.474,6.138,7.918c-1.016,6.445-8.728,5.82-15.683-0.196S449.008,186.364,446.512,188.098z"/>
		<path fill="#FFFFFF" stroke="#FFFFFF" stroke-width="0.25" stroke-miterlimit="10" d="M317.877,227.982
			c0,0-1.068-9.088,4.29-17.931c5.356-8.844,5.325-17.087,0.921-17.971c-4.404-0.883-8.654,3.576-8.154,11.561
			c0,0-0.604-6.656-5.767-5.399c-5.162,1.258-4.441,7.706-2.105,13.973c0,0-3.548-11.973-8.984-6.627
			c-5.438,5.349,0.104,10.09,2.674,12.69c0,0-7.955-7.429-12.173-0.155c-4.217,7.272,1.733,13.207,4.427,12.906
			S314.291,224.053,317.877,227.982z"/>
		<path fill="#FFFFFF" stroke="#FFFFFF" stroke-width="0.25" stroke-miterlimit="10" d="M389.875,74.341
			c0,5.207-2.252,12.974-5.031,12.974c-2.778,0-5.03-7.767-5.03-12.974c0-5.208,2.252-9.431,5.03-9.431
			C387.623,64.91,389.875,69.133,389.875,74.341z"/>
		<path fill="#FFFFFF" stroke="#FFFFFF" stroke-width="0.25" stroke-miterlimit="10" d="M348.013,197.178
			c-1.014,5.047-0.344,13.277,2.349,14.142c2.693,0.868,6.389-5.955,7.403-11.001c1.015-5.048-0.346-9.843-3.038-10.711
			C352.033,188.741,349.029,192.131,348.013,197.178z"/>
		<path fill="#FFFFFF" stroke="#FFFFFF" stroke-width="0.25" stroke-miterlimit="10" d="M462.011,290.988
			c-1.976,4.568-6.897,10.01-9.335,8.321c-2.438-1.69-1.467-9.87,0.51-14.438s5.555-6.901,7.992-5.213
			C463.614,281.348,463.987,286.42,462.011,290.988z"/>
		<path fill="#FFFFFF" stroke="#FFFFFF" stroke-width="0.25" stroke-miterlimit="10" d="M427.676,177.626
			c0.373,3.615-0.906,9.309-3.169,9.681c-2.263,0.373-4.651-4.716-5.022-8.331c-0.372-3.615,1.16-6.848,3.422-7.221
			C425.169,171.382,427.305,174.011,427.676,177.626z"/>
		<path fill="#FFFFFF" stroke="#FFFFFF" stroke-width="0.25" stroke-miterlimit="10" d="M245.717,121.854
			c-0.372,3.615,0.906,9.309,3.169,9.68c2.262,0.374,4.65-4.715,5.022-8.329c0.373-3.616-1.159-6.849-3.422-7.222
			S246.089,118.238,245.717,121.854z"/>
		<path fill="#FFFFFF" stroke="#FFFFFF" stroke-width="0.25" stroke-miterlimit="10" d="M455.283,32.194
			c0.522,5.06-0.961,12.979-3.751,13.438c-2.789,0.46-5.826-6.714-6.348-11.773c-0.521-5.061,1.317-9.536,4.106-9.997
			C452.082,23.403,454.764,27.134,455.283,32.194z"/>
		<path fill="#FFFFFF" stroke="#FFFFFF" stroke-width="0.25" stroke-miterlimit="10" d="M310.486,106.114
			c1.114,4.904,4.968,11.421,7.67,10.437c2.703-0.984,3.232-9.096,2.118-14.002c-1.115-4.901-4.209-8.082-6.912-7.097
			C310.658,96.436,309.371,101.211,310.486,106.114z"/>
		<path fill="#FFFFFF" stroke="#FFFFFF" stroke-width="0.25" stroke-miterlimit="10" d="M183.813,182.973
			c-0.389,3.78,0.719,9.697,2.804,10.041c2.084,0.343,4.353-5.018,4.742-8.799c0.389-3.779-0.984-7.123-3.068-7.467
			S184.201,179.19,183.813,182.973z"/>
		<path fill="#FFFFFF" stroke="#FFFFFF" stroke-width="0.25" stroke-miterlimit="10" d="M150.18,270.994
			c1.16,3.521,4.461,7.939,6.4,6.915c1.938-1.023,1.783-7.102,0.623-10.62c-1.159-3.52-3.671-5.542-5.611-4.519
			C149.652,263.794,149.021,267.477,150.18,270.994z"/>
		<path fill="#FFFFFF" stroke="#FFFFFF" stroke-width="0.25" stroke-miterlimit="10" d="M70.321,174.732
			c-1.367,3.26-2.034,9.038-0.343,10.173c1.691,1.136,5.098-2.803,6.464-6.061s1.104-6.82-0.587-7.956
			C74.165,169.754,71.687,171.476,70.321,174.732z"/>
		<path fill="#FFFFFF" stroke="#FFFFFF" stroke-width="0.25" stroke-miterlimit="10" d="M370.873,275.118
			c-0.229,3.677,0.978,9.315,2.886,9.503c1.908,0.191,3.794-5.14,4.022-8.816s-1.133-6.812-3.042-7.002
			C372.831,268.613,371.102,271.44,370.873,275.118z"/>
		<path fill="#FFFFFF" stroke="#FFFFFF" stroke-width="0.25" stroke-miterlimit="10" d="M32.212,266.374
			c2.208,5.266,3.014,14.792-0.055,16.854s-8.849-4.124-11.058-9.39c-2.209-5.266-1.512-11.209,1.557-13.271
			C25.726,258.506,30.003,261.107,32.212,266.374z"/>
		<path fill="#FFFFFF" stroke="#FFFFFF" stroke-width="0.25" stroke-miterlimit="10" d="M423.766,272.258
			c2.209,5.267,3.015,14.793-0.055,16.854c-3.068,2.061-8.85-4.124-11.059-9.391c-2.209-5.268-1.512-11.208,1.559-13.271
			C417.279,264.39,421.557,266.991,423.766,272.258z"/>
		<path fill="#FFFFFF" stroke="#FFFFFF" stroke-width="0.25" stroke-miterlimit="10" d="M17.208,286.918
			c3.923,1.284,9.166,6.169,8.417,9.83c-0.749,3.661-7.205,4.712-11.128,3.429c-3.922-1.285-6.496-5.295-5.748-8.957
			C9.498,287.56,13.286,285.634,17.208,286.918z"/>
		<path fill="#FFFFFF" stroke="#FFFFFF" stroke-width="0.25" stroke-miterlimit="10" d="M218.981,303.622
			c2.218,2.394,4.517,7.456,3.275,9.298c-1.242,1.843-5.555-0.232-7.771-2.625c-2.218-2.395-3.009-5.828-1.767-7.672
			C213.959,300.781,216.764,301.228,218.981,303.622z"/>
		<path fill="#FFFFFF" stroke="#FFFFFF" stroke-width="0.25" stroke-miterlimit="10" d="M414.92,292.908
			c2.219,2.394,4.518,7.457,3.275,9.298c-1.242,1.845-5.555-0.232-7.771-2.625c-2.217-2.394-3.009-5.829-1.767-7.673
			C409.898,290.066,412.703,290.515,414.92,292.908z"/>
		<path fill="#FFFFFF" stroke="#FFFFFF" stroke-width="0.25" stroke-miterlimit="10" d="M367.86,81.815
			c2.688,3.048,5.315,9.544,3.61,11.952c-1.703,2.407-7.094-0.185-9.781-3.231c-2.689-3.049-3.488-7.472-1.783-9.881
			C361.611,78.248,365.172,78.768,367.86,81.815z"/>
		<path fill="#FFFFFF" stroke="#FFFFFF" stroke-width="0.25" stroke-miterlimit="10" d="M434.148,48.328
			c2.688,3.048,5.315,9.545,3.611,11.952c-1.704,2.409-7.095-0.184-9.783-3.231c-2.689-3.049-3.487-7.471-1.783-9.879
			C427.898,44.762,431.459,45.281,434.148,48.328z"/>
		<path fill="#FFFFFF" stroke="#FFFFFF" stroke-width="0.25" stroke-miterlimit="10" d="M232.609,97.93
			c-1.811,3.951-2.721,11.156-0.512,12.779c2.21,1.623,6.701-2.952,8.513-6.904c1.813-3.951,1.49-8.47-0.72-10.093
			C237.681,92.09,234.421,93.979,232.609,97.93z"/>
		<path fill="#FFFFFF" stroke="#FFFFFF" stroke-width="0.25" stroke-miterlimit="10" d="M198.481,272.956
			c-2.689,3.048-5.315,9.545-3.611,11.952c1.704,2.408,7.095-0.184,9.782-3.23c2.689-3.05,3.487-7.472,1.783-9.881
			C204.73,269.389,201.17,269.908,198.481,272.956z"/>
		<path fill="#FFFFFF" stroke="#FFFFFF" stroke-width="0.25" stroke-miterlimit="10" d="M359.105,230.195
			c-3.125,2.281-6.752,7.956-5.475,10.756c1.275,2.801,6.974,1.666,10.098-0.615c3.128-2.285,4.627-6.406,3.351-9.204
			C365.802,228.33,362.232,227.911,359.105,230.195z"/>
		<path fill="#FFFFFF" stroke="#FFFFFF" stroke-width="0.25" stroke-miterlimit="10" d="M231.689,267.425
			c1.679,2.435,2.954,7.429,1.436,9.104c-1.518,1.679-5.254-0.593-6.934-3.029c-1.681-2.437-1.812-5.77-0.294-7.449
			C227.416,264.375,230.009,264.988,231.689,267.425z"/>
		<path fill="#FFFFFF" stroke="#FFFFFF" stroke-width="0.25" stroke-miterlimit="10" d="M377.986,138.874
			c2.537,2.623,5.289,8.135,4.014,10.108c-1.273,1.978-6.092-0.33-8.629-2.951c-2.538-2.623-3.563-6.351-2.288-8.327
			C372.357,135.729,375.447,136.252,377.986,138.874z"/>
		<path fill="#FFFFFF" stroke="#FFFFFF" stroke-width="0.25" stroke-miterlimit="10" d="M379.391,279.57
			c-1.504,3.683-2.294,10.126-0.502,11.296c1.79,1.172,5.483-3.374,6.985-7.057c1.503-3.686,1.271-7.621-0.521-8.793
			C383.563,273.848,380.893,275.886,379.391,279.57z"/>
		<path fill="#FFFFFF" stroke="#FFFFFF" stroke-width="0.25" stroke-miterlimit="10" d="M430.282,83.616
			c1.889,3.388,3.37,9.632,1.723,11.102c-1.646,1.472-5.798-2.39-7.685-5.776c-1.889-3.389-2.086-7.328-0.439-8.799
			C425.527,78.673,428.394,80.229,430.282,83.616z"/>
		<path fill="#FFFFFF" stroke="#FFFFFF" stroke-width="0.25" stroke-miterlimit="10" d="M269.56,79.146
			c-1.889,3.388-3.371,9.632-1.723,11.102c1.646,1.471,5.799-2.39,7.685-5.777c1.89-3.388,2.087-7.328,0.439-8.798
			S271.447,75.758,269.56,79.146z"/>
		<path fill="#FFFFFF" stroke="#FFFFFF" stroke-width="0.25" stroke-miterlimit="10" d="M105.166,252.492
			c-3.261,0.394-7.97,3.037-7.777,5.576c0.19,2.54,5.208,4.014,8.469,3.619c3.262-0.395,5.751-2.77,5.561-5.311
			C111.226,253.839,108.427,252.099,105.166,252.492z"/>
		<path fill="#FFFFFF" stroke="#FFFFFF" stroke-width="0.25" stroke-miterlimit="10" d="M540.53,267.434
			c3.248-0.53,8.304,0.729,8.56,3.258c0.258,2.53-4.377,5.373-7.625,5.903c-3.25,0.53-6.093-1.09-6.352-3.62
			C534.855,270.444,537.281,267.964,540.53,267.434z"/>
		<path fill="#FFFFFF" stroke="#FFFFFF" stroke-width="0.25" stroke-miterlimit="10" d="M102.113,286.466
			c-1.594,3.08-2.605,8.807-0.919,10.202c1.685,1.399,5.43-2.062,7.023-5.141c1.595-3.08,1.521-6.712-0.165-8.109
			C106.366,282.021,103.708,283.385,102.113,286.466z"/>
		<path fill="#FFFFFF" stroke="#FFFFFF" stroke-width="0.25" stroke-miterlimit="10" d="M230.48,185.969
			c-2.264,3.282-4.409,9.537-2.891,11.214c1.518,1.68,6.125-1.855,8.388-5.139c2.266-3.282,2.87-7.304,1.352-8.981
			S232.745,182.687,230.48,185.969z"/>
		<path fill="#FFFFFF" stroke="#FFFFFF" stroke-width="0.25" stroke-miterlimit="10" d="M203.228,229.31
			c-3.205,1.593-7.182,6.549-6.193,9.735c0.987,3.187,6.567,3.396,9.771,1.805c3.206-1.592,5.003-5.466,4.015-8.652
			C209.831,229.011,206.433,227.718,203.228,229.31z"/>
		<path fill="#FFFFFF" stroke="#FFFFFF" stroke-width="0.25" stroke-miterlimit="10" d="M412.128,112.979
			c-1.685,2.959-5.696,6.004-7.548,4.316c-1.852-1.688-0.842-7.47,0.842-10.429c1.684-2.96,4.551-3.989,6.402-2.304
			C413.676,106.252,413.813,110.019,412.128,112.979z"/>
		<path fill="#FFFFFF" stroke="#FFFFFF" stroke-width="0.25" stroke-miterlimit="10" d="M467.438,122.646
			c-1.904,3.346-6.439,6.788-8.533,4.881c-2.094-1.911-0.953-8.445,0.951-11.791c1.904-3.348,5.145-4.512,7.238-2.604
			S469.342,119.3,467.438,122.646z"/>
		<path fill="#FFFFFF" stroke="#FFFFFF" stroke-width="0.25" stroke-miterlimit="10" d="M469.327,71.62
			c-2.016,3.543-6.522,7.458-8.375,5.771c-1.853-1.689-0.347-8.339,1.669-11.883c2.018-3.545,5.152-5.048,7.004-3.36
			C471.477,63.837,471.344,68.077,469.327,71.62z"/>
		<path fill="#FFFFFF" stroke="#FFFFFF" stroke-width="0.25" stroke-miterlimit="10" d="M291.704,149.642
			c2.964,2.233,8.33,3.554,9.498,1.07c1.167-2.482-2.306-7.823-5.27-10.058c-2.966-2.233-6.314-2.033-7.481,0.449
			C287.283,143.585,288.739,147.406,291.704,149.642z"/>
		<path fill="#FFFFFF" stroke="#FFFFFF" stroke-width="0.25" stroke-miterlimit="10" d="M188.018,130.758
			c2.56,2.926,7.618,5.552,9.146,3.408c1.53-2.143-1.047-8.244-3.607-11.171c-2.561-2.928-5.876-3.562-7.405-1.419
			C184.622,123.72,185.457,127.831,188.018,130.758z"/>
		<path fill="#FFFFFF" stroke="#FFFFFF" stroke-width="0.25" stroke-miterlimit="10" d="M587.137,248.299
			c-2.018,3.544-6.523,7.458-8.375,5.771c-1.854-1.689-0.348-8.34,1.668-11.883c2.018-3.545,5.152-5.047,7.004-3.361
			C589.285,240.516,589.152,244.755,587.137,248.299z"/>
		<path fill="#FFFFFF" stroke="#FFFFFF" stroke-width="0.25" stroke-miterlimit="10" d="M153.718,196.328
			c1.629,2.862,5.271,6.027,6.768,4.662c1.496-1.363,0.28-6.738-1.349-9.602c-1.63-2.863-4.164-4.078-5.659-2.715
			C151.98,190.038,152.088,193.464,153.718,196.328z"/>
		<path fill="#FFFFFF" stroke="#FFFFFF" stroke-width="0.25" stroke-miterlimit="10" d="M593.414,290.236
			c-1.93,3.391-6.707,6.713-9.051,4.576c-2.346-2.139-1.371-8.925,0.559-12.315c1.93-3.392,5.395-4.406,7.738-2.27
			C595.008,282.366,595.344,286.847,593.414,290.236z"/>
		<path fill="#FFFFFF" stroke="#FFFFFF" stroke-width="0.25" stroke-miterlimit="10" d="M506.465,252.471
			c-2.377,3.801-8.263,7.528-11.151,5.131c-2.891-2.398-1.688-10.01,0.688-13.812c2.377-3.805,6.646-4.943,9.534-2.546
			C508.427,243.643,508.842,248.667,506.465,252.471z"/>
		<path fill="#FFFFFF" stroke="#FFFFFF" stroke-width="0.25" stroke-miterlimit="10" d="M447.453,252.401
			c-1.986,3.489-6.448,7.324-8.301,5.638c-1.852-1.688-0.392-8.261,1.594-11.75c1.986-3.49,5.097-4.951,6.949-3.263
			C449.547,244.715,449.438,248.91,447.453,252.401z"/>
		<path fill="#FFFFFF" stroke="#FFFFFF" stroke-width="0.25" stroke-miterlimit="10" d="M266.354,287.43
			c-1.487,2.613-4.828,5.485-6.216,4.221c-1.387-1.264-0.293-6.186,1.194-8.799c1.487-2.614,3.816-3.708,5.203-2.443
			S267.842,284.815,266.354,287.43z"/>
		<path fill="#FFFFFF" stroke="#FFFFFF" stroke-width="0.25" stroke-miterlimit="10" d="M315.099,172.382
			c2.187,1.646,6.156,2.598,7.03,0.739c0.874-1.859-1.678-5.822-3.864-7.47c-2.186-1.648-4.667-1.477-5.542,0.382
			C311.848,167.893,312.912,170.734,315.099,172.382z"/>
		<path fill="#FFFFFF" stroke="#FFFFFF" stroke-width="0.25" stroke-miterlimit="10" d="M81.483,205.482
			c1.171,3.285,4.331,7.379,6.075,6.384c1.744-0.996,1.411-6.703,0.239-9.988c-1.171-3.288-3.533-5.145-5.277-4.149
			C80.776,198.726,80.312,202.195,81.483,205.482z"/>
		<path fill="#FFFFFF" stroke="#FFFFFF" stroke-width="0.25" stroke-miterlimit="10" d="M34.196,173.517
			c2.681,1.337,7.247,1.504,7.949-0.748c0.703-2.256-2.725-6.077-5.405-7.416c-2.681-1.339-5.423-0.596-6.126,1.658
			C29.912,169.266,31.516,172.177,34.196,173.517z"/>
		<path fill="#FFFFFF" stroke="#FFFFFF" stroke-width="0.25" stroke-miterlimit="10" d="M310.301,262.287
			c2.88-0.125,7.122-2.271,7.057-4.692c-0.065-2.423-4.411-4.202-7.29-4.079c-2.882,0.124-5.163,2.188-5.099,4.611
			C305.034,260.547,307.421,262.41,310.301,262.287z"/>
		<path fill="#FFFFFF" stroke="#FFFFFF" stroke-width="0.25" stroke-miterlimit="10" d="M510.653,283.797
			c-3.303,1.501-8.928,1.689-9.793-0.836c-0.865-2.529,3.356-6.817,6.658-8.317c3.304-1.502,6.682-0.668,7.547,1.858
			C515.932,279.031,513.956,282.297,510.653,283.797z"/>
		<path fill="#FFFFFF" stroke="#FFFFFF" stroke-width="0.25" stroke-miterlimit="10" d="M442.414,218.265
			c-2.578-1.63-5.729-5.816-4.873-7.983c0.855-2.169,5.393-1.496,7.97,0.134c2.579,1.629,3.975,4.707,3.119,6.876
			C447.773,219.459,444.99,219.895,442.414,218.265z"/>
		<path fill="#FFFFFF" stroke="#FFFFFF" stroke-width="0.25" stroke-miterlimit="10" d="M49.073,226.576
			c2.855-0.492,6.903-3.172,6.646-5.572c-0.259-2.401-4.725-3.614-7.58-3.122c-2.855,0.49-4.961,2.837-4.702,5.237
			C43.694,225.521,46.218,227.068,49.073,226.576z"/>
		<path fill="#FFFFFF" stroke="#FFFFFF" stroke-width="0.25" stroke-miterlimit="10" d="M57.305,282.889
			c3.454,0.231,8.703-1.776,8.826-4.68c0.122-2.904-4.93-5.606-8.384-5.838c-3.455-0.233-6.354,1.934-6.476,4.838
			C51.149,280.114,53.851,282.656,57.305,282.889z"/>
		<path fill="#FFFFFF" stroke="#FFFFFF" stroke-width="0.25" stroke-miterlimit="10" d="M320.86,290.678
			c3.241-1.527,7.424-6.016,6.623-8.74c-0.803-2.726-6.285-2.658-9.526-1.13c-3.243,1.527-5.221,4.976-4.418,7.701
			C314.341,291.235,317.617,292.207,320.86,290.678z"/>
		<path fill="#FFFFFF" stroke="#FFFFFF" stroke-width="0.25" stroke-miterlimit="10" d="M509.055,296.859
			c-4.618-1.273-10.908-6.031-10.177-9.563c0.733-3.537,8.212-4.506,12.829-3.234c4.62,1.271,7.77,5.166,7.035,8.699
			C518.01,296.297,513.673,298.13,509.055,296.859z"/>
		<path fill="#FFFFFF" stroke="#FFFFFF" stroke-width="0.25" stroke-miterlimit="10" d="M36.165,183.585
			c3.749-1.135,8.854-5.378,8.261-8.527c-0.596-3.151-6.667-4.016-10.415-2.883c-3.75,1.134-6.306,4.605-5.71,7.758
			C28.896,183.084,32.416,184.719,36.165,183.585z"/>
		<ellipse fill="#FFFFFF" cx="261.729" cy="18.028" rx="3.571" ry="4.193"/>
		<ellipse fill="#FFFFFF" cx="249.808" cy="12.275" rx="3.571" ry="4.194"/>
		<ellipse fill="#FFFFFF" cx="243.808" cy="19.105" rx="3.571" ry="4.194"/>
		<ellipse fill="#FFFFFF" cx="231.132" cy="20.663" rx="3.571" ry="4.195"/>
		<ellipse fill="#FFFFFF" cx="202.742" cy="64.31" rx="3.571" ry="4.52"/>
		<ellipse fill="#FFFFFF" cx="194.195" cy="61.764" rx="3.571" ry="4.52"/>
		<ellipse fill="#FFFFFF" cx="181.815" cy="75.118" rx="3.57" ry="4.519"/>
		<ellipse fill="#FFFFFF" cx="175.682" cy="84.156" rx="3.571" ry="4.52"/>
		<ellipse fill="#FFFFFF" cx="546.856" cy="220.252" rx="3.571" ry="4.52"/>
		<ellipse fill="#FFFFFF" cx="531.171" cy="231.774" rx="3.571" ry="4.519"/>
		<ellipse fill="#FFFFFF" cx="257.616" cy="218.7" rx="3.571" ry="4.52"/>
		<ellipse fill="#FFFFFF" cx="244.038" cy="222.39" rx="3.571" ry="4.519"/>
		<ellipse fill="#FFFFFF" cx="123.962" cy="177.822" rx="3.571" ry="4.52"/>
		<ellipse fill="#FFFFFF" cx="111.427" cy="173.303" rx="3.571" ry="4.52"/>
		<ellipse fill="#FFFFFF" cx="73.145" cy="121.814" rx="3.571" ry="4.521"/>
		<ellipse fill="#FFFFFF" cx="58.7" cy="117.778" rx="3.571" ry="4.52"/>
		<ellipse fill="#FFFFFF" cx="49.572" cy="119.402" rx="3.571" ry="4.519"/>
		<ellipse fill="#FFFFFF" cx="472.694" cy="159.255" rx="3.571" ry="4.519"/>
		<ellipse fill="#FFFFFF" cx="556.147" cy="214.078" rx="3.571" ry="4.521"/>
		<ellipse fill="#FFFFFF" cx="482.71" cy="188.6" rx="3.571" ry="4.519"/>
		<ellipse fill="#FFFFFF" cx="465.2" cy="151.503" rx="3.571" ry="4.519"/>
		<ellipse fill="#FFFFFF" cx="175.243" cy="149.032" rx="3.037" ry="3.844"/>
		<ellipse fill="#FFFFFF" cx="563.639" cy="218.377" rx="3.037" ry="3.842"/>
		<ellipse fill="#FFFFFF" cx="218.21" cy="66.283" rx="3.037" ry="3.844"/>
		<ellipse fill="#FFFFFF" cx="265.3" cy="23.3" rx="3.037" ry="3.567"/>
		<ellipse fill="#FFFFFF" cx="533.333" cy="224.772" rx="3.037" ry="3.844"/>
		<ellipse fill="#FFFFFF" cx="265.74" cy="226.703" rx="3.037" ry="3.843"/>
		<ellipse fill="#FFFFFF" cx="235.549" cy="220.576" rx="3.037" ry="3.843"/>
		<ellipse fill="#FFFFFF" cx="122.749" cy="173.304" rx="3.037" ry="3.842"/>
		<ellipse fill="#FFFFFF" cx="227.68" cy="228.94" rx="3.037" ry="3.842"/>
		<ellipse fill="#FFFFFF" cx="135.354" cy="191.941" rx="3.037" ry="3.842"/>
		<ellipse fill="#FFFFFF" cx="132.431" cy="182.938" rx="3.036" ry="3.844"/>
		<ellipse fill="#FFFFFF" cx="80.836" cy="123.921" rx="3.037" ry="3.845"/>
		<ellipse fill="#FFFFFF" cx="65.241" cy="113.26" rx="3.037" ry="3.842"/>
		<ellipse fill="#FFFFFF" cx="479.696" cy="172.74" rx="3.036" ry="3.843"/>
		<ellipse fill="#FFFFFF" cx="483.246" cy="176.583" rx="3.037" ry="3.844"/>
		<ellipse fill="#FFFFFF" cx="168.629" cy="145.189" rx="3.037" ry="3.843"/>
		<ellipse fill="#FFFFFF" cx="161.165" cy="150.921" rx="3.037" ry="3.843"/>
		<ellipse fill="#FFFFFF" cx="149.384" cy="158.607" rx="3.037" ry="3.843"/>
		<path fill="#FFFFFF" d="M309.354,192.727c0.668,1.946,2.458,2.84,3.996,1.995s2.243-3.109,1.575-5.056
			c-0.668-1.947-2.456-2.84-3.994-1.995C309.394,188.517,308.688,190.779,309.354,192.727z"/>
		<path fill="#FFFFFF" d="M300.836,193.219c0.668,1.946,2.457,2.839,3.995,1.993s2.244-3.108,1.576-5.056s-2.457-2.84-3.995-1.996
			C300.875,189.006,300.168,191.271,300.836,193.219z"/>
		<path fill="#FFFFFF" d="M294.583,200.844c0.668,1.946,2.456,2.84,3.994,1.996c1.538-0.846,2.244-3.11,1.576-5.057
			c-0.668-1.947-2.456-2.841-3.994-1.995S293.915,198.896,294.583,200.844z"/>
		<path fill="#FFFFFF" d="M289.309,201.228c0.667,1.948,2.456,2.841,3.993,1.995c1.538-0.844,2.245-3.108,1.577-5.056
			c-0.668-1.946-2.457-2.839-3.995-1.993C289.346,197.018,288.641,199.282,289.309,201.228z"/>
		<path fill="#FFFFFF" d="M285.356,211.122c0.668,1.946,2.457,2.841,3.996,1.995c1.537-0.845,2.243-3.11,1.575-5.057
			c-0.668-1.947-2.457-2.839-3.994-1.994C285.395,206.912,284.689,209.176,285.356,211.122z"/>
		<ellipse fill="#FFFFFF" cx="158.003" cy="147.076" rx="3.036" ry="3.844"/>
	</g>
</g>
</svg>
