<?xml version="1.0" encoding="utf-8"?>
<!-- Generator: Adobe Illustrator 16.0.0, SVG Export Plug-In . SVG Version: 6.00 Build 0)  -->
<!DOCTYPE svg PUBLIC "-//W3C//DTD SVG 1.1//EN" "http://www.w3.org/Graphics/SVG/1.1/DTD/svg11.dtd">
<svg version="1.1" id="Warstwa_1" xmlns="http://www.w3.org/2000/svg" xmlns:xlink="http://www.w3.org/1999/xlink" x="0px" y="0px"
	 width="318px" height="1033px" viewBox="0 0 318 1033" enable-background="new 0 0 318 1033" xml:space="preserve">
<g opacity="0.2">
	<g>
		<defs>
			<rect id="SVGID_1_" x="0" y="-2" width="322" height="1035"/>
		</defs>
		<clipPath id="SVGID_2_">
			<use xlink:href="#SVGID_1_"  overflow="visible"/>
		</clipPath>
		<g clip-path="url(#SVGID_2_)">
			<path fill="none" stroke="#FFFFFF" stroke-width="2" stroke-linecap="round" stroke-linejoin="round" stroke-miterlimit="10" d="
				M323.174,628.865c0,0-18.248-7.522-43.484,6.647c-25.233,14.17-42.316,36.038-71.047,25.542
				c-28.729-10.496-29.118-25.31-48.142-25.251"/>
			<path fill="none" stroke="#FFFFFF" stroke-width="2" stroke-linecap="round" stroke-linejoin="round" stroke-miterlimit="10" d="
				M295.369,628.957c0,0-25.513,2.414-34.184-9.947"/>
			<path fill="none" stroke="#FFFFFF" stroke-width="2" stroke-linecap="round" stroke-linejoin="round" stroke-miterlimit="10" d="
				M273.525,639.205c0,0-7.811-4.287-13.44-2.503c-5.629,1.785-13.588,7.383-16.889,3.884"/>
			<path fill="none" stroke="#FFFFFF" stroke-width="2" stroke-linecap="round" stroke-linejoin="round" stroke-miterlimit="10" d="
				M217.314,655.942c0,0,4.145,4.243,15.53,2.082c11.387-2.16,16.176-2.51,16.176-2.51"/>
			<path fill="none" stroke="#FFFFFF" stroke-width="2" stroke-linecap="round" stroke-linejoin="round" stroke-miterlimit="10" d="
				M224.3,663.812c0,0-6.975,2-11.51,11.255"/>
			<path fill="none" stroke="#FFFFFF" stroke-width="2" stroke-linecap="round" stroke-linejoin="round" stroke-miterlimit="10" d="
				M194.6,681.144c0,0,6.147-0.556,9.254-4.986s8.668-7.84,12.617-6.718"/>
			<path fill="none" stroke="#FFFFFF" stroke-width="2" stroke-linecap="round" stroke-linejoin="round" stroke-miterlimit="10" d="
				M199.356,657.076c0,0-3.267,2.238-7.018,1.562c-3.753-0.675-7.247-1.141-7.247-1.141"/>
			<path fill="none" stroke="#FFFFFF" stroke-width="2" stroke-linecap="round" stroke-linejoin="round" stroke-miterlimit="10" d="
				M253.211,665.661c0,0,4.439-6.604,5.149-11.647c0.71-5.045,9.143-10.851,9.143-10.851"/>
			<path fill="none" stroke="#FFFFFF" stroke-width="2" stroke-linecap="round" stroke-linejoin="round" stroke-miterlimit="10" d="
				M301.687,637.301c0,0,2.59-8.932,13.979-10.112"/>
			<path fill="none" stroke="#FFFFFF" stroke-width="2" stroke-linecap="round" stroke-linejoin="round" stroke-miterlimit="10" d="
				M201.958,751.878c0,0,3.36,2.166,11.26-2.386c7.897-4.554,26.012-7.018,36.366,5.294c10.354,12.311,20.712,29.14,35.203,30.173
				c14.49,1.033,28.204-2.295,36.748,3.45"/>
			<path fill="none" stroke="#FFFFFF" stroke-width="2" stroke-linecap="round" stroke-linejoin="round" stroke-miterlimit="10" d="
				M225.835,757.651c0,0,14.219-8.28,26.104,0"/>
			<path fill="none" stroke="#FFFFFF" stroke-width="2" stroke-linecap="round" stroke-linejoin="round" stroke-miterlimit="10" d="
				M265.046,782.493c0,0,6.547-1.86,11.333,0"/>
			<path fill="none" stroke="#FFFFFF" stroke-width="2" stroke-linecap="round" stroke-linejoin="round" stroke-miterlimit="10" d="
				M254.371,744.88c0,0-0.904,9.072,5.05,13.429c5.954,4.357,5.626,15.171,5.626,15.171"/>
			<path fill="none" stroke="#FFFFFF" stroke-width="2" stroke-linecap="round" stroke-linejoin="round" stroke-miterlimit="10" d="
				M213.229,734.033c0,0,8.143-1.198,16.944,11.735"/>
			<path fill="none" stroke="#FFFFFF" stroke-width="2" stroke-linecap="round" stroke-linejoin="round" stroke-miterlimit="10" d="
				M321.503,352.169c0,0-38.111,19.059-59.692,12.12c-21.58-6.938-33.227-26.762-46.685-37.493s-28.469-25.16-43.872-24.128"/>
			<path fill="none" stroke="#FFFFFF" stroke-width="2" stroke-linecap="round" stroke-linejoin="round" stroke-miterlimit="10" d="
				M183.678,307.816c0,0,8.308,11.109,20.006,9.679"/>
			<path fill="none" stroke="#FFFFFF" stroke-width="2" stroke-linecap="round" stroke-linejoin="round" stroke-miterlimit="10" d="
				M191.637,326.622c0,0,15.6-2.249,26.015,2.46"/>
			<path fill="none" stroke="#FFFFFF" stroke-width="2" stroke-linecap="round" stroke-linejoin="round" stroke-miterlimit="10" d="
				M254.726,343.543c0,0,4.726,4.895,7.085,8.627c4.173,6.6,9.491,12.991,24.757,12.12"/>
			<path fill="none" stroke="#FFFFFF" stroke-width="2" stroke-linecap="round" stroke-linejoin="round" stroke-miterlimit="10" d="
				M280.013,374.382c0,0,4.373-8.844,14.138-11.894"/>
			<path fill="none" stroke="#FFFFFF" stroke-width="2" stroke-linecap="round" stroke-linejoin="round" stroke-miterlimit="10" d="
				M240.944,366.334c0,0,12.988,3.608,17.268-3.356"/>
			<path fill="none" stroke="#FFFFFF" stroke-width="2" stroke-linecap="round" stroke-linejoin="round" stroke-miterlimit="10" d="
				M224.734,352.169c0,0,12.782,4.362,16.729,0.342"/>
			<path fill="none" stroke="#FFFFFF" stroke-width="2" stroke-linecap="round" stroke-linejoin="round" stroke-miterlimit="10" d="
				M316.907,785.974c0,0-2.224-7.494-10.383-9.104"/>
			<path fill="none" stroke="#FFFFFF" stroke-width="2" stroke-linecap="round" stroke-linejoin="round" stroke-miterlimit="10" d="
				M321.323,235.05c0,0-8.428,0.943-18.736-3.077c-10.31-4.019-20.576-3.185-30.361,2.202c-9.788,5.39-21.513-0.348-33.342-6.616"/>
			<path fill="none" stroke="#FFFFFF" stroke-width="2" stroke-linecap="round" stroke-linejoin="round" stroke-miterlimit="10" d="
				M306.092,233.181c0,0-7.01-2.037-16.272,10.414"/>
			<path fill="none" stroke="#FFFFFF" stroke-width="2" stroke-linecap="round" stroke-linejoin="round" stroke-miterlimit="10" d="
				M270.032,235.176c0,0-6.106,6.425-14.148,3.982c-8.044-2.444-10.729-5.406-15.39-0.623"/>
			<path fill="none" stroke="#FFFFFF" stroke-width="2" stroke-linecap="round" stroke-linejoin="round" stroke-miterlimit="10" d="
				M281.432,230.496c0,0-11.711,0.337-21.365-6.704"/>
			<path fill="none" stroke="#FFFFFF" stroke-width="2" stroke-linecap="round" stroke-linejoin="round" stroke-miterlimit="10" d="
				M312.467,114.418c0,0-8.885,3.138-21.325,1.981c-12.439-1.156-23.361,2.361-32.372,10.147
				c-9.014,7.783-23.521,5.345-38.302,2.422"/>
			<path fill="none" stroke="#FFFFFF" stroke-width="2" stroke-linecap="round" stroke-linejoin="round" stroke-miterlimit="10" d="
				M295.323,116.636c0,0-8.25-0.111-14.539,14.351"/>
			<path fill="none" stroke="#FFFFFF" stroke-width="2" stroke-linecap="round" stroke-linejoin="round" stroke-miterlimit="10" d="
				M256.688,128.089c0,0-4.692,7.812-14.188,7.579c-9.496-0.234-13.32-2.384-16.939,3.466"/>
			<path fill="none" stroke="#FFFFFF" stroke-width="2" stroke-linecap="round" stroke-linejoin="round" stroke-miterlimit="10" d="
				M267.668,120.559c0,0-12.643,3.42-25.293-0.826"/>
			
				<path fill="#FFFFFF" stroke="#FFFFFF" stroke-width="2" stroke-linecap="round" stroke-linejoin="round" stroke-miterlimit="10" d="
				M242.817,119.606c0,0-0.68-0.666-1.908-4.982c-1.23-4.318-8.911-14.764-26.239-10.178c0,0,6.185,5.469,10.449,9.839
				C229.382,118.657,236.514,119.566,242.817,119.606z"/>
			
				<path fill="#FFFFFF" stroke="#FFFFFF" stroke-width="2" stroke-linecap="round" stroke-linejoin="round" stroke-miterlimit="10" d="
				M222.405,129.619c0,0-5.126-2.71-9.59-4.751c-2.727-1.248-13.354-7.106-21.468-3.374c-8.111,3.734-12.861,5.214-12.861,5.214
				s10.978,3.742,15.929,5.275C199.362,133.516,210.723,135.416,222.405,129.619z"/>
			<path fill="#FFFFFF" d="M225.02,137.963c0.734,9.741-10.369,15.629-17.986,17.806c-5.53,1.58-11.058,3.162-11.058,3.162
				c4.278-3.066,6.26-8.926,12.154-14.174s16.764-7.127,16.764-7.127"/>
			<path fill="none" stroke="#FFFFFF" stroke-width="2" stroke-linecap="round" stroke-linejoin="round" stroke-miterlimit="10" d="
				M225.02,137.963c0.734,9.741-10.369,15.629-17.986,17.806c-5.53,1.58-11.058,3.162-11.058,3.162
				c4.278-3.066,6.26-8.926,12.154-14.174s16.764-7.127,16.764-7.127"/>
			
				<path fill="#FFFFFF" stroke="#FFFFFF" stroke-width="2" stroke-linecap="round" stroke-linejoin="round" stroke-miterlimit="10" d="
				M281.226,130.861c0,0-4.12,2.772-9.427,5.642c-5.306,2.869-8.015,6.471-8.727,8.886c-0.711,2.414-1.77,6.77-2.95,7.6
				c0,0,7.404-2.733,10.874-4.795C275.265,145.658,282.805,139.254,281.226,130.861z"/>
			
				<path fill="#FFFFFF" stroke="#FFFFFF" stroke-width="2" stroke-linecap="round" stroke-linejoin="round" stroke-miterlimit="10" d="
				M130.14,627.406c0,0,9.706,10.963,29.895,8.397c0,0-5.307-12.246-14.947-9.912C135.446,628.225,136.999,627.291,130.14,627.406z"
				/>
			
				<path fill="#FFFFFF" stroke="#FFFFFF" stroke-width="2" stroke-linecap="round" stroke-linejoin="round" stroke-miterlimit="10" d="
				M150.847,663.118c0,0,11,4.176,16.564,3.476c5.563-0.7,13.976-8.397,17.213-9.097c0,0-5.434-1.167-7.636-2.1
				c-2.2-0.933-11.131-2.839-16.954,0.545C154.211,659.324,150.847,663.118,150.847,663.118z"/>
			
				<path fill="#FFFFFF" stroke="#FFFFFF" stroke-width="2" stroke-linecap="round" stroke-linejoin="round" stroke-miterlimit="10" d="
				M182.409,640.204c0,0,7.571,2.326,12.15,6.316c4.581,3.986,11.675,11.151,22.288,9.422c0,0-3.013-0.904-6.243-7.847
				c-3.23-6.939-9.938-10.968-13.285-11.543C192.524,635.725,188.324,636.464,182.409,640.204z"/>
			
				<path fill="#FFFFFF" stroke="#FFFFFF" stroke-width="2" stroke-linecap="round" stroke-linejoin="round" stroke-miterlimit="10" d="
				M263.503,623.592c0,0-12.287,8.601-26.791-3.328c0,0,5.525-0.258,7.513-1.303C246.215,617.912,255.395,616.817,263.503,623.592z"
				/>
			
				<path fill="#FFFFFF" stroke="#FFFFFF" stroke-width="2" stroke-linecap="round" stroke-linejoin="round" stroke-miterlimit="10" d="
				M260.719,619.009c0,0-15.534,2.332-22.003-15.745c0,0,2.072,0.701,6.73,0.935C250.106,604.432,258.65,605.13,260.719,619.009z"/>
			
				<path fill="#FFFFFF" stroke="#FFFFFF" stroke-width="2" stroke-linecap="round" stroke-linejoin="round" stroke-miterlimit="10" d="
				M242.729,640.586c0.067,0.345-7.764,5.168-16.305-1.381c-8.541-6.55-9.321-10.165-12.686-12.614c0,0,6.992,1.634,11.521,1.4
				C229.787,627.756,240.918,631.14,242.729,640.586z"/>
			
				<path fill="#FFFFFF" stroke="#FFFFFF" stroke-width="2" stroke-linecap="round" stroke-linejoin="round" stroke-miterlimit="10" d="
				M230.096,693.07c-1.122,0.366,2.59-4.784,4.4-12.364s7.765-13.179,18.248-15.045C252.744,665.661,255.72,684.672,230.096,693.07z
				"/>
			
				<path fill="#FFFFFF" stroke="#FFFFFF" stroke-width="2" stroke-linecap="round" stroke-linejoin="round" stroke-miterlimit="10" d="
				M194.133,681.144c0,0-1.293,2.1-3.495,5.365c-2.201,3.268-12.678,12.946-26.269,7.349c0,0,4.267-0.35,8.021-4.432
				C176.143,685.343,182.484,678.579,194.133,681.144z"/>
			
				<path fill="#FFFFFF" stroke="#FFFFFF" stroke-width="2" stroke-linecap="round" stroke-linejoin="round" stroke-miterlimit="10" d="
				M197.054,701.076c0,0,0.649-2.567,0-6.882c-0.65-4.315,4.267-13.647,15.268-19.128c0,0,4.011,9.523-2.329,16.097
				C203.654,697.735,201.451,696.877,197.054,701.076z"/>
			
				<path fill="#FFFFFF" stroke="#FFFFFF" stroke-width="2" stroke-linecap="round" stroke-linejoin="round" stroke-miterlimit="10" d="
				M204.955,641.714c0,0-1.676,3.824,5.168,7.185c6.849,3.356,12.375,7.383,12.248,9.127c0,0,0.288-10.956-5.96-13.484
				C210.16,642.012,206.642,643.281,204.955,641.714z"/>
			<path fill="none" stroke="#FFFFFF" stroke-width="2" stroke-linecap="round" stroke-linejoin="round" stroke-miterlimit="10" d="
				M260.01,839.493c0,0,0.534-8.334-17.477-15.53c-18.01-7.194-18.447-14.255-23.768-19.009
				c-5.313-4.751-25.527-14.668-39.539-12.964"/>
			<path fill="none" stroke="#FFFFFF" stroke-width="2" stroke-linecap="round" stroke-linejoin="round" stroke-miterlimit="10" d="
				M210.868,791.39c0,0,5.992,5.289,5.113,11.483"/>
			<path fill="none" stroke="#FFFFFF" stroke-width="2" stroke-linecap="round" stroke-linejoin="round" stroke-miterlimit="10" d="
				M236.758,819.392c0,0,0.721,2.287,5.774,4.571"/>
			<path fill="none" stroke="#FFFFFF" stroke-width="2" stroke-linecap="round" stroke-linejoin="round" stroke-miterlimit="10" d="
				M205.723,801.268c0,0,6.09-0.688,9.148,4.794c3.052,5.48,9.293,5.464,9.293,5.464"/>
			<path fill="none" stroke="#FFFFFF" stroke-width="2" stroke-linecap="round" stroke-linejoin="round" stroke-miterlimit="10" d="
				M236.249,827.138c0,0,9.287-1.779,16.038,1.885"/>
			
				<path fill="#FFFFFF" stroke="#FFFFFF" stroke-width="2" stroke-linecap="round" stroke-linejoin="round" stroke-miterlimit="10" d="
				M236.292,819.392c0,0,4.799-1.688,3.463-9.938c-1.334-8.248-1.147-15.962,0.619-17.249c0,0-10.731,8.511-8.991,15.616
				C233.113,814.924,236.68,816.775,236.292,819.392z"/>
			
				<path fill="#FFFFFF" stroke="#FFFFFF" stroke-width="2" stroke-linecap="round" stroke-linejoin="round" stroke-miterlimit="10" d="
				M239.082,827.782c0,0-6.94-2.067-9.651-4.096c-2.718-2.025-10.161-10.187-19.71,0.305c0,0,5.102-2.546,10.252,0.8
				C225.117,828.137,231.329,833.882,239.082,827.782z"/>
			
				<path fill="#FFFFFF" stroke="#FFFFFF" stroke-width="2" stroke-linecap="round" stroke-linejoin="round" stroke-miterlimit="10" d="
				M210.401,791.39c0,0-4.445-9.55-12.436-11.705c-7.987-2.154-11.643-0.355-15.71-1.508c0,0,8.476,3.239,9.725,5.693
				C193.229,786.32,201.496,793.175,210.401,791.39z"/>
			
				<path fill="#FFFFFF" stroke="#FFFFFF" stroke-width="2" stroke-linecap="round" stroke-linejoin="round" stroke-miterlimit="10" d="
				M178.76,791.99c0,0-7.908-4.863-16.435-0.768c-8.53,4.096-7.744,5.236-10.219,5.546c0,0,3.333-0.882,7.823-0.557
				C164.419,796.538,170.167,800.053,178.76,791.99z"/>
			
				<path fill="#FFFFFF" stroke="#FFFFFF" stroke-width="2" stroke-linecap="round" stroke-linejoin="round" stroke-miterlimit="10" d="
				M205.257,801.268c0,0-16.291-5.342-23.757,7.03c0,0,4.237-1.977,7.721-1.03C192.705,808.216,201.932,807.782,205.257,801.268z"/>
			<path fill="none" stroke="#FFFFFF" stroke-width="2" stroke-linecap="round" stroke-linejoin="round" stroke-miterlimit="10" d="
				M114.161,1001.84c0,0-3.548,3.26-11.973,2.16"/>
			<path fill="none" stroke="#FFFFFF" stroke-width="2" stroke-linecap="round" stroke-linejoin="round" stroke-miterlimit="10" d="
				M146.579,994.9c0,0-18.175,10.34-36.885,5.779c-10.093-2.462-14.029-1.945-18.634-1.222c-7.766,1.222-11.647-2.575-11.647-2.575"
				/>
			<path fill="none" stroke="#FFFFFF" stroke-width="2" stroke-linecap="round" stroke-linejoin="round" stroke-miterlimit="10" d="
				M131.291,1000.49c0,0-4.252,0.53-9.041-1.041"/>
			
				<path fill="#FFFFFF" stroke="#FFFFFF" stroke-width="2" stroke-linecap="round" stroke-linejoin="round" stroke-miterlimit="10" d="
				M47.239,995.834c0,0,7.668,6.526,14.252,4.426c6.586-2.094,14.61-4.542,17.457-3.377c0,0-6.6-8.047-14.365-5.132
				C56.817,994.667,49.308,998.166,47.239,995.834z"/>
			
				<path fill="#FFFFFF" stroke="#FFFFFF" stroke-width="2" stroke-linecap="round" stroke-linejoin="round" stroke-miterlimit="10" d="
				M71.958,1020.21c0,0,10.225,5.83,15.918-3.38c5.694-9.22,9.058-12.021,13.847-12.83c0,0-6.985-2.57-13.847,0
				C81.016,1006.56,79.596,1017.76,71.958,1020.21z"/>
			
				<path fill="#FFFFFF" stroke="#FFFFFF" stroke-width="2" stroke-linecap="round" stroke-linejoin="round" stroke-miterlimit="10" d="
				M121.784,999.449c0,0-19.545,0.811-25.108-12.48C96.676,986.969,112.985,983.47,121.784,999.449z"/>
			<path fill="none" stroke="#FFFFFF" stroke-width="2" stroke-linecap="round" stroke-linejoin="round" stroke-miterlimit="10" d="
				M280.773,50.441c0,0-18.749,3.886-21.538,12.613c-4.546,14.218-15.836,15.354-15.836,15.354"/>
			<path fill="#FFFFFF" d="M274.073,56.987c0,0,1.483-2.757,0.346-4.762L274.073,56.987z"/>
			<path fill="none" stroke="#FFFFFF" stroke-width="2" stroke-linecap="round" stroke-linejoin="round" stroke-miterlimit="10" d="
				M274.073,56.987c0,0,1.483-2.757,0.346-4.762"/>
			<path fill="none" stroke="#FFFFFF" stroke-width="2" stroke-linecap="round" stroke-linejoin="round" stroke-miterlimit="10" d="
				M256.254,55.99c0,0,6.165-3.479,11.992-1.241"/>
			
				<path fill="#FFFFFF" stroke="#FFFFFF" stroke-width="2" stroke-linecap="round" stroke-linejoin="round" stroke-miterlimit="10" d="
				M274.964,57.754c0,0,5.408,6.49-0.125,13.544c-5.531,7.055-2.38,8.481-10.379,11.676c0,0,2.04-2.017,1.352-6.416
				c-0.686-4.398-2.353-10.092,0.29-12.544C268.744,61.563,274.328,60.105,274.964,57.754z"/>
			
				<path fill="#FFFFFF" stroke="#FFFFFF" stroke-width="2" stroke-linecap="round" stroke-linejoin="round" stroke-miterlimit="10" d="
				M250.825,76.62c0,0,0.489,13.48-19.526,16.518c0,0,3.146-3.957,3.389-5.939C234.93,85.218,239.534,78.254,250.825,76.62z"/>
			
				<path fill="#FFFFFF" stroke="#FFFFFF" stroke-width="2" stroke-linecap="round" stroke-linejoin="round" stroke-miterlimit="10" d="
				M256.13,56.379c0,0-9.211,14.949-25.414,12.545C230.716,68.923,235.572,55.061,256.13,56.379z"/>
			
				<path fill="#FFFFFF" stroke="#FFFFFF" stroke-width="2" stroke-linecap="round" stroke-linejoin="round" stroke-miterlimit="10" d="
				M279.348,659.693c0,0,22.39-0.351,21.871-22.393C301.22,637.301,289.831,637.535,279.348,659.693z"/>
			<path fill="none" stroke="#FFFFFF" stroke-width="2" stroke-linecap="round" stroke-linejoin="round" stroke-miterlimit="10" d="
				M277.702,848.204c0,0,6.338-8.482,14.364-12.551c8.025-4.068,25.105-7.995,31.836-11.047"/>
			<path fill="none" stroke="#FFFFFF" stroke-width="2" stroke-linecap="round" stroke-linejoin="round" stroke-miterlimit="10" d="
				M283.137,836.834c0,0,5.048,1.955,8.93-1.18"/>
			
				<path fill="#FFFFFF" stroke="#FFFFFF" stroke-width="2" stroke-linecap="round" stroke-linejoin="round" stroke-miterlimit="10" d="
				M254.718,869.722c0,0,14.169,0.875,16.306-4.373c2.136-5.249,4.076-15.569,6.211-17.145c0,0-9.512,1.225-12.811,8.396
				C261.123,863.775,256.464,870.073,254.718,869.722z"/>
			
				<path fill="#FFFFFF" stroke="#FFFFFF" stroke-width="2" stroke-linecap="round" stroke-linejoin="round" stroke-miterlimit="10" d="
				M247.729,838.408c0,0,14.365,5.772,22.129,1.925c7.767-3.849,12.813-3.499,12.813-3.499s-10.486-7.035-15.336-7.173
				C263.065,829.539,258.018,830.536,247.729,838.408z"/>
			
				<path fill="#FFFFFF" stroke="#FFFFFF" stroke-width="2" stroke-linecap="round" stroke-linejoin="round" stroke-miterlimit="10" d="
				M287.912,858.991c0,0,13.006,0.935,13.976-9.911c0.971-10.847,6.018-18.039,7.959-19.429c0,0-13.394,8.582-15.335,13.479
				C292.57,848.03,293.735,854.033,287.912,858.991z"/>
			
				<path fill="#FFFFFF" stroke="#FFFFFF" stroke-width="2" stroke-linecap="round" stroke-linejoin="round" stroke-miterlimit="10" d="
				M243.227,785.641c0,0,14.753,9.448,21.354-3.147C264.581,782.493,258.175,777.244,243.227,785.641z"/>
			<path fill="none" stroke="#FFFFFF" stroke-width="2" stroke-linecap="round" stroke-linejoin="round" stroke-miterlimit="10" d="
				M49.932,712.883c0,0,8.424-4.004,16.216,0.453c7.788,4.456,16.653,16.093,28.842,19.141c12.187,3.049,31.387,6.521,48.588,11.507
				c27.761,8.046,62.356-5.619,73.276-9.958"/>
			<path fill="none" stroke="#FFFFFF" stroke-width="2" stroke-linecap="round" stroke-linejoin="round" stroke-miterlimit="10" d="
				M123.736,745.351c0,0,14.219,7.153,21.099-1.021"/>
			<path fill="none" stroke="#FFFFFF" stroke-width="2" stroke-linecap="round" stroke-linejoin="round" stroke-miterlimit="10" d="
				M156.279,737.819c0,0,2.772,3.755,10.163,3.242c7.392-0.512,14.152-1.2,21.282,2.636"/>
			<path fill="none" stroke="#FFFFFF" stroke-width="2" stroke-linecap="round" stroke-linejoin="round" stroke-miterlimit="10" d="
				M198.657,733.84c0,0,4.146,5.585,9.346,3.116"/>
			<path fill="none" stroke="#FFFFFF" stroke-width="2" stroke-linecap="round" stroke-linejoin="round" stroke-miterlimit="10" d="
				M104.017,727.783c0,0,1.317,5.705,11.297,9.26"/>
			<path fill="none" stroke="#FFFFFF" stroke-width="2" stroke-linecap="round" stroke-linejoin="round" stroke-miterlimit="10" d="
				M66.091,705.341c0,0,17.285,5.389,15.404,20.12"/>
			<path fill="none" stroke="#FFFFFF" stroke-width="2" stroke-linecap="round" stroke-linejoin="round" stroke-miterlimit="10" d="
				M66.663,738.689c0,0,3.685-5.21,11.512-4.938c3.555,0.123,7.165,1.067,10.668,1.645c4.205,0.693,8.255,0.858,11.865-1.563"/>
			<path fill="none" stroke="#FFFFFF" stroke-width="2" stroke-linecap="round" stroke-linejoin="round" stroke-miterlimit="10" d="
				M75.747,747.743c0,0-1.6-11.95,11.266-12.676"/>
			
				<path fill="#FFFFFF" stroke="#FFFFFF" stroke-width="2" stroke-linecap="round" stroke-linejoin="round" stroke-miterlimit="10" d="
				M123.277,745.424c0,0-8.593,11.562-26.602,4.218c0,0,5.151-1.768,6.664-3.31C104.852,744.788,113.172,741.216,123.277,745.424z"
				/>
			
				<path fill="#FFFFFF" stroke="#FFFFFF" stroke-width="2" stroke-linecap="round" stroke-linejoin="round" stroke-miterlimit="10" d="
				M155.821,737.892c0,0-8.899-3.496-12.016-3.607c-5.967-0.213-13.277,0.682-18.826-9.645c0,0,4.866-1.18,9.165-1.453
				C143.491,722.594,151.352,726.15,155.821,737.892z"/>
			
				<path fill="#FFFFFF" stroke="#FFFFFF" stroke-width="2" stroke-linecap="round" stroke-linejoin="round" stroke-miterlimit="10" d="
				M170.018,723.902c0,0,10.409,11.834,28.179,10.012c0,0-2.81-3.007-3.857-5.153c-1.048-2.146-8.282-7.401-13.82-6.523
				C174.982,723.115,174.092,724.501,170.018,723.902z"/>
			
				<path fill="#FFFFFF" stroke="#FFFFFF" stroke-width="2" stroke-linecap="round" stroke-linejoin="round" stroke-miterlimit="10" d="
				M64.422,765.933c0,0,17.385-3.061,10.886-17.961c0,0-7.644,2.795-8.205,9.27C66.54,763.712,65.572,763.826,64.422,765.933z"/>
			
				<path fill="#FFFFFF" stroke="#FFFFFF" stroke-width="2" stroke-linecap="round" stroke-linejoin="round" stroke-miterlimit="10" d="
				M36.945,748.737c0,0,19.613,6.851,29.261-9.977C66.204,738.761,55.411,730.69,36.945,748.737z"/>
			
				<path fill="#FFFFFF" stroke="#FFFFFF" stroke-width="2" stroke-linecap="round" stroke-linejoin="round" stroke-miterlimit="10" d="
				M103.558,727.856c0,0-3.817-7.752-7.111-10.254c-3.296-2.502-9.445-13.799-8.815-20.123c0,0,5.379,3.948,7.771,4.992
				C97.793,703.515,107.099,707.407,103.558,727.856z"/>
			
				<path fill="#FFFFFF" stroke="#FFFFFF" stroke-width="2" stroke-linecap="round" stroke-linejoin="round" stroke-miterlimit="10" d="
				M17.078,710.978c0,0,14.169,10.026,32.394,1.979c0,0-8.974-6.938-13.967-7.212C30.513,705.467,26.296,707.916,17.078,710.978z"/>
			
				<path fill="#FFFFFF" stroke="#FFFFFF" stroke-width="2" stroke-linecap="round" stroke-linejoin="round" stroke-miterlimit="10" d="
				M65.631,705.413c0,0-15.842-2.112-24.085-13.967c0,0,3.312,0.72,7.967,0.338C54.167,691.402,66.656,693.512,65.631,705.413z"/>
			<path fill="none" stroke="#FFFFFF" stroke-width="2" stroke-linecap="round" stroke-linejoin="round" stroke-miterlimit="10" d="
				M66.82,27.37c0,0,8.425-4.003,16.216,0.454c7.789,4.456,16.654,16.093,28.843,19.142c12.186,3.047,31.386,6.521,48.587,11.505
				c27.762,8.047,62.356-5.619,73.277-9.958"/>
			<path fill="none" stroke="#FFFFFF" stroke-width="2" stroke-linecap="round" stroke-linejoin="round" stroke-miterlimit="10" d="
				M140.625,59.839c0,0,14.218,7.152,21.097-1.023"/>
			<path fill="none" stroke="#FFFFFF" stroke-width="2" stroke-linecap="round" stroke-linejoin="round" stroke-miterlimit="10" d="
				M173.167,52.307c0,0,2.771,3.755,10.162,3.242c7.392-0.512,14.151-1.2,21.282,2.635"/>
			<path fill="none" stroke="#FFFFFF" stroke-width="2" stroke-linecap="round" stroke-linejoin="round" stroke-miterlimit="10" d="
				M215.545,48.327c0,0,4.146,5.585,9.346,3.116"/>
			<path fill="none" stroke="#FFFFFF" stroke-width="2" stroke-linecap="round" stroke-linejoin="round" stroke-miterlimit="10" d="
				M120.905,42.271c0,0,1.317,5.705,11.297,9.26"/>
			<path fill="none" stroke="#FFFFFF" stroke-width="2" stroke-linecap="round" stroke-linejoin="round" stroke-miterlimit="10" d="
				M82.979,19.828c0,0,17.285,5.388,15.405,20.121"/>
			<path fill="none" stroke="#FFFFFF" stroke-width="2" stroke-linecap="round" stroke-linejoin="round" stroke-miterlimit="10" d="
				M83.551,53.176c0,0,3.686-5.208,11.513-4.938c3.554,0.123,7.165,1.067,10.667,1.644c4.206,0.694,8.255,0.859,11.865-1.561"/>
			<path fill="none" stroke="#FFFFFF" stroke-width="2" stroke-linecap="round" stroke-linejoin="round" stroke-miterlimit="10" d="
				M92.636,62.23c0,0-1.601-11.95,11.265-12.676"/>
			
				<path fill="#FFFFFF" stroke="#FFFFFF" stroke-width="2" stroke-linecap="round" stroke-linejoin="round" stroke-miterlimit="10" d="
				M140.165,59.913c0,0-8.594,11.559-26.603,4.218c0,0,5.151-1.768,6.664-3.31C121.74,59.276,130.06,55.704,140.165,59.913z"/>
			
				<path fill="#FFFFFF" stroke="#FFFFFF" stroke-width="2" stroke-linecap="round" stroke-linejoin="round" stroke-miterlimit="10" d="
				M172.708,52.379c0,0-8.899-3.497-12.017-3.608c-5.966-0.213-13.275,0.682-18.824-9.644c0,0,4.864-1.18,9.165-1.453
				C160.379,37.082,168.24,40.637,172.708,52.379z"/>
			
				<path fill="#FFFFFF" stroke="#FFFFFF" stroke-width="2" stroke-linecap="round" stroke-linejoin="round" stroke-miterlimit="10" d="
				M186.906,38.389c0,0,10.409,11.833,28.181,10.012c0,0-2.811-3.006-3.859-5.152c-1.048-2.146-8.282-7.402-13.819-6.524
				C191.87,37.603,190.98,38.989,186.906,38.389z"/>
			
				<path fill="#FFFFFF" stroke="#FFFFFF" stroke-width="2" stroke-linecap="round" stroke-linejoin="round" stroke-miterlimit="10" d="
				M81.311,80.421c0,0,17.384-3.062,10.885-17.961c0,0-7.643,2.795-8.204,9.269C83.429,78.2,82.459,78.313,81.311,80.421z"/>
			
				<path fill="#FFFFFF" stroke="#FFFFFF" stroke-width="2" stroke-linecap="round" stroke-linejoin="round" stroke-miterlimit="10" d="
				M53.832,63.225c0,0,19.613,6.851,29.262-9.977C83.093,53.249,72.299,45.177,53.832,63.225z"/>
			
				<path fill="#FFFFFF" stroke="#FFFFFF" stroke-width="2" stroke-linecap="round" stroke-linejoin="round" stroke-miterlimit="10" d="
				M120.445,42.344c0,0-3.817-7.752-7.11-10.253c-3.296-2.501-9.445-13.799-8.816-20.123c0,0,5.379,3.949,7.771,4.993
				C114.682,18.002,123.986,21.894,120.445,42.344z"/>
			
				<path fill="#FFFFFF" stroke="#FFFFFF" stroke-width="2" stroke-linecap="round" stroke-linejoin="round" stroke-miterlimit="10" d="
				M33.966,25.465c0,0,14.17,10.026,32.394,1.978c0,0-8.973-6.937-13.966-7.212C47.401,19.955,43.184,22.402,33.966,25.465z"/>
			
				<path fill="#FFFFFF" stroke="#FFFFFF" stroke-width="2" stroke-linecap="round" stroke-linejoin="round" stroke-miterlimit="10" d="
				M82.52,19.9c0,0-15.843-2.112-24.085-13.967c0,0,3.312,0.72,7.967,0.337C71.056,5.889,83.543,8,82.52,19.9z"/>
			
				<path fill="#FFFFFF" stroke="#FFFFFF" stroke-width="2" stroke-linecap="round" stroke-linejoin="round" stroke-miterlimit="10" d="
				M306.666,777.253c0,0-1.015-15.388-13.191-15.547c-12.177-0.16-14.132-3.142-14.132-3.142S288.261,776.348,306.666,777.253z"/>
			<path fill="none" stroke="#FFFFFF" stroke-width="2" stroke-linecap="round" stroke-linejoin="round" stroke-miterlimit="10" d="
				M172.891,793.679c0,0-41.362-5.577-63.17,18.088c-21.809,23.666-40.446,31.945-50.502,34.317"/>
			<path fill="none" stroke="#FFFFFF" stroke-width="2" stroke-linecap="round" stroke-linejoin="round" stroke-miterlimit="10" d="
				M142.487,811.823c0,0,0.948-15.044,16.713-18.673"/>
			<path fill="none" stroke="#FFFFFF" stroke-width="2" stroke-linecap="round" stroke-linejoin="round" stroke-miterlimit="10" d="
				M97.366,795.891c0,0,15.108,12.351,30.176,3.594"/>
			<path fill="none" stroke="#FFFFFF" stroke-width="2" stroke-linecap="round" stroke-linejoin="round" stroke-miterlimit="10" d="
				M92.042,816.53c0,0,11.205,1.056,17.679-4.764"/>
			<path fill="none" stroke="#FFFFFF" stroke-width="2" stroke-linecap="round" stroke-linejoin="round" stroke-miterlimit="10" d="
				M99.337,840.39c0,0,0.818-6.449,5.813-10.321c4.993-3.872,11.585-10.907,7.083-19.856"/>
			
				<path fill="#FFFFFF" stroke="#FFFFFF" stroke-width="2" stroke-linecap="round" stroke-linejoin="round" stroke-miterlimit="10" d="
				M97.822,795.8c0,0-6.167-12.594-22.808-4.056C75.014,791.744,85.457,800.968,97.822,795.8z"/>
			
				<path fill="#FFFFFF" stroke="#FFFFFF" stroke-width="2" stroke-linecap="round" stroke-linejoin="round" stroke-miterlimit="10" d="
				M142.941,811.732c0,0-4.692,2.555-7.908,3.197c-3.216,0.645-12.866,3.293-12.979,16.245c0,0,8.769-0.735,14.034-5.62
				C141.353,820.669,142.941,811.732,142.941,811.732z"/>
			
				<path fill="#FFFFFF" stroke="#FFFFFF" stroke-width="2" stroke-linecap="round" stroke-linejoin="round" stroke-miterlimit="10" d="
				M92.496,816.439c0,0-12.091-9.792-27.641,3.556C64.856,819.995,77.712,828.555,92.496,816.439z"/>
			
				<path fill="#FFFFFF" stroke="#FFFFFF" stroke-width="2" stroke-linecap="round" stroke-linejoin="round" stroke-miterlimit="10" d="
				M99.792,840.299c0,0-16.4,7.951-4.942,25.411c0,0,0.87-1.61,3.273-6.939C100.526,853.44,101.431,847.154,99.792,840.299z"/>
			
				<path fill="#FFFFFF" stroke="#FFFFFF" stroke-width="2" stroke-linecap="round" stroke-linejoin="round" stroke-miterlimit="10" d="
				M59.673,845.993c0,0-4.545,1.628-10.722,0.888c-6.176-0.74-16.967,2.856-24.177,12.381c0,0,8.9-3.219,12.103-2.423
				S51.382,860.402,59.673,845.993z"/>
			<path fill="none" stroke="#FFFFFF" stroke-width="2" stroke-linecap="round" stroke-linejoin="round" stroke-miterlimit="10" d="
				M180.082,993.682c0,0,5.771,9.099,18.675,7.229"/>
			<path fill="none" stroke="#FFFFFF" stroke-width="2" stroke-linecap="round" stroke-linejoin="round" stroke-miterlimit="10" d="
				M183.575,992.708c0,0,9.078,7.502,20.521,9.722c11.444,2.21,20.243,1.091,31.891-3.478c11.646-4.57,46.327-21.364,82.307-5.271"
				/>
			<path fill="none" stroke="#FFFFFF" stroke-width="2" stroke-linecap="round" stroke-linejoin="round" stroke-miterlimit="10" d="
				M224.341,1012.4c0,0,13.715-4.9,18.247-16.127"/>
			<path fill="none" stroke="#FFFFFF" stroke-width="2" stroke-linecap="round" stroke-linejoin="round" stroke-miterlimit="10" d="
				M284.615,996.419c0,0,3.978-3.749,9.122-3.711c5.148,0.04,13.026,1.557,17.889-1.65"/>
			<path fill="none" stroke="#FFFFFF" stroke-width="2" stroke-linecap="round" stroke-linejoin="round" stroke-miterlimit="10" d="
				M207.589,995.965c0,0,9.091,11.235,25.624,4.806"/>
			<path fill="none" stroke="#FFFFFF" stroke-width="2" stroke-linecap="round" stroke-linejoin="round" stroke-miterlimit="10" d="
				M243.674,987.384c0,0,5.37,5.482,18.951,3.118"/>
			
				<path fill="#FFFFFF" stroke="#FFFFFF" stroke-width="2" stroke-linecap="round" stroke-linejoin="round" stroke-miterlimit="10" d="
				M254.449,1008.49c0,0,22.904,5.95,29.699-12.072C284.149,996.419,272.113,990.295,254.449,1008.49z"/>
			
				<path fill="#FFFFFF" stroke="#FFFFFF" stroke-width="2" stroke-linecap="round" stroke-linejoin="round" stroke-miterlimit="10" d="
				M197.861,1025.64c0,0,21.742,7.23,26.014-13.239c0,0-10.677-1.57-16.307,5.25C201.939,1024.47,200.774,1024.01,197.861,1025.64z"
				/>
			
				<path fill="#FFFFFF" stroke="#FFFFFF" stroke-width="2" stroke-linecap="round" stroke-linejoin="round" stroke-miterlimit="10" d="
				M209.51,997.88c0.516,0.298-16.501-3.848-16.501-15.045c0-11.196-3.106-11.546-3.106-11.546s11.454,2.1,13.396,7.173
				C205.239,983.535,204.656,995.081,209.51,997.88z"/>
			
				<path fill="#FFFFFF" stroke="#FFFFFF" stroke-width="2" stroke-linecap="round" stroke-linejoin="round" stroke-miterlimit="10" d="
				M243.674,987.384c0,0-16.112-0.524-24.071-22.743c0,0,7.319,0.911,12.035,3.149C239.015,971.289,242.898,978.637,243.674,987.384
				z"/>
			
				<path fill="#FFFFFF" stroke="#FFFFFF" stroke-width="2" stroke-linecap="round" stroke-linejoin="round" stroke-miterlimit="10" d="
				M179.615,993.682c0,0-6.795,0-10.483,2.448c-3.688,2.45-13.2,6.47-25.041-4.198c0,0,4.465,0,8.056-2.449
				C155.738,987.034,171.074,982.486,179.615,993.682z"/>
			
				<path fill="#FFFFFF" stroke="#FFFFFF" stroke-width="2" stroke-linecap="round" stroke-linejoin="round" stroke-miterlimit="10" d="
				M183.108,992.708c0,0-14.879-1.202-16.111-14.946c0,0,2.719,3.149,5.824,3.499C175.926,981.611,181.751,985.088,183.108,992.708z
				"/>
			<path fill="none" stroke="#FFFFFF" stroke-width="2" stroke-linecap="round" stroke-linejoin="round" stroke-miterlimit="10" d="
				M182.834,126.043c0,0-18.563-7.274-38.349,3.289c-19.785,10.562-20.9,5.434-28.539,2.446c-7.636-2.989-26.555-6.152-39.776,8.267
				"/>
			<path fill="none" stroke="#FFFFFF" stroke-width="2" stroke-linecap="round" stroke-linejoin="round" stroke-miterlimit="10" d="
				M54.983,136.314c0,0,8.82-5.879,15.312-3.115c6.492,2.762,14.173,0.274,14.173,0.274"/>
			<path fill="none" stroke="#FFFFFF" stroke-width="2" stroke-linecap="round" stroke-linejoin="round" stroke-miterlimit="10" d="
				M84.153,123.556c0,0,6.615,5.045,18.626,5.703"/>
			<path fill="none" stroke="#FFFFFF" stroke-width="2" stroke-linecap="round" stroke-linejoin="round" stroke-miterlimit="10" d="
				M122.967,115.818c0,0,3.729,14.218,24.55,12.028"/>
			<path fill="none" stroke="#FFFFFF" stroke-width="2" stroke-linecap="round" stroke-linejoin="round" stroke-miterlimit="10" d="
				M162.631,123.843c0,0-3.38,0.615-7.458,3.249c-3.099,2.002-4.87,3.526-7.599,8.477"/>
			<path fill="none" stroke="#FFFFFF" stroke-width="2" stroke-linecap="round" stroke-linejoin="round" stroke-miterlimit="10" d="
				M158.41,148.337c0,0-4.011-17.196,12.241-24.538"/>
			
				<path fill="#FFFFFF" stroke="#FFFFFF" stroke-width="2" stroke-linecap="round" stroke-linejoin="round" stroke-miterlimit="10" d="
				M118.999,93.622c0,0,12.102,8.856,4.436,22.194C123.435,115.816,112.324,109.755,118.999,93.622z"/>
			
				<path fill="#FFFFFF" stroke="#FFFFFF" stroke-width="2" stroke-linecap="round" stroke-linejoin="round" stroke-miterlimit="10" d="
				M84.618,123.554c0,0-1.723-3.49-2.945-11.18c-1.222-7.692-10.953-10.961-19.886-11.436
				C61.787,100.937,67.457,119.625,84.618,123.554z"/>
			
				<path fill="#FFFFFF" stroke="#FFFFFF" stroke-width="2" stroke-linecap="round" stroke-linejoin="round" stroke-miterlimit="10" d="
				M55.449,136.312c0,0-2.338-1.037-4.293-2.951c-1.956-1.913-9.169-6.071-17.285-1.128s-9.075,6.698-12.375,6.541
				C21.496,138.774,44.255,145.122,55.449,136.312z"/>
			
				<path fill="#FFFFFF" stroke="#FFFFFF" stroke-width="2" stroke-linecap="round" stroke-linejoin="round" stroke-miterlimit="10" d="
				M76.637,140.043c0,0-11.094-3.787-22.751,20.946c0,0,2.707-1.241,8.327-2.672C67.832,156.887,72.661,153.886,76.637,140.043z"/>
			<path fill="#FFFFFF" d="M148.038,135.099c0,0-4.118,3.204-10.322,4.389c-6.202,1.185-10.001,6.688-11.41,11.595
				c-1.408,4.905-3.6,6.084-3.6,6.084s9.699-0.636,16.009-5.103c6.31-4.468,5.863-12.28,9.327-16.498"/>
			<path fill="none" stroke="#FFFFFF" stroke-width="2" stroke-linecap="round" stroke-linejoin="round" stroke-miterlimit="10" d="
				M148.038,135.099c0,0-4.118,3.204-10.322,4.389c-6.202,1.185-10.001,6.688-11.41,11.595c-1.408,4.905-3.6,6.084-3.6,6.084
				s9.699-0.636,16.009-5.103c6.31-4.468,5.863-12.28,9.327-16.498"/>
			<path fill="#FFFFFF" d="M158.876,148.335c0,0,7.604,13.253-4.228,23.349c0,0-5.924-13.38,3.838-23.347"/>
			<path fill="none" stroke="#FFFFFF" stroke-width="2" stroke-linecap="round" stroke-linejoin="round" stroke-miterlimit="10" d="
				M158.876,148.335c0,0,7.604,13.253-4.228,23.349c0,0-5.924-13.38,3.838-23.347"/>
			<path fill="none" stroke="#FFFFFF" stroke-width="2" stroke-linecap="round" stroke-linejoin="round" stroke-miterlimit="10" d="
				M101.361,654.037c0,0,5.278-9.083,12.948-7.773"/>
			<path fill="none" stroke="#FFFFFF" stroke-width="2" stroke-linecap="round" stroke-linejoin="round" stroke-miterlimit="10" d="
				M178.851,644.138c0,0-45.943,19.099-69.824-1.83c-23.88-20.925-49.128-32.101-72.217-25.141"/>
			<path fill="none" stroke="#FFFFFF" stroke-width="2" stroke-linecap="round" stroke-linejoin="round" stroke-miterlimit="10" d="
				M130.656,635.353c0,0,8.758,2.934,13.089,16.644"/>
			<path fill="none" stroke="#FFFFFF" stroke-width="2" stroke-linecap="round" stroke-linejoin="round" stroke-miterlimit="10" d="
				M139.449,665.282c0,0,4.918-9.096,13.262-10.585c8.345-1.488,15.591-6.332,15.591-6.332"/>
			<path fill="none" stroke="#FFFFFF" stroke-width="2" stroke-linecap="round" stroke-linejoin="round" stroke-miterlimit="10" d="
				M81.52,604.464c0,0,2.269,2.016,5.576,4.423c4.198,3.059,11.344,11.407,6.563,20.862"/>
			<path fill="none" stroke="#FFFFFF" stroke-width="2" stroke-linecap="round" stroke-linejoin="round" stroke-miterlimit="10" d="
				M77.837,621.436c0,0-12.578-0.015-16.095,8.71"/>
			
				<path fill="#FFFFFF" stroke="#FFFFFF" stroke-width="2" stroke-linecap="round" stroke-linejoin="round" stroke-miterlimit="10" d="
				M115.866,613.578c0,0,2.222,4.607,5.21,5.384s12.959,6.736,10.064,16.304C131.141,635.266,111.635,632.791,115.866,613.578z"/>
			
				<path fill="#FFFFFF" stroke="#FFFFFF" stroke-width="2" stroke-linecap="round" stroke-linejoin="round" stroke-miterlimit="10" d="
				M66.773,584.363c0,0,1.039,3.387,2.896,4.842c2.849,2.229,12.957,6.144,11.006,16.138
				C80.674,605.344,60.652,601.772,66.773,584.363z"/>
			
				<path fill="#FFFFFF" stroke="#FFFFFF" stroke-width="2" stroke-linecap="round" stroke-linejoin="round" stroke-miterlimit="10" d="
				M38.058,616.389c0,0-3.603,1.24-9.281-0.248c-5.678-1.486-12.631,2.255-14.866,4.618c-2.236,2.365-6.83,3.068-7.558,2.957
				c0,0,9.624,6.022,17.52,3.305C32.092,624.191,31.617,622.082,38.058,616.389z"/>
			
				<path fill="#FFFFFF" stroke="#FFFFFF" stroke-width="2" stroke-linecap="round" stroke-linejoin="round" stroke-miterlimit="10" d="
				M62.228,630.059c0,0-10.867-0.921-14.69,5.36c-3.821,6.281-2.784,13.957-9.886,15.104
				C37.652,650.522,64.21,649.476,62.228,630.059z"/>
			
				<path fill="#FFFFFF" stroke="#FFFFFF" stroke-width="2" stroke-linecap="round" stroke-linejoin="round" stroke-miterlimit="10" d="
				M139.933,665.195c0,0-10.838-5.39-29.41,11.858C110.523,677.054,132.176,680.693,139.933,665.195z"/>
			
				<path fill="#FFFFFF" stroke="#FFFFFF" stroke-width="2" stroke-linecap="round" stroke-linejoin="round" stroke-miterlimit="10" d="
				M101.847,653.951c0,0-1.436,4.544-1.709,6.915c-0.274,2.371-1.04,13.226-20.364,12.388c0,0,4.954-1.777,5.566-5.103
				C85.954,664.826,93.498,654.19,101.847,653.951z"/>
			<path fill="none" stroke="#FFFFFF" stroke-width="2" stroke-linecap="round" stroke-linejoin="round" stroke-miterlimit="10" d="
				M167.174,543.946c0,0-20.957-1.007-28.116,8.197c-7.161,9.206-9.29,12.288-9.29,12.288"/>
			<path fill="none" stroke="#FFFFFF" stroke-width="2" stroke-linecap="round" stroke-linejoin="round" stroke-miterlimit="10" d="
				M110.948,543.635c0,0,22.367,9.011,31.621,5.357"/>
			<path fill="none" stroke="#FFFFFF" stroke-width="2" stroke-linecap="round" stroke-linejoin="round" stroke-miterlimit="10" d="
				M88.135,558.467c0,0,15.913,0.767,27.481-4.538c11.568-5.306,17.883-4.252,17.883-4.252"/>
			<path fill="none" stroke="#FFFFFF" stroke-width="2" stroke-linecap="round" stroke-linejoin="round" stroke-miterlimit="10" d="
				M66.49,532.422c0,0,12.286,1.699,18.345,8.104c6.058,6.405,27.644,12.954,38.515,10.485"/>
			<path fill="none" stroke="#FFFFFF" stroke-width="2" stroke-linecap="round" stroke-linejoin="round" stroke-miterlimit="10" d="
				M54.058,510.899c0,0,9.195,6.28,16.234,7.794c7.039,1.513,15.119,10.572,14.542,21.832"/>
			
				<path fill="#FFFFFF" stroke="#FFFFFF" stroke-width="2" stroke-linecap="round" stroke-linejoin="round" stroke-miterlimit="10" d="
				M36.613,486.287c0,0,2.111,3.532,7.047,4.68s15.354,7.011,10.862,19.975C54.522,510.941,34.615,501.234,36.613,486.287z"/>
			
				<path fill="#FFFFFF" stroke="#FFFFFF" stroke-width="2" stroke-linecap="round" stroke-linejoin="round" stroke-miterlimit="10" d="
				M66.954,532.463c0,0-14.069-7.95-43.635-3.927c0,0,6.928,2.207,12.537,5.173C41.464,536.677,52.906,540.521,66.954,532.463z"/>
			
				<path fill="#FFFFFF" stroke="#FFFFFF" stroke-width="2" stroke-linecap="round" stroke-linejoin="round" stroke-miterlimit="10" d="
				M88.6,558.508c0,0-3.693-1.739-5.523-4.366c-1.831-2.627-11.493-6.662-28.962-2.606C54.115,551.535,70.233,563.539,88.6,558.508z
				"/>
			
				<path fill="#FFFFFF" stroke="#FFFFFF" stroke-width="2" stroke-linecap="round" stroke-linejoin="round" stroke-miterlimit="10" d="
				M111.412,543.676c0.826,0.16,4.701-11.009-14.75-18.038C96.662,525.638,96.294,540.732,111.412,543.676z"/>
			
				<path fill="#FFFFFF" stroke="#FFFFFF" stroke-width="2" stroke-linecap="round" stroke-linejoin="round" stroke-miterlimit="10" d="
				M130.232,564.474c0,0-4.591,2.47-7.852,2s-10.988,0.944-13.929,6.485c-2.94,5.54-4.763,6.079-4.763,6.079
				S130.857,578.708,130.232,564.474z"/>
			<path fill="none" stroke="#FFFFFF" stroke-width="2" stroke-linecap="round" stroke-linejoin="round" stroke-miterlimit="10" d="
				M186.744,465.599c0,0-5.944,1.468-10.779,6.172c-4.835,4.706-8.758,7.931-8.758,7.931"/>
			
				<path fill="#FFFFFF" stroke="#FFFFFF" stroke-width="2" stroke-linecap="round" stroke-linejoin="round" stroke-miterlimit="10" d="
				M167.03,480.075c0,0-9.923-4.838-15.361-1.563c-5.438,3.272-9.229,7.573-15.006,8.349
				C136.661,486.861,157.55,491.721,167.03,480.075z"/>
			
				<path fill="#FFFFFF" stroke="#FFFFFF" stroke-width="2" stroke-linecap="round" stroke-linejoin="round" stroke-miterlimit="10" d="
				M137.593,308.602c-0.514,0.302,8.231,1.006,12.812,1.925c8.736,1.75,13.007,0.699,19.51-6.999
				C169.914,303.528,158.753,296.181,137.593,308.602z"/>
			
				<path fill="#FFFFFF" stroke="#FFFFFF" stroke-width="2" stroke-linecap="round" stroke-linejoin="round" stroke-miterlimit="10" d="
				M162.634,324.872c0,0,6.407-0.579,10.095,0.934c3.688,1.514,12.23,6.063,18.442,0.815c0,0-3.883-0.815-7.184-3.674
				C182.235,321.428,178.552,316.124,162.634,324.872z"/>
			
				<path fill="#FFFFFF" stroke="#FFFFFF" stroke-width="2" stroke-linecap="round" stroke-linejoin="round" stroke-miterlimit="10" d="
				M183.211,307.815c0,0-9.512-0.788-10.87-8.31c-1.359-7.523-10.676-10.497-10.676-10.497S186.899,292.508,183.211,307.815z"/>
			
				<path fill="#FFFFFF" stroke="#FFFFFF" stroke-width="2" stroke-linecap="round" stroke-linejoin="round" stroke-miterlimit="10" d="
				M208.059,369.811c0,0,7.176,0,9.126-0.679c2.863-0.995,5.979-1.574,10.753-0.874c4.775,0.699,10.598-0.526,12.539-1.925
				c0,0-5.435-1.224-7.376-3.149C231.159,361.26,221.841,355.794,208.059,369.811z"/>
			<path fill="none" stroke="#FFFFFF" stroke-width="2" stroke-linecap="round" stroke-linejoin="round" stroke-miterlimit="10" d="
				M318.287,40.156c0,0-20.632,20.984-34.481,11.898c-8.779-5.759-12.24-14.397-22.721-11.335
				c-7.319,2.137-12.162,6.456-12.162,6.456"/>
			<path fill="none" stroke="#FFFFFF" stroke-width="2" stroke-linecap="round" stroke-linejoin="round" stroke-miterlimit="10" d="
				M260.558,31.716c0,0,5.818-0.979,8.795,1.34s4.087,11.326,7.156,12.97"/>
			<path fill="none" stroke="#FFFFFF" stroke-width="2" stroke-linecap="round" stroke-linejoin="round" stroke-miterlimit="10" d="
				M299.102,53.646c0,0-9.987-5.975-13.298-17.651"/>
			
				<path fill="#FFFFFF" stroke="#FFFFFF" stroke-width="2" stroke-linecap="round" stroke-linejoin="round" stroke-miterlimit="10" d="
				M249.383,47.245c0,0-13.601,7.876-28.739-5.977c0,0,4.823,1.485,9.733-0.363C235.288,39.058,244.092,41.287,249.383,47.245z"/>
			
				<path fill="#FFFFFF" stroke="#FFFFFF" stroke-width="2" stroke-linecap="round" stroke-linejoin="round" stroke-miterlimit="10" d="
				M261.018,31.786c0.441,0.57-17.188,5.021-24.321-15.074C236.697,16.712,252.594,20.911,261.018,31.786z"/>
			
				<path fill="#FFFFFF" stroke="#FFFFFF" stroke-width="2" stroke-linecap="round" stroke-linejoin="round" stroke-miterlimit="10" d="
				M287.063,38.419c0,0-10.721-2.522-11.09-8.44c-0.368-5.918-1.586-9.125-4.701-11.73
				C271.273,18.249,289.545,22.401,287.063,38.419z"/>
			<path fill="none" stroke="#FFFFFF" stroke-width="2" stroke-linecap="round" stroke-linejoin="round" stroke-miterlimit="10" d="
				M180.86,576.422c0,0,1.434-7.811,9.944-14.011s18.798-9.702,19.056-14.582"/>
			<path fill="none" stroke="#FFFFFF" stroke-width="2" stroke-linecap="round" stroke-linejoin="round" stroke-miterlimit="10" d="
				M226.932,556.155c0,0,12.354,0.415,14.442-4.055"/>
			<path fill="none" stroke="#FFFFFF" stroke-width="2" stroke-linecap="round" stroke-linejoin="round" stroke-miterlimit="10" d="
				M217.546,539.585c0,0,8.734,3.649,13.907,10.749"/>
			<path fill="none" stroke="#FFFFFF" stroke-width="2" stroke-linecap="round" stroke-linejoin="round" stroke-miterlimit="10" d="
				M177.682,556.125c0,0,0.346-1.59,5.703-1.847c5.358-0.254,12.753-1.354,15.49-5.264"/>
			<path fill="none" stroke="#FFFFFF" stroke-width="2" stroke-linecap="round" stroke-linejoin="round" stroke-miterlimit="10" d="
				M184.267,551.015c0,0,5.74,0.119,8.506-0.755c2.767-0.876,17.566-4.896,29.12-1.809c11.554,3.086,14.068,1.228,33.53,6.291
				c19.462,5.063,51.322,6.13,59.54-17.652"/>
			<path fill="none" stroke="#FFFFFF" stroke-width="2" stroke-linecap="round" stroke-linejoin="round" stroke-miterlimit="10" d="
				M273.437,543.51c0,0,18.876,12.002,32.2,6.55"/>
			<path fill="none" stroke="#FFFFFF" stroke-width="2" stroke-linecap="round" stroke-linejoin="round" stroke-miterlimit="10" d="
				M272.223,561.559c0,0,0.15-2.258,6.92-3.875"/>
			<path fill="none" stroke="#FFFFFF" stroke-width="2" stroke-linecap="round" stroke-linejoin="round" stroke-miterlimit="10" d="
				M306.683,554.961c0,0,4.726-3.118,2.781-7.63"/>
			
				<path fill="#FFFFFF" stroke="#FFFFFF" stroke-width="2" stroke-linecap="round" stroke-linejoin="round" stroke-miterlimit="10" d="
				M312.677,551.302c0,0-4.894,5.902-2.558,11.675c2.34,5.773,2.956,9.162,1.934,10.779c-1.027,1.624-0.376,0.593-0.376,0.593
				S326.239,564.102,312.677,551.302z"/>
			
				<path fill="#FFFFFF" stroke="#FFFFFF" stroke-width="2" stroke-linecap="round" stroke-linejoin="round" stroke-miterlimit="10" d="
				M286.401,580.339c0.185,0.831,0.474-5.807,6.759-7.248c6.283-1.44,16.406-8.394,13.23-17.815c0,0-3.543,1.61-6.08,2.336
				C291.096,560.243,283.632,567.969,286.401,580.339z"/>
			
				<path fill="#FFFFFF" stroke="#FFFFFF" stroke-width="2" stroke-linecap="round" stroke-linejoin="round" stroke-miterlimit="10" d="
				M250.749,579.273c0,0,1.846-3.897,8.127-4.181c6.285-0.286,14.656-0.602,13.053-13.22c0,0-2.882,5.736-8.805,5.858
				C257.201,567.852,249.524,572.26,250.749,579.273z"/>
			
				<path fill="#FFFFFF" stroke="#FFFFFF" stroke-width="2" stroke-linecap="round" stroke-linejoin="round" stroke-miterlimit="10" d="
				M169.688,603.187c0,0,9.308-5.798,10.96-11.754s-1.763-11.775-0.08-14.696c0,0-10.617,5.53-10.793,13.807
				C169.6,598.819,170.876,598.845,169.688,603.187z"/>
			
				<path fill="#FFFFFF" stroke="#FFFFFF" stroke-width="2" stroke-linecap="round" stroke-linejoin="round" stroke-miterlimit="10" d="
				M148.801,580.686c0,0,5.741-8.491,11.052-9.533c5.312-1.043,17.736-4.887,16.857-14.541c0,0-0.351-0.462-6.079,0.078
				C157.547,557.92,144.213,566.083,148.801,580.686z"/>
			
				<path fill="#FFFFFF" stroke="#FFFFFF" stroke-width="2" stroke-linecap="round" stroke-linejoin="round" stroke-miterlimit="10" d="
				M183.974,551.33c0,0-6.227,2.772-12.514-0.524c-6.287-3.298-16.004-4.029-16.004-4.029S174.95,537.301,183.974,551.33z"/>
			
				<path fill="#FFFFFF" stroke="#FFFFFF" stroke-width="2" stroke-linecap="round" stroke-linejoin="round" stroke-miterlimit="10" d="
				M225.722,556.476c0,0-1.121,7.617-4.911,10.148s-17.398,3.183-19.028,10.23C201.782,576.854,208.485,554.604,225.722,556.476z"/>
			
				<path fill="#FFFFFF" stroke="#FFFFFF" stroke-width="2" stroke-linecap="round" stroke-linejoin="round" stroke-miterlimit="10" d="
				M217.253,539.899c0,0-15.785-12.354-29.748-4.629c0,0,4.327-0.005,10.442,3.389C204.063,542.054,214.192,541.511,217.253,539.899
				z"/>
			
				<path fill="#FFFFFF" stroke="#FFFFFF" stroke-width="2" stroke-linecap="round" stroke-linejoin="round" stroke-miterlimit="10" d="
				M273.143,543.824c0,0-9.688,2.302-16.755,0.399c-6.225-1.678-15.776-3.44-17.345-2.594
				C239.043,541.631,252.001,527.176,273.143,543.824z"/>
			
				<path fill="#FFFFFF" stroke="#FFFFFF" stroke-width="2" stroke-linecap="round" stroke-linejoin="round" stroke-miterlimit="10" d="
				M170.237,749.954c0,0,17.861,9.446,31.255,1.924c0,0-1.975-2.961-2.912-3.674c-2.603-1.979-8.348-6.473-15.724-2.274
				S170.237,749.954,170.237,749.954z"/>
			
				<path fill="#FFFFFF" stroke="#FFFFFF" stroke-width="2" stroke-linecap="round" stroke-linejoin="round" stroke-miterlimit="10" d="
				M182.856,719.163c0,0,8.833,15.745,29.907,14.871c0,0-2.003-6.771-6.224-9.973C198.191,717.734,194.503,724.587,182.856,719.163z
				"/>
			
				<path fill="#FFFFFF" stroke="#FFFFFF" stroke-width="2" stroke-linecap="round" stroke-linejoin="round" stroke-miterlimit="10" d="
				M197.809,771.122c0,0,7.371,1.224,9.701-2.8c2.329-4.023,6.793-11.371,17.859-9.796
				C225.369,758.526,222.274,778.994,197.809,771.122z"/>
			
				<path fill="#FFFFFF" stroke="#FFFFFF" stroke-width="2" stroke-linecap="round" stroke-linejoin="round" stroke-miterlimit="10" d="
				M253.905,744.88c0,0-2.137-4.022-6.988-5.772c-4.854-1.749-11.647-8.015-12.036-12.492c0,0,2.523,2.181,7.184,2.088
				C246.722,728.61,255.652,732.459,253.905,744.88z"/>
			
				<path fill="#FFFFFF" stroke="#FFFFFF" stroke-width="2" stroke-linecap="round" stroke-linejoin="round" stroke-miterlimit="10" d="
				M256.006,389.106c0,0,5.63-0.67,9.512,0s11.945,1.019,14.029-14.725c0,0-10.534,0.174-13.059,5.772
				C263.965,385.752,262.218,386.687,256.006,389.106z"/>
			<path fill="none" stroke="#FFFFFF" stroke-width="2" stroke-linecap="round" stroke-linejoin="round" stroke-miterlimit="10" d="
				M165.96,105.18c0,0,9.11,9.844,16.79,9.384c7.676-0.461,12.85,5.054,15.544,9.385"/>
			<path fill="none" stroke="#FFFFFF" stroke-width="2" stroke-linecap="round" stroke-linejoin="round" stroke-miterlimit="10" d="
				M173.005,117.898c0,0,7.99,0.739,11.097-3.353"/>
			<path fill="none" stroke="#FFFFFF" stroke-width="2" stroke-linecap="round" stroke-linejoin="round" stroke-miterlimit="10" d="
				M186.116,106.531c0,0,0.06,3.159,2.438,5.142c2.384,1.985,6.099,6.414,7,8.714"/>
			
				<path fill="#FFFFFF" stroke="#FFFFFF" stroke-width="2" stroke-linecap="round" stroke-linejoin="round" stroke-miterlimit="10" d="
				M173.426,118.072c0,0-6.039-5.063-11.673-4.767c-5.632,0.298-8.97-0.086-10.608-1.238c-1.651-1.158-0.604-0.425-0.604-0.425
				S161.249,124.9,173.426,118.072z"/>
			
				<path fill="#FFFFFF" stroke="#FFFFFF" stroke-width="2" stroke-linecap="round" stroke-linejoin="round" stroke-miterlimit="10" d="
				M140.777,84.44c-0.816-0.068,5.771,1.781,7.44,6.769c1.665,4.984,8.944,14.16,18.164,14.146c0,0-1.736-3.008-2.549-5.056
				C160.873,92.861,152.931,85.454,140.777,84.44z"/>
			
				<path fill="#FFFFFF" stroke="#FFFFFF" stroke-width="2" stroke-linecap="round" stroke-linejoin="round" stroke-miterlimit="10" d="
				M168.805,84.554c0,0,6.411,4.926,6.873,8.809c0.462,3.889,4.057,10.078,10.858,13.342c0,0-1.336-4.682-0.842-6.062
				C186.181,99.266,185.689,89.687,168.805,84.554z"/>
			
				<path fill="#FFFFFF" stroke="#FFFFFF" stroke-width="2" stroke-linecap="round" stroke-linejoin="round" stroke-miterlimit="10" d="
				M198.741,339.568c0,0,13.199,15.405,25.525,12.601c0,0-3.157-1.304-5.144-4.73c-3.143-5.421-4.769-6.464-8.894-7.173
				C206.515,339.629,199.905,340.442,198.741,339.568z"/>
			
				<path fill="#FFFFFF" stroke="#FFFFFF" stroke-width="2" stroke-linecap="round" stroke-linejoin="round" stroke-miterlimit="10" d="
				M231.926,339.568c0,0,4.862,0.175,6.804,2.098c1.941,1.925,9.512,5.5,15.529,1.876
				C254.259,343.542,247.641,332.744,231.926,339.568z"/>
			<path fill="none" stroke="#FFFFFF" stroke-width="2" stroke-linecap="round" stroke-linejoin="round" stroke-miterlimit="10" d="
				M224.868,477.313c0,0,11.483,13.419,29.924,9.238c18.44-4.18,44.842-11.238,65.029,0.806"/>
			<path fill="none" stroke="#FFFFFF" stroke-width="2" stroke-linecap="round" stroke-linejoin="round" stroke-miterlimit="10" d="
				M276.78,485.091c0,0,4.545-4.537,12.952-4.374"/>
			<path fill="none" stroke="#FFFFFF" stroke-width="2" stroke-linecap="round" stroke-linejoin="round" stroke-miterlimit="10" d="
				M237.258,488.979c0,0,3.361-1.993,5.047-1.716"/>
			<path fill="none" stroke="#FFFFFF" stroke-width="2" stroke-linecap="round" stroke-linejoin="round" stroke-miterlimit="10" d="
				M256.53,481.402c0,0,2.091,3.908,11.348,2.228"/>
			
				<path fill="#FFFFFF" stroke="#FFFFFF" stroke-width="2" stroke-linecap="round" stroke-linejoin="round" stroke-miterlimit="10" d="
				M256.063,481.4c0,0-9.842,1.319-13.745-4.8c-3.906-6.119-12.071-7.694-12.071-7.694S254.134,465.283,256.063,481.4z"/>
			
				<path fill="#FFFFFF" stroke="#FFFFFF" stroke-width="2" stroke-linecap="round" stroke-linejoin="round" stroke-miterlimit="10" d="
				M224.402,477.312c0,0-8.967,5.752-15.931-0.062c-6.964-5.818-15.769-4.304-15.769-4.304S214.249,458.479,224.402,477.312z"/>
			
				<path fill="#FFFFFF" stroke="#FFFFFF" stroke-width="2" stroke-linecap="round" stroke-linejoin="round" stroke-miterlimit="10" d="
				M213.175,496.564c0,0,4.207-3.498,8.896-2.45c4.689,1.05,12.453,0.351,14.395-5.599
				C236.466,488.516,220.943,485.367,213.175,496.564z"/>
			
				<path fill="#FFFFFF" stroke="#FFFFFF" stroke-width="2" stroke-linecap="round" stroke-linejoin="round" stroke-miterlimit="10" d="
				M262.285,501.886c0,0,2.433-10.146,14.027-16.795C276.313,485.091,279.368,497.861,262.285,501.886z"/>
			<path fill="none" stroke="#FFFFFF" stroke-width="2" stroke-linecap="round" stroke-linejoin="round" stroke-miterlimit="10" d="
				M206.06,468.558c0,0-14.86-11.713-27.741-13.525c-12.88-1.813-23.548-2.555-27.936-12.357
				c-4.385-9.802-11.33-24.492-39.662-22.423"/>
			<path fill="none" stroke="#FFFFFF" stroke-width="2" stroke-linecap="round" stroke-linejoin="round" stroke-miterlimit="10" d="
				M160.1,434.257c0,0-0.137,14.537,16.545,20.344"/>
			<path fill="none" stroke="#FFFFFF" stroke-width="2" stroke-linecap="round" stroke-linejoin="round" stroke-miterlimit="10" d="
				M119.06,407.247c0,0,14.378,4.902,8.755,14.144"/>
			<path fill="none" stroke="#FFFFFF" stroke-width="2" stroke-linecap="round" stroke-linejoin="round" stroke-miterlimit="10" d="
				M125.323,433.69c0,0,7.701-7.947,19.988-0.452"/>
			<path fill="none" stroke="#FFFFFF" stroke-width="2" stroke-linecap="round" stroke-linejoin="round" stroke-miterlimit="10" d="
				M154.485,464.212c0,0,11.099-8.277,21.067-3.516c9.97,4.758,14.526,5.036,22.217,2.233"/>
			
				<path fill="#FFFFFF" stroke="#FFFFFF" stroke-width="2" stroke-linecap="round" stroke-linejoin="round" stroke-miterlimit="10" d="
				M160.547,434.373c0,0,1.124-4.639,2.663-7.711s0.226-12.173-6.953-18.954C156.257,407.708,148.68,422.185,160.547,434.373z"/>
			
				<path fill="#FFFFFF" stroke="#FFFFFF" stroke-width="2" stroke-linecap="round" stroke-linejoin="round" stroke-miterlimit="10" d="
				M154.933,464.327c0,0-1.921-11.448-22.881-5.897C132.052,458.43,140.306,469.137,154.933,464.327z"/>
			
				<path fill="#FFFFFF" stroke="#FFFFFF" stroke-width="2" stroke-linecap="round" stroke-linejoin="round" stroke-miterlimit="10" d="
				M119.506,407.364c0,0,5.167-14.369-14.108-18.972C105.398,388.392,105.577,401.947,119.506,407.364z"/>
			
				<path fill="#FFFFFF" stroke="#FFFFFF" stroke-width="2" stroke-linecap="round" stroke-linejoin="round" stroke-miterlimit="10" d="
				M111.167,420.366c0,0,0.092-9.651-8.44-10.755c-8.532-1.103-14.771,1.123-22.202-3.167
				C80.525,406.445,88.541,423.116,111.167,420.366z"/>
			
				<path fill="#FFFFFF" stroke="#FFFFFF" stroke-width="2" stroke-linecap="round" stroke-linejoin="round" stroke-miterlimit="10" d="
				M125.769,433.807c0,0-10.016-6.779-25.668,4.521C100.101,438.328,109.245,444.7,125.769,433.807z"/>
			<path fill="none" stroke="#FFFFFF" stroke-width="2" stroke-linecap="round" stroke-linejoin="round" stroke-miterlimit="10" d="
				M305.145,122.892c0,0,2.891-8.72,14.39-9.285"/>
			
				<path fill="#FFFFFF" stroke="#FFFFFF" stroke-width="2" stroke-linecap="round" stroke-linejoin="round" stroke-miterlimit="10" d="
				M281.986,144.095c0,0,22.559,0.844,22.731-21.042C304.717,123.053,293.244,122.678,281.986,144.095z"/>
			<path fill="none" stroke="#FFFFFF" stroke-width="2" stroke-linecap="round" stroke-linejoin="round" stroke-miterlimit="10" d="
				M66.781,337.617c0,0,5.207,9.339,18.207,8.044"/>
			<path fill="none" stroke="#FFFFFF" stroke-width="2" stroke-linecap="round" stroke-linejoin="round" stroke-miterlimit="10" d="
				M70.331,336.802c0,0,8.606,7.891,19.899,10.608c11.293,2.717,20.151,1.984,32.064-2.069c11.912-4.05,47.576-19.294,82.524-1.637"
				/>
			<path fill="none" stroke="#FFFFFF" stroke-width="2" stroke-linecap="round" stroke-linejoin="round" stroke-miterlimit="10" d="
				M109.838,358.26c0,0,13.998-4.297,19.212-15.303"/>
			<path fill="none" stroke="#FFFFFF" stroke-width="2" stroke-linecap="round" stroke-linejoin="round" stroke-miterlimit="10" d="
				M171.015,344.953c0,0,4.199-3.57,9.341-3.302c5.136,0.267,12.912,2.125,17.961-0.861"/>
			<path fill="none" stroke="#FFFFFF" stroke-width="2" stroke-linecap="round" stroke-linejoin="round" stroke-miterlimit="10" d="
				M131.007,333.222c0,0,1.337,7.919,10.648,5.861"/>
			<path fill="none" stroke="#FFFFFF" stroke-width="2" stroke-linecap="round" stroke-linejoin="round" stroke-miterlimit="10" d="
				M96.38,343.127c0,0,8.988,5.569,18.993,4.124"/>
			
				<path fill="#FFFFFF" stroke="#FFFFFF" stroke-width="2" stroke-linecap="round" stroke-linejoin="round" stroke-miterlimit="10" d="
				M141.078,355.731c0,0,22.512,6.945,30.4-10.747C171.48,344.984,159.834,338.339,141.078,355.731z"/>
			
				<path fill="#FFFFFF" stroke="#FFFFFF" stroke-width="2" stroke-linecap="round" stroke-linejoin="round" stroke-miterlimit="10" d="
				M83.514,370.365c0,0,21.271,8.176,26.79-12.075c0,0-10.565-2.042-16.607,4.523C87.656,369.379,86.522,368.861,83.514,370.365z"/>
			
				<path fill="#FFFFFF" stroke="#FFFFFF" stroke-width="2" stroke-linecap="round" stroke-linejoin="round" stroke-miterlimit="10" d="
				M96.846,343.158c0.496,0.321-16.243-4.568-15.558-15.749c0.687-11.18-2.394-11.669-2.394-11.669s11.309,2.601,12.937,7.753
				C93.46,328.645,92.17,340.149,96.846,343.158z"/>
			
				<path fill="#FFFFFF" stroke="#FFFFFF" stroke-width="2" stroke-linecap="round" stroke-linejoin="round" stroke-miterlimit="10" d="
				M131.611,334.18c0,0-16.06-1.234-22.646-23.769c0,0,7.253,1.231,11.826,3.673C127.944,317.904,131.37,325.413,131.611,334.18z"/>
			
				<path fill="#FFFFFF" stroke="#FFFFFF" stroke-width="2" stroke-linecap="round" stroke-linejoin="round" stroke-miterlimit="10" d="
				M67.246,337.648c0,0-6.785-0.298-10.618,1.985c-3.834,2.284-13.58,5.883-24.752-5.293c0,0,4.455,0.195,8.194-2.091
				C43.811,329.96,59.403,326.093,67.246,337.648z"/>
			
				<path fill="#FFFFFF" stroke="#FFFFFF" stroke-width="2" stroke-linecap="round" stroke-linejoin="round" stroke-miterlimit="10" d="
				M70.796,336.833c0,0-14.788-1.857-15.175-15.638c0,0,2.521,3.265,5.602,3.752C64.302,325.433,69.906,329.162,70.796,336.833z"/>
			<path fill="none" stroke="#FFFFFF" stroke-width="2" stroke-linecap="round" stroke-linejoin="round" stroke-miterlimit="10" d="
				M169.031,893.318c0,0-29.637-10.127-36.906,3.521c-4.609,8.65-2.956,17.678-13.869,19.239
				c-7.624,1.089-14.251-0.753-14.251-0.753"/>
			<path fill="none" stroke="#FFFFFF" stroke-width="2" stroke-linecap="round" stroke-linejoin="round" stroke-miterlimit="10" d="
				M155.727,890.251c0,0-17.627,4.295-13.668,17.543"/>
			<path fill="none" stroke="#FFFFFF" stroke-width="2" stroke-linecap="round" stroke-linejoin="round" stroke-miterlimit="10" d="
				M122.693,924.235c0,0,5.668-1.502,7.029-4.758c1.365-3.255-2.563-11.654-0.753-14.353"/>
			
				<path fill="#FFFFFF" stroke="#FFFFFF" stroke-width="2" stroke-linecap="round" stroke-linejoin="round" stroke-miterlimit="10" d="
				M104.373,915.079c0,0-16.293-1.419-22.1,16.958c0,0,3.445-3.271,8.783-3.638C96.398,928.032,102.949,922.485,104.373,915.079z"/>
			
				<path fill="#FFFFFF" stroke="#FFFFFF" stroke-width="2" stroke-linecap="round" stroke-linejoin="round" stroke-miterlimit="10" d="
				M123.06,923.986c0.08-0.682-17.899,2.56-13.245,23.189C109.815,947.176,121.554,937.008,123.06,923.986z"/>
			
				<path fill="#FFFFFF" stroke="#FFFFFF" stroke-width="2" stroke-linecap="round" stroke-linejoin="round" stroke-miterlimit="10" d="
				M142.427,907.546c0,0-8.085,6.584-5.186,11.955c2.899,5.372,3.572,8.696,2.242,12.262
				C139.484,931.763,153.344,920.67,142.427,907.546z"/>
			<path fill="none" stroke="#FFFFFF" stroke-width="2" stroke-linecap="round" stroke-linejoin="round" stroke-miterlimit="10" d="
				M148.652,458.066c0,0-24.172-17.073-34.252-6.036c-6.389,6.995-7.218,15.935-17.479,14.64c-7.17-0.906-12.683-4.324-12.683-4.324
				"/>
			<path fill="none" stroke="#FFFFFF" stroke-width="2" stroke-linecap="round" stroke-linejoin="round" stroke-miterlimit="10" d="
				M137.422,451.797c0,0-17.033-0.417-16.864,13.092"/>
			<path fill="none" stroke="#FFFFFF" stroke-width="2" stroke-linecap="round" stroke-linejoin="round" stroke-miterlimit="10" d="
				M98.832,475.493c0,0,5.506,0.021,7.573-2.707c2.069-2.729,0.682-11.651,3.014-13.736"/>
			
				<path fill="#FFFFFF" stroke="#FFFFFF" stroke-width="2" stroke-linecap="round" stroke-linejoin="round" stroke-miterlimit="10" d="
				M84.67,462.191c0,0-14.355-5.473-24.329,10.4c0,0,3.954-2.213,8.873-1.204C74.132,472.396,81.479,468.823,84.67,462.191z"/>
			
				<path fill="#FFFFFF" stroke="#FFFFFF" stroke-width="2" stroke-linecap="round" stroke-linejoin="round" stroke-miterlimit="10" d="
				M99.264,475.34c0.246-0.623-16.832-2.125-17.934,18.527C81.33,493.867,94.553,487.248,99.264,475.34z"/>
			
				<path fill="#FFFFFF" stroke="#FFFFFF" stroke-width="2" stroke-linecap="round" stroke-linejoin="round" stroke-miterlimit="10" d="
				M120.99,464.735c0,0-8.998,4.163-7.759,9.968c1.237,5.806,0.988,9.113-1.128,12.141
				C112.104,486.844,127.479,479.891,120.99,464.735z"/>
			<path fill="none" stroke="#FFFFFF" stroke-width="2" stroke-linecap="round" stroke-linejoin="round" stroke-miterlimit="10" d="
				M282.445,433.277c0,0,14.463,1.49,19.508-5.641c5.049-7.131,13.201-6.354,18.637-4.556"/>
			<path fill="none" stroke="#FFFFFF" stroke-width="2" stroke-linecap="round" stroke-linejoin="round" stroke-miterlimit="10" d="
				M297.786,439.324c0,0,6.247-6.255,5.11-12.888"/>
			<path fill="none" stroke="#FFFFFF" stroke-width="2" stroke-linecap="round" stroke-linejoin="round" stroke-miterlimit="10" d="
				M297.786,417.008c0,0,2.614,2.973,5.914,2.798c3.301-0.176,9.535,0.831,12.047,2.251"/>
			
				<path fill="#FFFFFF" stroke="#FFFFFF" stroke-width="2" stroke-linecap="round" stroke-linejoin="round" stroke-miterlimit="10" d="
				M297.32,439.323c0,0-8.39,0.41-12.13,5.603c-3.735,5.194-6.405,7.735-8.505,8.062c-2.107,0.329-0.77,0.118-0.77,0.118
				S294.287,456.475,297.32,439.323z"/>
			
				<path fill="#FFFFFF" stroke="#FFFFFF" stroke-width="2" stroke-linecap="round" stroke-linejoin="round" stroke-miterlimit="10" d="
				M246.843,435.55c-0.635,0.646,5.532-3.323,10.773,0c5.24,3.325,17.858,5.774,24.361-2.273c0,0-3.676-1.372-5.92-2.624
				C267.904,426.104,256.257,425.929,246.843,435.55z"/>
			
				<path fill="#FFFFFF" stroke="#FFFFFF" stroke-width="2" stroke-linecap="round" stroke-linejoin="round" stroke-miterlimit="10" d="
				M266.74,411.234c0,0,8.541-0.869,12.035,2.453c3.494,3.321,11.078,6.119,18.545,3.321c0,0-4.763-3.325-5.537-5.075
				C291.004,410.183,282.852,401.437,266.74,411.234z"/>
			
				<path fill="#FFFFFF" stroke="#FFFFFF" stroke-width="2" stroke-linecap="round" stroke-linejoin="round" stroke-miterlimit="10" d="
				M259.6,223.791c0,0-0.404-0.802-0.288-5.243c0.11-4.442-3.51-13.974-19.529-13.608c0,0,3.679,4.388,6.142,9.595
				C248.386,219.734,254.231,222.278,259.6,223.791z"/>
			
				<path fill="#FFFFFF" stroke="#FFFFFF" stroke-width="2" stroke-linecap="round" stroke-linejoin="round" stroke-miterlimit="10" d="
				M239.481,228.658c0,0-3.647-3.808-6.908-6.816c-1.989-1.838-9.354-7.641-17.285-5.941c-7.93,1.697-12.378,2.015-12.378,2.015
				s8.358,6.164,12.172,8.796C218.892,229.342,227.949,231.503,239.481,228.658z"/>
			<path fill="#FFFFFF" d="M241.559,237.206c-1.996,9.548-12.93,14.944-20.021,15.258c-5.146,0.227-10.289,0.46-10.289,0.46
				c4.477-1.952,7.619-9.447,14.064-13.12c6.442-3.678,16.229-2.947,16.229-2.947"/>
			<path fill="none" stroke="#FFFFFF" stroke-width="2" stroke-linecap="round" stroke-linejoin="round" stroke-miterlimit="10" d="
				M241.559,237.206c-1.996,9.548-12.93,14.944-20.021,15.258c-5.146,0.227-10.289,0.46-10.289,0.46
				c4.477-1.952,7.619-9.447,14.064-13.12c6.442-3.678,16.229-2.947,16.229-2.947"/>
			
				<path fill="#FFFFFF" stroke="#FFFFFF" stroke-width="2" stroke-linecap="round" stroke-linejoin="round" stroke-miterlimit="10" d="
				M289.352,243.595c0,0-4.262,1.707-9.563,3.23c-5.303,1.523-8.581,4.352-9.839,6.509c-1.259,2.159-3.333,6.107-4.565,6.629
				c0,0,7.058-0.9,10.57-2.072C280.283,256.444,288.442,252.044,289.352,243.595z"/>
			<path fill="none" stroke="#FFFFFF" stroke-width="2" stroke-linecap="round" stroke-linejoin="round" stroke-miterlimit="10" d="
				M316.527,916.894c0,0-26.792,16.938-52.69,2.22c-25.9-14.72-61.343-37.88-79.385-33.098"/>
			<path fill="none" stroke="#FFFFFF" stroke-width="2" stroke-linecap="round" stroke-linejoin="round" stroke-miterlimit="10" d="
				M229.602,901.298c0,0-19.357-6.304-27.167,12.707"/>
			<path fill="none" stroke="#FFFFFF" stroke-width="2" stroke-linecap="round" stroke-linejoin="round" stroke-miterlimit="10" d="
				M273.047,923.087c0,0-4.688,3.999-12.061,4.469c-7.371,0.47-17.149,0.17-18.836,2.054"/>
			<path fill="none" stroke="#FFFFFF" stroke-width="2" stroke-linecap="round" stroke-linejoin="round" stroke-miterlimit="10" d="
				M232.848,870.046c0,0-3.261,14.1,5.24,24.144c8.5,10.045,14.505,9.657,16.464,19.56"/>
			<path fill="none" stroke="#FFFFFF" stroke-width="2" stroke-linecap="round" stroke-linejoin="round" stroke-miterlimit="10" d="
				M217.912,880.096c0,0,6.68,7.296,16.707,10.434"/>
			<path fill="none" stroke="#FFFFFF" stroke-width="2" stroke-linecap="round" stroke-linejoin="round" stroke-miterlimit="10" d="
				M284.809,912.998c0,0,2.326,8.793,25.991,6.828"/>
			
				<path fill="#FFFFFF" stroke="#FFFFFF" stroke-width="2" stroke-linecap="round" stroke-linejoin="round" stroke-miterlimit="10" d="
				M184.799,887.544c0,0-7.617-4.283-11.627-4.701c-4.009-0.418-9.55,0.62-15.199,5.125c-3.844,3.065-6.192,3.691-6.192,3.691
				s10.155,2.345,13.917,3.091C174.614,896.522,181.303,890.996,184.799,887.544z"/>
			
				<path fill="#FFFFFF" stroke="#FFFFFF" stroke-width="2" stroke-linecap="round" stroke-linejoin="round" stroke-miterlimit="10" d="
				M202.942,912.159c0,0-12.273-5.15-17.415,1.509c-5.142,6.661-13.508,10.657-13.991,10.959c0,0,7.192-0.828,11.699,0.167
				C187.743,925.787,196.011,923.295,202.942,912.159z"/>
			
				<path fill="#FFFFFF" stroke="#FFFFFF" stroke-width="2" stroke-linecap="round" stroke-linejoin="round" stroke-miterlimit="10" d="
				M242.581,929.451c0,0-11.194-7.654-24.083,8.925C218.498,938.376,233.169,941.123,242.581,929.451z"/>
			
				<path fill="#FFFFFF" stroke="#FFFFFF" stroke-width="2" stroke-linecap="round" stroke-linejoin="round" stroke-miterlimit="10" d="
				M260.205,883.704c-0.135-0.711,4.801,5.835,11.692,8.229c6.894,2.396,13.771,11.565,13.339,20.905
				C285.237,912.839,266.212,915.362,260.205,883.704z"/>
			
				<path fill="#FFFFFF" stroke="#FFFFFF" stroke-width="2" stroke-linecap="round" stroke-linejoin="round" stroke-miterlimit="10" d="
				M233.197,871.574c0,0-13.087-10.188-8.667-25.532C224.53,846.042,236.557,860.05,233.197,871.574z"/>
			
				<path fill="#FFFFFF" stroke="#FFFFFF" stroke-width="2" stroke-linecap="round" stroke-linejoin="round" stroke-miterlimit="10" d="
				M191.353,852.817c0,0,7.26,5.742,10.306,6.841c6.509,2.347,14.696,6.927,16.682,20.278
				C218.34,879.937,194.977,877.554,191.353,852.817z"/>
			<path fill="none" stroke="#FFFFFF" stroke-width="2" stroke-linecap="round" stroke-linejoin="round" stroke-miterlimit="10" d="
				M263.518,302.03c0,0,6.937-2.212,15.949,0.283c9.011,2.495,27.835,24.882,38.093,11.241"/>
			<path fill="none" stroke="#FFFFFF" stroke-width="2" stroke-linecap="round" stroke-linejoin="round" stroke-miterlimit="10" d="
				M255.867,292.893c0,0,6.212,6.134,15.787,4.944c9.575-1.193,13.397,2.648,19.639,11.689"/>
			<path fill="none" stroke="#FFFFFF" stroke-width="2" stroke-linecap="round" stroke-linejoin="round" stroke-miterlimit="10" d="
				M279.468,314.568c0.985,0.27,8.698-0.343,17.914,4.862c9.213,5.205,17.625-3.337,17.625-3.337"/>
			
				<path fill="#FFFFFF" stroke="#FFFFFF" stroke-width="2" stroke-linecap="round" stroke-linejoin="round" stroke-miterlimit="10" d="
				M255.564,293.677c0,0-0.404-0.802-0.289-5.243c0.11-4.441-3.51-13.973-19.529-13.609c0,0,3.68,4.39,6.142,9.596
				C244.35,289.621,250.195,292.165,255.564,293.677z"/>
			
				<path fill="#FFFFFF" stroke="#FFFFFF" stroke-width="2" stroke-linecap="round" stroke-linejoin="round" stroke-miterlimit="10" d="
				M264.711,301.359c0,0-5.141-6.472-8.66-8.178c-3.517-1.71-9.098-2.573-16.314-0.272c-4.907,1.566-7.353,1.372-7.353,1.372
				s8.344,5.512,11.487,7.444C251.329,306.301,259.955,303.395,264.711,301.359z"/>
			
				<path fill="#FFFFFF" stroke="#FFFFFF" stroke-width="2" stroke-linecap="round" stroke-linejoin="round" stroke-miterlimit="10" d="
				M280.596,314.48c0,0-11.696,11.142-28.7,6.316C251.896,320.796,267.827,310.823,280.596,314.48z"/>
			<path fill="none" stroke="#FFFFFF" stroke-width="2" stroke-linecap="round" stroke-linejoin="round" stroke-miterlimit="10" d="
				M217.191,221.767c0,0-16.994,24.637-47.496,19.834c-30.498-4.804-73.6-14.153-88.045-3.658"/>
			<path fill="none" stroke="#FFFFFF" stroke-width="2" stroke-linecap="round" stroke-linejoin="round" stroke-miterlimit="10" d="
				M129.433,235.184c0,0-20.671,0.733-19.255,20.868"/>
			<path fill="none" stroke="#FFFFFF" stroke-width="2" stroke-linecap="round" stroke-linejoin="round" stroke-miterlimit="10" d="
				M179.973,242.148c0,0-2.506,5.264-9.077,8.186c-6.574,2.921-15.708,5.946-16.409,8.248"/>
			<path fill="none" stroke="#FFFFFF" stroke-width="2" stroke-linecap="round" stroke-linejoin="round" stroke-miterlimit="10" d="
				M118.971,206.901c0,0,3.376,14.076,15.745,20.451c12.37,6.377,17.721,3.992,24.009,12.446"/>
			<path fill="none" stroke="#FFFFFF" stroke-width="2" stroke-linecap="round" stroke-linejoin="round" stroke-miterlimit="10" d="
				M109.08,219.614c0,0,9.448,4.459,20.098,3.961"/>
			<path fill="none" stroke="#FFFFFF" stroke-width="2" stroke-linecap="round" stroke-linejoin="round" stroke-miterlimit="10" d="
				M186.232,228.889c0,0,6.12,7.31,27.014-2.491"/>
			
				<path fill="#FFFFFF" stroke="#FFFFFF" stroke-width="2" stroke-linecap="round" stroke-linejoin="round" stroke-miterlimit="10" d="
				M81.973,237.653c0,0-8.949-1.372-12.83-0.404c-3.88,0.97-8.51,3.797-11.67,9.853c-2.153,4.118-4.03,5.485-4.03,5.485
				s10.407-1.27,14.207-1.852C76.663,249.353,80.318,242.008,81.973,237.653z"/>
			
				<path fill="#FFFFFF" stroke="#FFFFFF" stroke-width="2" stroke-linecap="round" stroke-linejoin="round" stroke-miterlimit="10" d="
				M110.502,255.761c0,0-13.628-0.596-15.35,7.269c-1.717,7.868-7.608,14.371-7.916,14.813c0,0,6.244-3.193,10.843-3.799
				C102.679,273.437,109.16,268.351,110.502,255.761z"/>
			
				<path fill="#FFFFFF" stroke="#FFFFFF" stroke-width="2" stroke-linecap="round" stroke-linejoin="round" stroke-miterlimit="10" d="
				M154.81,258.291c0,0-13.767-3.265-18.128,16.348C136.681,274.639,151.431,272.215,154.81,258.291z"/>
			
				<path fill="#FFFFFF" stroke="#FFFFFF" stroke-width="2" stroke-linecap="round" stroke-linejoin="round" stroke-miterlimit="10" d="
				M150.332,210.235c-0.444-0.607,7.058,3.75,14.485,3.627c7.429-0.122,17.909,5.995,21.737,14.737
				C186.555,228.599,170.186,237.347,150.332,210.235z"/>
			
				<path fill="#FFFFFF" stroke="#FFFFFF" stroke-width="2" stroke-linecap="round" stroke-linejoin="round" stroke-miterlimit="10" d="
				M119.295,206.611c0,0-16.656-4.96-19.532-20.576C99.764,186.035,117.173,194.868,119.295,206.611z"/>
			
				<path fill="#FFFFFF" stroke="#FFFFFF" stroke-width="2" stroke-linecap="round" stroke-linejoin="round" stroke-miterlimit="10" d="
				M72.292,203.474c0,0,9.279,2.835,12.579,2.818c7.056-0.039,16.666,1.412,24.532,13.031
				C109.404,219.323,86.822,225.018,72.292,203.474z"/>
		</g>
	</g>
</g>
</svg>
