<?xml version="1.0" encoding="utf-8"?>
<!-- Generator: Adobe Illustrator 16.0.0, SVG Export Plug-In . SVG Version: 6.00 Build 0)  -->
<!DOCTYPE svg PUBLIC "-//W3C//DTD SVG 1.1//EN" "http://www.w3.org/Graphics/SVG/1.1/DTD/svg11.dtd">
<svg version="1.1" id="Warstwa_1" xmlns="http://www.w3.org/2000/svg" xmlns:xlink="http://www.w3.org/1999/xlink" x="0px" y="0px"
	 width="1035px" height="322px" viewBox="-356.5 354.5 1035 322" enable-background="new -356.5 354.5 1035 322"
	 xml:space="preserve">
<g opacity="0.2">
	<g>
		<defs>
			<rect id="SVGID_1_" x="-356.5" y="354.5" width="1035" height="322"/>
		</defs>
		<clipPath id="SVGID_2_">
			<use xlink:href="#SVGID_1_"  overflow="visible"/>
		</clipPath>
		<g clip-path="url(#SVGID_2_)">
			<path fill="none" stroke="#FFFFFF" stroke-width="2" stroke-linecap="round" stroke-linejoin="round" stroke-miterlimit="10" d="
				M47.635,677.674c0,0,7.522-18.248-6.647-43.484c-14.17-25.233-36.038-42.316-25.542-71.047
				c10.496-28.729,25.31-29.118,25.251-48.142"/>
			<path fill="none" stroke="#FFFFFF" stroke-width="2" stroke-linecap="round" stroke-linejoin="round" stroke-miterlimit="10" d="
				M47.543,649.869c0,0-2.414-25.513,9.947-34.184"/>
			<path fill="none" stroke="#FFFFFF" stroke-width="2" stroke-linecap="round" stroke-linejoin="round" stroke-miterlimit="10" d="
				M37.295,628.024c0,0,4.287-7.811,2.503-13.44c-1.785-5.629-7.383-13.588-3.884-16.889"/>
			<path fill="none" stroke="#FFFFFF" stroke-width="2" stroke-linecap="round" stroke-linejoin="round" stroke-miterlimit="10" d="
				M20.558,571.813c0,0-4.243,4.145-2.082,15.53c2.16,11.387,2.51,16.176,2.51,16.176"/>
			<path fill="none" stroke="#FFFFFF" stroke-width="2" stroke-linecap="round" stroke-linejoin="round" stroke-miterlimit="10" d="
				M12.689,578.8c0,0-2-6.975-11.255-11.51"/>
			<path fill="none" stroke="#FFFFFF" stroke-width="2" stroke-linecap="round" stroke-linejoin="round" stroke-miterlimit="10" d="
				M-4.643,549.1c0,0,0.556,6.147,4.986,9.254s7.84,8.668,6.718,12.617"/>
			<path fill="none" stroke="#FFFFFF" stroke-width="2" stroke-linecap="round" stroke-linejoin="round" stroke-miterlimit="10" d="
				M19.424,553.855c0,0-2.238-3.267-1.562-7.018c0.675-3.753,1.141-7.247,1.141-7.247"/>
			<path fill="none" stroke="#FFFFFF" stroke-width="2" stroke-linecap="round" stroke-linejoin="round" stroke-miterlimit="10" d="
				M10.839,607.711c0,0,6.604,4.439,11.647,5.149c5.045,0.71,10.851,9.143,10.851,9.143"/>
			<path fill="none" stroke="#FFFFFF" stroke-width="2" stroke-linecap="round" stroke-linejoin="round" stroke-miterlimit="10" d="
				M39.199,656.187c0,0,8.932,2.59,10.112,13.979"/>
			<path fill="none" stroke="#FFFFFF" stroke-width="2" stroke-linecap="round" stroke-linejoin="round" stroke-miterlimit="10" d="
				M-75.378,556.458c0,0-2.166,3.36,2.386,11.26c4.554,7.897,7.018,26.012-5.294,36.366c-12.311,10.354-29.14,20.712-30.173,35.203
				c-1.033,14.49,2.295,28.204-3.45,36.748"/>
			<path fill="none" stroke="#FFFFFF" stroke-width="2" stroke-linecap="round" stroke-linejoin="round" stroke-miterlimit="10" d="
				M-81.151,580.335c0,0,8.28,14.219,0,26.104"/>
			<path fill="none" stroke="#FFFFFF" stroke-width="2" stroke-linecap="round" stroke-linejoin="round" stroke-miterlimit="10" d="
				M-105.993,619.546c0,0,1.86,6.547,0,11.333"/>
			<path fill="none" stroke="#FFFFFF" stroke-width="2" stroke-linecap="round" stroke-linejoin="round" stroke-miterlimit="10" d="
				M-68.38,608.871c0,0-9.072-0.904-13.429,5.05c-4.357,5.954-15.171,5.626-15.171,5.626"/>
			<path fill="none" stroke="#FFFFFF" stroke-width="2" stroke-linecap="round" stroke-linejoin="round" stroke-miterlimit="10" d="
				M-57.533,567.729c0,0,1.198,8.143-11.735,16.944"/>
			<path fill="none" stroke="#FFFFFF" stroke-width="2" stroke-linecap="round" stroke-linejoin="round" stroke-miterlimit="10" d="
				M324.331,676.003c0,0-19.06-38.111-12.12-59.692c6.938-21.58,26.762-33.227,37.493-46.685s25.16-28.469,24.128-43.872"/>
			<path fill="none" stroke="#FFFFFF" stroke-width="2" stroke-linecap="round" stroke-linejoin="round" stroke-miterlimit="10" d="
				M368.684,538.178c0,0-11.108,8.308-9.679,20.006"/>
			<path fill="none" stroke="#FFFFFF" stroke-width="2" stroke-linecap="round" stroke-linejoin="round" stroke-miterlimit="10" d="
				M349.878,546.137c0,0,2.249,15.6-2.46,26.015"/>
			<path fill="none" stroke="#FFFFFF" stroke-width="2" stroke-linecap="round" stroke-linejoin="round" stroke-miterlimit="10" d="
				M332.957,609.226c0,0-4.895,4.726-8.627,7.085c-6.6,4.173-12.991,9.491-12.12,24.757"/>
			<path fill="none" stroke="#FFFFFF" stroke-width="2" stroke-linecap="round" stroke-linejoin="round" stroke-miterlimit="10" d="
				M302.118,634.513c0,0,8.844,4.373,11.894,14.138"/>
			<path fill="none" stroke="#FFFFFF" stroke-width="2" stroke-linecap="round" stroke-linejoin="round" stroke-miterlimit="10" d="
				M310.166,595.443c0,0-3.607,12.988,3.355,17.268"/>
			<path fill="none" stroke="#FFFFFF" stroke-width="2" stroke-linecap="round" stroke-linejoin="round" stroke-miterlimit="10" d="
				M324.331,579.233c0,0-4.362,12.782-0.342,16.729"/>
			<path fill="none" stroke="#FFFFFF" stroke-width="2" stroke-linecap="round" stroke-linejoin="round" stroke-miterlimit="10" d="
				M-109.473,671.407c0,0,7.494-2.224,9.104-10.383"/>
			<path fill="none" stroke="#FFFFFF" stroke-width="2" stroke-linecap="round" stroke-linejoin="round" stroke-miterlimit="10" d="
				M441.45,675.823c0,0-0.943-8.428,3.077-18.736c4.019-10.31,3.185-20.576-2.202-30.361c-5.39-9.788,0.348-21.513,6.616-33.342"/>
			<path fill="none" stroke="#FFFFFF" stroke-width="2" stroke-linecap="round" stroke-linejoin="round" stroke-miterlimit="10" d="
				M443.319,660.592c0,0,2.037-7.01-10.414-16.272"/>
			<path fill="none" stroke="#FFFFFF" stroke-width="2" stroke-linecap="round" stroke-linejoin="round" stroke-miterlimit="10" d="
				M441.324,624.532c0,0-6.426-6.106-3.982-14.148c2.444-8.044,5.406-10.729,0.623-15.39"/>
			<path fill="none" stroke="#FFFFFF" stroke-width="2" stroke-linecap="round" stroke-linejoin="round" stroke-miterlimit="10" d="
				M446.004,635.932c0,0-0.337-11.711,6.704-21.365"/>
			<path fill="none" stroke="#FFFFFF" stroke-width="2" stroke-linecap="round" stroke-linejoin="round" stroke-miterlimit="10" d="
				M562.082,666.967c0,0-3.139-8.885-1.98-21.325c1.155-12.439-2.361-23.361-10.147-32.372c-7.783-9.014-5.345-23.521-2.422-38.302"
				/>
			<path fill="none" stroke="#FFFFFF" stroke-width="2" stroke-linecap="round" stroke-linejoin="round" stroke-miterlimit="10" d="
				M559.865,649.822c0,0,0.11-8.25-14.351-14.539"/>
			<path fill="none" stroke="#FFFFFF" stroke-width="2" stroke-linecap="round" stroke-linejoin="round" stroke-miterlimit="10" d="
				M548.411,611.188c0,0-7.812-4.692-7.579-14.188c0.234-9.496,2.384-13.32-3.466-16.939"/>
			<path fill="none" stroke="#FFFFFF" stroke-width="2" stroke-linecap="round" stroke-linejoin="round" stroke-miterlimit="10" d="
				M555.942,622.168c0,0-3.42-12.643,0.826-25.293"/>
			
				<path fill="#FFFFFF" stroke="#FFFFFF" stroke-width="2" stroke-linecap="round" stroke-linejoin="round" stroke-miterlimit="10" d="
				M556.895,597.316c0,0,0.666-0.68,4.981-1.908c4.317-1.23,14.764-8.911,10.179-26.239c0,0-5.47,6.185-9.84,10.449
				C557.843,583.882,556.934,591.014,556.895,597.316z"/>
			
				<path fill="#FFFFFF" stroke="#FFFFFF" stroke-width="2" stroke-linecap="round" stroke-linejoin="round" stroke-miterlimit="10" d="
				M546.881,576.904c0,0,2.71-5.126,4.751-9.59c1.248-2.727,7.106-13.354,3.374-21.468c-3.734-8.111-5.214-12.861-5.214-12.861
				s-3.742,10.978-5.274,15.929C542.985,553.861,541.084,565.223,546.881,576.904z"/>
			<path fill="#FFFFFF" d="M538.537,579.52c-9.741,0.734-15.629-10.369-17.807-17.986c-1.58-5.53-3.162-11.058-3.162-11.058
				c3.066,4.278,8.927,6.26,14.175,12.154s7.127,16.764,7.127,16.764"/>
			<path fill="none" stroke="#FFFFFF" stroke-width="2" stroke-linecap="round" stroke-linejoin="round" stroke-miterlimit="10" d="
				M538.537,579.52c-9.741,0.734-15.629-10.369-17.807-17.986c-1.58-5.53-3.162-11.058-3.162-11.058
				c3.066,4.278,8.927,6.26,14.175,12.154s7.127,16.764,7.127,16.764"/>
			
				<path fill="#FFFFFF" stroke="#FFFFFF" stroke-width="2" stroke-linecap="round" stroke-linejoin="round" stroke-miterlimit="10" d="
				M545.639,635.726c0,0-2.771-4.12-5.642-9.427c-2.869-5.306-6.472-8.015-8.886-8.727c-2.414-0.711-6.771-1.77-7.601-2.95
				c0,0,2.733,7.404,4.796,10.874C530.842,629.765,537.246,637.305,545.639,635.726z"/>
			
				<path fill="#FFFFFF" stroke="#FFFFFF" stroke-width="2" stroke-linecap="round" stroke-linejoin="round" stroke-miterlimit="10" d="
				M49.094,484.64c0,0-10.963,9.706-8.397,29.895c0,0,12.246-5.307,9.912-14.947C48.276,489.945,49.209,491.499,49.094,484.64z"/>
			
				<path fill="#FFFFFF" stroke="#FFFFFF" stroke-width="2" stroke-linecap="round" stroke-linejoin="round" stroke-miterlimit="10" d="
				M13.382,505.347c0,0-4.176,11-3.476,16.564c0.7,5.563,8.397,13.976,9.097,17.213c0,0,1.167-5.434,2.1-7.636
				c0.933-2.2,2.839-11.131-0.545-16.954C17.176,508.711,13.382,505.347,13.382,505.347z"/>
			
				<path fill="#FFFFFF" stroke="#FFFFFF" stroke-width="2" stroke-linecap="round" stroke-linejoin="round" stroke-miterlimit="10" d="
				M36.296,536.909c0,0-2.326,7.571-6.316,12.15c-3.986,4.581-11.151,11.675-9.422,22.288c0,0,0.904-3.013,7.847-6.243
				c6.939-3.23,10.968-9.938,11.543-13.285C40.776,547.023,40.036,542.824,36.296,536.909z"/>
			
				<path fill="#FFFFFF" stroke="#FFFFFF" stroke-width="2" stroke-linecap="round" stroke-linejoin="round" stroke-miterlimit="10" d="
				M52.908,618.003c0,0-8.601-12.287,3.328-26.791c0,0,0.258,5.525,1.303,7.513C58.588,600.715,59.683,609.895,52.908,618.003z"/>
			
				<path fill="#FFFFFF" stroke="#FFFFFF" stroke-width="2" stroke-linecap="round" stroke-linejoin="round" stroke-miterlimit="10" d="
				M57.491,615.219c0,0-2.332-15.534,15.745-22.003c0,0-0.701,2.072-0.935,6.73C72.069,604.605,71.37,613.149,57.491,615.219z"/>
			
				<path fill="#FFFFFF" stroke="#FFFFFF" stroke-width="2" stroke-linecap="round" stroke-linejoin="round" stroke-miterlimit="10" d="
				M35.914,597.229c-0.345,0.067-5.168-7.764,1.381-16.305c6.55-8.541,10.165-9.321,12.614-12.686c0,0-1.634,6.992-1.4,11.521
				C48.744,584.287,45.361,595.418,35.914,597.229z"/>
			
				<path fill="#FFFFFF" stroke="#FFFFFF" stroke-width="2" stroke-linecap="round" stroke-linejoin="round" stroke-miterlimit="10" d="
				M-16.57,584.596c-0.366-1.122,4.784,2.59,12.364,4.4s13.179,7.765,15.045,18.248C10.839,607.244-8.172,610.22-16.57,584.596z"/>
			
				<path fill="#FFFFFF" stroke="#FFFFFF" stroke-width="2" stroke-linecap="round" stroke-linejoin="round" stroke-miterlimit="10" d="
				M-4.643,548.633c0,0-2.1-1.293-5.365-3.495c-3.268-2.201-12.946-12.678-7.349-26.269c0,0,0.35,4.267,4.432,8.021
				C-8.843,530.643-2.079,536.983-4.643,548.633z"/>
			
				<path fill="#FFFFFF" stroke="#FFFFFF" stroke-width="2" stroke-linecap="round" stroke-linejoin="round" stroke-miterlimit="10" d="
				M-24.576,551.554c0,0,2.567,0.649,6.882,0c4.315-0.65,13.647,4.267,19.128,15.268c0,0-9.523,4.011-16.097-2.329
				C-21.235,558.153-20.377,555.951-24.576,551.554z"/>
			
				<path fill="#FFFFFF" stroke="#FFFFFF" stroke-width="2" stroke-linecap="round" stroke-linejoin="round" stroke-miterlimit="10" d="
				M34.786,559.455c0,0-3.824-1.676-7.185,5.168c-3.356,6.849-7.383,12.375-9.127,12.248c0,0,10.956,0.288,13.484-5.96
				C34.489,564.66,33.219,561.142,34.786,559.455z"/>
			<path fill="none" stroke="#FFFFFF" stroke-width="2" stroke-linecap="round" stroke-linejoin="round" stroke-miterlimit="10" d="
				M-162.993,614.51c0,0,8.334,0.534,15.53-17.477c7.194-18.01,14.255-18.447,19.009-23.768
				c4.751-5.313,14.668-25.527,12.964-39.539"/>
			<path fill="none" stroke="#FFFFFF" stroke-width="2" stroke-linecap="round" stroke-linejoin="round" stroke-miterlimit="10" d="
				M-114.889,565.368c0,0-5.289,5.992-11.483,5.113"/>
			<path fill="none" stroke="#FFFFFF" stroke-width="2" stroke-linecap="round" stroke-linejoin="round" stroke-miterlimit="10" d="
				M-142.891,591.258c0,0-2.287,0.721-4.571,5.774"/>
			<path fill="none" stroke="#FFFFFF" stroke-width="2" stroke-linecap="round" stroke-linejoin="round" stroke-miterlimit="10" d="
				M-124.767,560.223c0,0,0.688,6.09-4.794,9.148c-5.48,3.052-5.464,9.293-5.464,9.293"/>
			<path fill="none" stroke="#FFFFFF" stroke-width="2" stroke-linecap="round" stroke-linejoin="round" stroke-miterlimit="10" d="
				M-150.637,590.749c0,0,1.779,9.287-1.885,16.038"/>
			
				<path fill="#FFFFFF" stroke="#FFFFFF" stroke-width="2" stroke-linecap="round" stroke-linejoin="round" stroke-miterlimit="10" d="
				M-142.891,590.792c0,0,1.688,4.799,9.938,3.463c8.248-1.334,15.962-1.147,17.249,0.619c0,0-8.511-10.731-15.616-8.991
				C-138.424,587.612-140.275,591.18-142.891,590.792z"/>
			
				<path fill="#FFFFFF" stroke="#FFFFFF" stroke-width="2" stroke-linecap="round" stroke-linejoin="round" stroke-miterlimit="10" d="
				M-151.282,593.582c0,0,2.067-6.94,4.096-9.651c2.025-2.718,10.187-10.161-0.305-19.71c0,0,2.546,5.102-0.8,10.252
				C-151.636,579.617-157.382,585.829-151.282,593.582z"/>
			
				<path fill="#FFFFFF" stroke="#FFFFFF" stroke-width="2" stroke-linecap="round" stroke-linejoin="round" stroke-miterlimit="10" d="
				M-114.889,564.9c0,0,9.55-4.445,11.705-12.436c2.154-7.987,0.355-11.643,1.508-15.71c0,0-3.239,8.476-5.693,9.725
				C-109.82,547.729-116.675,555.996-114.889,564.9z"/>
			
				<path fill="#FFFFFF" stroke="#FFFFFF" stroke-width="2" stroke-linecap="round" stroke-linejoin="round" stroke-miterlimit="10" d="
				M-115.49,533.26c0,0,4.863-7.908,0.768-16.435c-4.096-8.53-5.236-7.744-5.546-10.219c0,0,0.882,3.333,0.557,7.823
				C-120.038,518.919-123.552,524.667-115.49,533.26z"/>
			
				<path fill="#FFFFFF" stroke="#FFFFFF" stroke-width="2" stroke-linecap="round" stroke-linejoin="round" stroke-miterlimit="10" d="
				M-124.767,559.757c0,0,5.342-16.291-7.03-23.757c0,0,1.977,4.237,1.03,7.721C-131.716,547.205-131.282,556.432-124.767,559.757z"
				/>
			<path fill="none" stroke="#FFFFFF" stroke-width="2" stroke-linecap="round" stroke-linejoin="round" stroke-miterlimit="10" d="
				M-325.34,468.661c0,0-3.26-3.548-2.16-11.973"/>
			<path fill="none" stroke="#FFFFFF" stroke-width="2" stroke-linecap="round" stroke-linejoin="round" stroke-miterlimit="10" d="
				M-318.4,501.079c0,0-10.34-18.175-5.779-36.885c2.462-10.093,1.945-14.029,1.222-18.634c-1.222-7.766,2.575-11.647,2.575-11.647"
				/>
			<path fill="none" stroke="#FFFFFF" stroke-width="2" stroke-linecap="round" stroke-linejoin="round" stroke-miterlimit="10" d="
				M-323.99,485.791c0,0-0.53-4.252,1.041-9.041"/>
			
				<path fill="#FFFFFF" stroke="#FFFFFF" stroke-width="2" stroke-linecap="round" stroke-linejoin="round" stroke-miterlimit="10" d="
				M-319.334,401.738c0,0-6.526,7.668-4.426,14.252c2.094,6.586,4.542,14.61,3.377,17.457c0,0,8.047-6.6,5.132-14.365
				C-318.167,411.316-321.666,403.808-319.334,401.738z"/>
			
				<path fill="#FFFFFF" stroke="#FFFFFF" stroke-width="2" stroke-linecap="round" stroke-linejoin="round" stroke-miterlimit="10" d="
				M-343.71,426.458c0,0-5.83,10.225,3.38,15.918c9.22,5.694,12.021,9.058,12.83,13.847c0,0,2.57-6.985,0-13.847
				C-330.059,435.516-341.26,434.096-343.71,426.458z"/>
			
				<path fill="#FFFFFF" stroke="#FFFFFF" stroke-width="2" stroke-linecap="round" stroke-linejoin="round" stroke-miterlimit="10" d="
				M-322.949,476.284c0,0-0.811-19.545,12.48-25.108C-310.469,451.176-306.969,467.484-322.949,476.284z"/>
			<path fill="none" stroke="#FFFFFF" stroke-width="2" stroke-linecap="round" stroke-linejoin="round" stroke-miterlimit="10" d="
				M626.059,635.272c0,0-3.886-18.749-12.613-21.538c-14.218-4.546-15.354-15.836-15.354-15.836"/>
			<path fill="#FFFFFF" d="M619.513,628.572c0,0,2.757,1.483,4.763,0.346L619.513,628.572z"/>
			<path fill="none" stroke="#FFFFFF" stroke-width="2" stroke-linecap="round" stroke-linejoin="round" stroke-miterlimit="10" d="
				M619.513,628.572c0,0,2.757,1.483,4.763,0.346"/>
			<path fill="none" stroke="#FFFFFF" stroke-width="2" stroke-linecap="round" stroke-linejoin="round" stroke-miterlimit="10" d="
				M620.51,610.754c0,0,3.479,6.165,1.241,11.992"/>
			
				<path fill="#FFFFFF" stroke="#FFFFFF" stroke-width="2" stroke-linecap="round" stroke-linejoin="round" stroke-miterlimit="10" d="
				M618.746,629.464c0,0-6.49,5.408-13.545-0.125c-7.055-5.531-8.48-2.38-11.676-10.379c0,0,2.018,2.04,6.416,1.352
				c4.398-0.686,10.092-2.353,12.545,0.29C614.938,623.244,616.395,628.828,618.746,629.464z"/>
			
				<path fill="#FFFFFF" stroke="#FFFFFF" stroke-width="2" stroke-linecap="round" stroke-linejoin="round" stroke-miterlimit="10" d="
				M599.881,605.325c0,0-13.48,0.489-16.518-19.526c0,0,3.957,3.146,5.938,3.389C591.281,589.43,598.246,594.034,599.881,605.325z"
				/>
			
				<path fill="#FFFFFF" stroke="#FFFFFF" stroke-width="2" stroke-linecap="round" stroke-linejoin="round" stroke-miterlimit="10" d="
				M620.121,610.63c0,0-14.949-9.211-12.545-25.414C607.577,585.216,621.44,590.071,620.121,610.63z"/>
			
				<path fill="#FFFFFF" stroke="#FFFFFF" stroke-width="2" stroke-linecap="round" stroke-linejoin="round" stroke-miterlimit="10" d="
				M16.807,633.848c0,0,0.351,22.39,22.393,21.871C39.199,655.72,38.965,644.331,16.807,633.848z"/>
			<path fill="none" stroke="#FFFFFF" stroke-width="2" stroke-linecap="round" stroke-linejoin="round" stroke-miterlimit="10" d="
				M-171.704,632.202c0,0,8.482,6.338,12.551,14.364c4.068,8.025,7.995,25.105,11.047,31.836"/>
			<path fill="none" stroke="#FFFFFF" stroke-width="2" stroke-linecap="round" stroke-linejoin="round" stroke-miterlimit="10" d="
				M-160.334,637.637c0,0-1.955,5.048,1.18,8.93"/>
			
				<path fill="#FFFFFF" stroke="#FFFFFF" stroke-width="2" stroke-linecap="round" stroke-linejoin="round" stroke-miterlimit="10" d="
				M-193.221,609.218c0,0-0.875,14.169,4.373,16.306c5.249,2.136,15.569,4.076,17.145,6.211c0,0-1.225-9.512-8.396-12.811
				C-187.275,615.623-193.573,610.964-193.221,609.218z"/>
			
				<path fill="#FFFFFF" stroke="#FFFFFF" stroke-width="2" stroke-linecap="round" stroke-linejoin="round" stroke-miterlimit="10" d="
				M-161.908,602.229c0,0-5.772,14.365-1.925,22.129c3.849,7.767,3.499,12.813,3.499,12.813s7.035-10.486,7.173-15.336
				C-153.039,617.564-154.036,612.518-161.908,602.229z"/>
			
				<path fill="#FFFFFF" stroke="#FFFFFF" stroke-width="2" stroke-linecap="round" stroke-linejoin="round" stroke-miterlimit="10" d="
				M-182.491,642.412c0,0-0.935,13.006,9.911,13.976c10.847,0.971,18.039,6.018,19.429,7.959c0,0-8.582-13.394-13.479-15.335
				C-171.53,647.069-177.533,648.234-182.491,642.412z"/>
			
				<path fill="#FFFFFF" stroke="#FFFFFF" stroke-width="2" stroke-linecap="round" stroke-linejoin="round" stroke-miterlimit="10" d="
				M-109.14,597.727c0,0-9.448,14.753,3.147,21.354C-105.993,619.081-100.744,612.675-109.14,597.727z"/>
			<path fill="none" stroke="#FFFFFF" stroke-width="2" stroke-linecap="round" stroke-linejoin="round" stroke-miterlimit="10" d="
				M-36.383,404.432c0,0,4.004,8.424-0.453,16.216c-4.456,7.788-16.093,16.653-19.141,28.842
				c-3.049,12.187-6.521,31.387-11.507,48.588c-8.046,27.761,5.619,62.356,9.958,73.276"/>
			<path fill="none" stroke="#FFFFFF" stroke-width="2" stroke-linecap="round" stroke-linejoin="round" stroke-miterlimit="10" d="
				M-68.85,478.235c0,0-7.153,14.219,1.021,21.099"/>
			<path fill="none" stroke="#FFFFFF" stroke-width="2" stroke-linecap="round" stroke-linejoin="round" stroke-miterlimit="10" d="
				M-61.319,510.778c0,0-3.755,2.772-3.242,10.163c0.512,7.392,1.2,14.152-2.636,21.282"/>
			<path fill="none" stroke="#FFFFFF" stroke-width="2" stroke-linecap="round" stroke-linejoin="round" stroke-miterlimit="10" d="
				M-57.34,553.157c0,0-5.585,4.146-3.116,9.346"/>
			<path fill="none" stroke="#FFFFFF" stroke-width="2" stroke-linecap="round" stroke-linejoin="round" stroke-miterlimit="10" d="
				M-51.283,458.517c0,0-5.705,1.317-9.26,11.297"/>
			<path fill="none" stroke="#FFFFFF" stroke-width="2" stroke-linecap="round" stroke-linejoin="round" stroke-miterlimit="10" d="
				M-28.841,420.591c0,0-5.389,17.285-20.12,15.404"/>
			<path fill="none" stroke="#FFFFFF" stroke-width="2" stroke-linecap="round" stroke-linejoin="round" stroke-miterlimit="10" d="
				M-62.189,421.163c0,0,5.21,3.685,4.938,11.512c-0.123,3.555-1.067,7.165-1.645,10.668c-0.693,4.205-0.858,8.255,1.563,11.865"/>
			<path fill="none" stroke="#FFFFFF" stroke-width="2" stroke-linecap="round" stroke-linejoin="round" stroke-miterlimit="10" d="
				M-71.243,430.247c0,0,11.95-1.6,12.676,11.266"/>
			
				<path fill="#FFFFFF" stroke="#FFFFFF" stroke-width="2" stroke-linecap="round" stroke-linejoin="round" stroke-miterlimit="10" d="
				M-68.924,477.776c0,0-11.562-8.593-4.218-26.602c0,0,1.768,5.151,3.31,6.664C-68.288,459.352-64.716,467.672-68.924,477.776z"/>
			
				<path fill="#FFFFFF" stroke="#FFFFFF" stroke-width="2" stroke-linecap="round" stroke-linejoin="round" stroke-miterlimit="10" d="
				M-61.391,510.32c0,0,3.496-8.899,3.607-12.016c0.213-5.967-0.682-13.277,9.645-18.826c0,0,1.18,4.866,1.453,9.165
				C-46.094,497.991-49.65,505.852-61.391,510.32z"/>
			
				<path fill="#FFFFFF" stroke="#FFFFFF" stroke-width="2" stroke-linecap="round" stroke-linejoin="round" stroke-miterlimit="10" d="
				M-47.402,524.518c0,0-11.834,10.409-10.012,28.179c0,0,3.007-2.81,5.153-3.857c2.146-1.048,7.401-8.282,6.523-13.82
				C-46.615,529.481-48.001,528.592-47.402,524.518z"/>
			
				<path fill="#FFFFFF" stroke="#FFFFFF" stroke-width="2" stroke-linecap="round" stroke-linejoin="round" stroke-miterlimit="10" d="
				M-89.432,418.922c0,0,3.061,17.385,17.961,10.886c0,0-2.795-7.644-9.27-8.205C-87.212,421.04-87.326,420.071-89.432,418.922z"/>
			
				<path fill="#FFFFFF" stroke="#FFFFFF" stroke-width="2" stroke-linecap="round" stroke-linejoin="round" stroke-miterlimit="10" d="
				M-72.237,391.444c0,0-6.851,19.613,9.977,29.261C-62.26,420.704-54.19,409.911-72.237,391.444z"/>
			
				<path fill="#FFFFFF" stroke="#FFFFFF" stroke-width="2" stroke-linecap="round" stroke-linejoin="round" stroke-miterlimit="10" d="
				M-51.356,458.058c0,0,7.752-3.817,10.254-7.111c2.502-3.296,13.799-9.445,20.123-8.815c0,0-3.948,5.379-4.992,7.771
				C-27.014,452.293-30.907,461.599-51.356,458.058z"/>
			
				<path fill="#FFFFFF" stroke="#FFFFFF" stroke-width="2" stroke-linecap="round" stroke-linejoin="round" stroke-miterlimit="10" d="
				M-34.477,371.578c0,0-10.026,14.169-1.979,32.394c0,0,6.938-8.974,7.212-13.967C-28.967,385.013-31.416,380.796-34.477,371.578z"
				/>
			
				<path fill="#FFFFFF" stroke="#FFFFFF" stroke-width="2" stroke-linecap="round" stroke-linejoin="round" stroke-miterlimit="10" d="
				M-28.913,420.131c0,0,2.112-15.842,13.967-24.085c0,0-0.72,3.312-0.338,7.967C-14.902,408.667-17.011,421.155-28.913,420.131z"/>
			<path fill="none" stroke="#FFFFFF" stroke-width="2" stroke-linecap="round" stroke-linejoin="round" stroke-miterlimit="10" d="
				M649.131,421.319c0,0,4.003,8.425-0.454,16.216c-4.456,7.789-16.093,16.654-19.142,28.843
				c-3.047,12.186-6.521,31.386-11.506,48.587c-8.047,27.762,5.619,62.356,9.959,73.277"/>
			<path fill="none" stroke="#FFFFFF" stroke-width="2" stroke-linecap="round" stroke-linejoin="round" stroke-miterlimit="10" d="
				M616.66,495.125c0,0-7.151,14.218,1.023,21.097"/>
			<path fill="none" stroke="#FFFFFF" stroke-width="2" stroke-linecap="round" stroke-linejoin="round" stroke-miterlimit="10" d="
				M624.194,527.667c0,0-3.756,2.771-3.242,10.162c0.512,7.392,1.199,14.151-2.635,21.282"/>
			<path fill="none" stroke="#FFFFFF" stroke-width="2" stroke-linecap="round" stroke-linejoin="round" stroke-miterlimit="10" d="
				M628.173,570.045c0,0-5.585,4.146-3.116,9.346"/>
			<path fill="none" stroke="#FFFFFF" stroke-width="2" stroke-linecap="round" stroke-linejoin="round" stroke-miterlimit="10" d="
				M634.23,475.404c0,0-5.705,1.317-9.26,11.297"/>
			<path fill="none" stroke="#FFFFFF" stroke-width="2" stroke-linecap="round" stroke-linejoin="round" stroke-miterlimit="10" d="
				M656.672,437.479c0,0-5.389,17.285-20.121,15.405"/>
			<path fill="none" stroke="#FFFFFF" stroke-width="2" stroke-linecap="round" stroke-linejoin="round" stroke-miterlimit="10" d="
				M623.324,438.051c0,0,5.209,3.686,4.938,11.513c-0.123,3.554-1.066,7.165-1.643,10.667c-0.695,4.206-0.859,8.255,1.561,11.865"/>
			<path fill="none" stroke="#FFFFFF" stroke-width="2" stroke-linecap="round" stroke-linejoin="round" stroke-miterlimit="10" d="
				M614.27,447.136c0,0,11.951-1.601,12.676,11.265"/>
			
				<path fill="#FFFFFF" stroke="#FFFFFF" stroke-width="2" stroke-linecap="round" stroke-linejoin="round" stroke-miterlimit="10" d="
				M616.588,494.665c0,0-11.56-8.594-4.219-26.603c0,0,1.769,5.151,3.311,6.664C617.225,476.239,620.796,484.56,616.588,494.665z"/>
			
				<path fill="#FFFFFF" stroke="#FFFFFF" stroke-width="2" stroke-linecap="round" stroke-linejoin="round" stroke-miterlimit="10" d="
				M624.121,527.208c0,0,3.496-8.899,3.607-12.017c0.214-5.966-0.682-13.275,9.645-18.824c0,0,1.18,4.864,1.453,9.165
				C639.418,514.879,635.864,522.74,624.121,527.208z"/>
			
				<path fill="#FFFFFF" stroke="#FFFFFF" stroke-width="2" stroke-linecap="round" stroke-linejoin="round" stroke-miterlimit="10" d="
				M638.112,541.405c0,0-11.834,10.409-10.012,28.181c0,0,3.006-2.811,5.152-3.859c2.146-1.048,7.402-8.282,6.523-13.819
				C638.898,546.37,637.512,545.479,638.112,541.405z"/>
			
				<path fill="#FFFFFF" stroke="#FFFFFF" stroke-width="2" stroke-linecap="round" stroke-linejoin="round" stroke-miterlimit="10" d="
				M596.079,435.811c0,0,3.062,17.384,17.962,10.885c0,0-2.795-7.643-9.27-8.204C598.3,437.929,598.188,436.959,596.079,435.811z"/>
			
				<path fill="#FFFFFF" stroke="#FFFFFF" stroke-width="2" stroke-linecap="round" stroke-linejoin="round" stroke-miterlimit="10" d="
				M613.276,408.332c0,0-6.852,19.613,9.977,29.262C623.252,437.593,631.323,426.799,613.276,408.332z"/>
			
				<path fill="#FFFFFF" stroke="#FFFFFF" stroke-width="2" stroke-linecap="round" stroke-linejoin="round" stroke-miterlimit="10" d="
				M634.156,474.944c0,0,7.752-3.817,10.253-7.11c2.501-3.296,13.8-9.445,20.123-8.816c0,0-3.948,5.379-4.993,7.771
				C658.498,469.182,654.606,478.485,634.156,474.944z"/>
			
				<path fill="#FFFFFF" stroke="#FFFFFF" stroke-width="2" stroke-linecap="round" stroke-linejoin="round" stroke-miterlimit="10" d="
				M651.035,388.466c0,0-10.027,14.17-1.979,32.394c0,0,6.938-8.973,7.213-13.966S654.098,397.684,651.035,388.466z"/>
			
				<path fill="#FFFFFF" stroke="#FFFFFF" stroke-width="2" stroke-linecap="round" stroke-linejoin="round" stroke-miterlimit="10" d="
				M656.6,437.02c0,0,2.111-15.843,13.967-24.085c0,0-0.72,3.312-0.338,7.967C670.612,425.556,668.5,438.043,656.6,437.02z"/>
			
				<path fill="#FFFFFF" stroke="#FFFFFF" stroke-width="2" stroke-linecap="round" stroke-linejoin="round" stroke-miterlimit="10" d="
				M-100.753,661.166c0,0,15.388-1.015,15.547-13.191c0.16-12.177,3.142-14.132,3.142-14.132S-99.847,642.761-100.753,661.166z"/>
			<path fill="none" stroke="#FFFFFF" stroke-width="2" stroke-linecap="round" stroke-linejoin="round" stroke-miterlimit="10" d="
				M-117.178,527.391c0,0,5.577-41.362-18.088-63.17c-23.666-21.809-31.945-40.446-34.317-50.502"/>
			<path fill="none" stroke="#FFFFFF" stroke-width="2" stroke-linecap="round" stroke-linejoin="round" stroke-miterlimit="10" d="
				M-135.323,496.986c0,0,15.044,0.948,18.673,16.713"/>
			<path fill="none" stroke="#FFFFFF" stroke-width="2" stroke-linecap="round" stroke-linejoin="round" stroke-miterlimit="10" d="
				M-119.39,451.866c0,0-12.351,15.108-3.594,30.176"/>
			<path fill="none" stroke="#FFFFFF" stroke-width="2" stroke-linecap="round" stroke-linejoin="round" stroke-miterlimit="10" d="
				M-140.03,446.542c0,0-1.056,11.205,4.764,17.679"/>
			<path fill="none" stroke="#FFFFFF" stroke-width="2" stroke-linecap="round" stroke-linejoin="round" stroke-miterlimit="10" d="
				M-163.889,453.837c0,0,6.449,0.818,10.321,5.813c3.872,4.993,10.907,11.585,19.856,7.083"/>
			
				<path fill="#FFFFFF" stroke="#FFFFFF" stroke-width="2" stroke-linecap="round" stroke-linejoin="round" stroke-miterlimit="10" d="
				M-119.3,452.321c0,0,12.594-6.167,4.056-22.808C-115.244,429.514-124.468,439.957-119.3,452.321z"/>
			
				<path fill="#FFFFFF" stroke="#FFFFFF" stroke-width="2" stroke-linecap="round" stroke-linejoin="round" stroke-miterlimit="10" d="
				M-135.232,497.44c0,0-2.555-4.692-3.197-7.908c-0.645-3.216-3.293-12.866-16.245-12.979c0,0,0.735,8.769,5.62,14.034
				C-144.169,495.853-135.232,497.44-135.232,497.44z"/>
			
				<path fill="#FFFFFF" stroke="#FFFFFF" stroke-width="2" stroke-linecap="round" stroke-linejoin="round" stroke-miterlimit="10" d="
				M-139.939,446.996c0,0,9.792-12.091-3.556-27.641C-143.495,419.355-152.054,432.212-139.939,446.996z"/>
			
				<path fill="#FFFFFF" stroke="#FFFFFF" stroke-width="2" stroke-linecap="round" stroke-linejoin="round" stroke-miterlimit="10" d="
				M-163.799,454.292c0,0-7.951-16.4-25.411-4.942c0,0,1.61,0.87,6.939,3.273C-176.94,455.025-170.654,455.931-163.799,454.292z"/>
			
				<path fill="#FFFFFF" stroke="#FFFFFF" stroke-width="2" stroke-linecap="round" stroke-linejoin="round" stroke-miterlimit="10" d="
				M-169.493,414.173c0,0-1.628-4.545-0.888-10.722c0.74-6.176-2.856-16.967-12.381-24.177c0,0,3.219,8.9,2.423,12.103
				S-183.902,405.882-169.493,414.173z"/>
			<path fill="none" stroke="#FFFFFF" stroke-width="2" stroke-linecap="round" stroke-linejoin="round" stroke-miterlimit="10" d="
				M-317.181,534.582c0,0-9.099,5.771-7.229,18.675"/>
			<path fill="none" stroke="#FFFFFF" stroke-width="2" stroke-linecap="round" stroke-linejoin="round" stroke-miterlimit="10" d="
				M-316.208,538.075c0,0-7.502,9.078-9.722,20.521c-2.21,11.444-1.091,20.243,3.478,31.891c4.57,11.646,21.364,46.327,5.271,82.307
				"/>
			<path fill="none" stroke="#FFFFFF" stroke-width="2" stroke-linecap="round" stroke-linejoin="round" stroke-miterlimit="10" d="
				M-335.9,578.841c0,0,4.9,13.715,16.127,18.247"/>
			<path fill="none" stroke="#FFFFFF" stroke-width="2" stroke-linecap="round" stroke-linejoin="round" stroke-miterlimit="10" d="
				M-319.919,639.114c0,0,3.749,3.978,3.711,9.122c-0.04,5.148-1.557,13.026,1.65,17.889"/>
			<path fill="none" stroke="#FFFFFF" stroke-width="2" stroke-linecap="round" stroke-linejoin="round" stroke-miterlimit="10" d="
				M-319.465,562.089c0,0-11.235,9.091-4.806,25.624"/>
			<path fill="none" stroke="#FFFFFF" stroke-width="2" stroke-linecap="round" stroke-linejoin="round" stroke-miterlimit="10" d="
				M-310.884,598.174c0,0-5.482,5.37-3.118,18.951"/>
			
				<path fill="#FFFFFF" stroke="#FFFFFF" stroke-width="2" stroke-linecap="round" stroke-linejoin="round" stroke-miterlimit="10" d="
				M-331.99,608.949c0,0-5.95,22.904,12.072,29.699C-319.919,638.648-313.795,626.612-331.99,608.949z"/>
			
				<path fill="#FFFFFF" stroke="#FFFFFF" stroke-width="2" stroke-linecap="round" stroke-linejoin="round" stroke-miterlimit="10" d="
				M-349.139,552.36c0,0-7.23,21.742,13.239,26.014c0,0,1.57-10.677-5.25-16.307C-347.969,556.438-347.51,555.273-349.139,552.36z"
				/>
			
				<path fill="#FFFFFF" stroke="#FFFFFF" stroke-width="2" stroke-linecap="round" stroke-linejoin="round" stroke-miterlimit="10" d="
				M-321.38,564.01c-0.298,0.516,3.848-16.501,15.045-16.501c11.196,0,11.546-3.106,11.546-3.106s-2.1,11.454-7.173,13.396
				C-307.035,559.738-318.581,559.155-321.38,564.01z"/>
			
				<path fill="#FFFFFF" stroke="#FFFFFF" stroke-width="2" stroke-linecap="round" stroke-linejoin="round" stroke-miterlimit="10" d="
				M-310.884,598.174c0,0,0.524-16.112,22.743-24.071c0,0-0.911,7.319-3.149,12.035
				C-294.789,593.515-302.136,597.397-310.884,598.174z"/>
			
				<path fill="#FFFFFF" stroke="#FFFFFF" stroke-width="2" stroke-linecap="round" stroke-linejoin="round" stroke-miterlimit="10" d="
				M-317.181,534.115c0,0,0-6.795-2.448-10.483c-2.45-3.688-6.47-13.2,4.198-25.041c0,0,0,4.465,2.449,8.056
				C-310.534,510.237-305.986,525.574-317.181,534.115z"/>
			
				<path fill="#FFFFFF" stroke="#FFFFFF" stroke-width="2" stroke-linecap="round" stroke-linejoin="round" stroke-miterlimit="10" d="
				M-316.208,537.607c0,0,1.202-14.879,14.946-16.111c0,0-3.149,2.719-3.499,5.824
				C-305.111,530.426-308.588,536.251-316.208,537.607z"/>
			<path fill="none" stroke="#FFFFFF" stroke-width="2" stroke-linecap="round" stroke-linejoin="round" stroke-miterlimit="10" d="
				M550.457,537.334c0,0,7.273-18.563-3.289-38.349s-5.434-20.9-2.445-28.539c2.988-7.636,6.151-26.555-8.268-39.776"/>
			<path fill="none" stroke="#FFFFFF" stroke-width="2" stroke-linecap="round" stroke-linejoin="round" stroke-miterlimit="10" d="
				M540.186,409.482c0,0,5.879,8.82,3.115,15.312c-2.762,6.492-0.273,14.173-0.273,14.173"/>
			<path fill="none" stroke="#FFFFFF" stroke-width="2" stroke-linecap="round" stroke-linejoin="round" stroke-miterlimit="10" d="
				M552.944,438.652c0,0-5.045,6.615-5.702,18.626"/>
			<path fill="none" stroke="#FFFFFF" stroke-width="2" stroke-linecap="round" stroke-linejoin="round" stroke-miterlimit="10" d="
				M560.682,477.467c0,0-14.218,3.729-12.027,24.55"/>
			<path fill="none" stroke="#FFFFFF" stroke-width="2" stroke-linecap="round" stroke-linejoin="round" stroke-miterlimit="10" d="
				M552.657,517.131c0,0-0.615-3.38-3.249-7.458c-2.002-3.099-3.526-4.87-8.477-7.599"/>
			<path fill="none" stroke="#FFFFFF" stroke-width="2" stroke-linecap="round" stroke-linejoin="round" stroke-miterlimit="10" d="
				M528.163,512.91c0,0,17.196-4.011,24.538,12.241"/>
			
				<path fill="#FFFFFF" stroke="#FFFFFF" stroke-width="2" stroke-linecap="round" stroke-linejoin="round" stroke-miterlimit="10" d="
				M582.879,473.499c0,0-8.857,12.102-22.195,4.436C560.684,477.935,566.745,466.824,582.879,473.499z"/>
			
				<path fill="#FFFFFF" stroke="#FFFFFF" stroke-width="2" stroke-linecap="round" stroke-linejoin="round" stroke-miterlimit="10" d="
				M552.946,439.118c0,0,3.49-1.723,11.181-2.945c7.692-1.222,10.961-10.953,11.437-19.886
				C575.563,416.287,556.875,421.957,552.946,439.118z"/>
			
				<path fill="#FFFFFF" stroke="#FFFFFF" stroke-width="2" stroke-linecap="round" stroke-linejoin="round" stroke-miterlimit="10" d="
				M540.188,409.949c0,0,1.037-2.338,2.951-4.293c1.913-1.956,6.071-9.169,1.129-17.285c-4.943-8.116-6.699-9.075-6.541-12.375
				C537.727,375.996,531.378,398.755,540.188,409.949z"/>
			
				<path fill="#FFFFFF" stroke="#FFFFFF" stroke-width="2" stroke-linecap="round" stroke-linejoin="round" stroke-miterlimit="10" d="
				M536.457,431.137c0,0,3.787-11.094-20.946-22.751c0,0,1.241,2.707,2.673,8.327C519.614,422.332,522.615,427.161,536.457,431.137z
				"/>
			<path fill="#FFFFFF" d="M541.401,502.538c0,0-3.203-4.118-4.389-10.322c-1.185-6.202-6.688-10.001-11.595-11.41
				c-4.905-1.408-6.084-3.6-6.084-3.6s0.636,9.699,5.103,16.009c4.469,6.31,12.28,5.863,16.498,9.327"/>
			<path fill="none" stroke="#FFFFFF" stroke-width="2" stroke-linecap="round" stroke-linejoin="round" stroke-miterlimit="10" d="
				M541.401,502.538c0,0-3.203-4.118-4.389-10.322c-1.185-6.202-6.688-10.001-11.595-11.41c-4.905-1.408-6.084-3.6-6.084-3.6
				s0.636,9.699,5.103,16.009c4.469,6.31,12.28,5.863,16.498,9.327"/>
			<path fill="#FFFFFF" d="M528.165,513.376c0,0-13.253,7.604-23.349-4.228c0,0,13.379-5.924,23.347,3.838"/>
			<path fill="none" stroke="#FFFFFF" stroke-width="2" stroke-linecap="round" stroke-linejoin="round" stroke-miterlimit="10" d="
				M528.165,513.376c0,0-13.253,7.604-23.349-4.228c0,0,13.379-5.924,23.347,3.838"/>
			<path fill="none" stroke="#FFFFFF" stroke-width="2" stroke-linecap="round" stroke-linejoin="round" stroke-miterlimit="10" d="
				M22.463,455.86c0,0,9.083,5.278,7.773,12.948"/>
			<path fill="none" stroke="#FFFFFF" stroke-width="2" stroke-linecap="round" stroke-linejoin="round" stroke-miterlimit="10" d="
				M32.363,533.351c0,0-19.099-45.943,1.83-69.824c20.925-23.88,32.101-49.128,25.141-72.217"/>
			<path fill="none" stroke="#FFFFFF" stroke-width="2" stroke-linecap="round" stroke-linejoin="round" stroke-miterlimit="10" d="
				M41.148,485.155c0,0-2.934,8.758-16.644,13.089"/>
			<path fill="none" stroke="#FFFFFF" stroke-width="2" stroke-linecap="round" stroke-linejoin="round" stroke-miterlimit="10" d="
				M11.218,493.949c0,0,9.096,4.918,10.585,13.262c1.488,8.345,6.332,15.591,6.332,15.591"/>
			<path fill="none" stroke="#FFFFFF" stroke-width="2" stroke-linecap="round" stroke-linejoin="round" stroke-miterlimit="10" d="
				M72.036,436.02c0,0-2.016,2.269-4.423,5.576c-3.059,4.198-11.407,11.344-20.862,6.563"/>
			<path fill="none" stroke="#FFFFFF" stroke-width="2" stroke-linecap="round" stroke-linejoin="round" stroke-miterlimit="10" d="
				M55.065,432.337c0,0,0.015-12.578-8.71-16.095"/>
			
				<path fill="#FFFFFF" stroke="#FFFFFF" stroke-width="2" stroke-linecap="round" stroke-linejoin="round" stroke-miterlimit="10" d="
				M62.922,470.366c0,0-4.607,2.222-5.384,5.21s-6.736,12.959-16.304,10.064C41.235,485.641,43.709,466.135,62.922,470.366z"/>
			
				<path fill="#FFFFFF" stroke="#FFFFFF" stroke-width="2" stroke-linecap="round" stroke-linejoin="round" stroke-miterlimit="10" d="
				M92.137,421.272c0,0-3.387,1.039-4.842,2.896c-2.229,2.849-6.144,12.957-16.138,11.006
				C71.156,435.174,74.728,415.151,92.137,421.272z"/>
			
				<path fill="#FFFFFF" stroke="#FFFFFF" stroke-width="2" stroke-linecap="round" stroke-linejoin="round" stroke-miterlimit="10" d="
				M60.112,392.558c0,0-1.24-3.603,0.248-9.281c1.486-5.678-2.255-12.631-4.618-14.866c-2.365-2.236-3.068-6.83-2.957-7.558
				c0,0-6.022,9.624-3.305,17.52C52.309,386.592,54.418,386.117,60.112,392.558z"/>
			
				<path fill="#FFFFFF" stroke="#FFFFFF" stroke-width="2" stroke-linecap="round" stroke-linejoin="round" stroke-miterlimit="10" d="
				M46.442,416.728c0,0,0.921-10.867-5.36-14.69c-6.281-3.821-13.957-2.784-15.104-9.886
				C25.978,392.151,27.025,418.71,46.442,416.728z"/>
			
				<path fill="#FFFFFF" stroke="#FFFFFF" stroke-width="2" stroke-linecap="round" stroke-linejoin="round" stroke-miterlimit="10" d="
				M11.305,494.433c0,0,5.39-10.838-11.858-29.41C-0.553,465.022-4.193,486.676,11.305,494.433z"/>
			
				<path fill="#FFFFFF" stroke="#FFFFFF" stroke-width="2" stroke-linecap="round" stroke-linejoin="round" stroke-miterlimit="10" d="
				M22.549,456.347c0,0-4.544-1.436-6.915-1.709c-2.371-0.274-13.226-1.04-12.388-20.364c0,0,1.777,4.954,5.103,5.566
				C11.674,440.454,22.31,447.998,22.549,456.347z"/>
			<path fill="none" stroke="#FFFFFF" stroke-width="2" stroke-linecap="round" stroke-linejoin="round" stroke-miterlimit="10" d="
				M132.554,521.674c0,0,1.007-20.957-8.197-28.116c-9.206-7.161-12.288-9.29-12.288-9.29"/>
			<path fill="none" stroke="#FFFFFF" stroke-width="2" stroke-linecap="round" stroke-linejoin="round" stroke-miterlimit="10" d="
				M132.865,465.447c0,0-9.011,22.367-5.357,31.621"/>
			<path fill="none" stroke="#FFFFFF" stroke-width="2" stroke-linecap="round" stroke-linejoin="round" stroke-miterlimit="10" d="
				M118.033,442.635c0,0-0.767,15.913,4.538,27.481c5.306,11.568,4.252,17.883,4.252,17.883"/>
			<path fill="none" stroke="#FFFFFF" stroke-width="2" stroke-linecap="round" stroke-linejoin="round" stroke-miterlimit="10" d="
				M144.078,420.99c0,0-1.699,12.286-8.104,18.345c-6.405,6.058-12.954,27.644-10.485,38.515"/>
			<path fill="none" stroke="#FFFFFF" stroke-width="2" stroke-linecap="round" stroke-linejoin="round" stroke-miterlimit="10" d="
				M165.601,408.558c0,0-6.28,9.195-7.794,16.234c-1.513,7.039-10.572,15.119-21.832,14.542"/>
			
				<path fill="#FFFFFF" stroke="#FFFFFF" stroke-width="2" stroke-linecap="round" stroke-linejoin="round" stroke-miterlimit="10" d="
				M190.213,391.112c0,0-3.532,2.111-4.68,7.047s-7.011,15.354-19.975,10.862C165.559,409.021,175.266,389.114,190.213,391.112z"/>
			
				<path fill="#FFFFFF" stroke="#FFFFFF" stroke-width="2" stroke-linecap="round" stroke-linejoin="round" stroke-miterlimit="10" d="
				M144.037,421.454c0,0,7.95-14.069,3.927-43.635c0,0-2.207,6.928-5.173,12.537C139.823,395.964,135.98,407.406,144.037,421.454z"
				/>
			
				<path fill="#FFFFFF" stroke="#FFFFFF" stroke-width="2" stroke-linecap="round" stroke-linejoin="round" stroke-miterlimit="10" d="
				M117.992,443.1c0,0,1.739-3.693,4.366-5.523c2.627-1.831,6.662-11.493,2.606-28.962
				C124.965,408.614,112.961,424.732,117.992,443.1z"/>
			
				<path fill="#FFFFFF" stroke="#FFFFFF" stroke-width="2" stroke-linecap="round" stroke-linejoin="round" stroke-miterlimit="10" d="
				M132.824,465.912c-0.16,0.826,11.009,4.701,18.038-14.75C150.863,451.162,135.768,450.794,132.824,465.912z"/>
			
				<path fill="#FFFFFF" stroke="#FFFFFF" stroke-width="2" stroke-linecap="round" stroke-linejoin="round" stroke-miterlimit="10" d="
				M112.027,484.731c0,0-2.47-4.591-2-7.852s-0.944-10.988-6.485-13.929c-5.54-2.94-6.079-4.763-6.079-4.763
				S97.792,485.356,112.027,484.731z"/>
			<path fill="none" stroke="#FFFFFF" stroke-width="2" stroke-linecap="round" stroke-linejoin="round" stroke-miterlimit="10" d="
				M210.902,541.244c0,0-1.468-5.944-6.172-10.779c-4.706-4.835-7.931-8.758-7.931-8.758"/>
			
				<path fill="#FFFFFF" stroke="#FFFFFF" stroke-width="2" stroke-linecap="round" stroke-linejoin="round" stroke-miterlimit="10" d="
				M196.425,521.529c0,0,4.838-9.923,1.563-15.361c-3.272-5.438-7.573-9.229-8.349-15.006
				C189.639,491.161,184.78,512.05,196.425,521.529z"/>
			
				<path fill="#FFFFFF" stroke="#FFFFFF" stroke-width="2" stroke-linecap="round" stroke-linejoin="round" stroke-miterlimit="10" d="
				M367.899,492.093c-0.303-0.514-1.006,8.231-1.926,12.812c-1.75,8.736-0.699,13.007,7,19.51
				C372.973,524.414,380.319,513.253,367.899,492.093z"/>
			
				<path fill="#FFFFFF" stroke="#FFFFFF" stroke-width="2" stroke-linecap="round" stroke-linejoin="round" stroke-miterlimit="10" d="
				M351.628,517.134c0,0,0.579,6.407-0.935,10.095c-1.514,3.688-6.063,12.23-0.814,18.442c0,0,0.814-3.883,3.674-7.184
				C355.073,536.734,360.376,533.052,351.628,517.134z"/>
			
				<path fill="#FFFFFF" stroke="#FFFFFF" stroke-width="2" stroke-linecap="round" stroke-linejoin="round" stroke-miterlimit="10" d="
				M368.686,537.711c0,0,0.787-9.512,8.31-10.87c7.522-1.359,10.497-10.676,10.497-10.676S383.992,541.398,368.686,537.711z"/>
			
				<path fill="#FFFFFF" stroke="#FFFFFF" stroke-width="2" stroke-linecap="round" stroke-linejoin="round" stroke-miterlimit="10" d="
				M306.69,562.559c0,0,0,7.176,0.679,9.126c0.995,2.863,1.573,5.979,0.874,10.753c-0.699,4.775,0.525,10.598,1.925,12.539
				c0,0,1.224-5.435,3.149-7.376C315.24,585.659,320.706,576.341,306.69,562.559z"/>
			<path fill="none" stroke="#FFFFFF" stroke-width="2" stroke-linecap="round" stroke-linejoin="round" stroke-miterlimit="10" d="
				M636.344,672.787c0,0-20.983-20.632-11.897-34.481c5.759-8.779,14.397-12.24,11.335-22.721
				c-2.137-7.319-6.455-12.162-6.455-12.162"/>
			<path fill="none" stroke="#FFFFFF" stroke-width="2" stroke-linecap="round" stroke-linejoin="round" stroke-miterlimit="10" d="
				M644.784,615.058c0,0,0.979,5.818-1.341,8.795c-2.319,2.977-11.326,4.087-12.97,7.156"/>
			<path fill="none" stroke="#FFFFFF" stroke-width="2" stroke-linecap="round" stroke-linejoin="round" stroke-miterlimit="10" d="
				M622.855,653.602c0,0,5.976-9.987,17.651-13.298"/>
			
				<path fill="#FFFFFF" stroke="#FFFFFF" stroke-width="2" stroke-linecap="round" stroke-linejoin="round" stroke-miterlimit="10" d="
				M629.255,603.883c0,0-7.876-13.601,5.978-28.739c0,0-1.485,4.823,0.363,9.733C637.443,589.788,635.213,598.592,629.255,603.883z"
				/>
			
				<path fill="#FFFFFF" stroke="#FFFFFF" stroke-width="2" stroke-linecap="round" stroke-linejoin="round" stroke-miterlimit="10" d="
				M644.714,615.518c-0.57,0.441-5.021-17.188,15.074-24.321C659.788,591.196,655.59,607.094,644.714,615.518z"/>
			
				<path fill="#FFFFFF" stroke="#FFFFFF" stroke-width="2" stroke-linecap="round" stroke-linejoin="round" stroke-miterlimit="10" d="
				M638.08,641.563c0,0,2.522-10.721,8.44-11.09c5.918-0.368,9.125-1.586,11.73-4.701
				C658.252,625.772,654.099,644.045,638.08,641.563z"/>
			<path fill="none" stroke="#FFFFFF" stroke-width="2" stroke-linecap="round" stroke-linejoin="round" stroke-miterlimit="10" d="
				M100.078,535.359c0,0,7.811,1.434,14.011,9.944s9.702,18.798,14.582,19.056"/>
			<path fill="none" stroke="#FFFFFF" stroke-width="2" stroke-linecap="round" stroke-linejoin="round" stroke-miterlimit="10" d="
				M120.345,581.432c0,0-0.415,12.354,4.055,14.442"/>
			<path fill="none" stroke="#FFFFFF" stroke-width="2" stroke-linecap="round" stroke-linejoin="round" stroke-miterlimit="10" d="
				M136.915,572.046c0,0-3.649,8.734-10.749,13.907"/>
			<path fill="none" stroke="#FFFFFF" stroke-width="2" stroke-linecap="round" stroke-linejoin="round" stroke-miterlimit="10" d="
				M120.375,532.182c0,0,1.59,0.346,1.847,5.703c0.254,5.358,1.354,12.753,5.264,15.49"/>
			<path fill="none" stroke="#FFFFFF" stroke-width="2" stroke-linecap="round" stroke-linejoin="round" stroke-miterlimit="10" d="
				M125.486,538.767c0,0-0.119,5.74,0.755,8.506c0.876,2.767,4.896,17.566,1.809,29.12c-3.086,11.554-1.228,14.068-6.291,33.53
				c-5.063,19.462-6.13,51.322,17.652,59.54"/>
			<path fill="none" stroke="#FFFFFF" stroke-width="2" stroke-linecap="round" stroke-linejoin="round" stroke-miterlimit="10" d="
				M132.99,627.937c0,0-12.002,18.876-6.55,32.2"/>
			<path fill="none" stroke="#FFFFFF" stroke-width="2" stroke-linecap="round" stroke-linejoin="round" stroke-miterlimit="10" d="
				M114.942,626.723c0,0,2.258,0.15,3.875,6.92"/>
			<path fill="none" stroke="#FFFFFF" stroke-width="2" stroke-linecap="round" stroke-linejoin="round" stroke-miterlimit="10" d="
				M121.539,661.183c0,0,3.118,4.726,7.63,2.781"/>
			
				<path fill="#FFFFFF" stroke="#FFFFFF" stroke-width="2" stroke-linecap="round" stroke-linejoin="round" stroke-miterlimit="10" d="
				M125.198,667.177c0,0-5.902-4.894-11.675-2.558c-5.773,2.34-9.162,2.956-10.779,1.934c-1.624-1.027-0.593-0.376-0.593-0.376
				S112.399,680.738,125.198,667.177z"/>
			
				<path fill="#FFFFFF" stroke="#FFFFFF" stroke-width="2" stroke-linecap="round" stroke-linejoin="round" stroke-miterlimit="10" d="
				M96.161,640.9c-0.831,0.185,5.807,0.474,7.248,6.759c1.44,6.283,8.394,16.406,17.815,13.23c0,0-1.61-3.543-2.336-6.08
				C116.257,645.596,108.531,638.132,96.161,640.9z"/>
			
				<path fill="#FFFFFF" stroke="#FFFFFF" stroke-width="2" stroke-linecap="round" stroke-linejoin="round" stroke-miterlimit="10" d="
				M97.227,605.249c0,0,3.897,1.846,4.181,8.127c0.286,6.285,0.602,14.656,13.22,13.053c0,0-5.736-2.882-5.858-8.805
				C108.649,611.701,104.24,604.023,97.227,605.249z"/>
			
				<path fill="#FFFFFF" stroke="#FFFFFF" stroke-width="2" stroke-linecap="round" stroke-linejoin="round" stroke-miterlimit="10" d="
				M73.314,524.188c0,0,5.798,9.308,11.754,10.96s11.775-1.763,14.696-0.08c0,0-5.53-10.617-13.807-10.793
				C77.681,524.1,77.656,525.376,73.314,524.188z"/>
			
				<path fill="#FFFFFF" stroke="#FFFFFF" stroke-width="2" stroke-linecap="round" stroke-linejoin="round" stroke-miterlimit="10" d="
				M95.815,503.301c0,0,8.491,5.741,9.533,11.052c1.043,5.312,4.887,17.736,14.541,16.857c0,0,0.462-0.351-0.078-6.079
				C118.58,512.047,110.417,498.713,95.815,503.301z"/>
			
				<path fill="#FFFFFF" stroke="#FFFFFF" stroke-width="2" stroke-linecap="round" stroke-linejoin="round" stroke-miterlimit="10" d="
				M125.17,538.474c0,0-2.772-6.227,0.524-12.514c3.298-6.287,4.029-16.004,4.029-16.004S139.199,529.45,125.17,538.474z"/>
			
				<path fill="#FFFFFF" stroke="#FFFFFF" stroke-width="2" stroke-linecap="round" stroke-linejoin="round" stroke-miterlimit="10" d="
				M120.025,580.222c0,0-7.617-1.121-10.148-4.911s-3.183-17.398-10.23-19.028C99.646,556.282,121.896,562.984,120.025,580.222z"/>
			
				<path fill="#FFFFFF" stroke="#FFFFFF" stroke-width="2" stroke-linecap="round" stroke-linejoin="round" stroke-miterlimit="10" d="
				M136.601,571.753c0,0,12.354-15.785,4.629-29.748c0,0,0.005,4.327-3.389,10.442C134.447,558.563,134.99,568.691,136.601,571.753z
				"/>
			
				<path fill="#FFFFFF" stroke="#FFFFFF" stroke-width="2" stroke-linecap="round" stroke-linejoin="round" stroke-miterlimit="10" d="
				M132.676,627.643c0,0-2.302-9.688-0.399-16.755c1.678-6.225,3.44-15.776,2.594-17.345
				C134.869,593.543,149.324,606.501,132.676,627.643z"/>
			
				<path fill="#FFFFFF" stroke="#FFFFFF" stroke-width="2" stroke-linecap="round" stroke-linejoin="round" stroke-miterlimit="10" d="
				M-73.454,524.736c0,0-9.446,17.861-1.924,31.255c0,0,2.961-1.975,3.674-2.912c1.979-2.603,6.473-8.348,2.274-15.724
				S-73.454,524.736-73.454,524.736z"/>
			
				<path fill="#FFFFFF" stroke="#FFFFFF" stroke-width="2" stroke-linecap="round" stroke-linejoin="round" stroke-miterlimit="10" d="
				M-42.663,537.355c0,0-15.745,8.833-14.871,29.907c0,0,6.771-2.003,9.973-6.224C-41.234,552.69-48.087,549.003-42.663,537.355z"/>
			
				<path fill="#FFFFFF" stroke="#FFFFFF" stroke-width="2" stroke-linecap="round" stroke-linejoin="round" stroke-miterlimit="10" d="
				M-94.622,552.309c0,0-1.224,7.371,2.8,9.701c4.023,2.329,11.371,6.793,9.796,17.859
				C-82.026,579.869-102.494,576.773-94.622,552.309z"/>
			
				<path fill="#FFFFFF" stroke="#FFFFFF" stroke-width="2" stroke-linecap="round" stroke-linejoin="round" stroke-miterlimit="10" d="
				M-68.38,608.404c0,0,4.022-2.137,5.772-6.988c1.749-4.854,8.015-11.647,12.492-12.036c0,0-2.181,2.523-2.088,7.184
				C-52.11,601.222-55.959,610.151-68.38,608.404z"/>
			
				<path fill="#FFFFFF" stroke="#FFFFFF" stroke-width="2" stroke-linecap="round" stroke-linejoin="round" stroke-miterlimit="10" d="
				M287.395,610.506c0,0,0.67,5.63,0,9.512s-1.02,11.945,14.725,14.029c0,0-0.174-10.534-5.771-13.059
				C290.748,618.465,289.813,616.718,287.395,610.506z"/>
			<path fill="none" stroke="#FFFFFF" stroke-width="2" stroke-linecap="round" stroke-linejoin="round" stroke-miterlimit="10" d="
				M571.321,520.46c0,0-9.844,9.11-9.385,16.79c0.461,7.676-5.054,12.85-9.385,15.544"/>
			<path fill="none" stroke="#FFFFFF" stroke-width="2" stroke-linecap="round" stroke-linejoin="round" stroke-miterlimit="10" d="
				M558.602,527.505c0,0-0.738,7.99,3.354,11.097"/>
			<path fill="none" stroke="#FFFFFF" stroke-width="2" stroke-linecap="round" stroke-linejoin="round" stroke-miterlimit="10" d="
				M569.969,540.616c0,0-3.158,0.06-5.142,2.438c-1.985,2.384-6.414,6.099-8.714,7"/>
			
				<path fill="#FFFFFF" stroke="#FFFFFF" stroke-width="2" stroke-linecap="round" stroke-linejoin="round" stroke-miterlimit="10" d="
				M558.428,527.926c0,0,5.063-6.039,4.768-11.673c-0.299-5.632,0.086-8.97,1.238-10.608c1.157-1.651,0.424-0.604,0.424-0.604
				S551.6,515.749,558.428,527.926z"/>
			
				<path fill="#FFFFFF" stroke="#FFFFFF" stroke-width="2" stroke-linecap="round" stroke-linejoin="round" stroke-miterlimit="10" d="
				M592.06,495.276c0.067-0.816-1.78,5.771-6.769,7.44c-4.984,1.665-14.16,8.944-14.146,18.164c0,0,3.008-1.736,5.057-2.549
				C583.639,515.373,591.047,507.431,592.06,495.276z"/>
			
				<path fill="#FFFFFF" stroke="#FFFFFF" stroke-width="2" stroke-linecap="round" stroke-linejoin="round" stroke-miterlimit="10" d="
				M591.946,523.305c0,0-4.926,6.411-8.809,6.873c-3.889,0.462-10.078,4.057-13.342,10.858c0,0,4.682-1.336,6.063-0.842
				C577.235,540.681,586.813,540.188,591.946,523.305z"/>
			
				<path fill="#FFFFFF" stroke="#FFFFFF" stroke-width="2" stroke-linecap="round" stroke-linejoin="round" stroke-miterlimit="10" d="
				M336.932,553.241c0,0-15.404,13.199-12.601,25.525c0,0,1.304-3.157,4.729-5.144c5.422-3.143,6.465-4.769,7.174-8.894
				C336.871,561.015,336.059,554.404,336.932,553.241z"/>
			
				<path fill="#FFFFFF" stroke="#FFFFFF" stroke-width="2" stroke-linecap="round" stroke-linejoin="round" stroke-miterlimit="10" d="
				M336.932,586.426c0,0-0.175,4.862-2.098,6.804c-1.925,1.941-5.5,9.512-1.876,15.529
				C332.958,608.759,343.756,602.141,336.932,586.426z"/>
			<path fill="none" stroke="#FFFFFF" stroke-width="2" stroke-linecap="round" stroke-linejoin="round" stroke-miterlimit="10" d="
				M199.187,579.368c0,0-13.419,11.483-9.238,29.924c4.18,18.44,11.238,44.842-0.806,65.029"/>
			<path fill="none" stroke="#FFFFFF" stroke-width="2" stroke-linecap="round" stroke-linejoin="round" stroke-miterlimit="10" d="
				M191.409,631.279c0,0,4.537,4.545,4.374,12.952"/>
			<path fill="none" stroke="#FFFFFF" stroke-width="2" stroke-linecap="round" stroke-linejoin="round" stroke-miterlimit="10" d="
				M187.521,591.758c0,0,1.993,3.361,1.716,5.047"/>
			<path fill="none" stroke="#FFFFFF" stroke-width="2" stroke-linecap="round" stroke-linejoin="round" stroke-miterlimit="10" d="
				M195.098,611.029c0,0-3.908,2.091-2.228,11.348"/>
			
				<path fill="#FFFFFF" stroke="#FFFFFF" stroke-width="2" stroke-linecap="round" stroke-linejoin="round" stroke-miterlimit="10" d="
				M195.1,610.563c0,0-1.319-9.842,4.8-13.745c6.119-3.906,7.694-12.071,7.694-12.071S211.217,608.634,195.1,610.563z"/>
			
				<path fill="#FFFFFF" stroke="#FFFFFF" stroke-width="2" stroke-linecap="round" stroke-linejoin="round" stroke-miterlimit="10" d="
				M199.189,578.901c0,0-5.752-8.967,0.062-15.931c5.818-6.964,4.304-15.769,4.304-15.769S218.021,568.749,199.189,578.901z"/>
			
				<path fill="#FFFFFF" stroke="#FFFFFF" stroke-width="2" stroke-linecap="round" stroke-linejoin="round" stroke-miterlimit="10" d="
				M179.936,567.675c0,0,3.498,4.207,2.45,8.896c-1.05,4.689-0.351,12.453,5.599,14.395
				C187.985,590.966,191.133,575.442,179.936,567.675z"/>
			
				<path fill="#FFFFFF" stroke="#FFFFFF" stroke-width="2" stroke-linecap="round" stroke-linejoin="round" stroke-miterlimit="10" d="
				M174.615,616.785c0,0,10.146,2.433,16.795,14.027C191.409,630.813,178.639,633.868,174.615,616.785z"/>
			<path fill="none" stroke="#FFFFFF" stroke-width="2" stroke-linecap="round" stroke-linejoin="round" stroke-miterlimit="10" d="
				M207.943,560.56c0,0,11.713-14.86,13.525-27.741c1.813-12.88,2.555-23.548,12.357-27.936c9.802-4.385,24.491-11.33,22.423-39.662
				"/>
			<path fill="none" stroke="#FFFFFF" stroke-width="2" stroke-linecap="round" stroke-linejoin="round" stroke-miterlimit="10" d="
				M242.243,514.6c0,0-14.537-0.137-20.344,16.545"/>
			<path fill="none" stroke="#FFFFFF" stroke-width="2" stroke-linecap="round" stroke-linejoin="round" stroke-miterlimit="10" d="
				M269.253,473.56c0,0-4.901,14.378-14.144,8.755"/>
			<path fill="none" stroke="#FFFFFF" stroke-width="2" stroke-linecap="round" stroke-linejoin="round" stroke-miterlimit="10" d="
				M242.81,479.822c0,0,7.947,7.701,0.452,19.988"/>
			<path fill="none" stroke="#FFFFFF" stroke-width="2" stroke-linecap="round" stroke-linejoin="round" stroke-miterlimit="10" d="
				M212.288,508.984c0,0,8.277,11.099,3.516,21.067c-4.758,9.97-5.036,14.526-2.233,22.217"/>
			
				<path fill="#FFFFFF" stroke="#FFFFFF" stroke-width="2" stroke-linecap="round" stroke-linejoin="round" stroke-miterlimit="10" d="
				M242.127,515.047c0,0,4.639,1.124,7.711,2.663s12.173,0.226,18.954-6.953C268.792,510.757,254.316,503.18,242.127,515.047z"/>
			
				<path fill="#FFFFFF" stroke="#FFFFFF" stroke-width="2" stroke-linecap="round" stroke-linejoin="round" stroke-miterlimit="10" d="
				M212.173,509.433c0,0,11.448-1.921,5.897-22.881C218.071,486.552,207.364,494.806,212.173,509.433z"/>
			
				<path fill="#FFFFFF" stroke="#FFFFFF" stroke-width="2" stroke-linecap="round" stroke-linejoin="round" stroke-miterlimit="10" d="
				M269.136,474.006c0,0,14.369,5.167,18.972-14.108C288.108,459.897,274.553,460.077,269.136,474.006z"/>
			
				<path fill="#FFFFFF" stroke="#FFFFFF" stroke-width="2" stroke-linecap="round" stroke-linejoin="round" stroke-miterlimit="10" d="
				M256.134,465.667c0,0,9.651,0.092,10.755-8.44s-1.123-14.771,3.168-22.202C270.055,435.024,253.384,443.041,256.134,465.667z"/>
			
				<path fill="#FFFFFF" stroke="#FFFFFF" stroke-width="2" stroke-linecap="round" stroke-linejoin="round" stroke-miterlimit="10" d="
				M242.694,480.269c0,0,6.779-10.016-4.521-25.668C238.172,454.601,231.8,463.745,242.694,480.269z"/>
			<path fill="none" stroke="#FFFFFF" stroke-width="2" stroke-linecap="round" stroke-linejoin="round" stroke-miterlimit="10" d="
				M553.608,659.645c0,0,8.721,2.891,9.285,14.39"/>
			
				<path fill="#FFFFFF" stroke="#FFFFFF" stroke-width="2" stroke-linecap="round" stroke-linejoin="round" stroke-miterlimit="10" d="
				M532.405,636.485c0,0-0.844,22.559,21.043,22.731C553.448,659.217,553.823,647.744,532.405,636.485z"/>
			<path fill="none" stroke="#FFFFFF" stroke-width="2" stroke-linecap="round" stroke-linejoin="round" stroke-miterlimit="10" d="
				M338.883,421.281c0,0-9.339,5.207-8.044,18.207"/>
			<path fill="none" stroke="#FFFFFF" stroke-width="2" stroke-linecap="round" stroke-linejoin="round" stroke-miterlimit="10" d="
				M339.698,424.831c0,0-7.892,8.606-10.608,19.899s-1.984,20.151,2.069,32.064c4.05,11.912,19.294,47.576,1.637,82.524"/>
			<path fill="none" stroke="#FFFFFF" stroke-width="2" stroke-linecap="round" stroke-linejoin="round" stroke-miterlimit="10" d="
				M318.24,464.338c0,0,4.297,13.998,15.303,19.212"/>
			<path fill="none" stroke="#FFFFFF" stroke-width="2" stroke-linecap="round" stroke-linejoin="round" stroke-miterlimit="10" d="
				M331.547,525.515c0,0,3.57,4.199,3.303,9.341c-0.268,5.136-2.125,12.912,0.86,17.961"/>
			<path fill="none" stroke="#FFFFFF" stroke-width="2" stroke-linecap="round" stroke-linejoin="round" stroke-miterlimit="10" d="
				M343.278,485.507c0,0-7.918,1.337-5.86,10.648"/>
			<path fill="none" stroke="#FFFFFF" stroke-width="2" stroke-linecap="round" stroke-linejoin="round" stroke-miterlimit="10" d="
				M333.373,450.88c0,0-5.568,8.988-4.124,18.993"/>
			
				<path fill="#FFFFFF" stroke="#FFFFFF" stroke-width="2" stroke-linecap="round" stroke-linejoin="round" stroke-miterlimit="10" d="
				M320.77,495.578c0,0-6.945,22.512,10.746,30.4C331.516,525.979,338.161,514.334,320.77,495.578z"/>
			
				<path fill="#FFFFFF" stroke="#FFFFFF" stroke-width="2" stroke-linecap="round" stroke-linejoin="round" stroke-miterlimit="10" d="
				M306.135,438.014c0,0-8.176,21.271,12.075,26.79c0,0,2.042-10.565-4.522-16.607C307.121,442.156,307.639,441.021,306.135,438.014
				z"/>
			
				<path fill="#FFFFFF" stroke="#FFFFFF" stroke-width="2" stroke-linecap="round" stroke-linejoin="round" stroke-miterlimit="10" d="
				M333.342,451.346c-0.32,0.496,4.568-16.243,15.749-15.558c11.181,0.687,11.669-2.394,11.669-2.394s-2.601,11.309-7.753,12.937
				C347.856,447.96,336.352,446.67,333.342,451.346z"/>
			
				<path fill="#FFFFFF" stroke="#FFFFFF" stroke-width="2" stroke-linecap="round" stroke-linejoin="round" stroke-miterlimit="10" d="
				M342.321,486.11c0,0,1.234-16.06,23.769-22.646c0,0-1.231,7.253-3.673,11.826C358.596,482.443,351.087,485.87,342.321,486.11z"/>
			
				<path fill="#FFFFFF" stroke="#FFFFFF" stroke-width="2" stroke-linecap="round" stroke-linejoin="round" stroke-miterlimit="10" d="
				M338.852,421.746c0,0,0.299-6.785-1.984-10.618c-2.284-3.834-5.883-13.58,5.293-24.752c0,0-0.195,4.455,2.091,8.194
				C346.54,398.311,350.407,413.902,338.852,421.746z"/>
			
				<path fill="#FFFFFF" stroke="#FFFFFF" stroke-width="2" stroke-linecap="round" stroke-linejoin="round" stroke-miterlimit="10" d="
				M339.667,425.296c0,0,1.856-14.788,15.638-15.175c0,0-3.265,2.521-3.752,5.602C351.067,418.802,347.338,424.405,339.667,425.296z
				"/>
			<path fill="none" stroke="#FFFFFF" stroke-width="2" stroke-linecap="round" stroke-linejoin="round" stroke-miterlimit="10" d="
				M-216.818,523.53c0,0,10.127-29.637-3.521-36.906c-8.65-4.609-17.678-2.956-19.239-13.869
				c-1.089-7.624,0.753-14.251,0.753-14.251"/>
			<path fill="none" stroke="#FFFFFF" stroke-width="2" stroke-linecap="round" stroke-linejoin="round" stroke-miterlimit="10" d="
				M-213.751,510.227c0,0-4.295-17.627-17.543-13.668"/>
			<path fill="none" stroke="#FFFFFF" stroke-width="2" stroke-linecap="round" stroke-linejoin="round" stroke-miterlimit="10" d="
				M-247.735,477.192c0,0,1.502,5.668,4.758,7.029c3.255,1.365,11.654-2.563,14.353-0.753"/>
			
				<path fill="#FFFFFF" stroke="#FFFFFF" stroke-width="2" stroke-linecap="round" stroke-linejoin="round" stroke-miterlimit="10" d="
				M-238.579,458.873c0,0,1.419-16.293-16.958-22.1c0,0,3.271,3.445,3.638,8.783C-251.532,450.897-245.985,457.449-238.579,458.873z
				"/>
			
				<path fill="#FFFFFF" stroke="#FFFFFF" stroke-width="2" stroke-linecap="round" stroke-linejoin="round" stroke-miterlimit="10" d="
				M-247.486,477.56c0.682,0.08-2.56-17.899-23.189-13.245C-270.676,464.314-260.508,476.054-247.486,477.56z"/>
			
				<path fill="#FFFFFF" stroke="#FFFFFF" stroke-width="2" stroke-linecap="round" stroke-linejoin="round" stroke-miterlimit="10" d="
				M-231.046,496.927c0,0-6.584-8.085-11.955-5.186c-5.372,2.899-8.696,3.572-12.262,2.242
				C-255.262,493.983-244.17,507.844-231.046,496.927z"/>
			<path fill="none" stroke="#FFFFFF" stroke-width="2" stroke-linecap="round" stroke-linejoin="round" stroke-miterlimit="10" d="
				M218.434,503.151c0,0,17.073-24.172,6.036-34.252c-6.995-6.389-15.935-7.218-14.64-17.479c0.906-7.17,4.324-12.683,4.324-12.683"
				/>
			<path fill="none" stroke="#FFFFFF" stroke-width="2" stroke-linecap="round" stroke-linejoin="round" stroke-miterlimit="10" d="
				M224.703,491.922c0,0,0.417-17.033-13.092-16.864"/>
			<path fill="none" stroke="#FFFFFF" stroke-width="2" stroke-linecap="round" stroke-linejoin="round" stroke-miterlimit="10" d="
				M201.007,453.332c0,0-0.021,5.506,2.707,7.573c2.729,2.069,11.651,0.682,13.736,3.014"/>
			
				<path fill="#FFFFFF" stroke="#FFFFFF" stroke-width="2" stroke-linecap="round" stroke-linejoin="round" stroke-miterlimit="10" d="
				M214.309,439.17c0,0,5.473-14.355-10.4-24.329c0,0,2.213,3.954,1.204,8.873C204.105,428.632,207.677,435.979,214.309,439.17z"/>
			
				<path fill="#FFFFFF" stroke="#FFFFFF" stroke-width="2" stroke-linecap="round" stroke-linejoin="round" stroke-miterlimit="10" d="
				M201.16,453.764c0.623,0.246,2.125-16.832-18.527-17.934C182.633,435.83,189.252,449.053,201.16,453.764z"/>
			
				<path fill="#FFFFFF" stroke="#FFFFFF" stroke-width="2" stroke-linecap="round" stroke-linejoin="round" stroke-miterlimit="10" d="
				M211.765,475.489c0,0-4.163-8.998-9.968-7.759c-5.806,1.237-9.113,0.988-12.141-1.128
				C189.656,466.604,196.61,481.979,211.765,475.489z"/>
			<path fill="none" stroke="#FFFFFF" stroke-width="2" stroke-linecap="round" stroke-linejoin="round" stroke-miterlimit="10" d="
				M243.223,636.944c0,0-1.49,14.463,5.641,19.508c7.131,5.049,6.354,13.201,4.556,18.637"/>
			<path fill="none" stroke="#FFFFFF" stroke-width="2" stroke-linecap="round" stroke-linejoin="round" stroke-miterlimit="10" d="
				M237.176,652.286c0,0,6.255,6.247,12.888,5.11"/>
			<path fill="none" stroke="#FFFFFF" stroke-width="2" stroke-linecap="round" stroke-linejoin="round" stroke-miterlimit="10" d="
				M259.492,652.286c0,0-2.974,2.614-2.799,5.914c0.177,3.301-0.831,9.535-2.251,12.047"/>
			
				<path fill="#FFFFFF" stroke="#FFFFFF" stroke-width="2" stroke-linecap="round" stroke-linejoin="round" stroke-miterlimit="10" d="
				M237.177,651.819c0,0-0.41-8.39-5.603-12.13c-5.194-3.735-7.735-6.405-8.062-8.505c-0.329-2.107-0.118-0.77-0.118-0.77
				S220.026,648.787,237.177,651.819z"/>
			
				<path fill="#FFFFFF" stroke="#FFFFFF" stroke-width="2" stroke-linecap="round" stroke-linejoin="round" stroke-miterlimit="10" d="
				M240.95,601.343c-0.646-0.635,3.323,5.532,0,10.773c-3.325,5.24-5.774,17.858,2.273,24.361c0,0,1.372-3.676,2.624-5.92
				C250.396,622.403,250.572,610.757,240.95,601.343z"/>
			
				<path fill="#FFFFFF" stroke="#FFFFFF" stroke-width="2" stroke-linecap="round" stroke-linejoin="round" stroke-miterlimit="10" d="
				M265.266,621.239c0,0,0.869,8.541-2.453,12.035c-3.32,3.494-6.119,11.078-3.32,18.545c0,0,3.324-4.763,5.074-5.537
				C266.317,645.504,275.063,637.352,265.266,621.239z"/>
			
				<path fill="#FFFFFF" stroke="#FFFFFF" stroke-width="2" stroke-linecap="round" stroke-linejoin="round" stroke-miterlimit="10" d="
				M452.709,614.1c0,0,0.803-0.404,5.243-0.288c4.442,0.11,13.974-3.51,13.608-19.529c0,0-4.389,3.679-9.596,6.142
				C456.766,602.886,454.223,608.73,452.709,614.1z"/>
			
				<path fill="#FFFFFF" stroke="#FFFFFF" stroke-width="2" stroke-linecap="round" stroke-linejoin="round" stroke-miterlimit="10" d="
				M447.842,593.98c0,0,3.809-3.647,6.816-6.908c1.838-1.989,7.641-9.354,5.941-17.285c-1.697-7.93-2.016-12.378-2.016-12.378
				s-6.164,8.358-8.796,12.172C447.158,573.392,444.997,582.449,447.842,593.98z"/>
			<path fill="#FFFFFF" d="M439.294,596.059c-9.548-1.996-14.944-12.93-15.258-20.021c-0.228-5.146-0.46-10.289-0.46-10.289
				c1.951,4.477,9.447,7.619,13.119,14.064c3.679,6.442,2.947,16.229,2.947,16.229"/>
			<path fill="none" stroke="#FFFFFF" stroke-width="2" stroke-linecap="round" stroke-linejoin="round" stroke-miterlimit="10" d="
				M439.294,596.059c-9.548-1.996-14.944-12.93-15.258-20.021c-0.228-5.146-0.46-10.289-0.46-10.289
				c1.951,4.477,9.447,7.619,13.119,14.064c3.679,6.442,2.947,16.229,2.947,16.229"/>
			
				<path fill="#FFFFFF" stroke="#FFFFFF" stroke-width="2" stroke-linecap="round" stroke-linejoin="round" stroke-miterlimit="10" d="
				M432.905,643.852c0,0-1.706-4.262-3.229-9.563c-1.522-5.303-4.352-8.581-6.509-9.839c-2.159-1.259-6.107-3.333-6.629-4.565
				c0,0,0.9,7.058,2.072,10.57C420.057,634.783,424.456,642.941,432.905,643.852z"/>
			<path fill="none" stroke="#FFFFFF" stroke-width="2" stroke-linecap="round" stroke-linejoin="round" stroke-miterlimit="10" d="
				M-240.393,671.026c0,0-16.938-26.792-2.22-52.69c14.72-25.9,37.88-61.343,33.098-79.385"/>
			<path fill="none" stroke="#FFFFFF" stroke-width="2" stroke-linecap="round" stroke-linejoin="round" stroke-miterlimit="10" d="
				M-224.798,584.102c0,0,6.304-19.357-12.707-27.167"/>
			<path fill="none" stroke="#FFFFFF" stroke-width="2" stroke-linecap="round" stroke-linejoin="round" stroke-miterlimit="10" d="
				M-246.587,627.547c0,0-3.999-4.688-4.469-12.061c-0.47-7.371-0.17-17.149-2.054-18.836"/>
			<path fill="none" stroke="#FFFFFF" stroke-width="2" stroke-linecap="round" stroke-linejoin="round" stroke-miterlimit="10" d="
				M-193.546,587.348c0,0-14.1-3.261-24.144,5.24c-10.045,8.5-9.657,14.505-19.56,16.464"/>
			<path fill="none" stroke="#FFFFFF" stroke-width="2" stroke-linecap="round" stroke-linejoin="round" stroke-miterlimit="10" d="
				M-203.595,572.412c0,0-7.296,6.68-10.434,16.707"/>
			<path fill="none" stroke="#FFFFFF" stroke-width="2" stroke-linecap="round" stroke-linejoin="round" stroke-miterlimit="10" d="
				M-236.498,639.309c0,0-8.793,2.326-6.828,25.991"/>
			
				<path fill="#FFFFFF" stroke="#FFFFFF" stroke-width="2" stroke-linecap="round" stroke-linejoin="round" stroke-miterlimit="10" d="
				M-211.044,539.299c0,0,4.283-7.617,4.701-11.627c0.418-4.009-0.62-9.55-5.125-15.199c-3.065-3.844-3.691-6.192-3.691-6.192
				s-2.345,10.155-3.091,13.917C-220.022,529.113-214.496,535.803-211.044,539.299z"/>
			
				<path fill="#FFFFFF" stroke="#FFFFFF" stroke-width="2" stroke-linecap="round" stroke-linejoin="round" stroke-miterlimit="10" d="
				M-235.659,557.441c0,0,5.15-12.273-1.509-17.415c-6.661-5.142-10.657-13.508-10.959-13.991c0,0,0.828,7.192-0.167,11.699
				C-249.287,542.243-246.795,550.511-235.659,557.441z"/>
			
				<path fill="#FFFFFF" stroke="#FFFFFF" stroke-width="2" stroke-linecap="round" stroke-linejoin="round" stroke-miterlimit="10" d="
				M-252.951,597.081c0,0,7.654-11.194-8.925-24.083C-261.876,572.998-264.623,587.669-252.951,597.081z"/>
			
				<path fill="#FFFFFF" stroke="#FFFFFF" stroke-width="2" stroke-linecap="round" stroke-linejoin="round" stroke-miterlimit="10" d="
				M-207.204,614.705c0.711-0.135-5.835,4.801-8.229,11.692c-2.396,6.894-11.565,13.771-20.905,13.339
				C-236.339,639.736-238.862,620.712-207.204,614.705z"/>
			
				<path fill="#FFFFFF" stroke="#FFFFFF" stroke-width="2" stroke-linecap="round" stroke-linejoin="round" stroke-miterlimit="10" d="
				M-195.074,587.696c0,0,10.188-13.087,25.532-8.667C-169.542,579.029-183.55,591.057-195.074,587.696z"/>
			
				<path fill="#FFFFFF" stroke="#FFFFFF" stroke-width="2" stroke-linecap="round" stroke-linejoin="round" stroke-miterlimit="10" d="
				M-176.317,545.853c0,0-5.742,7.26-6.841,10.306c-2.347,6.509-6.927,14.696-20.278,16.682
				C-203.436,572.84-201.053,549.477-176.317,545.853z"/>
			<path fill="none" stroke="#FFFFFF" stroke-width="2" stroke-linecap="round" stroke-linejoin="round" stroke-miterlimit="10" d="
				M374.471,618.018c0,0,2.211,6.937-0.283,15.949c-2.496,9.011-24.883,27.835-11.242,38.093"/>
			<path fill="none" stroke="#FFFFFF" stroke-width="2" stroke-linecap="round" stroke-linejoin="round" stroke-miterlimit="10" d="
				M383.608,610.367c0,0-6.135,6.212-4.944,15.787c1.192,9.575-2.647,13.397-11.688,19.639"/>
			<path fill="none" stroke="#FFFFFF" stroke-width="2" stroke-linecap="round" stroke-linejoin="round" stroke-miterlimit="10" d="
				M361.932,633.968c-0.27,0.985,0.344,8.698-4.861,17.914c-5.205,9.213,3.337,17.625,3.337,17.625"/>
			
				<path fill="#FFFFFF" stroke="#FFFFFF" stroke-width="2" stroke-linecap="round" stroke-linejoin="round" stroke-miterlimit="10" d="
				M382.823,610.063c0,0,0.802-0.404,5.243-0.289c4.44,0.11,13.973-3.51,13.608-19.529c0,0-4.39,3.68-9.596,6.142
				C386.879,598.85,384.335,604.694,382.823,610.063z"/>
			
				<path fill="#FFFFFF" stroke="#FFFFFF" stroke-width="2" stroke-linecap="round" stroke-linejoin="round" stroke-miterlimit="10" d="
				M375.141,619.211c0,0,6.473-5.141,8.178-8.66c1.711-3.517,2.574-9.098,0.272-16.314c-1.565-4.907-1.372-7.353-1.372-7.353
				s-5.512,8.344-7.443,11.487C370.199,605.829,373.106,614.455,375.141,619.211z"/>
			
				<path fill="#FFFFFF" stroke="#FFFFFF" stroke-width="2" stroke-linecap="round" stroke-linejoin="round" stroke-miterlimit="10" d="
				M362.02,635.096c0,0-11.142-11.696-6.315-28.7C355.704,606.396,365.677,622.327,362.02,635.096z"/>
			<path fill="none" stroke="#FFFFFF" stroke-width="2" stroke-linecap="round" stroke-linejoin="round" stroke-miterlimit="10" d="
				M454.733,571.69c0,0-24.637-16.994-19.834-47.496c4.805-30.498,14.153-73.6,3.658-88.045"/>
			<path fill="none" stroke="#FFFFFF" stroke-width="2" stroke-linecap="round" stroke-linejoin="round" stroke-miterlimit="10" d="
				M441.317,483.933c0,0-0.733-20.671-20.868-19.255"/>
			<path fill="none" stroke="#FFFFFF" stroke-width="2" stroke-linecap="round" stroke-linejoin="round" stroke-miterlimit="10" d="
				M434.352,534.473c0,0-5.264-2.506-8.186-9.077c-2.921-6.574-5.945-15.708-8.248-16.409"/>
			<path fill="none" stroke="#FFFFFF" stroke-width="2" stroke-linecap="round" stroke-linejoin="round" stroke-miterlimit="10" d="
				M469.6,473.471c0,0-14.076,3.376-20.451,15.745c-6.377,12.37-3.992,17.721-12.446,24.009"/>
			<path fill="none" stroke="#FFFFFF" stroke-width="2" stroke-linecap="round" stroke-linejoin="round" stroke-miterlimit="10" d="
				M456.887,463.58c0,0-4.46,9.448-3.962,20.098"/>
			<path fill="none" stroke="#FFFFFF" stroke-width="2" stroke-linecap="round" stroke-linejoin="round" stroke-miterlimit="10" d="
				M447.612,540.731c0,0-7.311,6.12,2.49,27.014"/>
			
				<path fill="#FFFFFF" stroke="#FFFFFF" stroke-width="2" stroke-linecap="round" stroke-linejoin="round" stroke-miterlimit="10" d="
				M438.848,436.473c0,0,1.371-8.949,0.403-12.83c-0.97-3.88-3.797-8.51-9.853-11.67c-4.119-2.153-5.485-4.03-5.485-4.03
				s1.271,10.407,1.853,14.207C427.147,431.163,434.492,434.817,438.848,436.473z"/>
			
				<path fill="#FFFFFF" stroke="#FFFFFF" stroke-width="2" stroke-linecap="round" stroke-linejoin="round" stroke-miterlimit="10" d="
				M420.739,465.002c0,0,0.597-13.628-7.268-15.35c-7.869-1.717-14.371-7.608-14.813-7.916c0,0,3.192,6.244,3.799,10.843
				C403.063,457.179,408.149,463.66,420.739,465.002z"/>
			
				<path fill="#FFFFFF" stroke="#FFFFFF" stroke-width="2" stroke-linecap="round" stroke-linejoin="round" stroke-miterlimit="10" d="
				M418.209,509.31c0,0,3.266-13.767-16.348-18.128C401.862,491.181,404.285,505.931,418.209,509.31z"/>
			
				<path fill="#FFFFFF" stroke="#FFFFFF" stroke-width="2" stroke-linecap="round" stroke-linejoin="round" stroke-miterlimit="10" d="
				M466.266,504.832c0.606-0.444-3.75,7.058-3.627,14.485c0.121,7.429-5.996,17.909-14.738,21.737
				C447.901,541.055,439.153,524.686,466.266,504.832z"/>
			
				<path fill="#FFFFFF" stroke="#FFFFFF" stroke-width="2" stroke-linecap="round" stroke-linejoin="round" stroke-miterlimit="10" d="
				M469.889,473.795c0,0,4.961-16.656,20.576-19.532C490.465,454.264,481.632,471.673,469.889,473.795z"/>
			
				<path fill="#FFFFFF" stroke="#FFFFFF" stroke-width="2" stroke-linecap="round" stroke-linejoin="round" stroke-miterlimit="10" d="
				M473.026,426.792c0,0-2.834,9.279-2.817,12.579c0.039,7.056-1.412,16.666-13.031,24.532
				C457.177,463.903,451.483,441.321,473.026,426.792z"/>
		</g>
	</g>
</g>
</svg>
