<svg width="101" height="74" viewBox="0 0 101 74" fill="none" xmlns="http://www.w3.org/2000/svg">
<path d="M13.8803 1.26831C14.8524 1.26831 16.7456 2.21705 19.5597 4.11452C22.425 5.96571 23.8576 7.35411 23.8576 8.2797C23.8576 9.8995 24.4461 12.5606 25.6229 16.263C26.7997 19.9654 28.1556 23.3206 29.6906 26.3288C31.2255 24.709 33.8094 21.724 37.4422 17.3737C41.1262 12.9771 44.2217 9.50612 46.7288 6.96073C49.236 4.41534 51.1035 3.14264 52.3315 3.14264C53.5595 3.14264 54.8386 3.76742 56.1689 5.01698C57.4993 6.26653 58.1644 7.51609 58.1644 8.76564C58.1644 10.0152 57.9582 11.635 57.5488 13.625C57.1395 15.5688 56.6774 17.3968 56.1689 19.1092C55.7069 20.7753 55.0161 23.0661 54.0951 25.9817C53.2269 28.8974 52.5346 31.2114 52.0245 32.9237C51.5624 34.5898 51.0763 36.3947 50.5647 38.3385C50.053 40.2359 49.6437 41.74 49.3367 42.8507C49.0809 43.9152 48.7739 45.049 48.4157 46.2523C48.1087 47.4107 47.8273 48.3118 47.5715 48.9597C47.3156 49.5613 47.0342 50.1167 46.7272 50.6257C46.1644 51.5976 45.3713 52.0836 44.348 52.0836C43.3247 52.0836 42.3014 51.1811 41.2781 49.3762C40.3059 47.5264 39.8198 45.6058 39.8198 43.6143C39.8198 38.7087 41.3804 32.2064 44.5015 24.1089C43.6317 25.127 42.3781 26.6311 40.7408 28.6211C39.1035 30.5649 37.8755 31.9996 37.0569 32.9252C36.2894 33.8045 35.3172 34.8458 34.1404 36.049C32.0426 38.1316 29.996 39.1729 28.0005 39.1729C25.3399 39.1729 23.4467 38.2242 22.3211 36.3267C21.7582 35.3548 20.9908 33.1797 20.0186 29.8013C19.0976 26.3766 18.4325 24.0163 18.0231 22.7205C17.358 27.4873 16.4626 31.8144 15.3369 35.702C14.2113 39.5895 13.4694 42.1348 13.1112 43.3381C12.753 44.5414 12.267 45.9992 11.653 47.7101C10.6296 50.6272 9.70866 52.0836 8.89 52.0836C7.96902 52.0836 6.68987 50.996 5.05256 48.8208C3.46641 46.5994 2.67334 44.8639 2.67334 43.6129C2.67334 42.3648 4.15715 36.1156 7.12478 24.871C10.1452 13.625 11.6546 6.52107 11.6546 3.55916C11.6546 2.03193 12.3965 1.26831 13.8803 1.26831Z" fill="white"/>
<path d="M61.6758 72.3123C60.5789 72.3123 59.0375 71.2015 57.0533 68.9816C55.0674 66.7138 54.0776 64.9885 54.0776 63.8069C54.0776 62.579 54.8579 58.9171 56.4265 52.8241C55.1745 51.6888 54.5461 50.2715 54.5461 48.5721C54.5461 47.6278 55.7981 46.6805 58.3068 45.7375C61.599 33.6426 63.2443 25.989 63.2443 22.7769C63.2443 21.2179 64.0006 20.4384 65.5148 20.4384C66.77 20.4384 68.3881 21.5722 70.374 23.8399C72.4094 26.1076 73.428 28.2336 73.428 30.2179C73.428 31.4934 72.4878 35.7454 70.6074 42.9737C75.0989 42.2651 79.5647 41.8399 84.0033 41.6982C86.5105 32.2021 87.764 25.895 87.764 22.7769C87.764 21.2179 88.5235 20.4384 90.0377 20.4384C91.2897 20.4384 92.911 21.5722 94.8937 23.8399C96.9323 26.1076 97.9508 28.2336 97.9508 30.2179C97.9508 31.21 96.9323 35.2739 94.8937 42.4068C97.5079 42.9737 98.8127 43.895 98.8127 45.1706C98.8127 46.6371 96.8796 47.7926 93.0133 48.643C91.133 55.1627 89.9066 59.4855 89.331 61.6115C88.757 63.6912 88.3125 65.2734 88.0007 66.3595C87.7384 67.3994 87.4506 68.4146 87.1388 69.4053C86.5648 71.3433 86.0148 72.3123 85.4935 72.3123C84.2384 72.3123 82.7242 71.4141 80.951 69.6194C79.2273 67.8246 78.3655 66.0298 78.3655 64.2335C78.3655 63.1937 79.4623 58.5874 81.6529 50.4147C75.6489 51.3113 71.0264 52.1371 67.7885 52.895C66.1672 58.5165 65.0991 62.4373 64.5747 64.6573C64.0534 66.8324 63.6345 68.4146 63.3227 69.4053C62.7471 71.3433 62.197 72.3123 61.6758 72.3123Z" fill="white"/>
</svg>
